<?xml version="1.0" standalone="no"?>
<!DOCTYPE svg PUBLIC "-//W3C//DTD SVG 1.1//EN"
"http://www.w3.org/Graphics/SVG/1.1/DTD/svg11.dtd">
<svg width="230.74" height="124.913" viewBox="0 0 4807.09 2602.36" version="1.1"
xmlns="http://www.w3.org/2000/svg"
xmlns:xlink="http://www.w3.org/1999/xlink">
<polyline points="2041.02,1427.18 2041.02,1427.19 2041.02,1427.18" style="stroke:rgb(255,0,0);stroke-width:21.259843;fill:none;stroke-opacity:0.5;stroke-linecap:round;stroke-linejoin:round;;fill:none"/>
<polyline points="2041.02,1427.18 2041.02,1427.19 2041.02,1427.18" style="stroke:rgb(0,0,0);stroke-width:1px;fill:none;stroke-opacity:1;stroke-linecap:round;stroke-linejoin:round;;fill:none"/>
<polyline points="2491.81,1273.61 2491.81,1273.58 2491.81,1273.61" style="stroke:rgb(255,0,0);stroke-width:21.259843;fill:none;stroke-opacity:0.5;stroke-linecap:round;stroke-linejoin:round;;fill:none"/>
<polyline points="2491.81,1273.61 2491.81,1273.58 2491.81,1273.61" style="stroke:rgb(0,0,0);stroke-width:1px;fill:none;stroke-opacity:1;stroke-linecap:round;stroke-linejoin:round;;fill:none"/>
<polyline points="2491.81,1222.44 2491.81,1222.47 2491.81,1222.44" style="stroke:rgb(255,0,0);stroke-width:21.259843;fill:none;stroke-opacity:0.5;stroke-linecap:round;stroke-linejoin:round;;fill:none"/>
<polyline points="2491.81,1222.44 2491.81,1222.47 2491.81,1222.44" style="stroke:rgb(0,0,0);stroke-width:1px;fill:none;stroke-opacity:1;stroke-linecap:round;stroke-linejoin:round;;fill:none"/>
<polyline points="2041.02,1427.18 2041.02,1427.19 2041.02,1427.18" style="stroke:rgb(255,0,0);stroke-width:21.259843;fill:none;stroke-opacity:0.5;stroke-linecap:round;stroke-linejoin:round;;fill:none"/>
<polyline points="2041.02,1427.18 2041.02,1427.19 2041.02,1427.18" style="stroke:rgb(0,0,0);stroke-width:1px;fill:none;stroke-opacity:1;stroke-linecap:round;stroke-linejoin:round;;fill:none"/>
<polyline points="2491.81,1273.61 2491.81,1273.58 2491.81,1273.61" style="stroke:rgb(255,0,0);stroke-width:21.259843;fill:none;stroke-opacity:0.5;stroke-linecap:round;stroke-linejoin:round;;fill:none"/>
<polyline points="2491.81,1273.61 2491.81,1273.58 2491.81,1273.61" style="stroke:rgb(0,0,0);stroke-width:1px;fill:none;stroke-opacity:1;stroke-linecap:round;stroke-linejoin:round;;fill:none"/>
<polyline points="2491.81,1222.44 2491.81,1222.46 2491.81,1222.44" style="stroke:rgb(255,0,0);stroke-width:21.259843;fill:none;stroke-opacity:0.5;stroke-linecap:round;stroke-linejoin:round;;fill:none"/>
<polyline points="2491.81,1222.44 2491.81,1222.46 2491.81,1222.44" style="stroke:rgb(0,0,0);stroke-width:1px;fill:none;stroke-opacity:1;stroke-linecap:round;stroke-linejoin:round;;fill:none"/>
<polyline points="2142.39,1427.18 2142.39,1427.2 2142.39,1427.18" style="stroke:rgb(255,0,0);stroke-width:21.259843;fill:none;stroke-opacity:0.5;stroke-linecap:round;stroke-linejoin:round;;fill:none"/>
<polyline points="2142.39,1427.18 2142.39,1427.2 2142.39,1427.18" style="stroke:rgb(0,0,0);stroke-width:1px;fill:none;stroke-opacity:1;stroke-linecap:round;stroke-linejoin:round;;fill:none"/>
<polyline points="2041.02,1427.18 2041.02,1427.19 2041.02,1427.18" style="stroke:rgb(255,0,0);stroke-width:21.259843;fill:none;stroke-opacity:0.5;stroke-linecap:round;stroke-linejoin:round;;fill:none"/>
<polyline points="2041.02,1427.18 2041.02,1427.19 2041.02,1427.18" style="stroke:rgb(0,0,0);stroke-width:1px;fill:none;stroke-opacity:1;stroke-linecap:round;stroke-linejoin:round;;fill:none"/>
<polyline points="2491.81,1273.61 2491.81,1273.59 2491.81,1273.61" style="stroke:rgb(255,0,0);stroke-width:21.259843;fill:none;stroke-opacity:0.5;stroke-linecap:round;stroke-linejoin:round;;fill:none"/>
<polyline points="2491.81,1273.61 2491.81,1273.59 2491.81,1273.61" style="stroke:rgb(0,0,0);stroke-width:1px;fill:none;stroke-opacity:1;stroke-linecap:round;stroke-linejoin:round;;fill:none"/>
<polyline points="2491.81,1222.44 2491.81,1222.46 2491.81,1222.44" style="stroke:rgb(255,0,0);stroke-width:21.259843;fill:none;stroke-opacity:0.5;stroke-linecap:round;stroke-linejoin:round;;fill:none"/>
<polyline points="2491.81,1222.44 2491.81,1222.46 2491.81,1222.44" style="stroke:rgb(0,0,0);stroke-width:1px;fill:none;stroke-opacity:1;stroke-linecap:round;stroke-linejoin:round;;fill:none"/>
<polyline points="2141.42,1427.18 2141.42,1427.22 2141.42,1427.18" style="stroke:rgb(255,0,0);stroke-width:21.259843;fill:none;stroke-opacity:0.5;stroke-linecap:round;stroke-linejoin:round;;fill:none"/>
<polyline points="2141.42,1427.18 2141.42,1427.22 2141.42,1427.18" style="stroke:rgb(0,0,0);stroke-width:1px;fill:none;stroke-opacity:1;stroke-linecap:round;stroke-linejoin:round;;fill:none"/>
<polyline points="2041.02,1427.18 2041.02,1427.18 2041.02,1427.18" style="stroke:rgb(255,0,0);stroke-width:21.259843;fill:none;stroke-opacity:0.5;stroke-linecap:round;stroke-linejoin:round;;fill:none"/>
<polyline points="2041.02,1427.18 2041.02,1427.18 2041.02,1427.18" style="stroke:rgb(0,0,0);stroke-width:1px;fill:none;stroke-opacity:1;stroke-linecap:round;stroke-linejoin:round;;fill:none"/>
<polyline points="2558.9,1222.44 2491.81,1222.45 2491.69,1222.44" style="stroke:rgb(255,0,0);stroke-width:21.259843;fill:none;stroke-opacity:0.5;stroke-linecap:round;stroke-linejoin:round;;fill:none"/>
<polyline points="2558.9,1222.44 2491.81,1222.45 2491.69,1222.44" style="stroke:rgb(0,0,0);stroke-width:1px;fill:none;stroke-opacity:1;stroke-linecap:round;stroke-linejoin:round;;fill:none"/>
<polyline points="2141.42,1427.18 2141.42,1427.19 2141.42,1427.18" style="stroke:rgb(255,0,0);stroke-width:21.259843;fill:none;stroke-opacity:0.5;stroke-linecap:round;stroke-linejoin:round;;fill:none"/>
<polyline points="2141.42,1427.18 2141.42,1427.19 2141.42,1427.18" style="stroke:rgb(0,0,0);stroke-width:1px;fill:none;stroke-opacity:1;stroke-linecap:round;stroke-linejoin:round;;fill:none"/>
<polyline points="2141.42,1427.18 2141.42,1427.18 2141.42,1427.18" style="stroke:rgb(255,0,0);stroke-width:21.259843;fill:none;stroke-opacity:0.5;stroke-linecap:round;stroke-linejoin:round;;fill:none"/>
<polyline points="2141.42,1427.18 2141.42,1427.18 2141.42,1427.18" style="stroke:rgb(0,0,0);stroke-width:1px;fill:none;stroke-opacity:1;stroke-linecap:round;stroke-linejoin:round;;fill:none"/>
<polyline points="2490.83,1273.61 2490.83,1273.56 2490.83,1273.61" style="stroke:rgb(255,0,0);stroke-width:21.259843;fill:none;stroke-opacity:0.5;stroke-linecap:round;stroke-linejoin:round;;fill:none"/>
<polyline points="2490.83,1273.61 2490.83,1273.56 2490.83,1273.61" style="stroke:rgb(0,0,0);stroke-width:1px;fill:none;stroke-opacity:1;stroke-linecap:round;stroke-linejoin:round;;fill:none"/>
<polyline points="2490.85,1222.44 2490.84,1222.49 2490.85,1222.44" style="stroke:rgb(255,0,0);stroke-width:21.259843;fill:none;stroke-opacity:0.5;stroke-linecap:round;stroke-linejoin:round;;fill:none"/>
<polyline points="2490.85,1222.44 2490.84,1222.49 2490.85,1222.44" style="stroke:rgb(0,0,0);stroke-width:1px;fill:none;stroke-opacity:1;stroke-linecap:round;stroke-linejoin:round;;fill:none"/>
<polyline points="2040.05,1324.79 2040.04,1324.78 2040.05,1324.79" style="stroke:rgb(255,0,0);stroke-width:21.259843;fill:none;stroke-opacity:0.5;stroke-linecap:round;stroke-linejoin:round;;fill:none"/>
<polyline points="2040.05,1324.79 2040.04,1324.78 2040.05,1324.79" style="stroke:rgb(0,0,0);stroke-width:1px;fill:none;stroke-opacity:1;stroke-linecap:round;stroke-linejoin:round;;fill:none"/>
<polyline points="1547.07,1171.27 1547.07,1171.3 1547.07,1171.27" style="stroke:rgb(255,0,0);stroke-width:21.259843;fill:none;stroke-opacity:0.5;stroke-linecap:round;stroke-linejoin:round;;fill:none"/>
<polyline points="1547.07,1171.27 1547.07,1171.3 1547.07,1171.27" style="stroke:rgb(0,0,0);stroke-width:1px;fill:none;stroke-opacity:1;stroke-linecap:round;stroke-linejoin:round;;fill:none"/>
<polyline points="1547.07,1171.27 1547.07,1171.3 1547.07,1171.27" style="stroke:rgb(255,0,0);stroke-width:21.259843;fill:none;stroke-opacity:0.5;stroke-linecap:round;stroke-linejoin:round;;fill:none"/>
<polyline points="1547.07,1171.27 1547.07,1171.3 1547.07,1171.27" style="stroke:rgb(0,0,0);stroke-width:1px;fill:none;stroke-opacity:1;stroke-linecap:round;stroke-linejoin:round;;fill:none"/>
<polyline points="1547.07,1171.27 1547.07,1171.3 1547.07,1171.27" style="stroke:rgb(255,0,0);stroke-width:21.259843;fill:none;stroke-opacity:0.5;stroke-linecap:round;stroke-linejoin:round;;fill:none"/>
<polyline points="1547.07,1171.27 1547.07,1171.3 1547.07,1171.27" style="stroke:rgb(0,0,0);stroke-width:1px;fill:none;stroke-opacity:1;stroke-linecap:round;stroke-linejoin:round;;fill:none"/>
<polyline points="1546.09,1171.27 1546.09,1171.28 1546.09,1171.27" style="stroke:rgb(255,0,0);stroke-width:21.259843;fill:none;stroke-opacity:0.5;stroke-linecap:round;stroke-linejoin:round;;fill:none"/>
<polyline points="1546.09,1171.27 1546.09,1171.28 1546.09,1171.27" style="stroke:rgb(0,0,0);stroke-width:1px;fill:none;stroke-opacity:1;stroke-linecap:round;stroke-linejoin:round;;fill:none"/>
<polyline points="1837.02,1222.43 1837.02,1222.41 1837.02,1222.43" style="stroke:rgb(255,0,0);stroke-width:21.259843;fill:none;stroke-opacity:0.5;stroke-linecap:round;stroke-linejoin:round;;fill:none"/>
<polyline points="1837.02,1222.43 1837.02,1222.41 1837.02,1222.43" style="stroke:rgb(0,0,0);stroke-width:1px;fill:none;stroke-opacity:1;stroke-linecap:round;stroke-linejoin:round;;fill:none"/>
<polyline points="1547.07,1171.27 1547.07,1171.3 1547.07,1171.27" style="stroke:rgb(255,0,0);stroke-width:21.259843;fill:none;stroke-opacity:0.5;stroke-linecap:round;stroke-linejoin:round;;fill:none"/>
<polyline points="1547.07,1171.27 1547.07,1171.3 1547.07,1171.27" style="stroke:rgb(0,0,0);stroke-width:1px;fill:none;stroke-opacity:1;stroke-linecap:round;stroke-linejoin:round;;fill:none"/>
<polyline points="2631.41,1273.63 2631.42,1273.65 2631.41,1273.63" style="stroke:rgb(255,0,0);stroke-width:21.259843;fill:none;stroke-opacity:0.5;stroke-linecap:round;stroke-linejoin:round;;fill:none"/>
<polyline points="2631.41,1273.63 2631.42,1273.65 2631.41,1273.63" style="stroke:rgb(0,0,0);stroke-width:1px;fill:none;stroke-opacity:1;stroke-linecap:round;stroke-linejoin:round;;fill:none"/>
<polyline points="2658.57,1375.97 2658.58,1375.95 2658.57,1375.97" style="stroke:rgb(255,0,0);stroke-width:21.259843;fill:none;stroke-opacity:0.5;stroke-linecap:round;stroke-linejoin:round;;fill:none"/>
<polyline points="2658.57,1375.97 2658.58,1375.95 2658.57,1375.97" style="stroke:rgb(0,0,0);stroke-width:1px;fill:none;stroke-opacity:1;stroke-linecap:round;stroke-linejoin:round;;fill:none"/>
<polyline points="2658.57,1375.97 2658.58,1375.95 2658.57,1375.97" style="stroke:rgb(255,0,0);stroke-width:21.259843;fill:none;stroke-opacity:0.5;stroke-linecap:round;stroke-linejoin:round;;fill:none"/>
<polyline points="2658.57,1375.97 2658.58,1375.95 2658.57,1375.97" style="stroke:rgb(0,0,0);stroke-width:1px;fill:none;stroke-opacity:1;stroke-linecap:round;stroke-linejoin:round;;fill:none"/>
<polyline points="2658.57,1375.97 2658.58,1375.95 2658.57,1375.97" style="stroke:rgb(255,0,0);stroke-width:21.259843;fill:none;stroke-opacity:0.5;stroke-linecap:round;stroke-linejoin:round;;fill:none"/>
<polyline points="2658.57,1375.97 2658.58,1375.95 2658.57,1375.97" style="stroke:rgb(0,0,0);stroke-width:1px;fill:none;stroke-opacity:1;stroke-linecap:round;stroke-linejoin:round;;fill:none"/>
<polyline points="2658.57,1375.97 2658.58,1375.95 2658.57,1375.97" style="stroke:rgb(255,0,0);stroke-width:21.259843;fill:none;stroke-opacity:0.5;stroke-linecap:round;stroke-linejoin:round;;fill:none"/>
<polyline points="2658.57,1375.97 2658.58,1375.95 2658.57,1375.97" style="stroke:rgb(0,0,0);stroke-width:1px;fill:none;stroke-opacity:1;stroke-linecap:round;stroke-linejoin:round;;fill:none"/>
<polyline points="2658.57,1375.97 2658.58,1375.95 2658.57,1375.97" style="stroke:rgb(255,0,0);stroke-width:21.259843;fill:none;stroke-opacity:0.5;stroke-linecap:round;stroke-linejoin:round;;fill:none"/>
<polyline points="2658.57,1375.97 2658.58,1375.95 2658.57,1375.97" style="stroke:rgb(0,0,0);stroke-width:1px;fill:none;stroke-opacity:1;stroke-linecap:round;stroke-linejoin:round;;fill:none"/>
</svg>
