<?xml version="1.0" standalone="no"?>
<!DOCTYPE svg PUBLIC "-//W3C//DTD SVG 1.1//EN"
"http://www.w3.org/Graphics/SVG/1.1/DTD/svg11.dtd">
<svg width="242.079" height="136.252" viewBox="0 0 5043.31 2838.58" version="1.1"
xmlns="http://www.w3.org/2000/svg"
xmlns:xlink="http://www.w3.org/1999/xlink">
<circle cx="694.724" cy="2307.32" r="31.4961" style=""/>
<circle cx="852.205" cy="2307.32" r="31.4961" style=""/>
<circle cx="1508.74" cy="2251.34" r="31.4961" style=""/>
<circle cx="1855.75" cy="2027.32" r="31.4961" style=""/>
<circle cx="2013.23" cy="2027.32" r="31.4961" style=""/>
<circle cx="2336.69" cy="2017.32" r="31.4961" style=""/>
<circle cx="2671.73" cy="2167.32" r="31.4961" style=""/>
<circle cx="2829.21" cy="2167.32" r="31.4961" style=""/>
<circle cx="2986.69" cy="2167.32" r="31.4961" style=""/>
<circle cx="4013.7" cy="1948.35" r="31.4961" style=""/>
<circle cx="3444.72" cy="1937.32" r="31.4961" style=""/>
<circle cx="3054.72" cy="1839.76" r="31.4961" style=""/>
<circle cx="3054.72" cy="1682.28" r="31.4961" style=""/>
<circle cx="3054.72" cy="1524.8" r="31.4961" style=""/>
<circle cx="3054.72" cy="1367.32" r="31.4961" style=""/>
<circle cx="2257.72" cy="541.339" r="31.4961" style=""/>
<circle cx="2134.72" cy="779.843" r="31.4961" style=""/>
<circle cx="2134.72" cy="937.323" r="31.4961" style=""/>
<circle cx="907.48" cy="1327.32" r="31.4961" style=""/>
<circle cx="814.724" cy="714.803" r="31.4961" style=""/>
<circle cx="814.724" cy="557.323" r="31.4961" style=""/>
<circle cx="4241.73" cy="850.315" r="39.3701" style=""/>
<circle cx="4441.73" cy="850.315" r="39.3701" style=""/>
</svg>
