<?xml version="1.0" standalone="no"?>
<!DOCTYPE svg PUBLIC "-//W3C//DTD SVG 1.1//EN"
"http://www.w3.org/Graphics/SVG/1.1/DTD/svg11.dtd">
<svg width="230.74" height="124.913" viewBox="0 0 4807.09 2602.36" version="1.1"
xmlns="http://www.w3.org/2000/svg"
xmlns:xlink="http://www.w3.org/1999/xlink">
<circle cx="576.614" cy="2189.21" r="31.4961" style=""/>
<circle cx="734.094" cy="2189.21" r="31.4961" style=""/>
<circle cx="1390.63" cy="2133.23" r="31.4961" style=""/>
<circle cx="1737.64" cy="1909.21" r="31.4961" style=""/>
<circle cx="1895.12" cy="1909.21" r="31.4961" style=""/>
<circle cx="2218.58" cy="1899.21" r="31.4961" style=""/>
<circle cx="2553.62" cy="2049.21" r="31.4961" style=""/>
<circle cx="2711.1" cy="2049.21" r="31.4961" style=""/>
<circle cx="2868.58" cy="2049.21" r="31.4961" style=""/>
<circle cx="3895.59" cy="1830.24" r="31.4961" style=""/>
<circle cx="3326.61" cy="1819.21" r="31.4961" style=""/>
<circle cx="2936.61" cy="1721.65" r="31.4961" style=""/>
<circle cx="2936.61" cy="1564.17" r="31.4961" style=""/>
<circle cx="2936.61" cy="1406.69" r="31.4961" style=""/>
<circle cx="2936.61" cy="1249.21" r="31.4961" style=""/>
<circle cx="2139.61" cy="423.228" r="31.4961" style=""/>
<circle cx="2016.61" cy="661.732" r="31.4961" style=""/>
<circle cx="2016.61" cy="819.213" r="31.4961" style=""/>
<circle cx="789.37" cy="1209.21" r="31.4961" style=""/>
<circle cx="696.614" cy="596.693" r="31.4961" style=""/>
<circle cx="696.614" cy="439.213" r="31.4961" style=""/>
<circle cx="4123.62" cy="732.205" r="39.3701" style=""/>
<circle cx="4323.62" cy="732.205" r="39.3701" style=""/>
</svg>
