<?xml version="1.0" standalone="no"?>
<!DOCTYPE svg PUBLIC "-//W3C//DTD SVG 1.1//EN"
"http://www.w3.org/Graphics/SVG/1.1/DTD/svg11.dtd">
<svg width="230.74" height="124.913" viewBox="0 0 4807.09 2602.36" version="1.1"
xmlns="http://www.w3.org/2000/svg"
xmlns:xlink="http://www.w3.org/1999/xlink">
<g fill-rule="evenodd"><path d="M 3662.08,398.502 L 3659.09,400.95 L 3655.69,402.769 L 3652,403.889 L 3648.16,404.268 L 3573.35,404.268 L 3569.51,403.889 L 3565.82,402.769 L 3562.42,400.95 L 3559.43,398.502 L 3556.99,395.519 L 3555.17,392.116 L 3554.05,388.423 L 3553.67,384.583 L 3553.67,331.433 L 3554.05,327.593 L 3555.17,323.9 L 3556.99,320.497 L 3559.43,317.514 L 3562.42,315.066 L 3565.82,313.246 L 3569.51,312.126 L 3573.35,311.748 L 3648.16,311.748 L 3652,312.126 L 3655.69,313.246 L 3659.09,315.066 L 3662.08,317.514 L 3664.52,320.497 L 3666.34,323.9 L 3667.46,327.593 L 3667.84,331.433 L 3667.84,384.583 L 3667.46,388.423 L 3666.34,392.116 L 3664.52,395.519 L 3662.08,398.502 z " style="fill-opacity:1.000000;fill:rgb(103,198,105);stroke:rgb(0,0,0);stroke-width:2"/></g>
<g fill-rule="evenodd"><path d="M 3662.08,561.888 L 3659.09,564.336 L 3655.69,566.155 L 3652,567.275 L 3648.16,567.654 L 3573.35,567.654 L 3569.51,567.275 L 3565.82,566.155 L 3562.42,564.336 L 3559.43,561.888 L 3556.99,558.905 L 3555.17,555.502 L 3554.05,551.809 L 3553.67,547.969 L 3553.67,494.819 L 3554.05,490.979 L 3555.17,487.286 L 3556.99,483.882 L 3559.43,480.899 L 3562.42,478.451 L 3565.82,476.632 L 3569.51,475.512 L 3573.35,475.134 L 3648.16,475.134 L 3652,475.512 L 3655.69,476.632 L 3659.09,478.451 L 3662.08,480.899 L 3664.52,483.882 L 3666.34,487.286 L 3667.46,490.979 L 3667.84,494.819 L 3667.84,547.969 L 3667.46,551.809 L 3666.34,555.502 L 3664.52,558.905 L 3662.08,561.888 z " style="fill-opacity:1.000000;fill:rgb(115,81,255);stroke:rgb(0,0,0);stroke-width:2"/></g>
<g fill-rule="evenodd"><path d="M 3842.08,561.888 L 3839.09,564.336 L 3835.69,566.155 L 3832,567.275 L 3828.16,567.654 L 3753.35,567.654 L 3749.51,567.275 L 3745.82,566.155 L 3742.42,564.336 L 3739.43,561.888 L 3736.99,558.905 L 3735.17,555.502 L 3734.05,551.809 L 3733.67,547.969 L 3733.67,494.819 L 3734.05,490.979 L 3735.17,487.286 L 3736.99,483.882 L 3739.43,480.899 L 3742.42,478.451 L 3745.82,476.632 L 3749.51,475.512 L 3753.35,475.134 L 3828.16,475.134 L 3832,475.512 L 3835.69,476.632 L 3839.09,478.451 L 3842.08,480.899 L 3844.52,483.882 L 3846.34,487.286 L 3847.46,490.979 L 3847.84,494.819 L 3847.84,547.969 L 3847.46,551.809 L 3846.34,555.502 L 3844.52,558.905 L 3842.08,561.888 z " style="fill-opacity:1.000000;fill:rgb(74,236,41);stroke:rgb(0,0,0);stroke-width:2"/></g>
<g fill-rule="evenodd"><path d="M 3842.08,398.502 L 3839.09,400.95 L 3835.69,402.769 L 3832,403.889 L 3828.16,404.268 L 3753.35,404.268 L 3749.51,403.889 L 3745.82,402.769 L 3742.42,400.95 L 3739.43,398.502 L 3736.99,395.519 L 3735.17,392.116 L 3734.05,388.423 L 3733.67,384.583 L 3733.67,331.433 L 3734.05,327.593 L 3735.17,323.9 L 3736.99,320.497 L 3739.43,317.514 L 3742.42,315.066 L 3745.82,313.246 L 3749.51,312.126 L 3753.35,311.748 L 3828.16,311.748 L 3832,312.126 L 3835.69,313.246 L 3839.09,315.066 L 3842.08,317.514 L 3844.52,320.497 L 3846.34,323.9 L 3847.46,327.593 L 3847.84,331.433 L 3847.84,384.583 L 3847.46,388.423 L 3846.34,392.116 L 3844.52,395.519 L 3842.08,398.502 z " style="fill-opacity:1.000000;fill:rgb(205,186,171);stroke:rgb(0,0,0);stroke-width:2"/></g>
<g fill-rule="evenodd"><path d="M 2413.73,783.614 L 2411.92,780.21 L 2410.8,776.518 L 2410.42,772.677 L 2410.42,705.748 L 2410.8,701.908 L 2411.92,698.215 L 2413.73,694.812 L 2416.18,691.829 L 2419.17,689.381 L 2422.57,687.561 L 2426.26,686.441 L 2430.1,686.063 L 2514.75,686.063 L 2518.59,686.441 L 2522.28,687.561 L 2525.68,689.381 L 2528.67,691.829 L 2531.12,694.812 L 2532.93,698.215 L 2534.05,701.908 L 2534.43,705.748 L 2534.43,772.677 L 2534.05,776.518 L 2532.93,780.21 L 2531.12,783.614 L 2528.67,786.597 L 2525.68,789.045 L 2522.28,790.864 L 2518.59,791.984 L 2514.75,792.362 L 2430.1,792.362 L 2426.26,791.984 L 2422.57,790.864 L 2419.17,789.045 L 2416.18,786.597 L 2413.73,783.614 z " style="fill-opacity:1.000000;fill:rgb(242,251,227);stroke:rgb(0,0,0);stroke-width:2"/></g>
<g fill-rule="evenodd"><path d="M 2640.11,783.614 L 2638.29,780.21 L 2637.17,776.518 L 2636.8,772.677 L 2636.8,705.748 L 2637.17,701.908 L 2638.29,698.215 L 2640.11,694.812 L 2642.56,691.829 L 2645.54,689.381 L 2648.95,687.561 L 2652.64,686.441 L 2656.48,686.063 L 2741.13,686.063 L 2744.97,686.441 L 2748.66,687.561 L 2752.06,689.381 L 2755.05,691.829 L 2757.49,694.812 L 2759.31,698.215 L 2760.43,701.908 L 2760.81,705.748 L 2760.81,772.677 L 2760.43,776.518 L 2759.31,780.21 L 2757.49,783.614 L 2755.05,786.597 L 2752.06,789.045 L 2748.66,790.864 L 2744.97,791.984 L 2741.13,792.362 L 2656.48,792.362 L 2652.64,791.984 L 2648.95,790.864 L 2645.54,789.045 L 2642.56,786.597 L 2640.11,783.614 z " style="fill-opacity:1.000000;fill:rgb(70,124,194);stroke:rgb(0,0,0);stroke-width:2"/></g>
<g fill-rule="evenodd"><path d="M 2641.11,479.614 L 2639.29,476.21 L 2638.17,472.518 L 2637.8,468.677 L 2637.8,401.748 L 2638.17,397.908 L 2639.29,394.215 L 2641.11,390.812 L 2643.56,387.829 L 2646.54,385.381 L 2649.95,383.561 L 2653.64,382.441 L 2657.48,382.063 L 2742.13,382.063 L 2745.97,382.441 L 2749.66,383.561 L 2753.06,385.381 L 2756.05,387.829 L 2758.49,390.812 L 2760.31,394.215 L 2761.43,397.908 L 2761.81,401.748 L 2761.81,468.677 L 2761.43,472.518 L 2760.31,476.21 L 2758.49,479.614 L 2756.05,482.597 L 2753.06,485.045 L 2749.66,486.864 L 2745.97,487.984 L 2742.13,488.362 L 2657.48,488.362 L 2653.64,487.984 L 2649.95,486.864 L 2646.54,485.045 L 2643.56,482.597 L 2641.11,479.614 z " style="fill-opacity:1.000000;fill:rgb(84,248,27);stroke:rgb(0,0,0);stroke-width:2"/></g>
<g fill-rule="evenodd"><path d="M 2414.73,479.614 L 2412.92,476.21 L 2411.8,472.518 L 2411.42,468.677 L 2411.42,401.748 L 2411.8,397.908 L 2412.92,394.215 L 2414.73,390.812 L 2417.18,387.829 L 2420.17,385.381 L 2423.57,383.561 L 2427.26,382.441 L 2431.1,382.063 L 2515.75,382.063 L 2519.59,382.441 L 2523.28,383.561 L 2526.68,385.381 L 2529.67,387.829 L 2532.12,390.812 L 2533.93,394.215 L 2535.05,397.908 L 2535.43,401.748 L 2535.43,468.677 L 2535.05,472.518 L 2533.93,476.21 L 2532.12,479.614 L 2529.67,482.597 L 2526.68,485.045 L 2523.28,486.864 L 2519.59,487.984 L 2515.75,488.362 L 2431.1,488.362 L 2427.26,487.984 L 2423.57,486.864 L 2420.17,485.045 L 2417.18,482.597 L 2414.73,479.614 z " style="fill-opacity:1.000000;fill:rgb(232,231,141);stroke:rgb(0,0,0);stroke-width:2"/></g>
<g fill-rule="evenodd"><path d="M 1527.94,551.4 L 1524.95,553.848 L 1521.55,555.667 L 1517.86,556.787 L 1514.02,557.165 L 1439.21,557.165 L 1435.37,556.787 L 1431.68,555.667 L 1428.28,553.848 L 1425.29,551.4 L 1422.85,548.417 L 1421.03,545.013 L 1419.91,541.321 L 1419.53,537.48 L 1419.53,484.331 L 1419.91,480.49 L 1421.03,476.798 L 1422.85,473.394 L 1425.29,470.411 L 1428.28,467.963 L 1431.68,466.144 L 1435.37,465.024 L 1439.21,464.646 L 1514.02,464.646 L 1517.86,465.024 L 1521.55,466.144 L 1524.95,467.963 L 1527.94,470.411 L 1530.38,473.394 L 1532.2,476.798 L 1533.32,480.49 L 1533.7,484.331 L 1533.7,537.48 L 1533.32,541.321 L 1532.2,545.013 L 1530.38,548.417 L 1527.94,551.4 z " style="fill-opacity:1.000000;fill:rgb(118,90,46);stroke:rgb(0,0,0);stroke-width:2"/></g>
<g fill-rule="evenodd"><path d="M 1527.94,388.014 L 1524.95,390.462 L 1521.55,392.281 L 1517.86,393.401 L 1514.02,393.78 L 1439.21,393.78 L 1435.37,393.401 L 1431.68,392.281 L 1428.28,390.462 L 1425.29,388.014 L 1422.85,385.031 L 1421.03,381.628 L 1419.91,377.935 L 1419.53,374.094 L 1419.53,320.945 L 1419.91,317.105 L 1421.03,313.412 L 1422.85,310.008 L 1425.29,307.025 L 1428.28,304.577 L 1431.68,302.758 L 1435.37,301.638 L 1439.21,301.26 L 1514.02,301.26 L 1517.86,301.638 L 1521.55,302.758 L 1524.95,304.577 L 1527.94,307.025 L 1530.38,310.008 L 1532.2,313.412 L 1533.32,317.105 L 1533.7,320.945 L 1533.7,374.094 L 1533.32,377.935 L 1532.2,381.628 L 1530.38,385.031 L 1527.94,388.014 z " style="fill-opacity:1.000000;fill:rgb(99,51,159);stroke:rgb(0,0,0);stroke-width:2"/></g>
<g fill-rule="evenodd"><path d="M 1685.29,458.718 L 1688.28,456.27 L 1691.68,454.451 L 1695.37,453.331 L 1699.21,452.953 L 1774.02,452.953 L 1777.86,453.331 L 1781.55,454.451 L 1784.95,456.27 L 1787.94,458.718 L 1790.38,461.701 L 1792.2,465.105 L 1793.32,468.797 L 1793.7,472.638 L 1793.7,525.787 L 1793.32,529.628 L 1792.2,533.321 L 1790.38,536.724 L 1787.94,539.707 L 1784.95,542.155 L 1781.55,543.974 L 1777.86,545.094 L 1774.02,545.472 L 1699.21,545.472 L 1695.37,545.094 L 1691.68,543.974 L 1688.28,542.155 L 1685.29,539.707 L 1682.85,536.724 L 1681.03,533.321 L 1679.91,529.628 L 1679.53,525.787 L 1679.53,472.638 L 1679.91,468.797 L 1681.03,465.105 L 1682.85,461.701 L 1685.29,458.718 z " style="fill-opacity:1.000000;fill:rgb(201,154,102);stroke:rgb(0,0,0);stroke-width:2"/></g>
<g fill-rule="evenodd"><path d="M 1685.29,622.104 L 1688.28,619.656 L 1691.68,617.837 L 1695.37,616.717 L 1699.21,616.339 L 1774.02,616.339 L 1777.86,616.717 L 1781.55,617.837 L 1784.95,619.656 L 1787.94,622.104 L 1790.38,625.087 L 1792.2,628.49 L 1793.32,632.183 L 1793.7,636.024 L 1793.7,689.173 L 1793.32,693.014 L 1792.2,696.706 L 1790.38,700.11 L 1787.94,703.093 L 1784.95,705.541 L 1781.55,707.36 L 1777.86,708.48 L 1774.02,708.858 L 1699.21,708.858 L 1695.37,708.48 L 1691.68,707.36 L 1688.28,705.541 L 1685.29,703.093 L 1682.85,700.11 L 1681.03,696.706 L 1679.91,693.014 L 1679.53,689.173 L 1679.53,636.024 L 1679.91,632.183 L 1681.03,628.49 L 1682.85,625.087 L 1685.29,622.104 z " style="fill-opacity:1.000000;fill:rgb(50,13,183);stroke:rgb(0,0,0);stroke-width:2"/></g>
<g fill-rule="evenodd"><path d="M 645.293,920.411 L 648.276,917.963 L 651.679,916.144 L 655.372,915.024 L 659.213,914.646 L 734.016,914.646 L 737.856,915.024 L 741.549,916.144 L 744.952,917.963 L 747.935,920.411 L 750.383,923.394 L 752.202,926.798 L 753.323,930.49 L 753.701,934.331 L 753.701,987.48 L 753.323,991.321 L 752.202,995.013 L 750.383,998.417 L 747.935,1001.4 L 744.952,1003.85 L 741.549,1005.67 L 737.856,1006.79 L 734.016,1007.17 L 659.213,1007.17 L 655.372,1006.79 L 651.679,1005.67 L 648.276,1003.85 L 645.293,1001.4 L 642.845,998.417 L 641.026,995.013 L 639.906,991.321 L 639.528,987.48 L 639.528,934.331 L 639.906,930.49 L 641.026,926.798 L 642.845,923.394 L 645.293,920.411 z " style="fill-opacity:1.000000;fill:rgb(49,88,163);stroke:rgb(0,0,0);stroke-width:2"/></g>
<g fill-rule="evenodd"><path d="M 645.293,757.025 L 648.276,754.577 L 651.679,752.758 L 655.372,751.638 L 659.213,751.26 L 734.016,751.26 L 737.856,751.638 L 741.549,752.758 L 744.952,754.577 L 747.935,757.025 L 750.383,760.008 L 752.202,763.412 L 753.323,767.105 L 753.701,770.945 L 753.701,824.094 L 753.323,827.935 L 752.202,831.628 L 750.383,835.031 L 747.935,838.014 L 744.952,840.462 L 741.549,842.281 L 737.856,843.401 L 734.016,843.78 L 659.213,843.78 L 655.372,843.401 L 651.679,842.281 L 648.276,840.462 L 645.293,838.014 L 642.845,835.031 L 641.026,831.628 L 639.906,827.935 L 639.528,824.094 L 639.528,770.945 L 639.906,767.105 L 641.026,763.412 L 642.845,760.008 L 645.293,757.025 z " style="fill-opacity:1.000000;fill:rgb(90,37,93);stroke:rgb(0,0,0);stroke-width:2"/></g>
<g fill-rule="evenodd"><path d="M 1005.42,1987.89 L 1007.86,1990.87 L 1009.68,1994.28 L 1010.8,1997.97 L 1011.18,2001.81 L 1011.18,2076.61 L 1010.8,2080.45 L 1009.68,2084.15 L 1007.86,2087.55 L 1005.42,2090.53 L 1002.43,2092.98 L 999.029,2094.8 L 995.336,2095.92 L 991.496,2096.3 L 938.346,2096.3 L 934.506,2095.92 L 930.813,2094.8 L 927.41,2092.98 L 924.427,2090.53 L 921.979,2087.55 L 920.16,2084.15 L 919.04,2080.45 L 918.661,2076.61 L 918.661,2001.81 L 919.04,1997.97 L 920.16,1994.28 L 921.979,1990.87 L 924.427,1987.89 L 927.41,1985.44 L 930.813,1983.62 L 934.506,1982.5 L 938.346,1982.13 L 991.496,1982.13 L 995.336,1982.5 L 999.029,1983.62 L 1002.43,1985.44 L 1005.42,1987.89 z " style="fill-opacity:1.000000;fill:rgb(5,23,88);stroke:rgb(0,0,0);stroke-width:2"/></g>
<g fill-rule="evenodd"><path d="M 1168.8,1987.89 L 1171.25,1990.87 L 1173.07,1994.28 L 1174.19,1997.97 L 1174.57,2001.81 L 1174.57,2076.61 L 1174.19,2080.45 L 1173.07,2084.15 L 1171.25,2087.55 L 1168.8,2090.53 L 1165.82,2092.98 L 1162.42,2094.8 L 1158.72,2095.92 L 1154.88,2096.3 L 1101.73,2096.3 L 1097.89,2095.92 L 1094.2,2094.8 L 1090.8,2092.98 L 1087.81,2090.53 L 1085.36,2087.55 L 1083.55,2084.15 L 1082.43,2080.45 L 1082.05,2076.61 L 1082.05,2001.81 L 1082.43,1997.97 L 1083.55,1994.28 L 1085.36,1990.87 L 1087.81,1987.89 L 1090.8,1985.44 L 1094.2,1983.62 L 1097.89,1982.5 L 1101.73,1982.13 L 1154.88,1982.13 L 1158.72,1982.5 L 1162.42,1983.62 L 1165.82,1985.44 L 1168.8,1987.89 z " style="fill-opacity:1.000000;fill:rgb(233,94,212);stroke:rgb(0,0,0);stroke-width:2"/></g>
<g fill-rule="evenodd"><path d="M 3878.02,1145.09 L 3874.61,1146.91 L 3870.92,1148.03 L 3867.08,1148.41 L 3800.15,1148.41 L 3796.31,1148.03 L 3792.62,1146.91 L 3789.21,1145.09 L 3786.23,1142.64 L 3783.78,1139.66 L 3781.96,1136.26 L 3780.84,1132.56 L 3780.46,1128.72 L 3780.46,1044.08 L 3780.84,1040.24 L 3781.96,1036.55 L 3783.78,1033.14 L 3786.23,1030.16 L 3789.21,1027.71 L 3792.62,1025.89 L 3796.31,1024.77 L 3800.15,1024.39 L 3867.08,1024.39 L 3870.92,1024.77 L 3874.61,1025.89 L 3878.02,1027.71 L 3881,1030.16 L 3883.45,1033.14 L 3885.27,1036.55 L 3886.39,1040.24 L 3886.76,1044.08 L 3886.76,1128.72 L 3886.39,1132.56 L 3885.27,1136.26 L 3883.45,1139.66 L 3881,1142.64 L 3878.02,1145.09 z " style="fill-opacity:1.000000;fill:rgb(171,178,205);stroke:rgb(0,0,0);stroke-width:2"/></g>
<g fill-rule="evenodd"><path d="M 3878.02,918.714 L 3874.61,920.533 L 3870.92,921.653 L 3867.08,922.031 L 3800.15,922.031 L 3796.31,921.653 L 3792.62,920.533 L 3789.21,918.714 L 3786.23,916.266 L 3783.78,913.283 L 3781.96,909.88 L 3780.84,906.187 L 3780.46,902.347 L 3780.46,817.701 L 3780.84,813.86 L 3781.96,810.168 L 3783.78,806.764 L 3786.23,803.781 L 3789.21,801.333 L 3792.62,799.514 L 3796.31,798.394 L 3800.15,798.016 L 3867.08,798.016 L 3870.92,798.394 L 3874.61,799.514 L 3878.02,801.333 L 3881,803.781 L 3883.45,806.764 L 3885.27,810.168 L 3886.39,813.86 L 3886.76,817.701 L 3886.76,902.347 L 3886.39,906.187 L 3885.27,909.88 L 3883.45,913.283 L 3881,916.266 L 3878.02,918.714 z " style="fill-opacity:1.000000;fill:rgb(198,155,180);stroke:rgb(0,0,0);stroke-width:2"/></g>
<g fill-rule="evenodd"><path d="M 4217.12,1811.81 L 4218.93,1815.21 L 4220.05,1818.91 L 4220.43,1822.75 L 4220.43,1889.68 L 4220.05,1893.52 L 4218.93,1897.21 L 4217.12,1900.61 L 4214.67,1903.6 L 4211.68,1906.04 L 4208.28,1907.86 L 4204.59,1908.98 L 4200.75,1909.36 L 4116.1,1909.36 L 4112.26,1908.98 L 4108.57,1907.86 L 4105.17,1906.04 L 4102.18,1903.6 L 4099.73,1900.61 L 4097.92,1897.21 L 4096.8,1893.52 L 4096.42,1889.68 L 4096.42,1822.75 L 4096.8,1818.91 L 4097.92,1815.21 L 4099.73,1811.81 L 4102.18,1808.83 L 4105.17,1806.38 L 4108.57,1804.56 L 4112.26,1803.44 L 4116.1,1803.06 L 4200.75,1803.06 L 4204.59,1803.44 L 4208.28,1804.56 L 4211.68,1806.38 L 4214.67,1808.83 L 4217.12,1811.81 z " style="fill-opacity:1.000000;fill:rgb(84,17,14);stroke:rgb(0,0,0);stroke-width:2"/></g>
<g fill-rule="evenodd"><path d="M 4443.49,1811.81 L 4445.31,1815.21 L 4446.43,1818.91 L 4446.81,1822.75 L 4446.81,1889.68 L 4446.43,1893.52 L 4445.31,1897.21 L 4443.49,1900.61 L 4441.05,1903.6 L 4438.06,1906.04 L 4434.66,1907.86 L 4430.97,1908.98 L 4427.13,1909.36 L 4342.48,1909.36 L 4338.64,1908.98 L 4334.95,1907.86 L 4331.54,1906.04 L 4328.56,1903.6 L 4326.11,1900.61 L 4324.29,1897.21 L 4323.17,1893.52 L 4322.8,1889.68 L 4322.8,1822.75 L 4323.17,1818.91 L 4324.29,1815.21 L 4326.11,1811.81 L 4328.56,1808.83 L 4331.54,1806.38 L 4334.95,1804.56 L 4338.64,1803.44 L 4342.48,1803.06 L 4427.13,1803.06 L 4430.97,1803.44 L 4434.66,1804.56 L 4438.06,1806.38 L 4441.05,1808.83 L 4443.49,1811.81 z " style="fill-opacity:1.000000;fill:rgb(130,116,65);stroke:rgb(0,0,0);stroke-width:2"/></g>
<g fill-rule="evenodd"><path d="M 607.935,1546.32 L 604.952,1548.77 L 601.549,1550.59 L 597.856,1551.71 L 594.016,1552.09 L 519.213,1552.09 L 515.372,1551.71 L 511.679,1550.59 L 508.276,1548.77 L 505.293,1546.32 L 502.845,1543.34 L 501.026,1539.93 L 499.906,1536.24 L 499.528,1532.4 L 499.528,1479.25 L 499.906,1475.41 L 501.026,1471.72 L 502.845,1468.32 L 505.293,1465.33 L 508.276,1462.88 L 511.679,1461.07 L 515.372,1459.95 L 519.213,1459.57 L 594.016,1459.57 L 597.856,1459.95 L 601.549,1461.07 L 604.952,1462.88 L 607.935,1465.33 L 610.383,1468.32 L 612.202,1471.72 L 613.323,1475.41 L 613.701,1479.25 L 613.701,1532.4 L 613.323,1536.24 L 612.202,1539.93 L 610.383,1543.34 L 607.935,1546.32 z " style="fill-opacity:1.000000;fill:rgb(33,61,220);stroke:rgb(0,0,0);stroke-width:2"/></g>
<g fill-rule="evenodd"><path d="M 607.935,1709.71 L 604.952,1712.15 L 601.549,1713.97 L 597.856,1715.09 L 594.016,1715.47 L 519.213,1715.47 L 515.372,1715.09 L 511.679,1713.97 L 508.276,1712.15 L 505.293,1709.71 L 502.845,1706.72 L 501.026,1703.32 L 499.906,1699.63 L 499.528,1695.79 L 499.528,1642.64 L 499.906,1638.8 L 501.026,1635.1 L 502.845,1631.7 L 505.293,1628.72 L 508.276,1626.27 L 511.679,1624.45 L 515.372,1623.33 L 519.213,1622.95 L 594.016,1622.95 L 597.856,1623.33 L 601.549,1624.45 L 604.952,1626.27 L 607.935,1628.72 L 610.383,1631.7 L 612.202,1635.1 L 613.323,1638.8 L 613.701,1642.64 L 613.701,1695.79 L 613.323,1699.63 L 612.202,1703.32 L 610.383,1706.72 L 607.935,1709.71 z " style="fill-opacity:1.000000;fill:rgb(135,112,233);stroke:rgb(0,0,0);stroke-width:2"/></g>
<g fill-rule="evenodd"><path d="M 3680.94,885.014 L 3677.95,887.462 L 3674.55,889.281 L 3670.86,890.401 L 3667.02,890.78 L 3592.21,890.78 L 3588.37,890.401 L 3584.68,889.281 L 3581.28,887.462 L 3578.29,885.014 L 3575.85,882.031 L 3574.03,878.628 L 3572.91,874.935 L 3572.53,871.094 L 3572.53,817.945 L 3572.91,814.105 L 3574.03,810.412 L 3575.85,807.008 L 3578.29,804.025 L 3581.28,801.577 L 3584.68,799.758 L 3588.37,798.638 L 3592.21,798.26 L 3667.02,798.26 L 3670.86,798.638 L 3674.55,799.758 L 3677.95,801.577 L 3680.94,804.025 L 3683.38,807.008 L 3685.2,810.412 L 3686.32,814.105 L 3686.7,817.945 L 3686.7,871.094 L 3686.32,874.935 L 3685.2,878.628 L 3683.38,882.031 L 3680.94,885.014 z " style="fill-opacity:1.000000;fill:rgb(62,161,65);stroke:rgb(0,0,0);stroke-width:2"/></g>
<g fill-rule="evenodd"><path d="M 3680.94,1048.4 L 3677.95,1050.85 L 3674.55,1052.67 L 3670.86,1053.79 L 3667.02,1054.17 L 3592.21,1054.17 L 3588.37,1053.79 L 3584.68,1052.67 L 3581.28,1050.85 L 3578.29,1048.4 L 3575.85,1045.42 L 3574.03,1042.01 L 3572.91,1038.32 L 3572.53,1034.48 L 3572.53,981.331 L 3572.91,977.49 L 3574.03,973.798 L 3575.85,970.394 L 3578.29,967.411 L 3581.28,964.963 L 3584.68,963.144 L 3588.37,962.024 L 3592.21,961.646 L 3667.02,961.646 L 3670.86,962.024 L 3674.55,963.144 L 3677.95,964.963 L 3680.94,967.411 L 3683.38,970.394 L 3685.2,973.798 L 3686.32,977.49 L 3686.7,981.331 L 3686.7,1034.48 L 3686.32,1038.32 L 3685.2,1042.01 L 3683.38,1045.42 L 3680.94,1048.4 z " style="fill-opacity:1.000000;fill:rgb(225,252,103);stroke:rgb(0,0,0);stroke-width:2"/></g>
<g fill-rule="evenodd"><path d="M 4349.8,2035.89 L 4352.25,2038.87 L 4354.07,2042.28 L 4355.19,2045.97 L 4355.57,2049.81 L 4355.57,2124.61 L 4355.19,2128.45 L 4354.07,2132.15 L 4352.25,2135.55 L 4349.8,2138.53 L 4346.82,2140.98 L 4343.42,2142.8 L 4339.72,2143.92 L 4335.88,2144.3 L 4282.73,2144.3 L 4278.89,2143.92 L 4275.2,2142.8 L 4271.8,2140.98 L 4268.81,2138.53 L 4266.36,2135.55 L 4264.55,2132.15 L 4263.43,2128.45 L 4263.05,2124.61 L 4263.05,2049.81 L 4263.43,2045.97 L 4264.55,2042.28 L 4266.36,2038.87 L 4268.81,2035.89 L 4271.8,2033.44 L 4275.2,2031.62 L 4278.89,2030.5 L 4282.73,2030.13 L 4335.88,2030.13 L 4339.72,2030.5 L 4343.42,2031.62 L 4346.82,2033.44 L 4349.8,2035.89 z " style="fill-opacity:1.000000;fill:rgb(62,1,126);stroke:rgb(0,0,0);stroke-width:2"/></g>
<g fill-rule="evenodd"><path d="M 4186.42,2035.89 L 4188.86,2038.87 L 4190.68,2042.28 L 4191.8,2045.97 L 4192.18,2049.81 L 4192.18,2124.61 L 4191.8,2128.45 L 4190.68,2132.15 L 4188.86,2135.55 L 4186.42,2138.53 L 4183.43,2140.98 L 4180.03,2142.8 L 4176.34,2143.92 L 4172.5,2144.3 L 4119.35,2144.3 L 4115.51,2143.92 L 4111.81,2142.8 L 4108.41,2140.98 L 4105.43,2138.53 L 4102.98,2135.55 L 4101.16,2132.15 L 4100.04,2128.45 L 4099.66,2124.61 L 4099.66,2049.81 L 4100.04,2045.97 L 4101.16,2042.28 L 4102.98,2038.87 L 4105.43,2035.89 L 4108.41,2033.44 L 4111.81,2031.62 L 4115.51,2030.5 L 4119.35,2030.13 L 4172.5,2030.13 L 4176.34,2030.5 L 4180.03,2031.62 L 4183.43,2033.44 L 4186.42,2035.89 z " style="fill-opacity:1.000000;fill:rgb(151,234,220);stroke:rgb(0,0,0);stroke-width:2"/></g>
<g fill-rule="evenodd"><path d="M 3225.19,1673.33 L 3224.96,1671.02 L 3224.96,1647.4 L 3225.19,1645.1 L 3225.86,1642.88 L 3226.95,1640.84 L 3228.42,1639.05 L 3230.21,1637.58 L 3232.25,1636.49 L 3234.47,1635.82 L 3236.77,1635.59 L 3366.69,1635.59 L 3369,1635.82 L 3371.21,1636.49 L 3373.25,1637.58 L 3375.04,1639.05 L 3376.51,1640.84 L 3377.6,1642.88 L 3378.28,1645.1 L 3378.5,1647.4 L 3378.5,1671.02 L 3378.28,1673.33 L 3377.6,1675.54 L 3376.51,1677.59 L 3375.04,1679.38 L 3373.25,1680.84 L 3371.21,1681.94 L 3369,1682.61 L 3366.69,1682.83 L 3236.77,1682.83 L 3234.47,1682.61 L 3232.25,1681.94 L 3230.21,1680.84 L 3228.42,1679.38 L 3226.95,1677.59 L 3225.86,1675.54 L 3225.19,1673.33 z " style="fill-opacity:1.000000;fill:rgb(107,150,143);stroke:rgb(0,0,0);stroke-width:2"/></g>
<g fill-rule="evenodd"><path d="M 3225.19,1573.33 L 3224.96,1571.02 L 3224.96,1547.4 L 3225.19,1545.1 L 3225.86,1542.88 L 3226.95,1540.84 L 3228.42,1539.05 L 3230.21,1537.58 L 3232.25,1536.49 L 3234.47,1535.82 L 3236.77,1535.59 L 3366.69,1535.59 L 3369,1535.82 L 3371.21,1536.49 L 3373.25,1537.58 L 3375.04,1539.05 L 3376.51,1540.84 L 3377.6,1542.88 L 3378.28,1545.1 L 3378.5,1547.4 L 3378.5,1571.02 L 3378.28,1573.33 L 3377.6,1575.54 L 3376.51,1577.59 L 3375.04,1579.38 L 3373.25,1580.84 L 3371.21,1581.94 L 3369,1582.61 L 3366.69,1582.83 L 3236.77,1582.83 L 3234.47,1582.61 L 3232.25,1581.94 L 3230.21,1580.84 L 3228.42,1579.38 L 3226.95,1577.59 L 3225.86,1575.54 L 3225.19,1573.33 z " style="fill-opacity:1.000000;fill:rgb(56,92,42);stroke:rgb(0,0,0);stroke-width:2"/></g>
<g fill-rule="evenodd"><path d="M 3225.19,1473.33 L 3224.96,1471.02 L 3224.96,1447.4 L 3225.19,1445.1 L 3225.86,1442.88 L 3226.95,1440.84 L 3228.42,1439.05 L 3230.21,1437.58 L 3232.25,1436.49 L 3234.47,1435.82 L 3236.77,1435.59 L 3366.69,1435.59 L 3369,1435.82 L 3371.21,1436.49 L 3373.25,1437.58 L 3375.04,1439.05 L 3376.51,1440.84 L 3377.6,1442.88 L 3378.28,1445.1 L 3378.5,1447.4 L 3378.5,1471.02 L 3378.28,1473.33 L 3377.6,1475.54 L 3376.51,1477.59 L 3375.04,1479.38 L 3373.25,1480.84 L 3371.21,1481.94 L 3369,1482.61 L 3366.69,1482.83 L 3236.77,1482.83 L 3234.47,1482.61 L 3232.25,1481.94 L 3230.21,1480.84 L 3228.42,1479.38 L 3226.95,1477.59 L 3225.86,1475.54 L 3225.19,1473.33 z " style="fill-opacity:1.000000;fill:rgb(236,176,59);stroke:rgb(0,0,0);stroke-width:2"/></g>
<g fill-rule="evenodd"><path d="M 3225.19,1373.33 L 3224.96,1371.02 L 3224.96,1347.4 L 3225.19,1345.1 L 3225.86,1342.88 L 3226.95,1340.84 L 3228.42,1339.05 L 3230.21,1337.58 L 3232.25,1336.49 L 3234.47,1335.82 L 3236.77,1335.59 L 3366.69,1335.59 L 3369,1335.82 L 3371.21,1336.49 L 3373.25,1337.58 L 3375.04,1339.05 L 3376.51,1340.84 L 3377.6,1342.88 L 3378.28,1345.1 L 3378.5,1347.4 L 3378.5,1371.02 L 3378.28,1373.33 L 3377.6,1375.54 L 3376.51,1377.59 L 3375.04,1379.38 L 3373.25,1380.84 L 3371.21,1381.94 L 3369,1382.61 L 3366.69,1382.83 L 3236.77,1382.83 L 3234.47,1382.61 L 3232.25,1381.94 L 3230.21,1380.84 L 3228.42,1379.38 L 3226.95,1377.59 L 3225.86,1375.54 L 3225.19,1373.33 z " style="fill-opacity:1.000000;fill:rgb(251,50,175);stroke:rgb(0,0,0);stroke-width:2"/></g>
<g fill-rule="evenodd"><path d="M 3614.95,1373.33 L 3614.72,1371.02 L 3614.72,1347.4 L 3614.95,1345.1 L 3615.62,1342.88 L 3616.71,1340.84 L 3618.18,1339.05 L 3619.97,1337.58 L 3622.02,1336.49 L 3624.23,1335.82 L 3626.54,1335.59 L 3756.46,1335.59 L 3758.76,1335.82 L 3760.98,1336.49 L 3763.02,1337.58 L 3764.81,1339.05 L 3766.28,1340.84 L 3767.37,1342.88 L 3768.04,1345.1 L 3768.27,1347.4 L 3768.27,1371.02 L 3768.04,1373.33 L 3767.37,1375.54 L 3766.28,1377.59 L 3764.81,1379.38 L 3763.02,1380.84 L 3760.98,1381.94 L 3758.76,1382.61 L 3756.46,1382.83 L 3626.54,1382.83 L 3624.23,1382.61 L 3622.02,1381.94 L 3619.97,1380.84 L 3618.18,1379.38 L 3616.71,1377.59 L 3615.62,1375.54 L 3614.95,1373.33 z " style="fill-opacity:1.000000;fill:rgb(60,84,236);stroke:rgb(0,0,0);stroke-width:2"/></g>
<g fill-rule="evenodd"><path d="M 3614.95,1473.33 L 3614.72,1471.02 L 3614.72,1447.4 L 3614.95,1445.1 L 3615.62,1442.88 L 3616.71,1440.84 L 3618.18,1439.05 L 3619.97,1437.58 L 3622.02,1436.49 L 3624.23,1435.82 L 3626.54,1435.59 L 3756.46,1435.59 L 3758.76,1435.82 L 3760.98,1436.49 L 3763.02,1437.58 L 3764.81,1439.05 L 3766.28,1440.84 L 3767.37,1442.88 L 3768.04,1445.1 L 3768.27,1447.4 L 3768.27,1471.02 L 3768.04,1473.33 L 3767.37,1475.54 L 3766.28,1477.59 L 3764.81,1479.38 L 3763.02,1480.84 L 3760.98,1481.94 L 3758.76,1482.61 L 3756.46,1482.83 L 3626.54,1482.83 L 3624.23,1482.61 L 3622.02,1481.94 L 3619.97,1480.84 L 3618.18,1479.38 L 3616.71,1477.59 L 3615.62,1475.54 L 3614.95,1473.33 z " style="fill-opacity:1.000000;fill:rgb(24,219,92);stroke:rgb(0,0,0);stroke-width:2"/></g>
<g fill-rule="evenodd"><path d="M 3614.95,1573.33 L 3614.72,1571.02 L 3614.72,1547.4 L 3614.95,1545.1 L 3615.62,1542.88 L 3616.71,1540.84 L 3618.18,1539.05 L 3619.97,1537.58 L 3622.02,1536.49 L 3624.23,1535.82 L 3626.54,1535.59 L 3756.46,1535.59 L 3758.76,1535.82 L 3760.98,1536.49 L 3763.02,1537.58 L 3764.81,1539.05 L 3766.28,1540.84 L 3767.37,1542.88 L 3768.04,1545.1 L 3768.27,1547.4 L 3768.27,1571.02 L 3768.04,1573.33 L 3767.37,1575.54 L 3766.28,1577.59 L 3764.81,1579.38 L 3763.02,1580.84 L 3760.98,1581.94 L 3758.76,1582.61 L 3756.46,1582.83 L 3626.54,1582.83 L 3624.23,1582.61 L 3622.02,1581.94 L 3619.97,1580.84 L 3618.18,1579.38 L 3616.71,1577.59 L 3615.62,1575.54 L 3614.95,1573.33 z " style="fill-opacity:1.000000;fill:rgb(2,26,254);stroke:rgb(0,0,0);stroke-width:2"/></g>
<g fill-rule="evenodd"><path d="M 3614.95,1673.33 L 3614.72,1671.02 L 3614.72,1647.4 L 3614.95,1645.1 L 3615.62,1642.88 L 3616.71,1640.84 L 3618.18,1639.05 L 3619.97,1637.58 L 3622.02,1636.49 L 3624.23,1635.82 L 3626.54,1635.59 L 3756.46,1635.59 L 3758.76,1635.82 L 3760.98,1636.49 L 3763.02,1637.58 L 3764.81,1639.05 L 3766.28,1640.84 L 3767.37,1642.88 L 3768.04,1645.1 L 3768.27,1647.4 L 3768.27,1671.02 L 3768.04,1673.33 L 3767.37,1675.54 L 3766.28,1677.59 L 3764.81,1679.38 L 3763.02,1680.84 L 3760.98,1681.94 L 3758.76,1682.61 L 3756.46,1682.83 L 3626.54,1682.83 L 3624.23,1682.61 L 3622.02,1681.94 L 3619.97,1680.84 L 3618.18,1679.38 L 3616.71,1677.59 L 3615.62,1675.54 L 3614.95,1673.33 z " style="fill-opacity:1.000000;fill:rgb(67,251,250);stroke:rgb(0,0,0);stroke-width:2"/></g>
<g fill-rule="evenodd"><path d="M 759.606,376.22 L 759.606,502.205 L 633.622,502.205 L 633.622,376.22 L 759.606,376.22 z " style="fill-opacity:1.000000;fill:rgb(170,58,251);stroke:rgb(0,0,0);stroke-width:2"/></g>
<g fill-rule="evenodd"><path d="M 633.622,596.693 L 634.999,583.596 L 639.068,571.072 L 645.652,559.667 L 654.464,549.881 L 665.118,542.14 L 677.149,536.784 L 690.03,534.046 L 703.199,534.046 L 716.08,536.784 L 728.11,542.14 L 738.764,549.881 L 747.576,559.667 L 754.16,571.072 L 758.23,583.596 L 759.606,596.693 L 758.23,609.79 L 754.16,622.314 L 747.576,633.719 L 738.764,643.505 L 728.11,651.246 L 716.08,656.602 L 703.199,659.34 L 690.03,659.34 L 677.149,656.602 L 665.118,651.246 L 654.464,643.505 L 645.652,633.719 L 639.068,622.314 L 634.999,609.79 L 633.622,596.693 z " style="fill-opacity:1.000000;fill:rgb(41,209,230);stroke:rgb(0,0,0);stroke-width:2"/></g>
<g fill-rule="evenodd"><path d="M 1953.62,661.732 L 1955,648.635 L 1959.07,636.111 L 1965.65,624.706 L 1974.46,614.92 L 1985.12,607.18 L 1997.15,601.823 L 2010.03,599.085 L 2023.2,599.085 L 2036.08,601.823 L 2048.11,607.18 L 2058.76,614.92 L 2067.58,624.706 L 2074.16,636.111 L 2078.23,648.635 L 2079.61,661.732 L 2078.23,674.829 L 2074.16,687.353 L 2067.58,698.758 L 2058.76,708.545 L 2048.11,716.285 L 2036.08,721.641 L 2023.2,724.379 L 2010.03,724.379 L 1997.15,721.641 L 1985.12,716.285 L 1974.46,708.545 L 1965.65,698.758 L 1959.07,687.353 L 1955,674.829 L 1953.62,661.732 z " style="fill-opacity:1.000000;fill:rgb(5,60,124);stroke:rgb(0,0,0);stroke-width:2"/></g>
<g fill-rule="evenodd"><path d="M 2079.61,756.22 L 2079.61,882.205 L 1953.62,882.205 L 1953.62,756.22 L 2079.61,756.22 z " style="fill-opacity:1.000000;fill:rgb(148,117,216);stroke:rgb(0,0,0);stroke-width:2"/></g>
<g fill-rule="evenodd"><path d="M 671.102,2189.21 L 672.479,2176.12 L 676.548,2163.59 L 683.133,2152.19 L 691.945,2142.4 L 702.598,2134.66 L 714.629,2129.3 L 727.51,2126.57 L 740.679,2126.57 L 753.56,2129.3 L 765.591,2134.66 L 776.244,2142.4 L 785.056,2152.19 L 791.641,2163.59 L 795.71,2176.12 L 797.087,2189.21 L 795.71,2202.31 L 791.641,2214.83 L 785.056,2226.24 L 776.244,2236.02 L 765.591,2243.77 L 753.56,2249.12 L 740.679,2251.86 L 727.51,2251.86 L 714.629,2249.12 L 702.598,2243.77 L 691.945,2236.02 L 683.133,2226.24 L 676.548,2214.83 L 672.479,2202.31 L 671.102,2189.21 z " style="fill-opacity:1.000000;fill:rgb(190,97,137);stroke:rgb(0,0,0);stroke-width:2"/></g>
<g fill-rule="evenodd"><path d="M 639.606,2126.22 L 639.606,2252.2 L 513.622,2252.2 L 513.622,2126.22 L 639.606,2126.22 z " style="fill-opacity:1.000000;fill:rgb(249,92,187);stroke:rgb(0,0,0);stroke-width:2"/></g>
<g fill-rule="evenodd"><path d="M 4402.35,653.472 L 4402.35,810.953 L 4244.87,810.953 L 4244.87,653.472 L 4402.35,653.472 z " style="fill-opacity:1.000000;fill:rgb(168,153,15);stroke:rgb(0,0,0);stroke-width:2"/></g>
<g fill-rule="evenodd"><path d="M 4044.87,732.213 L 4046.59,715.842 L 4051.68,700.186 L 4059.91,685.93 L 4070.93,673.697 L 4084.24,664.022 L 4099.28,657.326 L 4115.38,653.904 L 4131.84,653.904 L 4147.95,657.326 L 4162.98,664.022 L 4176.3,673.697 L 4187.32,685.93 L 4195.55,700.186 L 4200.63,715.842 L 4202.35,732.213 L 4200.63,748.584 L 4195.55,764.239 L 4187.32,778.495 L 4176.3,790.728 L 4162.98,800.404 L 4147.95,807.099 L 4131.84,810.521 L 4115.38,810.521 L 4099.28,807.099 L 4084.24,800.404 L 4070.93,790.728 L 4059.91,778.495 L 4051.68,764.239 L 4046.59,748.584 L 4044.87,732.213 z " style="fill-opacity:1.000000;fill:rgb(149,177,235);stroke:rgb(0,0,0);stroke-width:2"/></g>
<g fill-rule="evenodd"><path d="M 1800.61,1846.22 L 1800.61,1972.2 L 1674.62,1972.2 L 1674.62,1846.22 L 1800.61,1846.22 z " style="fill-opacity:1.000000;fill:rgb(241,179,5);stroke:rgb(0,0,0);stroke-width:2"/></g>
<g fill-rule="evenodd"><path d="M 1832.1,1909.21 L 1833.48,1896.12 L 1837.55,1883.59 L 1844.13,1872.19 L 1852.94,1862.4 L 1863.6,1854.66 L 1875.63,1849.3 L 1888.51,1846.57 L 1901.68,1846.57 L 1914.56,1849.3 L 1926.59,1854.66 L 1937.24,1862.4 L 1946.06,1872.19 L 1952.64,1883.59 L 1956.71,1896.12 L 1958.09,1909.21 L 1956.71,1922.31 L 1952.64,1934.83 L 1946.06,1946.24 L 1937.24,1956.02 L 1926.59,1963.77 L 1914.56,1969.12 L 1901.68,1971.86 L 1888.51,1971.86 L 1875.63,1969.12 L 1863.6,1963.77 L 1852.94,1956.02 L 1844.13,1946.24 L 1837.55,1934.83 L 1833.48,1922.31 L 1832.1,1909.21 z " style="fill-opacity:1.000000;fill:rgb(239,247,0);stroke:rgb(0,0,0);stroke-width:2"/></g>
<g fill-rule="evenodd"><path d="M 2931.61,1986.22 L 2931.61,2112.2 L 2805.62,2112.2 L 2805.62,1986.22 L 2931.61,1986.22 z " style="fill-opacity:1.000000;fill:rgb(233,161,58);stroke:rgb(0,0,0);stroke-width:2"/></g>
<g fill-rule="evenodd"><path d="M 2648.14,2049.21 L 2649.52,2036.12 L 2653.59,2023.59 L 2660.17,2012.19 L 2668.98,2002.4 L 2679.64,1994.66 L 2691.67,1989.3 L 2704.55,1986.57 L 2717.72,1986.57 L 2730.6,1989.3 L 2742.63,1994.66 L 2753.28,2002.4 L 2762.1,2012.19 L 2768.68,2023.59 L 2772.75,2036.12 L 2774.13,2049.21 L 2772.75,2062.31 L 2768.68,2074.83 L 2762.1,2086.24 L 2753.28,2096.02 L 2742.63,2103.77 L 2730.6,2109.12 L 2717.72,2111.86 L 2704.55,2111.86 L 2691.67,2109.12 L 2679.64,2103.77 L 2668.98,2096.02 L 2660.17,2086.24 L 2653.59,2074.83 L 2649.52,2062.31 L 2648.14,2049.21 z " style="fill-opacity:1.000000;fill:rgb(229,202,11);stroke:rgb(0,0,0);stroke-width:2"/></g>
<g fill-rule="evenodd"><path d="M 2490.66,2049.21 L 2492.04,2036.12 L 2496.11,2023.59 L 2502.69,2012.19 L 2511.5,2002.4 L 2522.16,1994.66 L 2534.19,1989.3 L 2547.07,1986.57 L 2560.24,1986.57 L 2573.12,1989.3 L 2585.15,1994.66 L 2595.8,2002.4 L 2604.62,2012.19 L 2611.2,2023.59 L 2615.27,2036.12 L 2616.65,2049.21 L 2615.27,2062.31 L 2611.2,2074.83 L 2604.62,2086.24 L 2595.8,2096.02 L 2585.15,2103.77 L 2573.12,2109.12 L 2560.24,2111.86 L 2547.07,2111.86 L 2534.19,2109.12 L 2522.16,2103.77 L 2511.5,2096.02 L 2502.69,2086.24 L 2496.11,2074.83 L 2492.04,2062.31 L 2490.66,2049.21 z " style="fill-opacity:1.000000;fill:rgb(203,208,72);stroke:rgb(0,0,0);stroke-width:2"/></g>
<g fill-rule="evenodd"><path d="M 2999.61,1186.22 L 2999.61,1312.2 L 2873.62,1312.2 L 2873.62,1186.22 L 2999.61,1186.22 z " style="fill-opacity:1.000000;fill:rgb(71,100,189);stroke:rgb(0,0,0);stroke-width:2"/></g>
<g fill-rule="evenodd"><path d="M 2873.62,1406.69 L 2875,1393.6 L 2879.07,1381.07 L 2885.65,1369.67 L 2894.46,1359.88 L 2905.12,1352.14 L 2917.15,1346.78 L 2930.03,1344.05 L 2943.2,1344.05 L 2956.08,1346.78 L 2968.11,1352.14 L 2978.76,1359.88 L 2987.58,1369.67 L 2994.16,1381.07 L 2998.23,1393.6 L 2999.61,1406.69 L 2998.23,1419.79 L 2994.16,1432.31 L 2987.58,1443.72 L 2978.76,1453.51 L 2968.11,1461.25 L 2956.08,1466.6 L 2943.2,1469.34 L 2930.03,1469.34 L 2917.15,1466.6 L 2905.12,1461.25 L 2894.46,1453.51 L 2885.65,1443.72 L 2879.07,1432.31 L 2875,1419.79 L 2873.62,1406.69 z " style="fill-opacity:1.000000;fill:rgb(31,35,30);stroke:rgb(0,0,0);stroke-width:2"/></g>
<g fill-rule="evenodd"><path d="M 2873.62,1564.17 L 2875,1551.08 L 2879.07,1538.55 L 2885.65,1527.15 L 2894.46,1517.36 L 2905.12,1509.62 L 2917.15,1504.26 L 2930.03,1501.53 L 2943.2,1501.53 L 2956.08,1504.26 L 2968.11,1509.62 L 2978.76,1517.36 L 2987.58,1527.15 L 2994.16,1538.55 L 2998.23,1551.08 L 2999.61,1564.17 L 2998.23,1577.27 L 2994.16,1589.79 L 2987.58,1601.2 L 2978.76,1610.99 L 2968.11,1618.73 L 2956.08,1624.08 L 2943.2,1626.82 L 2930.03,1626.82 L 2917.15,1624.08 L 2905.12,1618.73 L 2894.46,1610.99 L 2885.65,1601.2 L 2879.07,1589.79 L 2875,1577.27 L 2873.62,1564.17 z " style="fill-opacity:1.000000;fill:rgb(168,28,123);stroke:rgb(0,0,0);stroke-width:2"/></g>
<g fill-rule="evenodd"><path d="M 2873.62,1721.65 L 2875,1708.56 L 2879.07,1696.03 L 2885.65,1684.63 L 2894.46,1674.84 L 2905.12,1667.1 L 2917.15,1661.74 L 2930.03,1659.01 L 2943.2,1659.01 L 2956.08,1661.74 L 2968.11,1667.1 L 2978.76,1674.84 L 2987.58,1684.63 L 2994.16,1696.03 L 2998.23,1708.56 L 2999.61,1721.65 L 2998.23,1734.75 L 2994.16,1747.27 L 2987.58,1758.68 L 2978.76,1768.47 L 2968.11,1776.21 L 2956.08,1781.56 L 2943.2,1784.3 L 2930.03,1784.3 L 2917.15,1781.56 L 2905.12,1776.21 L 2894.46,1768.47 L 2885.65,1758.68 L 2879.07,1747.27 L 2875,1734.75 L 2873.62,1721.65 z " style="fill-opacity:1.000000;fill:rgb(100,197,20);stroke:rgb(0,0,0);stroke-width:2"/></g>
<g fill-rule="evenodd"><path d="M 1128.09,429.86 L 1130.54,432.843 L 1132.36,436.246 L 1133.48,439.939 L 1133.86,443.779 L 1133.86,514.646 L 1133.48,518.486 L 1132.36,522.179 L 1130.54,525.582 L 1128.09,528.565 L 1125.11,531.013 L 1121.71,532.832 L 1118.01,533.952 L 1114.17,534.331 L 1059.06,534.331 L 1055.21,533.952 L 1051.52,532.832 L 1048.12,531.013 L 1045.14,528.565 L 1042.69,525.582 L 1040.87,522.179 L 1039.75,518.486 L 1039.37,514.646 L 1039.37,443.779 L 1039.75,439.939 L 1040.87,436.246 L 1042.69,432.843 L 1045.14,429.86 L 1048.12,427.412 L 1051.52,425.593 L 1055.21,424.473 L 1059.06,424.094 L 1114.17,424.094 L 1118.01,424.473 L 1121.71,425.593 L 1125.11,427.412 L 1128.09,429.86 z " style="fill-opacity:1.000000;fill:rgb(115,90,197);stroke:rgb(0,0,0);stroke-width:2"/></g>
<g fill-rule="evenodd"><path d="M 970.612,429.86 L 973.06,432.843 L 974.88,436.246 L 976,439.939 L 976.378,443.779 L 976.378,514.646 L 976,518.486 L 974.88,522.179 L 973.06,525.582 L 970.612,528.565 L 967.629,531.013 L 964.226,532.832 L 960.533,533.952 L 956.693,534.331 L 901.575,534.331 L 897.734,533.952 L 894.042,532.832 L 890.638,531.013 L 887.655,528.565 L 885.207,525.582 L 883.388,522.179 L 882.268,518.486 L 881.89,514.646 L 881.89,443.779 L 882.268,439.939 L 883.388,436.246 L 885.207,432.843 L 887.655,429.86 L 890.638,427.412 L 894.042,425.593 L 897.734,424.473 L 901.575,424.094 L 956.693,424.094 L 960.533,424.473 L 964.226,425.593 L 967.629,427.412 L 970.612,429.86 z " style="fill-opacity:1.000000;fill:rgb(94,75,121);stroke:rgb(0,0,0);stroke-width:2"/></g>
<g fill-rule="evenodd"><path d="M 495.967,480.691 L 492.984,483.139 L 489.58,484.958 L 485.888,486.078 L 482.047,486.457 L 411.181,486.457 L 407.341,486.078 L 403.648,484.958 L 400.245,483.139 L 397.262,480.691 L 394.814,477.708 L 392.994,474.305 L 391.874,470.612 L 391.496,466.772 L 391.496,411.653 L 391.874,407.813 L 392.994,404.12 L 394.814,400.717 L 397.262,397.734 L 400.245,395.286 L 403.648,393.467 L 407.341,392.347 L 411.181,391.969 L 482.047,391.969 L 485.888,392.347 L 489.58,393.467 L 492.984,395.286 L 495.967,397.734 L 498.415,400.717 L 500.234,404.12 L 501.354,407.813 L 501.732,411.653 L 501.732,466.772 L 501.354,470.612 L 500.234,474.305 L 498.415,477.708 L 495.967,480.691 z " style="fill-opacity:1.000000;fill:rgb(99,59,112);stroke:rgb(0,0,0);stroke-width:2"/></g>
<g fill-rule="evenodd"><path d="M 495.967,638.171 L 492.984,640.619 L 489.58,642.439 L 485.888,643.559 L 482.047,643.937 L 411.181,643.937 L 407.341,643.559 L 403.648,642.439 L 400.245,640.619 L 397.262,638.171 L 394.814,635.188 L 392.994,631.785 L 391.874,628.092 L 391.496,624.252 L 391.496,569.134 L 391.874,565.293 L 392.994,561.601 L 394.814,558.197 L 397.262,555.214 L 400.245,552.766 L 403.648,550.947 L 407.341,549.827 L 411.181,549.449 L 482.047,549.449 L 485.888,549.827 L 489.58,550.947 L 492.984,552.766 L 495.967,555.214 L 498.415,558.197 L 500.234,561.601 L 501.354,565.293 L 501.732,569.134 L 501.732,624.252 L 501.354,628.092 L 500.234,631.785 L 498.415,635.188 L 495.967,638.171 z " style="fill-opacity:1.000000;fill:rgb(100,36,17);stroke:rgb(0,0,0);stroke-width:2"/></g>
<g fill-rule="evenodd"><path d="M 1345.97,393.211 L 1342.98,395.659 L 1339.58,397.478 L 1335.89,398.598 L 1332.05,398.976 L 1261.18,398.976 L 1257.34,398.598 L 1253.65,397.478 L 1250.24,395.659 L 1247.26,393.211 L 1244.81,390.228 L 1242.99,386.825 L 1241.87,383.132 L 1241.5,379.291 L 1241.5,324.173 L 1241.87,320.333 L 1242.99,316.64 L 1244.81,313.237 L 1247.26,310.254 L 1250.24,307.806 L 1253.65,305.987 L 1257.34,304.866 L 1261.18,304.488 L 1332.05,304.488 L 1335.89,304.866 L 1339.58,305.987 L 1342.98,307.806 L 1345.97,310.254 L 1348.41,313.237 L 1350.23,316.64 L 1351.35,320.333 L 1351.73,324.173 L 1351.73,379.291 L 1351.35,383.132 L 1350.23,386.825 L 1348.41,390.228 L 1345.97,393.211 z " style="fill-opacity:1.000000;fill:rgb(158,9,220);stroke:rgb(0,0,0);stroke-width:2"/></g>
<g fill-rule="evenodd"><path d="M 1345.97,550.691 L 1342.98,553.139 L 1339.58,554.958 L 1335.89,556.078 L 1332.05,556.457 L 1261.18,556.457 L 1257.34,556.078 L 1253.65,554.958 L 1250.24,553.139 L 1247.26,550.691 L 1244.81,547.708 L 1242.99,544.305 L 1241.87,540.612 L 1241.5,536.772 L 1241.5,481.653 L 1241.87,477.813 L 1242.99,474.12 L 1244.81,470.717 L 1247.26,467.734 L 1250.24,465.286 L 1253.65,463.467 L 1257.34,462.347 L 1261.18,461.969 L 1332.05,461.969 L 1335.89,462.347 L 1339.58,463.467 L 1342.98,465.286 L 1345.97,467.734 L 1348.41,470.717 L 1350.23,474.12 L 1351.35,477.813 L 1351.73,481.653 L 1351.73,536.772 L 1351.35,540.612 L 1350.23,544.305 L 1348.41,547.708 L 1345.97,550.691 z " style="fill-opacity:1.000000;fill:rgb(170,212,172);stroke:rgb(0,0,0);stroke-width:2"/></g>
<g fill-rule="evenodd"><path d="M 1687.26,798.994 L 1690.24,796.546 L 1693.65,794.727 L 1697.34,793.607 L 1701.18,793.228 L 1772.05,793.228 L 1775.89,793.607 L 1779.58,794.727 L 1782.98,796.546 L 1785.97,798.994 L 1788.41,801.977 L 1790.23,805.38 L 1791.35,809.073 L 1791.73,812.913 L 1791.73,868.032 L 1791.35,871.872 L 1790.23,875.565 L 1788.41,878.968 L 1785.97,881.951 L 1782.98,884.399 L 1779.58,886.218 L 1775.89,887.338 L 1772.05,887.717 L 1701.18,887.717 L 1697.34,887.338 L 1693.65,886.218 L 1690.24,884.399 L 1687.26,881.951 L 1684.81,878.968 L 1682.99,875.565 L 1681.87,871.872 L 1681.5,868.032 L 1681.5,812.913 L 1681.87,809.073 L 1682.99,805.38 L 1684.81,801.977 L 1687.26,798.994 z " style="fill-opacity:1.000000;fill:rgb(242,27,16);stroke:rgb(0,0,0);stroke-width:2"/></g>
<g fill-rule="evenodd"><path d="M 1687.26,956.474 L 1690.24,954.026 L 1693.65,952.207 L 1697.34,951.087 L 1701.18,950.709 L 1772.05,950.709 L 1775.89,951.087 L 1779.58,952.207 L 1782.98,954.026 L 1785.97,956.474 L 1788.41,959.457 L 1790.23,962.861 L 1791.35,966.553 L 1791.73,970.394 L 1791.73,1025.51 L 1791.35,1029.35 L 1790.23,1033.04 L 1788.41,1036.45 L 1785.97,1039.43 L 1782.98,1041.88 L 1779.58,1043.7 L 1775.89,1044.82 L 1772.05,1045.2 L 1701.18,1045.2 L 1697.34,1044.82 L 1693.65,1043.7 L 1690.24,1041.88 L 1687.26,1039.43 L 1684.81,1036.45 L 1682.99,1033.04 L 1681.87,1029.35 L 1681.5,1025.51 L 1681.5,970.394 L 1681.87,966.553 L 1682.99,962.861 L 1684.81,959.457 L 1687.26,956.474 z " style="fill-opacity:1.000000;fill:rgb(175,59,51);stroke:rgb(0,0,0);stroke-width:2"/></g>
<g fill-rule="evenodd"><path d="M 507.262,1788.99 L 510.245,1786.55 L 513.648,1784.73 L 517.341,1783.61 L 521.181,1783.23 L 592.047,1783.23 L 595.888,1783.61 L 599.58,1784.73 L 602.984,1786.55 L 605.967,1788.99 L 608.415,1791.98 L 610.234,1795.38 L 611.354,1799.07 L 611.732,1802.91 L 611.732,1858.03 L 611.354,1861.87 L 610.234,1865.56 L 608.415,1868.97 L 605.967,1871.95 L 602.984,1874.4 L 599.58,1876.22 L 595.888,1877.34 L 592.047,1877.72 L 521.181,1877.72 L 517.341,1877.34 L 513.648,1876.22 L 510.245,1874.4 L 507.262,1871.95 L 504.814,1868.97 L 502.994,1865.56 L 501.874,1861.87 L 501.496,1858.03 L 501.496,1802.91 L 501.874,1799.07 L 502.994,1795.38 L 504.814,1791.98 L 507.262,1788.99 z " style="fill-opacity:1.000000;fill:rgb(205,227,80);stroke:rgb(0,0,0);stroke-width:2"/></g>
<g fill-rule="evenodd"><path d="M 507.262,1946.47 L 510.245,1944.03 L 513.648,1942.21 L 517.341,1941.09 L 521.181,1940.71 L 592.047,1940.71 L 595.888,1941.09 L 599.58,1942.21 L 602.984,1944.03 L 605.967,1946.47 L 608.415,1949.46 L 610.234,1952.86 L 611.354,1956.55 L 611.732,1960.39 L 611.732,2015.51 L 611.354,2019.35 L 610.234,2023.04 L 608.415,2026.45 L 605.967,2029.43 L 602.984,2031.88 L 599.58,2033.7 L 595.888,2034.82 L 592.047,2035.2 L 521.181,2035.2 L 517.341,2034.82 L 513.648,2033.7 L 510.245,2031.88 L 507.262,2029.43 L 504.814,2026.45 L 502.994,2023.04 L 501.874,2019.35 L 501.496,2015.51 L 501.496,1960.39 L 501.874,1956.55 L 502.994,1952.86 L 504.814,1949.46 L 507.262,1946.47 z " style="fill-opacity:1.000000;fill:rgb(72,71,21);stroke:rgb(0,0,0);stroke-width:2"/></g>
<g fill-rule="evenodd"><path d="M 707.262,1946.47 L 710.245,1944.03 L 713.648,1942.21 L 717.341,1941.09 L 721.181,1940.71 L 792.047,1940.71 L 795.888,1941.09 L 799.58,1942.21 L 802.984,1944.03 L 805.967,1946.47 L 808.415,1949.46 L 810.234,1952.86 L 811.354,1956.55 L 811.732,1960.39 L 811.732,2015.51 L 811.354,2019.35 L 810.234,2023.04 L 808.415,2026.45 L 805.967,2029.43 L 802.984,2031.88 L 799.58,2033.7 L 795.888,2034.82 L 792.047,2035.2 L 721.181,2035.2 L 717.341,2034.82 L 713.648,2033.7 L 710.245,2031.88 L 707.262,2029.43 L 704.814,2026.45 L 702.994,2023.04 L 701.874,2019.35 L 701.496,2015.51 L 701.496,1960.39 L 701.874,1956.55 L 702.994,1952.86 L 704.814,1949.46 L 707.262,1946.47 z " style="fill-opacity:1.000000;fill:rgb(92,187,111);stroke:rgb(0,0,0);stroke-width:2"/></g>
<g fill-rule="evenodd"><path d="M 707.262,1788.99 L 710.245,1786.55 L 713.648,1784.73 L 717.341,1783.61 L 721.181,1783.23 L 792.047,1783.23 L 795.888,1783.61 L 799.58,1784.73 L 802.984,1786.55 L 805.967,1788.99 L 808.415,1791.98 L 810.234,1795.38 L 811.354,1799.07 L 811.732,1802.91 L 811.732,1858.03 L 811.354,1861.87 L 810.234,1865.56 L 808.415,1868.97 L 805.967,1871.95 L 802.984,1874.4 L 799.58,1876.22 L 795.888,1877.34 L 792.047,1877.72 L 721.181,1877.72 L 717.341,1877.34 L 713.648,1876.22 L 710.245,1874.4 L 707.262,1871.95 L 704.814,1868.97 L 702.994,1865.56 L 701.874,1861.87 L 701.496,1858.03 L 701.496,1802.91 L 701.874,1799.07 L 702.994,1795.38 L 704.814,1791.98 L 707.262,1788.99 z " style="fill-opacity:1.000000;fill:rgb(34,25,186);stroke:rgb(0,0,0);stroke-width:2"/></g>
<g fill-rule="evenodd"><path d="M 505.967,1000.69 L 502.984,1003.14 L 499.58,1004.96 L 495.888,1006.08 L 492.047,1006.46 L 421.181,1006.46 L 417.341,1006.08 L 413.648,1004.96 L 410.245,1003.14 L 407.262,1000.69 L 404.814,997.708 L 402.994,994.305 L 401.874,990.612 L 401.496,986.772 L 401.496,931.653 L 401.874,927.813 L 402.994,924.12 L 404.814,920.717 L 407.262,917.734 L 410.245,915.286 L 413.648,913.467 L 417.341,912.347 L 421.181,911.969 L 492.047,911.969 L 495.888,912.347 L 499.58,913.467 L 502.984,915.286 L 505.967,917.734 L 508.415,920.717 L 510.234,924.12 L 511.354,927.813 L 511.732,931.653 L 511.732,986.772 L 511.354,990.612 L 510.234,994.305 L 508.415,997.708 L 505.967,1000.69 z " style="fill-opacity:1.000000;fill:rgb(155,125,245);stroke:rgb(0,0,0);stroke-width:2"/></g>
<g fill-rule="evenodd"><path d="M 505.967,843.211 L 502.984,845.659 L 499.58,847.478 L 495.888,848.598 L 492.047,848.976 L 421.181,848.976 L 417.341,848.598 L 413.648,847.478 L 410.245,845.659 L 407.262,843.211 L 404.814,840.228 L 402.994,836.825 L 401.874,833.132 L 401.496,829.291 L 401.496,774.173 L 401.874,770.333 L 402.994,766.64 L 404.814,763.237 L 407.262,760.254 L 410.245,757.806 L 413.648,755.987 L 417.341,754.866 L 421.181,754.488 L 492.047,754.488 L 495.888,754.866 L 499.58,755.987 L 502.984,757.806 L 505.967,760.254 L 508.415,763.237 L 510.234,766.64 L 511.354,770.333 L 511.732,774.173 L 511.732,829.291 L 511.354,833.132 L 510.234,836.825 L 508.415,840.228 L 505.967,843.211 z " style="fill-opacity:1.000000;fill:rgb(11,225,26);stroke:rgb(0,0,0);stroke-width:2"/></g>
<g fill-rule="evenodd"><path d="M 1165.57,2179.86 L 1168.02,2182.84 L 1169.84,2186.25 L 1170.96,2189.94 L 1171.34,2193.78 L 1171.34,2264.65 L 1170.96,2268.49 L 1169.84,2272.18 L 1168.02,2275.58 L 1165.57,2278.57 L 1162.59,2281.01 L 1159.19,2282.83 L 1155.49,2283.95 L 1151.65,2284.33 L 1096.54,2284.33 L 1092.7,2283.95 L 1089,2282.83 L 1085.6,2281.01 L 1082.62,2278.57 L 1080.17,2275.58 L 1078.35,2272.18 L 1077.23,2268.49 L 1076.85,2264.65 L 1076.85,2193.78 L 1077.23,2189.94 L 1078.35,2186.25 L 1080.17,2182.84 L 1082.62,2179.86 L 1085.6,2177.41 L 1089,2175.59 L 1092.7,2174.47 L 1096.54,2174.09 L 1151.65,2174.09 L 1155.49,2174.47 L 1159.19,2175.59 L 1162.59,2177.41 L 1165.57,2179.86 z " style="fill-opacity:1.000000;fill:rgb(28,127,35);stroke:rgb(0,0,0);stroke-width:2"/></g>
<g fill-rule="evenodd"><path d="M 1008.09,2179.86 L 1010.54,2182.84 L 1012.36,2186.25 L 1013.48,2189.94 L 1013.86,2193.78 L 1013.86,2264.65 L 1013.48,2268.49 L 1012.36,2272.18 L 1010.54,2275.58 L 1008.09,2278.57 L 1005.11,2281.01 L 1001.71,2282.83 L 998.014,2283.95 L 994.173,2284.33 L 939.055,2284.33 L 935.215,2283.95 L 931.522,2282.83 L 928.119,2281.01 L 925.136,2278.57 L 922.688,2275.58 L 920.869,2272.18 L 919.748,2268.49 L 919.37,2264.65 L 919.37,2193.78 L 919.748,2189.94 L 920.869,2186.25 L 922.688,2182.84 L 925.136,2179.86 L 928.119,2177.41 L 931.522,2175.59 L 935.215,2174.47 L 939.055,2174.09 L 994.173,2174.09 L 998.014,2174.47 L 1001.71,2175.59 L 1005.11,2177.41 L 1008.09,2179.86 z " style="fill-opacity:1.000000;fill:rgb(248,41,248);stroke:rgb(0,0,0);stroke-width:2"/></g>
<g fill-rule="evenodd"><path d="M 717.262,1626.47 L 720.245,1624.03 L 723.648,1622.21 L 727.341,1621.09 L 731.181,1620.71 L 802.047,1620.71 L 805.888,1621.09 L 809.58,1622.21 L 812.984,1624.03 L 815.967,1626.47 L 818.415,1629.46 L 820.234,1632.86 L 821.354,1636.55 L 821.732,1640.39 L 821.732,1695.51 L 821.354,1699.35 L 820.234,1703.04 L 818.415,1706.45 L 815.967,1709.43 L 812.984,1711.88 L 809.58,1713.7 L 805.888,1714.82 L 802.047,1715.2 L 731.181,1715.2 L 727.341,1714.82 L 723.648,1713.7 L 720.245,1711.88 L 717.262,1709.43 L 714.814,1706.45 L 712.994,1703.04 L 711.874,1699.35 L 711.496,1695.51 L 711.496,1640.39 L 711.874,1636.55 L 712.994,1632.86 L 714.814,1629.46 L 717.262,1626.47 z " style="fill-opacity:1.000000;fill:rgb(164,27,19);stroke:rgb(0,0,0);stroke-width:2"/></g>
<g fill-rule="evenodd"><path d="M 717.262,1468.99 L 720.245,1466.55 L 723.648,1464.73 L 727.341,1463.61 L 731.181,1463.23 L 802.047,1463.23 L 805.888,1463.61 L 809.58,1464.73 L 812.984,1466.55 L 815.967,1468.99 L 818.415,1471.98 L 820.234,1475.38 L 821.354,1479.07 L 821.732,1482.91 L 821.732,1538.03 L 821.354,1541.87 L 820.234,1545.56 L 818.415,1548.97 L 815.967,1551.95 L 812.984,1554.4 L 809.58,1556.22 L 805.888,1557.34 L 802.047,1557.72 L 731.181,1557.72 L 727.341,1557.34 L 723.648,1556.22 L 720.245,1554.4 L 717.262,1551.95 L 714.814,1548.97 L 712.994,1545.56 L 711.874,1541.87 L 711.496,1538.03 L 711.496,1482.91 L 711.874,1479.07 L 712.994,1475.38 L 714.814,1471.98 L 717.262,1468.99 z " style="fill-opacity:1.000000;fill:rgb(181,202,78);stroke:rgb(0,0,0);stroke-width:2"/></g>
<g fill-rule="evenodd"><path d="M 3098.46,1889.79 L 3101.44,1887.35 L 3104.85,1885.53 L 3108.54,1884.41 L 3112.38,1884.03 L 3183.25,1884.03 L 3187.09,1884.41 L 3190.78,1885.53 L 3194.18,1887.35 L 3197.17,1889.79 L 3199.61,1892.78 L 3201.43,1896.18 L 3202.55,1899.87 L 3202.93,1903.71 L 3202.93,1958.83 L 3202.55,1962.67 L 3201.43,1966.36 L 3199.61,1969.77 L 3197.17,1972.75 L 3194.18,1975.2 L 3190.78,1977.02 L 3187.09,1978.14 L 3183.25,1978.52 L 3112.38,1978.52 L 3108.54,1978.14 L 3104.85,1977.02 L 3101.44,1975.2 L 3098.46,1972.75 L 3096.01,1969.77 L 3094.19,1966.36 L 3093.07,1962.67 L 3092.7,1958.83 L 3092.7,1903.71 L 3093.07,1899.87 L 3094.19,1896.18 L 3096.01,1892.78 L 3098.46,1889.79 z " style="fill-opacity:1.000000;fill:rgb(232,152,50);stroke:rgb(0,0,0);stroke-width:2"/></g>
<g fill-rule="evenodd"><path d="M 3098.46,2047.27 L 3101.44,2044.83 L 3104.85,2043.01 L 3108.54,2041.89 L 3112.38,2041.51 L 3183.25,2041.51 L 3187.09,2041.89 L 3190.78,2043.01 L 3194.18,2044.83 L 3197.17,2047.27 L 3199.61,2050.26 L 3201.43,2053.66 L 3202.55,2057.35 L 3202.93,2061.19 L 3202.93,2116.31 L 3202.55,2120.15 L 3201.43,2123.84 L 3199.61,2127.25 L 3197.17,2130.23 L 3194.18,2132.68 L 3190.78,2134.5 L 3187.09,2135.62 L 3183.25,2136 L 3112.38,2136 L 3108.54,2135.62 L 3104.85,2134.5 L 3101.44,2132.68 L 3098.46,2130.23 L 3096.01,2127.25 L 3094.19,2123.84 L 3093.07,2120.15 L 3092.7,2116.31 L 3092.7,2061.19 L 3093.07,2057.35 L 3094.19,2053.66 L 3096.01,2050.26 L 3098.46,2047.27 z " style="fill-opacity:1.000000;fill:rgb(56,224,121);stroke:rgb(0,0,0);stroke-width:2"/></g>
<g fill-rule="evenodd"><path d="M 1728.09,1569.86 L 1730.54,1572.84 L 1732.36,1576.25 L 1733.48,1579.94 L 1733.86,1583.78 L 1733.86,1654.65 L 1733.48,1658.49 L 1732.36,1662.18 L 1730.54,1665.58 L 1728.09,1668.57 L 1725.11,1671.01 L 1721.71,1672.83 L 1718.01,1673.95 L 1714.17,1674.33 L 1659.06,1674.33 L 1655.21,1673.95 L 1651.52,1672.83 L 1648.12,1671.01 L 1645.14,1668.57 L 1642.69,1665.58 L 1640.87,1662.18 L 1639.75,1658.49 L 1639.37,1654.65 L 1639.37,1583.78 L 1639.75,1579.94 L 1640.87,1576.25 L 1642.69,1572.84 L 1645.14,1569.86 L 1648.12,1567.41 L 1651.52,1565.59 L 1655.21,1564.47 L 1659.06,1564.09 L 1714.17,1564.09 L 1718.01,1564.47 L 1721.71,1565.59 L 1725.11,1567.41 L 1728.09,1569.86 z " style="fill-opacity:1.000000;fill:rgb(77,61,52);stroke:rgb(0,0,0);stroke-width:2"/></g>
<g fill-rule="evenodd"><path d="M 1885.57,1569.86 L 1888.02,1572.84 L 1889.84,1576.25 L 1890.96,1579.94 L 1891.34,1583.78 L 1891.34,1654.65 L 1890.96,1658.49 L 1889.84,1662.18 L 1888.02,1665.58 L 1885.57,1668.57 L 1882.59,1671.01 L 1879.19,1672.83 L 1875.49,1673.95 L 1871.65,1674.33 L 1816.54,1674.33 L 1812.7,1673.95 L 1809,1672.83 L 1805.6,1671.01 L 1802.62,1668.57 L 1800.17,1665.58 L 1798.35,1662.18 L 1797.23,1658.49 L 1796.85,1654.65 L 1796.85,1583.78 L 1797.23,1579.94 L 1798.35,1576.25 L 1800.17,1572.84 L 1802.62,1569.86 L 1805.6,1567.41 L 1809,1565.59 L 1812.7,1564.47 L 1816.54,1564.09 L 1871.65,1564.09 L 1875.49,1564.47 L 1879.19,1565.59 L 1882.59,1567.41 L 1885.57,1569.86 z " style="fill-opacity:1.000000;fill:rgb(188,95,78);stroke:rgb(0,0,0);stroke-width:2"/></g>
<g fill-rule="evenodd"><path d="M 2493.88,1798.57 L 2491.43,1795.58 L 2489.61,1792.18 L 2488.49,1788.49 L 2488.11,1784.65 L 2488.11,1713.78 L 2488.49,1709.94 L 2489.61,1706.25 L 2491.43,1702.84 L 2493.88,1699.86 L 2496.86,1697.41 L 2500.26,1695.59 L 2503.95,1694.47 L 2507.8,1694.09 L 2562.91,1694.09 L 2566.75,1694.47 L 2570.45,1695.59 L 2573.85,1697.41 L 2576.83,1699.86 L 2579.28,1702.84 L 2581.1,1706.25 L 2582.22,1709.94 L 2582.6,1713.78 L 2582.6,1784.65 L 2582.22,1788.49 L 2581.1,1792.18 L 2579.28,1795.58 L 2576.83,1798.57 L 2573.85,1801.01 L 2570.45,1802.83 L 2566.75,1803.95 L 2562.91,1804.33 L 2507.8,1804.33 L 2503.95,1803.95 L 2500.26,1802.83 L 2496.86,1801.01 L 2493.88,1798.57 z " style="fill-opacity:1.000000;fill:rgb(119,250,203);stroke:rgb(0,0,0);stroke-width:2"/></g>
<g fill-rule="evenodd"><path d="M 2336.4,1798.57 L 2333.95,1795.58 L 2332.13,1792.18 L 2331.01,1788.49 L 2330.63,1784.65 L 2330.63,1713.78 L 2331.01,1709.94 L 2332.13,1706.25 L 2333.95,1702.84 L 2336.4,1699.86 L 2339.38,1697.41 L 2342.78,1695.59 L 2346.47,1694.47 L 2350.31,1694.09 L 2405.43,1694.09 L 2409.27,1694.47 L 2412.97,1695.59 L 2416.37,1697.41 L 2419.35,1699.86 L 2421.8,1702.84 L 2423.62,1706.25 L 2424.74,1709.94 L 2425.12,1713.78 L 2425.12,1784.65 L 2424.74,1788.49 L 2423.62,1792.18 L 2421.8,1795.58 L 2419.35,1798.57 L 2416.37,1801.01 L 2412.97,1802.83 L 2409.27,1803.95 L 2405.43,1804.33 L 2350.31,1804.33 L 2346.47,1803.95 L 2342.78,1802.83 L 2339.38,1801.01 L 2336.4,1798.57 z " style="fill-opacity:1.000000;fill:rgb(108,5,172);stroke:rgb(0,0,0);stroke-width:2"/></g>
<g fill-rule="evenodd"><path d="M 1394.95,1033.33 L 1394.72,1031.02 L 1394.72,1007.4 L 1394.95,1005.1 L 1395.62,1002.88 L 1396.71,1000.84 L 1398.18,999.05 L 1399.97,997.581 L 1402.02,996.49 L 1404.23,995.817 L 1406.54,995.591 L 1536.46,995.591 L 1538.76,995.817 L 1540.98,996.49 L 1543.02,997.581 L 1544.81,999.05 L 1546.28,1000.84 L 1547.37,1002.88 L 1548.04,1005.1 L 1548.27,1007.4 L 1548.27,1031.02 L 1548.04,1033.33 L 1547.37,1035.54 L 1546.28,1037.59 L 1544.81,1039.38 L 1543.02,1040.84 L 1540.98,1041.94 L 1538.76,1042.61 L 1536.46,1042.83 L 1406.54,1042.83 L 1404.23,1042.61 L 1402.02,1041.94 L 1399.97,1040.84 L 1398.18,1039.38 L 1396.71,1037.59 L 1395.62,1035.54 L 1394.95,1033.33 z " style="fill-opacity:1.000000;fill:rgb(134,33,43);stroke:rgb(0,0,0);stroke-width:2"/></g>
<g fill-rule="evenodd"><path d="M 1394.95,933.328 L 1394.72,931.024 L 1394.72,907.402 L 1394.95,905.097 L 1395.62,902.882 L 1396.71,900.84 L 1398.18,899.05 L 1399.97,897.581 L 1402.02,896.49 L 1404.23,895.817 L 1406.54,895.591 L 1536.46,895.591 L 1538.76,895.817 L 1540.98,896.49 L 1543.02,897.581 L 1544.81,899.05 L 1546.28,900.84 L 1547.37,902.882 L 1548.04,905.097 L 1548.27,907.402 L 1548.27,931.024 L 1548.04,933.328 L 1547.37,935.544 L 1546.28,937.585 L 1544.81,939.375 L 1543.02,940.844 L 1540.98,941.936 L 1538.76,942.608 L 1536.46,942.835 L 1406.54,942.835 L 1404.23,942.608 L 1402.02,941.936 L 1399.97,940.844 L 1398.18,939.375 L 1396.71,937.585 L 1395.62,935.544 L 1394.95,933.328 z " style="fill-opacity:1.000000;fill:rgb(170,26,85);stroke:rgb(0,0,0);stroke-width:2"/></g>
<g fill-rule="evenodd"><path d="M 1394.95,833.328 L 1394.72,831.024 L 1394.72,807.402 L 1394.95,805.097 L 1395.62,802.882 L 1396.71,800.84 L 1398.18,799.05 L 1399.97,797.581 L 1402.02,796.49 L 1404.23,795.817 L 1406.54,795.591 L 1536.46,795.591 L 1538.76,795.817 L 1540.98,796.49 L 1543.02,797.581 L 1544.81,799.05 L 1546.28,800.84 L 1547.37,802.882 L 1548.04,805.097 L 1548.27,807.402 L 1548.27,831.024 L 1548.04,833.328 L 1547.37,835.544 L 1546.28,837.585 L 1544.81,839.375 L 1543.02,840.844 L 1540.98,841.936 L 1538.76,842.608 L 1536.46,842.835 L 1406.54,842.835 L 1404.23,842.608 L 1402.02,841.936 L 1399.97,840.844 L 1398.18,839.375 L 1396.71,837.585 L 1395.62,835.544 L 1394.95,833.328 z " style="fill-opacity:1.000000;fill:rgb(162,190,112);stroke:rgb(0,0,0);stroke-width:2"/></g>
<g fill-rule="evenodd"><path d="M 1394.95,733.328 L 1394.72,731.024 L 1394.72,707.402 L 1394.95,705.097 L 1395.62,702.882 L 1396.71,700.84 L 1398.18,699.05 L 1399.97,697.581 L 1402.02,696.49 L 1404.23,695.817 L 1406.54,695.591 L 1536.46,695.591 L 1538.76,695.817 L 1540.98,696.49 L 1543.02,697.581 L 1544.81,699.05 L 1546.28,700.84 L 1547.37,702.882 L 1548.04,705.097 L 1548.27,707.402 L 1548.27,731.024 L 1548.04,733.328 L 1547.37,735.544 L 1546.28,737.585 L 1544.81,739.375 L 1543.02,740.844 L 1540.98,741.936 L 1538.76,742.608 L 1536.46,742.835 L 1406.54,742.835 L 1404.23,742.608 L 1402.02,741.936 L 1399.97,740.844 L 1398.18,739.375 L 1396.71,737.585 L 1395.62,735.544 L 1394.95,733.328 z " style="fill-opacity:1.000000;fill:rgb(181,115,59);stroke:rgb(0,0,0);stroke-width:2"/></g>
<g fill-rule="evenodd"><path d="M 1005.19,733.328 L 1004.96,731.024 L 1004.96,707.402 L 1005.19,705.097 L 1005.86,702.882 L 1006.95,700.84 L 1008.42,699.05 L 1010.21,697.581 L 1012.25,696.49 L 1014.47,695.817 L 1016.77,695.591 L 1146.69,695.591 L 1149,695.817 L 1151.21,696.49 L 1153.25,697.581 L 1155.04,699.05 L 1156.51,700.84 L 1157.6,702.882 L 1158.28,705.097 L 1158.5,707.402 L 1158.5,731.024 L 1158.28,733.328 L 1157.6,735.544 L 1156.51,737.585 L 1155.04,739.375 L 1153.25,740.844 L 1151.21,741.936 L 1149,742.608 L 1146.69,742.835 L 1016.77,742.835 L 1014.47,742.608 L 1012.25,741.936 L 1010.21,740.844 L 1008.42,739.375 L 1006.95,737.585 L 1005.86,735.544 L 1005.19,733.328 z " style="fill-opacity:1.000000;fill:rgb(4,92,211);stroke:rgb(0,0,0);stroke-width:2"/></g>
<g fill-rule="evenodd"><path d="M 1005.19,833.328 L 1004.96,831.024 L 1004.96,807.402 L 1005.19,805.097 L 1005.86,802.882 L 1006.95,800.84 L 1008.42,799.05 L 1010.21,797.581 L 1012.25,796.49 L 1014.47,795.817 L 1016.77,795.591 L 1146.69,795.591 L 1149,795.817 L 1151.21,796.49 L 1153.25,797.581 L 1155.04,799.05 L 1156.51,800.84 L 1157.6,802.882 L 1158.28,805.097 L 1158.5,807.402 L 1158.5,831.024 L 1158.28,833.328 L 1157.6,835.544 L 1156.51,837.585 L 1155.04,839.375 L 1153.25,840.844 L 1151.21,841.936 L 1149,842.608 L 1146.69,842.835 L 1016.77,842.835 L 1014.47,842.608 L 1012.25,841.936 L 1010.21,840.844 L 1008.42,839.375 L 1006.95,837.585 L 1005.86,835.544 L 1005.19,833.328 z " style="fill-opacity:1.000000;fill:rgb(54,148,179);stroke:rgb(0,0,0);stroke-width:2"/></g>
<g fill-rule="evenodd"><path d="M 1005.19,933.328 L 1004.96,931.024 L 1004.96,907.402 L 1005.19,905.097 L 1005.86,902.882 L 1006.95,900.84 L 1008.42,899.05 L 1010.21,897.581 L 1012.25,896.49 L 1014.47,895.817 L 1016.77,895.591 L 1146.69,895.591 L 1149,895.817 L 1151.21,896.49 L 1153.25,897.581 L 1155.04,899.05 L 1156.51,900.84 L 1157.6,902.882 L 1158.28,905.097 L 1158.5,907.402 L 1158.5,931.024 L 1158.28,933.328 L 1157.6,935.544 L 1156.51,937.585 L 1155.04,939.375 L 1153.25,940.844 L 1151.21,941.936 L 1149,942.608 L 1146.69,942.835 L 1016.77,942.835 L 1014.47,942.608 L 1012.25,941.936 L 1010.21,940.844 L 1008.42,939.375 L 1006.95,937.585 L 1005.86,935.544 L 1005.19,933.328 z " style="fill-opacity:1.000000;fill:rgb(175,226,240);stroke:rgb(0,0,0);stroke-width:2"/></g>
<g fill-rule="evenodd"><path d="M 1005.19,1033.33 L 1004.96,1031.02 L 1004.96,1007.4 L 1005.19,1005.1 L 1005.86,1002.88 L 1006.95,1000.84 L 1008.42,999.05 L 1010.21,997.581 L 1012.25,996.49 L 1014.47,995.817 L 1016.77,995.591 L 1146.69,995.591 L 1149,995.817 L 1151.21,996.49 L 1153.25,997.581 L 1155.04,999.05 L 1156.51,1000.84 L 1157.6,1002.88 L 1158.28,1005.1 L 1158.5,1007.4 L 1158.5,1031.02 L 1158.28,1033.33 L 1157.6,1035.54 L 1156.51,1037.59 L 1155.04,1039.38 L 1153.25,1040.84 L 1151.21,1041.94 L 1149,1042.61 L 1146.69,1042.83 L 1016.77,1042.83 L 1014.47,1042.61 L 1012.25,1041.94 L 1010.21,1040.84 L 1008.42,1039.38 L 1006.95,1037.59 L 1005.86,1035.54 L 1005.19,1033.33 z " style="fill-opacity:1.000000;fill:rgb(228,158,79);stroke:rgb(0,0,0);stroke-width:2"/></g>
<g fill-rule="evenodd"><path d="M 1141.82,1508.17 L 1142.05,1510.47 L 1142.05,1534.09 L 1141.82,1536.4 L 1141.15,1538.61 L 1140.06,1540.66 L 1138.59,1542.45 L 1136.8,1543.91 L 1134.76,1545.01 L 1132.54,1545.68 L 1130.24,1545.91 L 1000.31,1545.91 L 998.011,1545.68 L 995.795,1545.01 L 993.753,1543.91 L 991.963,1542.45 L 990.494,1540.66 L 989.403,1538.61 L 988.731,1536.4 L 988.504,1534.09 L 988.504,1510.47 L 988.731,1508.17 L 989.403,1505.95 L 990.494,1503.91 L 991.963,1502.12 L 993.753,1500.65 L 995.795,1499.56 L 998.011,1498.89 L 1000.31,1498.66 L 1130.24,1498.66 L 1132.54,1498.89 L 1134.76,1499.56 L 1136.8,1500.65 L 1138.59,1502.12 L 1140.06,1503.91 L 1141.15,1505.95 L 1141.82,1508.17 z " style="fill-opacity:1.000000;fill:rgb(50,21,73);stroke:rgb(0,0,0);stroke-width:2"/></g>
<g fill-rule="evenodd"><path d="M 1141.82,1608.17 L 1142.05,1610.47 L 1142.05,1634.09 L 1141.82,1636.4 L 1141.15,1638.61 L 1140.06,1640.66 L 1138.59,1642.45 L 1136.8,1643.91 L 1134.76,1645.01 L 1132.54,1645.68 L 1130.24,1645.91 L 1000.31,1645.91 L 998.011,1645.68 L 995.795,1645.01 L 993.753,1643.91 L 991.963,1642.45 L 990.494,1640.66 L 989.403,1638.61 L 988.731,1636.4 L 988.504,1634.09 L 988.504,1610.47 L 988.731,1608.17 L 989.403,1605.95 L 990.494,1603.91 L 991.963,1602.12 L 993.753,1600.65 L 995.795,1599.56 L 998.011,1598.89 L 1000.31,1598.66 L 1130.24,1598.66 L 1132.54,1598.89 L 1134.76,1599.56 L 1136.8,1600.65 L 1138.59,1602.12 L 1140.06,1603.91 L 1141.15,1605.95 L 1141.82,1608.17 z " style="fill-opacity:1.000000;fill:rgb(253,130,78);stroke:rgb(0,0,0);stroke-width:2"/></g>
<g fill-rule="evenodd"><path d="M 1141.82,1708.17 L 1142.05,1710.47 L 1142.05,1734.09 L 1141.82,1736.4 L 1141.15,1738.61 L 1140.06,1740.66 L 1138.59,1742.45 L 1136.8,1743.91 L 1134.76,1745.01 L 1132.54,1745.68 L 1130.24,1745.91 L 1000.31,1745.91 L 998.011,1745.68 L 995.795,1745.01 L 993.753,1743.91 L 991.963,1742.45 L 990.494,1740.66 L 989.403,1738.61 L 988.731,1736.4 L 988.504,1734.09 L 988.504,1710.47 L 988.731,1708.17 L 989.403,1705.95 L 990.494,1703.91 L 991.963,1702.12 L 993.753,1700.65 L 995.795,1699.56 L 998.011,1698.89 L 1000.31,1698.66 L 1130.24,1698.66 L 1132.54,1698.89 L 1134.76,1699.56 L 1136.8,1700.65 L 1138.59,1702.12 L 1140.06,1703.91 L 1141.15,1705.95 L 1141.82,1708.17 z " style="fill-opacity:1.000000;fill:rgb(169,8,112);stroke:rgb(0,0,0);stroke-width:2"/></g>
<g fill-rule="evenodd"><path d="M 1141.82,1808.17 L 1142.05,1810.47 L 1142.05,1834.09 L 1141.82,1836.4 L 1141.15,1838.61 L 1140.06,1840.66 L 1138.59,1842.45 L 1136.8,1843.91 L 1134.76,1845.01 L 1132.54,1845.68 L 1130.24,1845.91 L 1000.31,1845.91 L 998.011,1845.68 L 995.795,1845.01 L 993.753,1843.91 L 991.963,1842.45 L 990.494,1840.66 L 989.403,1838.61 L 988.731,1836.4 L 988.504,1834.09 L 988.504,1810.47 L 988.731,1808.17 L 989.403,1805.95 L 990.494,1803.91 L 991.963,1802.12 L 993.753,1800.65 L 995.795,1799.56 L 998.011,1798.89 L 1000.31,1798.66 L 1130.24,1798.66 L 1132.54,1798.89 L 1134.76,1799.56 L 1136.8,1800.65 L 1138.59,1802.12 L 1140.06,1803.91 L 1141.15,1805.95 L 1141.82,1808.17 z " style="fill-opacity:1.000000;fill:rgb(212,178,138);stroke:rgb(0,0,0);stroke-width:2"/></g>
<g fill-rule="evenodd"><path d="M 1531.58,1808.17 L 1531.81,1810.47 L 1531.81,1834.09 L 1531.58,1836.4 L 1530.91,1838.61 L 1529.82,1840.66 L 1528.35,1842.45 L 1526.56,1843.91 L 1524.52,1845.01 L 1522.3,1845.68 L 1520,1845.91 L 1390.08,1845.91 L 1387.77,1845.68 L 1385.56,1845.01 L 1383.52,1843.91 L 1381.73,1842.45 L 1380.26,1840.66 L 1379.17,1838.61 L 1378.49,1836.4 L 1378.27,1834.09 L 1378.27,1810.47 L 1378.49,1808.17 L 1379.17,1805.95 L 1380.26,1803.91 L 1381.73,1802.12 L 1383.52,1800.65 L 1385.56,1799.56 L 1387.77,1798.89 L 1390.08,1798.66 L 1520,1798.66 L 1522.3,1798.89 L 1524.52,1799.56 L 1526.56,1800.65 L 1528.35,1802.12 L 1529.82,1803.91 L 1530.91,1805.95 L 1531.58,1808.17 z " style="fill-opacity:1.000000;fill:rgb(41,84,72);stroke:rgb(0,0,0);stroke-width:2"/></g>
<g fill-rule="evenodd"><path d="M 1531.58,1708.17 L 1531.81,1710.47 L 1531.81,1734.09 L 1531.58,1736.4 L 1530.91,1738.61 L 1529.82,1740.66 L 1528.35,1742.45 L 1526.56,1743.91 L 1524.52,1745.01 L 1522.3,1745.68 L 1520,1745.91 L 1390.08,1745.91 L 1387.77,1745.68 L 1385.56,1745.01 L 1383.52,1743.91 L 1381.73,1742.45 L 1380.26,1740.66 L 1379.17,1738.61 L 1378.49,1736.4 L 1378.27,1734.09 L 1378.27,1710.47 L 1378.49,1708.17 L 1379.17,1705.95 L 1380.26,1703.91 L 1381.73,1702.12 L 1383.52,1700.65 L 1385.56,1699.56 L 1387.77,1698.89 L 1390.08,1698.66 L 1520,1698.66 L 1522.3,1698.89 L 1524.52,1699.56 L 1526.56,1700.65 L 1528.35,1702.12 L 1529.82,1703.91 L 1530.91,1705.95 L 1531.58,1708.17 z " style="fill-opacity:1.000000;fill:rgb(154,10,188);stroke:rgb(0,0,0);stroke-width:2"/></g>
<g fill-rule="evenodd"><path d="M 1531.58,1608.17 L 1531.81,1610.47 L 1531.81,1634.09 L 1531.58,1636.4 L 1530.91,1638.61 L 1529.82,1640.66 L 1528.35,1642.45 L 1526.56,1643.91 L 1524.52,1645.01 L 1522.3,1645.68 L 1520,1645.91 L 1390.08,1645.91 L 1387.77,1645.68 L 1385.56,1645.01 L 1383.52,1643.91 L 1381.73,1642.45 L 1380.26,1640.66 L 1379.17,1638.61 L 1378.49,1636.4 L 1378.27,1634.09 L 1378.27,1610.47 L 1378.49,1608.17 L 1379.17,1605.95 L 1380.26,1603.91 L 1381.73,1602.12 L 1383.52,1600.65 L 1385.56,1599.56 L 1387.77,1598.89 L 1390.08,1598.66 L 1520,1598.66 L 1522.3,1598.89 L 1524.52,1599.56 L 1526.56,1600.65 L 1528.35,1602.12 L 1529.82,1603.91 L 1530.91,1605.95 L 1531.58,1608.17 z " style="fill-opacity:1.000000;fill:rgb(213,14,24);stroke:rgb(0,0,0);stroke-width:2"/></g>
<g fill-rule="evenodd"><path d="M 1531.58,1508.17 L 1531.81,1510.47 L 1531.81,1534.09 L 1531.58,1536.4 L 1530.91,1538.61 L 1529.82,1540.66 L 1528.35,1542.45 L 1526.56,1543.91 L 1524.52,1545.01 L 1522.3,1545.68 L 1520,1545.91 L 1390.08,1545.91 L 1387.77,1545.68 L 1385.56,1545.01 L 1383.52,1543.91 L 1381.73,1542.45 L 1380.26,1540.66 L 1379.17,1538.61 L 1378.49,1536.4 L 1378.27,1534.09 L 1378.27,1510.47 L 1378.49,1508.17 L 1379.17,1505.95 L 1380.26,1503.91 L 1381.73,1502.12 L 1383.52,1500.65 L 1385.56,1499.56 L 1387.77,1498.89 L 1390.08,1498.66 L 1520,1498.66 L 1522.3,1498.89 L 1524.52,1499.56 L 1526.56,1500.65 L 1528.35,1502.12 L 1529.82,1503.91 L 1530.91,1505.95 L 1531.58,1508.17 z " style="fill-opacity:1.000000;fill:rgb(168,68,172);stroke:rgb(0,0,0);stroke-width:2"/></g>
<g fill-rule="evenodd"><path d="M 3047.28,624.097 L 3047.5,626.402 L 3047.5,650.024 L 3047.28,652.328 L 3046.6,654.544 L 3045.51,656.585 L 3044.04,658.375 L 3042.25,659.844 L 3040.21,660.936 L 3038,661.608 L 3035.69,661.835 L 2905.77,661.835 L 2903.47,661.608 L 2901.25,660.936 L 2899.21,659.844 L 2897.42,658.375 L 2895.95,656.585 L 2894.86,654.544 L 2894.19,652.328 L 2893.96,650.024 L 2893.96,626.402 L 2894.19,624.097 L 2894.86,621.882 L 2895.95,619.84 L 2897.42,618.05 L 2899.21,616.581 L 2901.25,615.49 L 2903.47,614.817 L 2905.77,614.591 L 3035.69,614.591 L 3038,614.817 L 3040.21,615.49 L 3042.25,616.581 L 3044.04,618.05 L 3045.51,619.84 L 3046.6,621.882 L 3047.28,624.097 z " style="fill-opacity:1.000000;fill:rgb(91,243,142);stroke:rgb(0,0,0);stroke-width:2"/></g>
<g fill-rule="evenodd"><path d="M 3047.28,724.097 L 3047.5,726.402 L 3047.5,750.024 L 3047.28,752.328 L 3046.6,754.544 L 3045.51,756.585 L 3044.04,758.375 L 3042.25,759.844 L 3040.21,760.936 L 3038,761.608 L 3035.69,761.835 L 2905.77,761.835 L 2903.47,761.608 L 2901.25,760.936 L 2899.21,759.844 L 2897.42,758.375 L 2895.95,756.585 L 2894.86,754.544 L 2894.19,752.328 L 2893.96,750.024 L 2893.96,726.402 L 2894.19,724.097 L 2894.86,721.882 L 2895.95,719.84 L 2897.42,718.05 L 2899.21,716.581 L 2901.25,715.49 L 2903.47,714.817 L 2905.77,714.591 L 3035.69,714.591 L 3038,714.817 L 3040.21,715.49 L 3042.25,716.581 L 3044.04,718.05 L 3045.51,719.84 L 3046.6,721.882 L 3047.28,724.097 z " style="fill-opacity:1.000000;fill:rgb(76,215,45);stroke:rgb(0,0,0);stroke-width:2"/></g>
<g fill-rule="evenodd"><path d="M 3047.28,824.097 L 3047.5,826.402 L 3047.5,850.024 L 3047.28,852.328 L 3046.6,854.544 L 3045.51,856.585 L 3044.04,858.375 L 3042.25,859.844 L 3040.21,860.936 L 3038,861.608 L 3035.69,861.835 L 2905.77,861.835 L 2903.47,861.608 L 2901.25,860.936 L 2899.21,859.844 L 2897.42,858.375 L 2895.95,856.585 L 2894.86,854.544 L 2894.19,852.328 L 2893.96,850.024 L 2893.96,826.402 L 2894.19,824.097 L 2894.86,821.882 L 2895.95,819.84 L 2897.42,818.05 L 2899.21,816.581 L 2901.25,815.49 L 2903.47,814.817 L 2905.77,814.591 L 3035.69,814.591 L 3038,814.817 L 3040.21,815.49 L 3042.25,816.581 L 3044.04,818.05 L 3045.51,819.84 L 3046.6,821.882 L 3047.28,824.097 z " style="fill-opacity:1.000000;fill:rgb(155,9,66);stroke:rgb(0,0,0);stroke-width:2"/></g>
<g fill-rule="evenodd"><path d="M 3047.28,924.097 L 3047.5,926.402 L 3047.5,950.024 L 3047.28,952.328 L 3046.6,954.544 L 3045.51,956.585 L 3044.04,958.375 L 3042.25,959.844 L 3040.21,960.936 L 3038,961.608 L 3035.69,961.835 L 2905.77,961.835 L 2903.47,961.608 L 2901.25,960.936 L 2899.21,959.844 L 2897.42,958.375 L 2895.95,956.585 L 2894.86,954.544 L 2894.19,952.328 L 2893.96,950.024 L 2893.96,926.402 L 2894.19,924.097 L 2894.86,921.882 L 2895.95,919.84 L 2897.42,918.05 L 2899.21,916.581 L 2901.25,915.49 L 2903.47,914.817 L 2905.77,914.591 L 3035.69,914.591 L 3038,914.817 L 3040.21,915.49 L 3042.25,916.581 L 3044.04,918.05 L 3045.51,919.84 L 3046.6,921.882 L 3047.28,924.097 z " style="fill-opacity:1.000000;fill:rgb(229,6,196);stroke:rgb(0,0,0);stroke-width:2"/></g>
<g fill-rule="evenodd"><path d="M 3437.04,924.097 L 3437.27,926.402 L 3437.27,950.024 L 3437.04,952.328 L 3436.37,954.544 L 3435.28,956.585 L 3433.81,958.375 L 3432.02,959.844 L 3429.98,960.936 L 3427.76,961.608 L 3425.46,961.835 L 3295.54,961.835 L 3293.23,961.608 L 3291.02,960.936 L 3288.97,959.844 L 3287.18,958.375 L 3285.71,956.585 L 3284.62,954.544 L 3283.95,952.328 L 3283.72,950.024 L 3283.72,926.402 L 3283.95,924.097 L 3284.62,921.882 L 3285.71,919.84 L 3287.18,918.05 L 3288.97,916.581 L 3291.02,915.49 L 3293.23,914.817 L 3295.54,914.591 L 3425.46,914.591 L 3427.76,914.817 L 3429.98,915.49 L 3432.02,916.581 L 3433.81,918.05 L 3435.28,919.84 L 3436.37,921.882 L 3437.04,924.097 z " style="fill-opacity:1.000000;fill:rgb(51,175,205);stroke:rgb(0,0,0);stroke-width:2"/></g>
<g fill-rule="evenodd"><path d="M 3437.04,824.097 L 3437.27,826.402 L 3437.27,850.024 L 3437.04,852.328 L 3436.37,854.544 L 3435.28,856.585 L 3433.81,858.375 L 3432.02,859.844 L 3429.98,860.936 L 3427.76,861.608 L 3425.46,861.835 L 3295.54,861.835 L 3293.23,861.608 L 3291.02,860.936 L 3288.97,859.844 L 3287.18,858.375 L 3285.71,856.585 L 3284.62,854.544 L 3283.95,852.328 L 3283.72,850.024 L 3283.72,826.402 L 3283.95,824.097 L 3284.62,821.882 L 3285.71,819.84 L 3287.18,818.05 L 3288.97,816.581 L 3291.02,815.49 L 3293.23,814.817 L 3295.54,814.591 L 3425.46,814.591 L 3427.76,814.817 L 3429.98,815.49 L 3432.02,816.581 L 3433.81,818.05 L 3435.28,819.84 L 3436.37,821.882 L 3437.04,824.097 z " style="fill-opacity:1.000000;fill:rgb(163,132,127);stroke:rgb(0,0,0);stroke-width:2"/></g>
<g fill-rule="evenodd"><path d="M 3437.04,724.097 L 3437.27,726.402 L 3437.27,750.024 L 3437.04,752.328 L 3436.37,754.544 L 3435.28,756.585 L 3433.81,758.375 L 3432.02,759.844 L 3429.98,760.936 L 3427.76,761.608 L 3425.46,761.835 L 3295.54,761.835 L 3293.23,761.608 L 3291.02,760.936 L 3288.97,759.844 L 3287.18,758.375 L 3285.71,756.585 L 3284.62,754.544 L 3283.95,752.328 L 3283.72,750.024 L 3283.72,726.402 L 3283.95,724.097 L 3284.62,721.882 L 3285.71,719.84 L 3287.18,718.05 L 3288.97,716.581 L 3291.02,715.49 L 3293.23,714.817 L 3295.54,714.591 L 3425.46,714.591 L 3427.76,714.817 L 3429.98,715.49 L 3432.02,716.581 L 3433.81,718.05 L 3435.28,719.84 L 3436.37,721.882 L 3437.04,724.097 z " style="fill-opacity:1.000000;fill:rgb(45,173,212);stroke:rgb(0,0,0);stroke-width:2"/></g>
<g fill-rule="evenodd"><path d="M 3437.04,624.097 L 3437.27,626.402 L 3437.27,650.024 L 3437.04,652.328 L 3436.37,654.544 L 3435.28,656.585 L 3433.81,658.375 L 3432.02,659.844 L 3429.98,660.936 L 3427.76,661.608 L 3425.46,661.835 L 3295.54,661.835 L 3293.23,661.608 L 3291.02,660.936 L 3288.97,659.844 L 3287.18,658.375 L 3285.71,656.585 L 3284.62,654.544 L 3283.95,652.328 L 3283.72,650.024 L 3283.72,626.402 L 3283.95,624.097 L 3284.62,621.882 L 3285.71,619.84 L 3287.18,618.05 L 3288.97,616.581 L 3291.02,615.49 L 3293.23,614.817 L 3295.54,614.591 L 3425.46,614.591 L 3427.76,614.817 L 3429.98,615.49 L 3432.02,616.581 L 3433.81,618.05 L 3435.28,619.84 L 3436.37,621.882 L 3437.04,624.097 z " style="fill-opacity:1.000000;fill:rgb(118,71,222);stroke:rgb(0,0,0);stroke-width:2"/></g>
<g fill-rule="evenodd"><path d="M 4444.73,1573.64 L 4442.43,1573.87 L 4418.8,1573.87 L 4416.5,1573.64 L 4414.28,1572.97 L 4412.24,1571.88 L 4410.45,1570.41 L 4408.98,1568.62 L 4407.89,1566.58 L 4407.22,1564.36 L 4406.99,1562.06 L 4406.99,1432.13 L 4407.22,1429.83 L 4407.89,1427.61 L 4408.98,1425.57 L 4410.45,1423.78 L 4412.24,1422.31 L 4414.28,1421.22 L 4416.5,1420.55 L 4418.8,1420.32 L 4442.43,1420.32 L 4444.73,1420.55 L 4446.95,1421.22 L 4448.99,1422.31 L 4450.78,1423.78 L 4452.25,1425.57 L 4453.34,1427.61 L 4454.01,1429.83 L 4454.24,1432.13 L 4454.24,1562.06 L 4454.01,1564.36 L 4453.34,1566.58 L 4452.25,1568.62 L 4450.78,1570.41 L 4448.99,1571.88 L 4446.95,1572.97 L 4444.73,1573.64 z " style="fill-opacity:1.000000;fill:rgb(50,28,236);stroke:rgb(0,0,0);stroke-width:2"/></g>
<g fill-rule="evenodd"><path d="M 4344.73,1573.64 L 4342.43,1573.87 L 4318.8,1573.87 L 4316.5,1573.64 L 4314.28,1572.97 L 4312.24,1571.88 L 4310.45,1570.41 L 4308.98,1568.62 L 4307.89,1566.58 L 4307.22,1564.36 L 4306.99,1562.06 L 4306.99,1432.13 L 4307.22,1429.83 L 4307.89,1427.61 L 4308.98,1425.57 L 4310.45,1423.78 L 4312.24,1422.31 L 4314.28,1421.22 L 4316.5,1420.55 L 4318.8,1420.32 L 4342.43,1420.32 L 4344.73,1420.55 L 4346.95,1421.22 L 4348.99,1422.31 L 4350.78,1423.78 L 4352.25,1425.57 L 4353.34,1427.61 L 4354.01,1429.83 L 4354.24,1432.13 L 4354.24,1562.06 L 4354.01,1564.36 L 4353.34,1566.58 L 4352.25,1568.62 L 4350.78,1570.41 L 4348.99,1571.88 L 4346.95,1572.97 L 4344.73,1573.64 z " style="fill-opacity:1.000000;fill:rgb(74,196,48);stroke:rgb(0,0,0);stroke-width:2"/></g>
<g fill-rule="evenodd"><path d="M 4244.73,1573.64 L 4242.43,1573.87 L 4218.8,1573.87 L 4216.5,1573.64 L 4214.28,1572.97 L 4212.24,1571.88 L 4210.45,1570.41 L 4208.98,1568.62 L 4207.89,1566.58 L 4207.22,1564.36 L 4206.99,1562.06 L 4206.99,1432.13 L 4207.22,1429.83 L 4207.89,1427.61 L 4208.98,1425.57 L 4210.45,1423.78 L 4212.24,1422.31 L 4214.28,1421.22 L 4216.5,1420.55 L 4218.8,1420.32 L 4242.43,1420.32 L 4244.73,1420.55 L 4246.95,1421.22 L 4248.99,1422.31 L 4250.78,1423.78 L 4252.25,1425.57 L 4253.34,1427.61 L 4254.01,1429.83 L 4254.24,1432.13 L 4254.24,1562.06 L 4254.01,1564.36 L 4253.34,1566.58 L 4252.25,1568.62 L 4250.78,1570.41 L 4248.99,1571.88 L 4246.95,1572.97 L 4244.73,1573.64 z " style="fill-opacity:1.000000;fill:rgb(246,32,35);stroke:rgb(0,0,0);stroke-width:2"/></g>
<g fill-rule="evenodd"><path d="M 4144.73,1573.64 L 4142.43,1573.87 L 4118.8,1573.87 L 4116.5,1573.64 L 4114.28,1572.97 L 4112.24,1571.88 L 4110.45,1570.41 L 4108.98,1568.62 L 4107.89,1566.58 L 4107.22,1564.36 L 4106.99,1562.06 L 4106.99,1432.13 L 4107.22,1429.83 L 4107.89,1427.61 L 4108.98,1425.57 L 4110.45,1423.78 L 4112.24,1422.31 L 4114.28,1421.22 L 4116.5,1420.55 L 4118.8,1420.32 L 4142.43,1420.32 L 4144.73,1420.55 L 4146.95,1421.22 L 4148.99,1422.31 L 4150.78,1423.78 L 4152.25,1425.57 L 4153.34,1427.61 L 4154.01,1429.83 L 4154.24,1432.13 L 4154.24,1562.06 L 4154.01,1564.36 L 4153.34,1566.58 L 4152.25,1568.62 L 4150.78,1570.41 L 4148.99,1571.88 L 4146.95,1572.97 L 4144.73,1573.64 z " style="fill-opacity:1.000000;fill:rgb(133,108,251);stroke:rgb(0,0,0);stroke-width:2"/></g>
<g fill-rule="evenodd"><path d="M 4144.73,1183.88 L 4142.43,1184.1 L 4118.8,1184.1 L 4116.5,1183.88 L 4114.28,1183.2 L 4112.24,1182.11 L 4110.45,1180.64 L 4108.98,1178.85 L 4107.89,1176.81 L 4107.22,1174.6 L 4106.99,1172.29 L 4106.99,1042.37 L 4107.22,1040.07 L 4107.89,1037.85 L 4108.98,1035.81 L 4110.45,1034.02 L 4112.24,1032.55 L 4114.28,1031.46 L 4116.5,1030.79 L 4118.8,1030.56 L 4142.43,1030.56 L 4144.73,1030.79 L 4146.95,1031.46 L 4148.99,1032.55 L 4150.78,1034.02 L 4152.25,1035.81 L 4153.34,1037.85 L 4154.01,1040.07 L 4154.24,1042.37 L 4154.24,1172.29 L 4154.01,1174.6 L 4153.34,1176.81 L 4152.25,1178.85 L 4150.78,1180.64 L 4148.99,1182.11 L 4146.95,1183.2 L 4144.73,1183.88 z " style="fill-opacity:1.000000;fill:rgb(178,7,4);stroke:rgb(0,0,0);stroke-width:2"/></g>
<g fill-rule="evenodd"><path d="M 4244.73,1183.88 L 4242.43,1184.1 L 4218.8,1184.1 L 4216.5,1183.88 L 4214.28,1183.2 L 4212.24,1182.11 L 4210.45,1180.64 L 4208.98,1178.85 L 4207.89,1176.81 L 4207.22,1174.6 L 4206.99,1172.29 L 4206.99,1042.37 L 4207.22,1040.07 L 4207.89,1037.85 L 4208.98,1035.81 L 4210.45,1034.02 L 4212.24,1032.55 L 4214.28,1031.46 L 4216.5,1030.79 L 4218.8,1030.56 L 4242.43,1030.56 L 4244.73,1030.79 L 4246.95,1031.46 L 4248.99,1032.55 L 4250.78,1034.02 L 4252.25,1035.81 L 4253.34,1037.85 L 4254.01,1040.07 L 4254.24,1042.37 L 4254.24,1172.29 L 4254.01,1174.6 L 4253.34,1176.81 L 4252.25,1178.85 L 4250.78,1180.64 L 4248.99,1182.11 L 4246.95,1183.2 L 4244.73,1183.88 z " style="fill-opacity:1.000000;fill:rgb(244,236,11);stroke:rgb(0,0,0);stroke-width:2"/></g>
<g fill-rule="evenodd"><path d="M 4344.73,1183.88 L 4342.43,1184.1 L 4318.8,1184.1 L 4316.5,1183.88 L 4314.28,1183.2 L 4312.24,1182.11 L 4310.45,1180.64 L 4308.98,1178.85 L 4307.89,1176.81 L 4307.22,1174.6 L 4306.99,1172.29 L 4306.99,1042.37 L 4307.22,1040.07 L 4307.89,1037.85 L 4308.98,1035.81 L 4310.45,1034.02 L 4312.24,1032.55 L 4314.28,1031.46 L 4316.5,1030.79 L 4318.8,1030.56 L 4342.43,1030.56 L 4344.73,1030.79 L 4346.95,1031.46 L 4348.99,1032.55 L 4350.78,1034.02 L 4352.25,1035.81 L 4353.34,1037.85 L 4354.01,1040.07 L 4354.24,1042.37 L 4354.24,1172.29 L 4354.01,1174.6 L 4353.34,1176.81 L 4352.25,1178.85 L 4350.78,1180.64 L 4348.99,1182.11 L 4346.95,1183.2 L 4344.73,1183.88 z " style="fill-opacity:1.000000;fill:rgb(185,32,186);stroke:rgb(0,0,0);stroke-width:2"/></g>
<g fill-rule="evenodd"><path d="M 4444.73,1183.88 L 4442.43,1184.1 L 4418.8,1184.1 L 4416.5,1183.88 L 4414.28,1183.2 L 4412.24,1182.11 L 4410.45,1180.64 L 4408.98,1178.85 L 4407.89,1176.81 L 4407.22,1174.6 L 4406.99,1172.29 L 4406.99,1042.37 L 4407.22,1040.07 L 4407.89,1037.85 L 4408.98,1035.81 L 4410.45,1034.02 L 4412.24,1032.55 L 4414.28,1031.46 L 4416.5,1030.79 L 4418.8,1030.56 L 4442.43,1030.56 L 4444.73,1030.79 L 4446.95,1031.46 L 4448.99,1032.55 L 4450.78,1034.02 L 4452.25,1035.81 L 4453.34,1037.85 L 4454.01,1040.07 L 4454.24,1042.37 L 4454.24,1172.29 L 4454.01,1174.6 L 4453.34,1176.81 L 4452.25,1178.85 L 4450.78,1180.64 L 4448.99,1182.11 L 4446.95,1183.2 L 4444.73,1183.88 z " style="fill-opacity:1.000000;fill:rgb(134,195,62);stroke:rgb(0,0,0);stroke-width:2"/></g>
<g fill-rule="evenodd"><path d="M 2149.14,1136.26 L 2149.29,1137.8 L 2149.29,1153.54 L 2149.14,1155.08 L 2148.69,1156.56 L 2147.96,1157.92 L 2146.99,1159.11 L 2145.79,1160.09 L 2144.43,1160.82 L 2142.95,1161.27 L 2141.42,1161.42 L 2041.02,1161.42 L 2039.49,1161.27 L 2038.01,1160.82 L 2036.65,1160.09 L 2035.46,1159.11 L 2034.48,1157.92 L 2033.75,1156.56 L 2033.3,1155.08 L 2033.15,1153.54 L 2033.15,1137.8 L 2033.3,1136.26 L 2033.75,1134.78 L 2034.48,1133.42 L 2035.46,1132.23 L 2036.65,1131.25 L 2038.01,1130.52 L 2039.49,1130.07 L 2041.02,1129.92 L 2141.42,1129.92 L 2142.95,1130.07 L 2144.43,1130.52 L 2145.79,1131.25 L 2146.99,1132.23 L 2147.96,1133.42 L 2148.69,1134.78 L 2149.14,1136.26 z " style="fill-opacity:1.000000;fill:rgb(5,241,236);stroke:rgb(0,0,0);stroke-width:2"/></g>
<g fill-rule="evenodd"><path d="M 2149.14,1187.44 L 2149.29,1188.98 L 2149.29,1204.72 L 2149.14,1206.26 L 2148.69,1207.74 L 2147.96,1209.1 L 2146.99,1210.29 L 2145.79,1211.27 L 2144.43,1212 L 2142.95,1212.45 L 2141.42,1212.6 L 2041.02,1212.6 L 2039.49,1212.45 L 2038.01,1212 L 2036.65,1211.27 L 2035.46,1210.29 L 2034.48,1209.1 L 2033.75,1207.74 L 2033.3,1206.26 L 2033.15,1204.72 L 2033.15,1188.98 L 2033.3,1187.44 L 2033.75,1185.96 L 2034.48,1184.6 L 2035.46,1183.41 L 2036.65,1182.43 L 2038.01,1181.7 L 2039.49,1181.25 L 2041.02,1181.1 L 2141.42,1181.1 L 2142.95,1181.25 L 2144.43,1181.7 L 2145.79,1182.43 L 2146.99,1183.41 L 2147.96,1184.6 L 2148.69,1185.96 L 2149.14,1187.44 z " style="fill-opacity:1.000000;fill:rgb(217,103,51);stroke:rgb(0,0,0);stroke-width:2"/></g>
<g fill-rule="evenodd"><path d="M 2149.14,1238.62 L 2149.29,1240.16 L 2149.29,1255.91 L 2149.14,1257.44 L 2148.69,1258.92 L 2147.96,1260.28 L 2146.99,1261.47 L 2145.79,1262.45 L 2144.43,1263.18 L 2142.95,1263.63 L 2141.42,1263.78 L 2041.02,1263.78 L 2039.49,1263.63 L 2038.01,1263.18 L 2036.65,1262.45 L 2035.46,1261.47 L 2034.48,1260.28 L 2033.75,1258.92 L 2033.3,1257.44 L 2033.15,1255.91 L 2033.15,1240.16 L 2033.3,1238.62 L 2033.75,1237.14 L 2034.48,1235.78 L 2035.46,1234.59 L 2036.65,1233.61 L 2038.01,1232.88 L 2039.49,1232.43 L 2041.02,1232.28 L 2141.42,1232.28 L 2142.95,1232.43 L 2144.43,1232.88 L 2145.79,1233.61 L 2146.99,1234.59 L 2147.96,1235.78 L 2148.69,1237.14 L 2149.14,1238.62 z " style="fill-opacity:1.000000;fill:rgb(183,153,80);stroke:rgb(0,0,0);stroke-width:2"/></g>
<g fill-rule="evenodd"><path d="M 2149.14,1289.8 L 2149.29,1291.34 L 2149.29,1307.09 L 2149.14,1308.62 L 2148.69,1310.1 L 2147.96,1311.46 L 2146.99,1312.65 L 2145.79,1313.63 L 2144.43,1314.36 L 2142.95,1314.81 L 2141.42,1314.96 L 2041.02,1314.96 L 2039.49,1314.81 L 2038.01,1314.36 L 2036.65,1313.63 L 2035.46,1312.65 L 2034.48,1311.46 L 2033.75,1310.1 L 2033.3,1308.62 L 2033.15,1307.09 L 2033.15,1291.34 L 2033.3,1289.8 L 2033.75,1288.33 L 2034.48,1286.96 L 2035.46,1285.77 L 2036.65,1284.79 L 2038.01,1284.06 L 2039.49,1283.62 L 2041.02,1283.46 L 2141.42,1283.46 L 2142.95,1283.62 L 2144.43,1284.06 L 2145.79,1284.79 L 2146.99,1285.77 L 2147.96,1286.96 L 2148.69,1288.33 L 2149.14,1289.8 z " style="fill-opacity:1.000000;fill:rgb(163,227,20);stroke:rgb(0,0,0);stroke-width:2"/></g>
<g fill-rule="evenodd"><path d="M 2149.14,1340.98 L 2149.29,1342.52 L 2149.29,1358.27 L 2149.14,1359.8 L 2148.69,1361.28 L 2147.96,1362.64 L 2146.99,1363.84 L 2145.79,1364.81 L 2144.43,1365.54 L 2142.95,1365.99 L 2141.42,1366.14 L 2041.02,1366.14 L 2039.49,1365.99 L 2038.01,1365.54 L 2036.65,1364.81 L 2035.46,1363.84 L 2034.48,1362.64 L 2033.75,1361.28 L 2033.3,1359.8 L 2033.15,1358.27 L 2033.15,1342.52 L 2033.3,1340.98 L 2033.75,1339.51 L 2034.48,1338.15 L 2035.46,1336.95 L 2036.65,1335.97 L 2038.01,1335.25 L 2039.49,1334.8 L 2041.02,1334.65 L 2141.42,1334.65 L 2142.95,1334.8 L 2144.43,1335.25 L 2145.79,1335.97 L 2146.99,1336.95 L 2147.96,1338.15 L 2148.69,1339.51 L 2149.14,1340.98 z " style="fill-opacity:1.000000;fill:rgb(211,217,52);stroke:rgb(0,0,0);stroke-width:2"/></g>
<g fill-rule="evenodd"><path d="M 2149.14,1392.16 L 2149.29,1393.7 L 2149.29,1409.45 L 2149.14,1410.98 L 2148.69,1412.46 L 2147.96,1413.82 L 2146.99,1415.02 L 2145.79,1416 L 2144.43,1416.72 L 2142.95,1417.17 L 2141.42,1417.32 L 2041.02,1417.32 L 2039.49,1417.17 L 2038.01,1416.72 L 2036.65,1416 L 2035.46,1415.02 L 2034.48,1413.82 L 2033.75,1412.46 L 2033.3,1410.98 L 2033.15,1409.45 L 2033.15,1393.7 L 2033.3,1392.16 L 2033.75,1390.69 L 2034.48,1389.33 L 2035.46,1388.13 L 2036.65,1387.15 L 2038.01,1386.43 L 2039.49,1385.98 L 2041.02,1385.83 L 2141.42,1385.83 L 2142.95,1385.98 L 2144.43,1386.43 L 2145.79,1387.15 L 2146.99,1388.13 L 2147.96,1389.33 L 2148.69,1390.69 L 2149.14,1392.16 z " style="fill-opacity:1.000000;fill:rgb(247,94,160);stroke:rgb(0,0,0);stroke-width:2"/></g>
<g fill-rule="evenodd"><path d="M 2149.14,1443.35 L 2149.29,1444.88 L 2149.29,1460.63 L 2149.14,1462.17 L 2148.69,1463.64 L 2147.96,1465 L 2146.99,1466.2 L 2145.79,1467.18 L 2144.43,1467.9 L 2142.95,1468.35 L 2141.42,1468.5 L 2041.02,1468.5 L 2039.49,1468.35 L 2038.01,1467.9 L 2036.65,1467.18 L 2035.46,1466.2 L 2034.48,1465 L 2033.75,1463.64 L 2033.3,1462.17 L 2033.15,1460.63 L 2033.15,1444.88 L 2033.3,1443.35 L 2033.75,1441.87 L 2034.48,1440.51 L 2035.46,1439.31 L 2036.65,1438.33 L 2038.01,1437.61 L 2039.49,1437.16 L 2041.02,1437.01 L 2141.42,1437.01 L 2142.95,1437.16 L 2144.43,1437.61 L 2145.79,1438.33 L 2146.99,1439.31 L 2147.96,1440.51 L 2148.69,1441.87 L 2149.14,1443.35 z " style="fill-opacity:1.000000;fill:rgb(242,16,168);stroke:rgb(0,0,0);stroke-width:2"/></g>
<g fill-rule="evenodd"><path d="M 2599.93,1443.35 L 2600.08,1444.88 L 2600.08,1460.63 L 2599.93,1462.17 L 2599.48,1463.64 L 2598.75,1465 L 2597.77,1466.2 L 2596.58,1467.18 L 2595.22,1467.9 L 2593.74,1468.35 L 2592.2,1468.5 L 2491.81,1468.5 L 2490.27,1468.35 L 2488.8,1467.9 L 2487.44,1467.18 L 2486.24,1466.2 L 2485.26,1465 L 2484.54,1463.64 L 2484.09,1462.17 L 2483.94,1460.63 L 2483.94,1444.88 L 2484.09,1443.35 L 2484.54,1441.87 L 2485.26,1440.51 L 2486.24,1439.31 L 2487.44,1438.33 L 2488.8,1437.61 L 2490.27,1437.16 L 2491.81,1437.01 L 2592.2,1437.01 L 2593.74,1437.16 L 2595.22,1437.61 L 2596.58,1438.33 L 2597.77,1439.31 L 2598.75,1440.51 L 2599.48,1441.87 L 2599.93,1443.35 z " style="fill-opacity:1.000000;fill:rgb(246,5,148);stroke:rgb(0,0,0);stroke-width:2"/></g>
<g fill-rule="evenodd"><path d="M 2599.93,1392.16 L 2600.08,1393.7 L 2600.08,1409.45 L 2599.93,1410.98 L 2599.48,1412.46 L 2598.75,1413.82 L 2597.77,1415.02 L 2596.58,1416 L 2595.22,1416.72 L 2593.74,1417.17 L 2592.2,1417.32 L 2491.81,1417.32 L 2490.27,1417.17 L 2488.8,1416.72 L 2487.44,1416 L 2486.24,1415.02 L 2485.26,1413.82 L 2484.54,1412.46 L 2484.09,1410.98 L 2483.94,1409.45 L 2483.94,1393.7 L 2484.09,1392.16 L 2484.54,1390.69 L 2485.26,1389.33 L 2486.24,1388.13 L 2487.44,1387.15 L 2488.8,1386.43 L 2490.27,1385.98 L 2491.81,1385.83 L 2592.2,1385.83 L 2593.74,1385.98 L 2595.22,1386.43 L 2596.58,1387.15 L 2597.77,1388.13 L 2598.75,1389.33 L 2599.48,1390.69 L 2599.93,1392.16 z " style="fill-opacity:1.000000;fill:rgb(1,190,180);stroke:rgb(0,0,0);stroke-width:2"/></g>
<g fill-rule="evenodd"><path d="M 2599.93,1340.98 L 2600.08,1342.52 L 2600.08,1358.27 L 2599.93,1359.8 L 2599.48,1361.28 L 2598.75,1362.64 L 2597.77,1363.84 L 2596.58,1364.81 L 2595.22,1365.54 L 2593.74,1365.99 L 2592.2,1366.14 L 2491.81,1366.14 L 2490.27,1365.99 L 2488.8,1365.54 L 2487.44,1364.81 L 2486.24,1363.84 L 2485.26,1362.64 L 2484.54,1361.28 L 2484.09,1359.8 L 2483.94,1358.27 L 2483.94,1342.52 L 2484.09,1340.98 L 2484.54,1339.51 L 2485.26,1338.15 L 2486.24,1336.95 L 2487.44,1335.97 L 2488.8,1335.25 L 2490.27,1334.8 L 2491.81,1334.65 L 2592.2,1334.65 L 2593.74,1334.8 L 2595.22,1335.25 L 2596.58,1335.97 L 2597.77,1336.95 L 2598.75,1338.15 L 2599.48,1339.51 L 2599.93,1340.98 z " style="fill-opacity:1.000000;fill:rgb(188,68,120);stroke:rgb(0,0,0);stroke-width:2"/></g>
<g fill-rule="evenodd"><path d="M 2599.93,1289.8 L 2600.08,1291.34 L 2600.08,1307.09 L 2599.93,1308.62 L 2599.48,1310.1 L 2598.75,1311.46 L 2597.77,1312.65 L 2596.58,1313.63 L 2595.22,1314.36 L 2593.74,1314.81 L 2592.2,1314.96 L 2491.81,1314.96 L 2490.27,1314.81 L 2488.8,1314.36 L 2487.44,1313.63 L 2486.24,1312.65 L 2485.26,1311.46 L 2484.54,1310.1 L 2484.09,1308.62 L 2483.94,1307.09 L 2483.94,1291.34 L 2484.09,1289.8 L 2484.54,1288.33 L 2485.26,1286.96 L 2486.24,1285.77 L 2487.44,1284.79 L 2488.8,1284.06 L 2490.27,1283.62 L 2491.81,1283.46 L 2592.2,1283.46 L 2593.74,1283.62 L 2595.22,1284.06 L 2596.58,1284.79 L 2597.77,1285.77 L 2598.75,1286.96 L 2599.48,1288.33 L 2599.93,1289.8 z " style="fill-opacity:1.000000;fill:rgb(250,73,105);stroke:rgb(0,0,0);stroke-width:2"/></g>
<g fill-rule="evenodd"><path d="M 2599.93,1238.62 L 2600.08,1240.16 L 2600.08,1255.91 L 2599.93,1257.44 L 2599.48,1258.92 L 2598.75,1260.28 L 2597.77,1261.47 L 2596.58,1262.45 L 2595.22,1263.18 L 2593.74,1263.63 L 2592.2,1263.78 L 2491.81,1263.78 L 2490.27,1263.63 L 2488.8,1263.18 L 2487.44,1262.45 L 2486.24,1261.47 L 2485.26,1260.28 L 2484.54,1258.92 L 2484.09,1257.44 L 2483.94,1255.91 L 2483.94,1240.16 L 2484.09,1238.62 L 2484.54,1237.14 L 2485.26,1235.78 L 2486.24,1234.59 L 2487.44,1233.61 L 2488.8,1232.88 L 2490.27,1232.43 L 2491.81,1232.28 L 2592.2,1232.28 L 2593.74,1232.43 L 2595.22,1232.88 L 2596.58,1233.61 L 2597.77,1234.59 L 2598.75,1235.78 L 2599.48,1237.14 L 2599.93,1238.62 z " style="fill-opacity:1.000000;fill:rgb(230,35,208);stroke:rgb(0,0,0);stroke-width:2"/></g>
<g fill-rule="evenodd"><path d="M 2599.93,1187.44 L 2600.08,1188.98 L 2600.08,1204.72 L 2599.93,1206.26 L 2599.48,1207.74 L 2598.75,1209.1 L 2597.77,1210.29 L 2596.58,1211.27 L 2595.22,1212 L 2593.74,1212.45 L 2592.2,1212.6 L 2491.81,1212.6 L 2490.27,1212.45 L 2488.8,1212 L 2487.44,1211.27 L 2486.24,1210.29 L 2485.26,1209.1 L 2484.54,1207.74 L 2484.09,1206.26 L 2483.94,1204.72 L 2483.94,1188.98 L 2484.09,1187.44 L 2484.54,1185.96 L 2485.26,1184.6 L 2486.24,1183.41 L 2487.44,1182.43 L 2488.8,1181.7 L 2490.27,1181.25 L 2491.81,1181.1 L 2592.2,1181.1 L 2593.74,1181.25 L 2595.22,1181.7 L 2596.58,1182.43 L 2597.77,1183.41 L 2598.75,1184.6 L 2599.48,1185.96 L 2599.93,1187.44 z " style="fill-opacity:1.000000;fill:rgb(26,218,105);stroke:rgb(0,0,0);stroke-width:2"/></g>
<g fill-rule="evenodd"><path d="M 2599.93,1136.26 L 2600.08,1137.8 L 2600.08,1153.54 L 2599.93,1155.08 L 2599.48,1156.56 L 2598.75,1157.92 L 2597.77,1159.11 L 2596.58,1160.09 L 2595.22,1160.82 L 2593.74,1161.27 L 2592.2,1161.42 L 2491.81,1161.42 L 2490.27,1161.27 L 2488.8,1160.82 L 2487.44,1160.09 L 2486.24,1159.11 L 2485.26,1157.92 L 2484.54,1156.56 L 2484.09,1155.08 L 2483.94,1153.54 L 2483.94,1137.8 L 2484.09,1136.26 L 2484.54,1134.78 L 2485.26,1133.42 L 2486.24,1132.23 L 2487.44,1131.25 L 2488.8,1130.52 L 2490.27,1130.07 L 2491.81,1129.92 L 2592.2,1129.92 L 2593.74,1130.07 L 2595.22,1130.52 L 2596.58,1131.25 L 2597.77,1132.23 L 2598.75,1133.42 L 2599.48,1134.78 L 2599.93,1136.26 z " style="fill-opacity:1.000000;fill:rgb(106,126,76);stroke:rgb(0,0,0);stroke-width:2"/></g>
</svg>
