<?xml version="1.0" standalone="no"?>
<!DOCTYPE svg PUBLIC "-//W3C//DTD SVG 1.1//EN"
"http://www.w3.org/Graphics/SVG/1.1/DTD/svg11.dtd">
<svg width="230.74" height="124.913" viewBox="0 0 4807.09 2602.36" version="1.1"
xmlns="http://www.w3.org/2000/svg"
xmlns:xlink="http://www.w3.org/1999/xlink">
<g fill-rule="evenodd"><path d="M 759.606,376.22 L 759.606,502.205 L 633.622,502.205 L 633.622,376.22 L 759.606,376.22 z " style="fill-opacity:1.000000;fill:rgb(103,198,105);stroke:rgb(0,0,0);stroke-width:2"/></g>
<g fill-rule="evenodd"><path d="M 633.622,596.693 L 634.999,583.596 L 639.068,571.072 L 645.652,559.667 L 654.464,549.881 L 665.118,542.14 L 677.149,536.784 L 690.03,534.046 L 703.199,534.046 L 716.08,536.784 L 728.11,542.14 L 738.764,549.881 L 747.576,559.667 L 754.16,571.072 L 758.23,583.596 L 759.606,596.693 L 758.23,609.79 L 754.16,622.314 L 747.576,633.719 L 738.764,643.505 L 728.11,651.246 L 716.08,656.602 L 703.199,659.34 L 690.03,659.34 L 677.149,656.602 L 665.118,651.246 L 654.464,643.505 L 645.652,633.719 L 639.068,622.314 L 634.999,609.79 L 633.622,596.693 z " style="fill-opacity:1.000000;fill:rgb(115,81,255);stroke:rgb(0,0,0);stroke-width:2"/></g>
<g fill-rule="evenodd"><path d="M 1953.62,661.732 L 1955,648.635 L 1959.07,636.111 L 1965.65,624.706 L 1974.46,614.92 L 1985.12,607.18 L 1997.15,601.823 L 2010.03,599.085 L 2023.2,599.085 L 2036.08,601.823 L 2048.11,607.18 L 2058.76,614.92 L 2067.58,624.706 L 2074.16,636.111 L 2078.23,648.635 L 2079.61,661.732 L 2078.23,674.829 L 2074.16,687.353 L 2067.58,698.758 L 2058.76,708.545 L 2048.11,716.285 L 2036.08,721.641 L 2023.2,724.379 L 2010.03,724.379 L 1997.15,721.641 L 1985.12,716.285 L 1974.46,708.545 L 1965.65,698.758 L 1959.07,687.353 L 1955,674.829 L 1953.62,661.732 z " style="fill-opacity:1.000000;fill:rgb(74,236,41);stroke:rgb(0,0,0);stroke-width:2"/></g>
<g fill-rule="evenodd"><path d="M 2079.61,756.22 L 2079.61,882.205 L 1953.62,882.205 L 1953.62,756.22 L 2079.61,756.22 z " style="fill-opacity:1.000000;fill:rgb(205,186,171);stroke:rgb(0,0,0);stroke-width:2"/></g>
<g fill-rule="evenodd"><path d="M 671.102,2189.21 L 672.479,2176.12 L 676.548,2163.59 L 683.133,2152.19 L 691.945,2142.4 L 702.598,2134.66 L 714.629,2129.3 L 727.51,2126.57 L 740.679,2126.57 L 753.56,2129.3 L 765.591,2134.66 L 776.244,2142.4 L 785.056,2152.19 L 791.641,2163.59 L 795.71,2176.12 L 797.087,2189.21 L 795.71,2202.31 L 791.641,2214.83 L 785.056,2226.24 L 776.244,2236.02 L 765.591,2243.77 L 753.56,2249.12 L 740.679,2251.86 L 727.51,2251.86 L 714.629,2249.12 L 702.598,2243.77 L 691.945,2236.02 L 683.133,2226.24 L 676.548,2214.83 L 672.479,2202.31 L 671.102,2189.21 z " style="fill-opacity:1.000000;fill:rgb(242,251,227);stroke:rgb(0,0,0);stroke-width:2"/></g>
<g fill-rule="evenodd"><path d="M 639.606,2126.22 L 639.606,2252.2 L 513.622,2252.2 L 513.622,2126.22 L 639.606,2126.22 z " style="fill-opacity:1.000000;fill:rgb(70,124,194);stroke:rgb(0,0,0);stroke-width:2"/></g>
<g fill-rule="evenodd"><path d="M 4402.35,653.472 L 4402.35,810.953 L 4244.87,810.953 L 4244.87,653.472 L 4402.35,653.472 z " style="fill-opacity:1.000000;fill:rgb(84,248,27);stroke:rgb(0,0,0);stroke-width:2"/></g>
<g fill-rule="evenodd"><path d="M 4044.87,732.213 L 4046.59,715.842 L 4051.68,700.186 L 4059.91,685.93 L 4070.93,673.697 L 4084.24,664.022 L 4099.28,657.326 L 4115.38,653.904 L 4131.84,653.904 L 4147.95,657.326 L 4162.98,664.022 L 4176.3,673.697 L 4187.32,685.93 L 4195.55,700.186 L 4200.63,715.842 L 4202.35,732.213 L 4200.63,748.584 L 4195.55,764.239 L 4187.32,778.495 L 4176.3,790.728 L 4162.98,800.404 L 4147.95,807.099 L 4131.84,810.521 L 4115.38,810.521 L 4099.28,807.099 L 4084.24,800.404 L 4070.93,790.728 L 4059.91,778.495 L 4051.68,764.239 L 4046.59,748.584 L 4044.87,732.213 z " style="fill-opacity:1.000000;fill:rgb(232,231,141);stroke:rgb(0,0,0);stroke-width:2"/></g>
<g fill-rule="evenodd"><path d="M 1800.61,1846.22 L 1800.61,1972.2 L 1674.62,1972.2 L 1674.62,1846.22 L 1800.61,1846.22 z " style="fill-opacity:1.000000;fill:rgb(118,90,46);stroke:rgb(0,0,0);stroke-width:2"/></g>
<g fill-rule="evenodd"><path d="M 1832.1,1909.21 L 1833.48,1896.12 L 1837.55,1883.59 L 1844.13,1872.19 L 1852.94,1862.4 L 1863.6,1854.66 L 1875.63,1849.3 L 1888.51,1846.57 L 1901.68,1846.57 L 1914.56,1849.3 L 1926.59,1854.66 L 1937.24,1862.4 L 1946.06,1872.19 L 1952.64,1883.59 L 1956.71,1896.12 L 1958.09,1909.21 L 1956.71,1922.31 L 1952.64,1934.83 L 1946.06,1946.24 L 1937.24,1956.02 L 1926.59,1963.77 L 1914.56,1969.12 L 1901.68,1971.86 L 1888.51,1971.86 L 1875.63,1969.12 L 1863.6,1963.77 L 1852.94,1956.02 L 1844.13,1946.24 L 1837.55,1934.83 L 1833.48,1922.31 L 1832.1,1909.21 z " style="fill-opacity:1.000000;fill:rgb(99,51,159);stroke:rgb(0,0,0);stroke-width:2"/></g>
<g fill-rule="evenodd"><path d="M 2931.61,1986.22 L 2931.61,2112.2 L 2805.62,2112.2 L 2805.62,1986.22 L 2931.61,1986.22 z " style="fill-opacity:1.000000;fill:rgb(201,154,102);stroke:rgb(0,0,0);stroke-width:2"/></g>
<g fill-rule="evenodd"><path d="M 2648.14,2049.21 L 2649.52,2036.12 L 2653.59,2023.59 L 2660.17,2012.19 L 2668.98,2002.4 L 2679.64,1994.66 L 2691.67,1989.3 L 2704.55,1986.57 L 2717.72,1986.57 L 2730.6,1989.3 L 2742.63,1994.66 L 2753.28,2002.4 L 2762.1,2012.19 L 2768.68,2023.59 L 2772.75,2036.12 L 2774.13,2049.21 L 2772.75,2062.31 L 2768.68,2074.83 L 2762.1,2086.24 L 2753.28,2096.02 L 2742.63,2103.77 L 2730.6,2109.12 L 2717.72,2111.86 L 2704.55,2111.86 L 2691.67,2109.12 L 2679.64,2103.77 L 2668.98,2096.02 L 2660.17,2086.24 L 2653.59,2074.83 L 2649.52,2062.31 L 2648.14,2049.21 z " style="fill-opacity:1.000000;fill:rgb(50,13,183);stroke:rgb(0,0,0);stroke-width:2"/></g>
<g fill-rule="evenodd"><path d="M 2490.66,2049.21 L 2492.04,2036.12 L 2496.11,2023.59 L 2502.69,2012.19 L 2511.5,2002.4 L 2522.16,1994.66 L 2534.19,1989.3 L 2547.07,1986.57 L 2560.24,1986.57 L 2573.12,1989.3 L 2585.15,1994.66 L 2595.8,2002.4 L 2604.62,2012.19 L 2611.2,2023.59 L 2615.27,2036.12 L 2616.65,2049.21 L 2615.27,2062.31 L 2611.2,2074.83 L 2604.62,2086.24 L 2595.8,2096.02 L 2585.15,2103.77 L 2573.12,2109.12 L 2560.24,2111.86 L 2547.07,2111.86 L 2534.19,2109.12 L 2522.16,2103.77 L 2511.5,2096.02 L 2502.69,2086.24 L 2496.11,2074.83 L 2492.04,2062.31 L 2490.66,2049.21 z " style="fill-opacity:1.000000;fill:rgb(49,88,163);stroke:rgb(0,0,0);stroke-width:2"/></g>
<g fill-rule="evenodd"><path d="M 2999.61,1186.22 L 2999.61,1312.2 L 2873.62,1312.2 L 2873.62,1186.22 L 2999.61,1186.22 z " style="fill-opacity:1.000000;fill:rgb(90,37,93);stroke:rgb(0,0,0);stroke-width:2"/></g>
<g fill-rule="evenodd"><path d="M 2873.62,1406.69 L 2875,1393.6 L 2879.07,1381.07 L 2885.65,1369.67 L 2894.46,1359.88 L 2905.12,1352.14 L 2917.15,1346.78 L 2930.03,1344.05 L 2943.2,1344.05 L 2956.08,1346.78 L 2968.11,1352.14 L 2978.76,1359.88 L 2987.58,1369.67 L 2994.16,1381.07 L 2998.23,1393.6 L 2999.61,1406.69 L 2998.23,1419.79 L 2994.16,1432.31 L 2987.58,1443.72 L 2978.76,1453.51 L 2968.11,1461.25 L 2956.08,1466.6 L 2943.2,1469.34 L 2930.03,1469.34 L 2917.15,1466.6 L 2905.12,1461.25 L 2894.46,1453.51 L 2885.65,1443.72 L 2879.07,1432.31 L 2875,1419.79 L 2873.62,1406.69 z " style="fill-opacity:1.000000;fill:rgb(5,23,88);stroke:rgb(0,0,0);stroke-width:2"/></g>
<g fill-rule="evenodd"><path d="M 2873.62,1564.17 L 2875,1551.08 L 2879.07,1538.55 L 2885.65,1527.15 L 2894.46,1517.36 L 2905.12,1509.62 L 2917.15,1504.26 L 2930.03,1501.53 L 2943.2,1501.53 L 2956.08,1504.26 L 2968.11,1509.62 L 2978.76,1517.36 L 2987.58,1527.15 L 2994.16,1538.55 L 2998.23,1551.08 L 2999.61,1564.17 L 2998.23,1577.27 L 2994.16,1589.79 L 2987.58,1601.2 L 2978.76,1610.99 L 2968.11,1618.73 L 2956.08,1624.08 L 2943.2,1626.82 L 2930.03,1626.82 L 2917.15,1624.08 L 2905.12,1618.73 L 2894.46,1610.99 L 2885.65,1601.2 L 2879.07,1589.79 L 2875,1577.27 L 2873.62,1564.17 z " style="fill-opacity:1.000000;fill:rgb(233,94,212);stroke:rgb(0,0,0);stroke-width:2"/></g>
<g fill-rule="evenodd"><path d="M 2873.62,1721.65 L 2875,1708.56 L 2879.07,1696.03 L 2885.65,1684.63 L 2894.46,1674.84 L 2905.12,1667.1 L 2917.15,1661.74 L 2930.03,1659.01 L 2943.2,1659.01 L 2956.08,1661.74 L 2968.11,1667.1 L 2978.76,1674.84 L 2987.58,1684.63 L 2994.16,1696.03 L 2998.23,1708.56 L 2999.61,1721.65 L 2998.23,1734.75 L 2994.16,1747.27 L 2987.58,1758.68 L 2978.76,1768.47 L 2968.11,1776.21 L 2956.08,1781.56 L 2943.2,1784.3 L 2930.03,1784.3 L 2917.15,1781.56 L 2905.12,1776.21 L 2894.46,1768.47 L 2885.65,1758.68 L 2879.07,1747.27 L 2875,1734.75 L 2873.62,1721.65 z " style="fill-opacity:1.000000;fill:rgb(171,178,205);stroke:rgb(0,0,0);stroke-width:2"/></g>
<g fill-rule="evenodd"><path d="M 717.437,1177.19 L 725.668,1162.93 L 736.683,1150.7 L 750,1141.02 L 765.038,1134.33 L 781.139,1130.9 L 797.601,1130.9 L 813.702,1134.33 L 828.74,1141.02 L 842.058,1150.7 L 853.072,1162.93 L 861.303,1177.19 L 864.034,1185.59 L 1022.83,1185.59 L 1801.91,406.51 L 1805.49,403.573 L 1809.57,401.39 L 1814.01,400.046 L 1818.61,399.592 L 2064.95,399.592 L 2067.68,391.186 L 2075.91,376.93 L 2086.93,364.697 L 2100.24,355.022 L 2115.28,348.326 L 2131.38,344.904 L 2147.84,344.904 L 2163.95,348.326 L 2178.98,355.022 L 2192.3,364.697 L 2203.32,376.93 L 2211.55,391.186 L 2216.63,406.842 L 2218.35,423.213 L 2216.63,439.584 L 2211.55,455.239 L 2203.32,469.495 L 2192.3,481.728 L 2178.98,491.404 L 2163.95,498.099 L 2147.84,501.521 L 2131.38,501.521 L 2115.28,498.099 L 2100.24,491.404 L 2086.93,481.728 L 2075.91,469.495 L 2067.68,455.239 L 2064.95,446.836 L 1828.4,446.836 L 1049.31,1225.92 L 1045.74,1228.85 L 1041.65,1231.04 L 1037.22,1232.38 L 1032.61,1232.84 L 864.033,1232.84 L 861.303,1241.24 L 853.072,1255.49 L 842.058,1267.73 L 828.74,1277.4 L 813.702,1284.1 L 812.991,1284.25 L 812.992,1674.19 L 1248.4,2109.59 L 1315.95,2109.59 L 1318.68,2101.19 L 1326.91,2086.93 L 1337.93,2074.7 L 1351.24,2065.02 L 1366.28,2058.33 L 1382.38,2054.9 L 1398.84,2054.9 L 1414.95,2058.33 L 1429.98,2065.02 L 1443.3,2074.7 L 1454.32,2086.93 L 1462.55,2101.19 L 1465.28,2109.59 L 2164.83,2109.59 L 2194.99,2079.43 L 2194.99,1974.25 L 2194.28,1974.1 L 2179.24,1967.4 L 2165.93,1957.73 L 2154.91,1945.49 L 2146.68,1931.24 L 2141.59,1915.58 L 2139.87,1899.21 L 2141.59,1882.84 L 2146.68,1867.19 L 2154.91,1852.93 L 2165.93,1840.7 L 2179.24,1831.02 L 2194.28,1824.33 L 2210.38,1820.9 L 2226.84,1820.9 L 2242.95,1824.33 L 2257.98,1831.02 L 2271.3,1840.7 L 2282.32,1852.93 L 2290.55,1867.19 L 2294.58,1879.59 L 3232.83,1879.59 L 3257.06,1855.36 L 3254.68,1851.24 L 3249.59,1835.58 L 3247.87,1819.21 L 3249.59,1802.84 L 3254.68,1787.19 L 3262.91,1772.93 L 3273.93,1760.7 L 3287.24,1751.02 L 3302.28,1744.33 L 3318.38,1740.9 L 3334.84,1740.9 L 3350.95,1744.33 L 3365.98,1751.02 L 3379.3,1760.7 L 3390.32,1772.93 L 3398.55,1787.19 L 3403.63,1802.84 L 3403.92,1805.59 L 3821.28,1805.59 L 3823.68,1798.19 L 3831.91,1783.93 L 3842.93,1771.7 L 3856.24,1762.02 L 3871.28,1755.33 L 3887.38,1751.9 L 3903.84,1751.9 L 3919.95,1755.33 L 3934.98,1762.02 L 3948.3,1771.7 L 3959.32,1783.93 L 3967.55,1798.19 L 3972.63,1813.84 L 3974.35,1830.21 L 3972.63,1846.58 L 3967.55,1862.24 L 3959.32,1876.49 L 3948.3,1888.73 L 3934.98,1898.4 L 3919.95,1905.1 L 3903.84,1908.52 L 3887.38,1908.52 L 3871.28,1905.1 L 3856.24,1898.4 L 3842.93,1888.73 L 3831.91,1876.49 L 3823.68,1862.24 L 3820.63,1852.84 L 3397.63,1852.84 L 3390.32,1865.49 L 3379.3,1877.73 L 3365.98,1887.4 L 3350.95,1894.1 L 3334.84,1897.52 L 3318.38,1897.52 L 3302.28,1894.1 L 3290.42,1888.82 L 3259.32,1919.92 L 3256.5,1922.32 L 3253.34,1924.26 L 3249.91,1925.68 L 3246.31,1926.54 L 3242.61,1926.84 L 2291.98,1926.84 L 2290.55,1931.24 L 2282.32,1945.49 L 2271.3,1957.73 L 2257.98,1967.4 L 2242.95,1974.1 L 2242.24,1974.25 L 2242.24,2089.22 L 2241.94,2092.91 L 2241.08,2096.52 L 2239.66,2099.94 L 2237.72,2103.1 L 2235.32,2105.92 L 2191.32,2149.92 L 2187.74,2152.85 L 2183.65,2155.04 L 2179.22,2156.38 L 2174.61,2156.84 L 1465.28,2156.84 L 1462.55,2165.24 L 1454.32,2179.49 L 1443.3,2191.73 L 1429.98,2201.4 L 1414.95,2208.1 L 1398.84,2211.52 L 1382.38,2211.52 L 1366.28,2208.1 L 1351.24,2201.4 L 1337.93,2191.73 L 1326.91,2179.49 L 1318.68,2165.24 L 1315.95,2156.84 L 1238.61,2156.84 L 1234.01,2156.38 L 1229.57,2155.04 L 1225.49,2152.85 L 1221.91,2149.92 L 772.666,1700.67 L 769.728,1697.09 L 767.546,1693.01 L 766.201,1688.58 L 765.747,1683.97 L 765.747,1284.25 L 765.038,1284.1 L 750,1277.4 L 736.683,1267.73 L 725.668,1255.49 L 717.437,1241.24 L 712.351,1225.58 L 710.63,1209.21 L 712.351,1192.84 L 717.437,1177.19 z " style="fill-opacity:1.000000;fill:rgb(198,155,180);stroke:rgb(0,0,0);stroke-width:2"/></g>
</svg>
