<?xml version="1.0" standalone="no"?>
<!DOCTYPE svg PUBLIC "-//W3C//DTD SVG 1.1//EN"
"http://www.w3.org/Graphics/SVG/1.1/DTD/svg11.dtd">
<svg width="230.74" height="124.913" viewBox="0 0 4807.09 2602.36" version="1.1"
xmlns="http://www.w3.org/2000/svg"
xmlns:xlink="http://www.w3.org/1999/xlink">
<g fill-rule="evenodd"><path d="M -4.51639e-13,2602.36 L -4.51639e-13,0 L 4807.09,0 L 4807.09,2602.36 L -4.51639e-13,2602.36 z " style="fill-opacity:0.200000;fill:rgb(103,198,105);"/></g>
<polyline points="-0.000503937,2602.36 -0.000503937,0.00170079 4807.09,0.00170079 4807.09,2602.36 -0.000503937,2602.36" style="stroke:rgb(103,198,105);stroke-width:118.110236;fill:none;stroke-opacity:0.5;stroke-linecap:round;stroke-linejoin:round;;fill:none"/>
<polyline points="-0.000503937,2602.36 -0.000503937,0.00170079 4807.09,0.00170079 4807.09,2602.36 -0.000503937,2602.36" style="stroke:rgb(0,0,0);stroke-width:1px;fill:none;stroke-opacity:1;stroke-linecap:round;stroke-linejoin:round;;fill:none"/>
<polyline points="179.131,2423.23 179.131,179.136 4627.95,179.136 4627.95,2423.23 179.131,2423.23" style="stroke:rgb(103,198,105);stroke-width:118.110236;fill:none;stroke-opacity:0.5;stroke-linecap:round;stroke-linejoin:round;;fill:none"/>
<polyline points="179.131,2423.23 179.131,179.136 4627.95,179.136 4627.95,2423.23 179.131,2423.23" style="stroke:rgb(0,0,0);stroke-width:1px;fill:none;stroke-opacity:1;stroke-linecap:round;stroke-linejoin:round;;fill:none"/>
<g fill-rule="evenodd"><path d="M -4.51639e-13,0 L 4807.09,0 L 4807.09,2602.36 L -4.51639e-13,2602.36 L -4.51639e-13,0M 4687.01,120.08 L 120.077,120.08 L 120.077,2482.28 L 4687.01,2482.28 L 4687.01,120.08 z " style="fill-opacity:1.000000;fill:rgb(103,198,105);stroke:rgb(0,0,0);stroke-width:2"/></g>
</svg>
