%TF.GenerationSoftware,KiCad,Pcbnew,5.1.8+dfsg1-1~bpo10+1*%
%TF.CreationDate,2020-11-21T14:30:28+03:00*%
%TF.ProjectId,ADCandDAC,41444361-6e64-4444-9143-2e6b69636164,rev?*%
%TF.SameCoordinates,Original*%
%TF.FileFunction,Copper,L1,Top*%
%TF.FilePolarity,Positive*%
%FSLAX46Y46*%
G04 Gerber Fmt 4.6, Leading zero omitted, Abs format (unit mm)*
G04 Created by KiCad (PCBNEW 5.1.8+dfsg1-1~bpo10+1) date 2020-11-21 14:30:28*
%MOMM*%
%LPD*%
G01*
G04 APERTURE LIST*
%TA.AperFunction,ComponentPad*%
%ADD10R,1.600000X1.600000*%
%TD*%
%TA.AperFunction,ComponentPad*%
%ADD11O,1.600000X1.600000*%
%TD*%
%TA.AperFunction,ComponentPad*%
%ADD12R,2.000000X2.000000*%
%TD*%
%TA.AperFunction,ComponentPad*%
%ADD13O,2.000000X2.000000*%
%TD*%
%TA.AperFunction,ViaPad*%
%ADD14C,2.000000*%
%TD*%
%TA.AperFunction,Conductor*%
%ADD15C,0.400000*%
%TD*%
%TA.AperFunction,Conductor*%
%ADD16C,0.600000*%
%TD*%
%TA.AperFunction,Conductor*%
%ADD17C,0.500000*%
%TD*%
G04 APERTURE END LIST*
%TO.P,C4,1*%
%TO.N,VCC_12V*%
%TA.AperFunction,SMDPad,CuDef*%
G36*
G01*
X45406600Y29065800D02*
X46356600Y29065800D01*
G75*
G02*
X46606600Y28815800I0J-250000D01*
G01*
X46606600Y28140800D01*
G75*
G02*
X46356600Y27890800I-250000J0D01*
G01*
X45406600Y27890800D01*
G75*
G02*
X45156600Y28140800I0J250000D01*
G01*
X45156600Y28815800D01*
G75*
G02*
X45406600Y29065800I250000J0D01*
G01*
G37*
%TD.AperFunction*%
%TO.P,C4,2*%
%TO.N,GND*%
%TA.AperFunction,SMDPad,CuDef*%
G36*
G01*
X45406600Y26990800D02*
X46356600Y26990800D01*
G75*
G02*
X46606600Y26740800I0J-250000D01*
G01*
X46606600Y26065800D01*
G75*
G02*
X46356600Y25815800I-250000J0D01*
G01*
X45406600Y25815800D01*
G75*
G02*
X45156600Y26065800I0J250000D01*
G01*
X45156600Y26740800D01*
G75*
G02*
X45406600Y26990800I250000J0D01*
G01*
G37*
%TD.AperFunction*%
%TD*%
%TO.P,C3,2*%
%TO.N,GND*%
%TA.AperFunction,SMDPad,CuDef*%
G36*
G01*
X47692600Y26990800D02*
X48642600Y26990800D01*
G75*
G02*
X48892600Y26740800I0J-250000D01*
G01*
X48892600Y26065800D01*
G75*
G02*
X48642600Y25815800I-250000J0D01*
G01*
X47692600Y25815800D01*
G75*
G02*
X47442600Y26065800I0J250000D01*
G01*
X47442600Y26740800D01*
G75*
G02*
X47692600Y26990800I250000J0D01*
G01*
G37*
%TD.AperFunction*%
%TO.P,C3,1*%
%TO.N,VCC_12V*%
%TA.AperFunction,SMDPad,CuDef*%
G36*
G01*
X47692600Y29065800D02*
X48642600Y29065800D01*
G75*
G02*
X48892600Y28815800I0J-250000D01*
G01*
X48892600Y28140800D01*
G75*
G02*
X48642600Y27890800I-250000J0D01*
G01*
X47692600Y27890800D01*
G75*
G02*
X47442600Y28140800I0J250000D01*
G01*
X47442600Y28815800D01*
G75*
G02*
X47692600Y29065800I250000J0D01*
G01*
G37*
%TD.AperFunction*%
%TD*%
%TO.P,C1,2*%
%TO.N,GND*%
%TA.AperFunction,SMDPad,CuDef*%
G36*
G01*
X32212300Y24062001D02*
X32212300Y23211999D01*
G75*
G02*
X31962301Y22962000I-249999J0D01*
G01*
X30887299Y22962000D01*
G75*
G02*
X30637300Y23211999I0J249999D01*
G01*
X30637300Y24062001D01*
G75*
G02*
X30887299Y24312000I249999J0D01*
G01*
X31962301Y24312000D01*
G75*
G02*
X32212300Y24062001I0J-249999D01*
G01*
G37*
%TD.AperFunction*%
%TO.P,C1,1*%
%TO.N,VCC_12V*%
%TA.AperFunction,SMDPad,CuDef*%
G36*
G01*
X35087300Y24062001D02*
X35087300Y23211999D01*
G75*
G02*
X34837301Y22962000I-249999J0D01*
G01*
X33762299Y22962000D01*
G75*
G02*
X33512300Y23211999I0J249999D01*
G01*
X33512300Y24062001D01*
G75*
G02*
X33762299Y24312000I249999J0D01*
G01*
X34837301Y24312000D01*
G75*
G02*
X35087300Y24062001I0J-249999D01*
G01*
G37*
%TD.AperFunction*%
%TD*%
%TO.P,C2,1*%
%TO.N,VCC_12V*%
%TA.AperFunction,SMDPad,CuDef*%
G36*
G01*
X35100000Y27922801D02*
X35100000Y27072799D01*
G75*
G02*
X34850001Y26822800I-249999J0D01*
G01*
X33774999Y26822800D01*
G75*
G02*
X33525000Y27072799I0J249999D01*
G01*
X33525000Y27922801D01*
G75*
G02*
X33774999Y28172800I249999J0D01*
G01*
X34850001Y28172800D01*
G75*
G02*
X35100000Y27922801I0J-249999D01*
G01*
G37*
%TD.AperFunction*%
%TO.P,C2,2*%
%TO.N,GND*%
%TA.AperFunction,SMDPad,CuDef*%
G36*
G01*
X32225000Y27922801D02*
X32225000Y27072799D01*
G75*
G02*
X31975001Y26822800I-249999J0D01*
G01*
X30899999Y26822800D01*
G75*
G02*
X30650000Y27072799I0J249999D01*
G01*
X30650000Y27922801D01*
G75*
G02*
X30899999Y28172800I249999J0D01*
G01*
X31975001Y28172800D01*
G75*
G02*
X32225000Y27922801I0J-249999D01*
G01*
G37*
%TD.AperFunction*%
%TD*%
%TO.P,C5,2*%
%TO.N,GND*%
%TA.AperFunction,SMDPad,CuDef*%
G36*
G01*
X18303000Y27124000D02*
X19253000Y27124000D01*
G75*
G02*
X19503000Y26874000I0J-250000D01*
G01*
X19503000Y26199000D01*
G75*
G02*
X19253000Y25949000I-250000J0D01*
G01*
X18303000Y25949000D01*
G75*
G02*
X18053000Y26199000I0J250000D01*
G01*
X18053000Y26874000D01*
G75*
G02*
X18303000Y27124000I250000J0D01*
G01*
G37*
%TD.AperFunction*%
%TO.P,C5,1*%
%TO.N,Net-(C5-Pad1)*%
%TA.AperFunction,SMDPad,CuDef*%
G36*
G01*
X18303000Y29199000D02*
X19253000Y29199000D01*
G75*
G02*
X19503000Y28949000I0J-250000D01*
G01*
X19503000Y28274000D01*
G75*
G02*
X19253000Y28024000I-250000J0D01*
G01*
X18303000Y28024000D01*
G75*
G02*
X18053000Y28274000I0J250000D01*
G01*
X18053000Y28949000D01*
G75*
G02*
X18303000Y29199000I250000J0D01*
G01*
G37*
%TD.AperFunction*%
%TD*%
%TO.P,C6,2*%
%TO.N,GND*%
%TA.AperFunction,SMDPad,CuDef*%
G36*
G01*
X22555000Y26097500D02*
X21605000Y26097500D01*
G75*
G02*
X21355000Y26347500I0J250000D01*
G01*
X21355000Y27022500D01*
G75*
G02*
X21605000Y27272500I250000J0D01*
G01*
X22555000Y27272500D01*
G75*
G02*
X22805000Y27022500I0J-250000D01*
G01*
X22805000Y26347500D01*
G75*
G02*
X22555000Y26097500I-250000J0D01*
G01*
G37*
%TD.AperFunction*%
%TO.P,C6,1*%
%TO.N,Net-(C6-Pad1)*%
%TA.AperFunction,SMDPad,CuDef*%
G36*
G01*
X22555000Y24022500D02*
X21605000Y24022500D01*
G75*
G02*
X21355000Y24272500I0J250000D01*
G01*
X21355000Y24947500D01*
G75*
G02*
X21605000Y25197500I250000J0D01*
G01*
X22555000Y25197500D01*
G75*
G02*
X22805000Y24947500I0J-250000D01*
G01*
X22805000Y24272500D01*
G75*
G02*
X22555000Y24022500I-250000J0D01*
G01*
G37*
%TD.AperFunction*%
%TD*%
%TO.P,C7,1*%
%TO.N,Net-(C7-Pad1)*%
%TA.AperFunction,SMDPad,CuDef*%
G36*
G01*
X9347000Y20234000D02*
X8397000Y20234000D01*
G75*
G02*
X8147000Y20484000I0J250000D01*
G01*
X8147000Y21159000D01*
G75*
G02*
X8397000Y21409000I250000J0D01*
G01*
X9347000Y21409000D01*
G75*
G02*
X9597000Y21159000I0J-250000D01*
G01*
X9597000Y20484000D01*
G75*
G02*
X9347000Y20234000I-250000J0D01*
G01*
G37*
%TD.AperFunction*%
%TO.P,C7,2*%
%TO.N,Net-(C7-Pad2)*%
%TA.AperFunction,SMDPad,CuDef*%
G36*
G01*
X9347000Y22309000D02*
X8397000Y22309000D01*
G75*
G02*
X8147000Y22559000I0J250000D01*
G01*
X8147000Y23234000D01*
G75*
G02*
X8397000Y23484000I250000J0D01*
G01*
X9347000Y23484000D01*
G75*
G02*
X9597000Y23234000I0J-250000D01*
G01*
X9597000Y22559000D01*
G75*
G02*
X9347000Y22309000I-250000J0D01*
G01*
G37*
%TD.AperFunction*%
%TD*%
%TO.P,C8,1*%
%TO.N,Net-(C8-Pad1)*%
%TA.AperFunction,SMDPad,CuDef*%
G36*
G01*
X11692000Y6652000D02*
X11692000Y7602000D01*
G75*
G02*
X11942000Y7852000I250000J0D01*
G01*
X12617000Y7852000D01*
G75*
G02*
X12867000Y7602000I0J-250000D01*
G01*
X12867000Y6652000D01*
G75*
G02*
X12617000Y6402000I-250000J0D01*
G01*
X11942000Y6402000D01*
G75*
G02*
X11692000Y6652000I0J250000D01*
G01*
G37*
%TD.AperFunction*%
%TO.P,C8,2*%
%TO.N,GND*%
%TA.AperFunction,SMDPad,CuDef*%
G36*
G01*
X13767000Y6652000D02*
X13767000Y7602000D01*
G75*
G02*
X14017000Y7852000I250000J0D01*
G01*
X14692000Y7852000D01*
G75*
G02*
X14942000Y7602000I0J-250000D01*
G01*
X14942000Y6652000D01*
G75*
G02*
X14692000Y6402000I-250000J0D01*
G01*
X14017000Y6402000D01*
G75*
G02*
X13767000Y6652000I0J250000D01*
G01*
G37*
%TD.AperFunction*%
%TD*%
%TO.P,C9,2*%
%TO.N,GND*%
%TA.AperFunction,SMDPad,CuDef*%
G36*
G01*
X48286899Y20015200D02*
X49136901Y20015200D01*
G75*
G02*
X49386900Y19765201I0J-249999D01*
G01*
X49386900Y18690199D01*
G75*
G02*
X49136901Y18440200I-249999J0D01*
G01*
X48286899Y18440200D01*
G75*
G02*
X48036900Y18690199I0J249999D01*
G01*
X48036900Y19765201D01*
G75*
G02*
X48286899Y20015200I249999J0D01*
G01*
G37*
%TD.AperFunction*%
%TO.P,C9,1*%
%TO.N,/REF+4*%
%TA.AperFunction,SMDPad,CuDef*%
G36*
G01*
X48286899Y22890200D02*
X49136901Y22890200D01*
G75*
G02*
X49386900Y22640201I0J-249999D01*
G01*
X49386900Y21565199D01*
G75*
G02*
X49136901Y21315200I-249999J0D01*
G01*
X48286899Y21315200D01*
G75*
G02*
X48036900Y21565199I0J249999D01*
G01*
X48036900Y22640201D01*
G75*
G02*
X48286899Y22890200I249999J0D01*
G01*
G37*
%TD.AperFunction*%
%TD*%
%TO.P,C10,1*%
%TO.N,/REF+5*%
%TA.AperFunction,SMDPad,CuDef*%
G36*
G01*
X52049500Y9026099D02*
X52049500Y9876101D01*
G75*
G02*
X52299499Y10126100I249999J0D01*
G01*
X53374501Y10126100D01*
G75*
G02*
X53624500Y9876101I0J-249999D01*
G01*
X53624500Y9026099D01*
G75*
G02*
X53374501Y8776100I-249999J0D01*
G01*
X52299499Y8776100D01*
G75*
G02*
X52049500Y9026099I0J249999D01*
G01*
G37*
%TD.AperFunction*%
%TO.P,C10,2*%
%TO.N,GND*%
%TA.AperFunction,SMDPad,CuDef*%
G36*
G01*
X54924500Y9026099D02*
X54924500Y9876101D01*
G75*
G02*
X55174499Y10126100I249999J0D01*
G01*
X56249501Y10126100D01*
G75*
G02*
X56499500Y9876101I0J-249999D01*
G01*
X56499500Y9026099D01*
G75*
G02*
X56249501Y8776100I-249999J0D01*
G01*
X55174499Y8776100D01*
G75*
G02*
X54924500Y9026099I0J249999D01*
G01*
G37*
%TD.AperFunction*%
%TD*%
%TO.P,C11,1*%
%TO.N,Net-(C11-Pad1)*%
%TA.AperFunction,SMDPad,CuDef*%
G36*
G01*
X6619000Y14488500D02*
X7569000Y14488500D01*
G75*
G02*
X7819000Y14238500I0J-250000D01*
G01*
X7819000Y13563500D01*
G75*
G02*
X7569000Y13313500I-250000J0D01*
G01*
X6619000Y13313500D01*
G75*
G02*
X6369000Y13563500I0J250000D01*
G01*
X6369000Y14238500D01*
G75*
G02*
X6619000Y14488500I250000J0D01*
G01*
G37*
%TD.AperFunction*%
%TO.P,C11,2*%
%TO.N,Net-(C11-Pad2)*%
%TA.AperFunction,SMDPad,CuDef*%
G36*
G01*
X6619000Y12413500D02*
X7569000Y12413500D01*
G75*
G02*
X7819000Y12163500I0J-250000D01*
G01*
X7819000Y11488500D01*
G75*
G02*
X7569000Y11238500I-250000J0D01*
G01*
X6619000Y11238500D01*
G75*
G02*
X6369000Y11488500I0J250000D01*
G01*
X6369000Y12163500D01*
G75*
G02*
X6619000Y12413500I250000J0D01*
G01*
G37*
%TD.AperFunction*%
%TD*%
%TO.P,C12,1*%
%TO.N,/REF+4*%
%TA.AperFunction,SMDPad,CuDef*%
G36*
G01*
X45646100Y22887100D02*
X46596100Y22887100D01*
G75*
G02*
X46846100Y22637100I0J-250000D01*
G01*
X46846100Y21962100D01*
G75*
G02*
X46596100Y21712100I-250000J0D01*
G01*
X45646100Y21712100D01*
G75*
G02*
X45396100Y21962100I0J250000D01*
G01*
X45396100Y22637100D01*
G75*
G02*
X45646100Y22887100I250000J0D01*
G01*
G37*
%TD.AperFunction*%
%TO.P,C12,2*%
%TO.N,GND*%
%TA.AperFunction,SMDPad,CuDef*%
G36*
G01*
X45646100Y20812100D02*
X46596100Y20812100D01*
G75*
G02*
X46846100Y20562100I0J-250000D01*
G01*
X46846100Y19887100D01*
G75*
G02*
X46596100Y19637100I-250000J0D01*
G01*
X45646100Y19637100D01*
G75*
G02*
X45396100Y19887100I0J250000D01*
G01*
X45396100Y20562100D01*
G75*
G02*
X45646100Y20812100I250000J0D01*
G01*
G37*
%TD.AperFunction*%
%TD*%
%TO.P,C13,2*%
%TO.N,GND*%
%TA.AperFunction,SMDPad,CuDef*%
G36*
G01*
X54165700Y6042400D02*
X54165700Y6992400D01*
G75*
G02*
X54415700Y7242400I250000J0D01*
G01*
X55090700Y7242400D01*
G75*
G02*
X55340700Y6992400I0J-250000D01*
G01*
X55340700Y6042400D01*
G75*
G02*
X55090700Y5792400I-250000J0D01*
G01*
X54415700Y5792400D01*
G75*
G02*
X54165700Y6042400I0J250000D01*
G01*
G37*
%TD.AperFunction*%
%TO.P,C13,1*%
%TO.N,/REF+5*%
%TA.AperFunction,SMDPad,CuDef*%
G36*
G01*
X52090700Y6042400D02*
X52090700Y6992400D01*
G75*
G02*
X52340700Y7242400I250000J0D01*
G01*
X53015700Y7242400D01*
G75*
G02*
X53265700Y6992400I0J-250000D01*
G01*
X53265700Y6042400D01*
G75*
G02*
X53015700Y5792400I-250000J0D01*
G01*
X52340700Y5792400D01*
G75*
G02*
X52090700Y6042400I0J250000D01*
G01*
G37*
%TD.AperFunction*%
%TD*%
%TO.P,D1,8*%
%TO.N,/REF+5*%
%TA.AperFunction,SMDPad,CuDef*%
G36*
G01*
X42932000Y12103000D02*
X42932000Y11803000D01*
G75*
G02*
X42782000Y11653000I-150000J0D01*
G01*
X41132000Y11653000D01*
G75*
G02*
X40982000Y11803000I0J150000D01*
G01*
X40982000Y12103000D01*
G75*
G02*
X41132000Y12253000I150000J0D01*
G01*
X42782000Y12253000D01*
G75*
G02*
X42932000Y12103000I0J-150000D01*
G01*
G37*
%TD.AperFunction*%
%TO.P,D1,7*%
%TO.N,GND*%
%TA.AperFunction,SMDPad,CuDef*%
G36*
G01*
X42932000Y13373000D02*
X42932000Y13073000D01*
G75*
G02*
X42782000Y12923000I-150000J0D01*
G01*
X41132000Y12923000D01*
G75*
G02*
X40982000Y13073000I0J150000D01*
G01*
X40982000Y13373000D01*
G75*
G02*
X41132000Y13523000I150000J0D01*
G01*
X42782000Y13523000D01*
G75*
G02*
X42932000Y13373000I0J-150000D01*
G01*
G37*
%TD.AperFunction*%
%TO.P,D1,6*%
%TO.N,MOSI*%
%TA.AperFunction,SMDPad,CuDef*%
G36*
G01*
X42932000Y14643000D02*
X42932000Y14343000D01*
G75*
G02*
X42782000Y14193000I-150000J0D01*
G01*
X41132000Y14193000D01*
G75*
G02*
X40982000Y14343000I0J150000D01*
G01*
X40982000Y14643000D01*
G75*
G02*
X41132000Y14793000I150000J0D01*
G01*
X42782000Y14793000D01*
G75*
G02*
X42932000Y14643000I0J-150000D01*
G01*
G37*
%TD.AperFunction*%
%TO.P,D1,5*%
%TO.N,SCK*%
%TA.AperFunction,SMDPad,CuDef*%
G36*
G01*
X42932000Y15913000D02*
X42932000Y15613000D01*
G75*
G02*
X42782000Y15463000I-150000J0D01*
G01*
X41132000Y15463000D01*
G75*
G02*
X40982000Y15613000I0J150000D01*
G01*
X40982000Y15913000D01*
G75*
G02*
X41132000Y16063000I150000J0D01*
G01*
X42782000Y16063000D01*
G75*
G02*
X42932000Y15913000I0J-150000D01*
G01*
G37*
%TD.AperFunction*%
%TO.P,D1,4*%
%TO.N,DAC*%
%TA.AperFunction,SMDPad,CuDef*%
G36*
G01*
X47882000Y15913000D02*
X47882000Y15613000D01*
G75*
G02*
X47732000Y15463000I-150000J0D01*
G01*
X46082000Y15463000D01*
G75*
G02*
X45932000Y15613000I0J150000D01*
G01*
X45932000Y15913000D01*
G75*
G02*
X46082000Y16063000I150000J0D01*
G01*
X47732000Y16063000D01*
G75*
G02*
X47882000Y15913000I0J-150000D01*
G01*
G37*
%TD.AperFunction*%
%TO.P,D1,3*%
%TO.N,/REF+4*%
%TA.AperFunction,SMDPad,CuDef*%
G36*
G01*
X47882000Y14643000D02*
X47882000Y14343000D01*
G75*
G02*
X47732000Y14193000I-150000J0D01*
G01*
X46082000Y14193000D01*
G75*
G02*
X45932000Y14343000I0J150000D01*
G01*
X45932000Y14643000D01*
G75*
G02*
X46082000Y14793000I150000J0D01*
G01*
X47732000Y14793000D01*
G75*
G02*
X47882000Y14643000I0J-150000D01*
G01*
G37*
%TD.AperFunction*%
%TO.P,D1,2*%
%TO.N,GND*%
%TA.AperFunction,SMDPad,CuDef*%
G36*
G01*
X47882000Y13373000D02*
X47882000Y13073000D01*
G75*
G02*
X47732000Y12923000I-150000J0D01*
G01*
X46082000Y12923000D01*
G75*
G02*
X45932000Y13073000I0J150000D01*
G01*
X45932000Y13373000D01*
G75*
G02*
X46082000Y13523000I150000J0D01*
G01*
X47732000Y13523000D01*
G75*
G02*
X47882000Y13373000I0J-150000D01*
G01*
G37*
%TD.AperFunction*%
%TO.P,D1,1*%
%TO.N,/DACgen*%
%TA.AperFunction,SMDPad,CuDef*%
G36*
G01*
X47882000Y12103000D02*
X47882000Y11803000D01*
G75*
G02*
X47732000Y11653000I-150000J0D01*
G01*
X46082000Y11653000D01*
G75*
G02*
X45932000Y11803000I0J150000D01*
G01*
X45932000Y12103000D01*
G75*
G02*
X46082000Y12253000I150000J0D01*
G01*
X47732000Y12253000D01*
G75*
G02*
X47882000Y12103000I0J-150000D01*
G01*
G37*
%TD.AperFunction*%
%TD*%
D10*
%TO.P,J1,1*%
%TO.N,Net-(J1-Pad1)*%
X8872000Y27447000D03*
D11*
%TO.P,J1,2*%
%TO.N,Net-(J1-Pad2)*%
X8872000Y25447000D03*
%TD*%
%TO.P,J2,2*%
%TO.N,GND*%
X25636000Y24621000D03*
D10*
%TO.P,J2,1*%
%TO.N,Net-(J2-Pad1)*%
X25636000Y22621000D03*
%TD*%
D11*
%TO.P,J3,2*%
%TO.N,Net-(J3-Pad2)*%
X9348000Y5222000D03*
D10*
%TO.P,J3,1*%
%TO.N,Net-(J3-Pad1)*%
X7348000Y5222000D03*
%TD*%
D12*
%TO.P,J4,1*%
%TO.N,VCC_12V*%
X54934900Y23725900D03*
D13*
%TO.P,J4,2*%
%TO.N,GND*%
X52394900Y23725900D03*
%TD*%
D10*
%TO.P,J5,1*%
%TO.N,Net-(J5-Pad1)*%
X22092700Y8778000D03*
D11*
%TO.P,J5,2*%
%TO.N,GND*%
X24092700Y8778000D03*
%TD*%
D10*
%TO.P,J6,1*%
%TO.N,DAC*%
X36456400Y7000000D03*
D11*
%TO.P,J6,2*%
%TO.N,GND*%
X34456400Y7000000D03*
%TO.P,J6,3*%
%TO.N,ADC*%
X32456400Y7000000D03*
%TD*%
D10*
%TO.P,J7,1*%
%TO.N,SCK*%
X37320000Y17160000D03*
D11*
%TO.P,J7,2*%
%TO.N,MISO*%
X37320000Y15160000D03*
%TO.P,J7,3*%
%TO.N,MOSI*%
X37320000Y13160000D03*
%TO.P,J7,4*%
%TO.N,GND*%
X37320000Y11160000D03*
%TD*%
%TO.P,R1,2*%
%TO.N,Net-(C5-Pad1)*%
%TA.AperFunction,SMDPad,CuDef*%
G36*
G01*
X13225000Y26488999D02*
X13225000Y27389001D01*
G75*
G02*
X13474999Y27639000I249999J0D01*
G01*
X14175001Y27639000D01*
G75*
G02*
X14425000Y27389001I0J-249999D01*
G01*
X14425000Y26488999D01*
G75*
G02*
X14175001Y26239000I-249999J0D01*
G01*
X13474999Y26239000D01*
G75*
G02*
X13225000Y26488999I0J249999D01*
G01*
G37*
%TD.AperFunction*%
%TO.P,R1,1*%
%TO.N,Net-(J1-Pad2)*%
%TA.AperFunction,SMDPad,CuDef*%
G36*
G01*
X11225000Y26488999D02*
X11225000Y27389001D01*
G75*
G02*
X11474999Y27639000I249999J0D01*
G01*
X12175001Y27639000D01*
G75*
G02*
X12425000Y27389001I0J-249999D01*
G01*
X12425000Y26488999D01*
G75*
G02*
X12175001Y26239000I-249999J0D01*
G01*
X11474999Y26239000D01*
G75*
G02*
X11225000Y26488999I0J249999D01*
G01*
G37*
%TD.AperFunction*%
%TD*%
%TO.P,R2,1*%
%TO.N,Net-(J1-Pad1)*%
%TA.AperFunction,SMDPad,CuDef*%
G36*
G01*
X5246999Y28047000D02*
X6147001Y28047000D01*
G75*
G02*
X6397000Y27797001I0J-249999D01*
G01*
X6397000Y27096999D01*
G75*
G02*
X6147001Y26847000I-249999J0D01*
G01*
X5246999Y26847000D01*
G75*
G02*
X4997000Y27096999I0J249999D01*
G01*
X4997000Y27797001D01*
G75*
G02*
X5246999Y28047000I249999J0D01*
G01*
G37*
%TD.AperFunction*%
%TO.P,R2,2*%
%TO.N,Net-(C7-Pad2)*%
%TA.AperFunction,SMDPad,CuDef*%
G36*
G01*
X5246999Y26047000D02*
X6147001Y26047000D01*
G75*
G02*
X6397000Y25797001I0J-249999D01*
G01*
X6397000Y25096999D01*
G75*
G02*
X6147001Y24847000I-249999J0D01*
G01*
X5246999Y24847000D01*
G75*
G02*
X4997000Y25096999I0J249999D01*
G01*
X4997000Y25797001D01*
G75*
G02*
X5246999Y26047000I249999J0D01*
G01*
G37*
%TD.AperFunction*%
%TD*%
%TO.P,R3,1*%
%TO.N,Net-(C5-Pad1)*%
%TA.AperFunction,SMDPad,CuDef*%
G36*
G01*
X16041999Y29158000D02*
X16942001Y29158000D01*
G75*
G02*
X17192000Y28908001I0J-249999D01*
G01*
X17192000Y28207999D01*
G75*
G02*
X16942001Y27958000I-249999J0D01*
G01*
X16041999Y27958000D01*
G75*
G02*
X15792000Y28207999I0J249999D01*
G01*
X15792000Y28908001D01*
G75*
G02*
X16041999Y29158000I249999J0D01*
G01*
G37*
%TD.AperFunction*%
%TO.P,R3,2*%
%TO.N,GND*%
%TA.AperFunction,SMDPad,CuDef*%
G36*
G01*
X16041999Y27158000D02*
X16942001Y27158000D01*
G75*
G02*
X17192000Y26908001I0J-249999D01*
G01*
X17192000Y26207999D01*
G75*
G02*
X16942001Y25958000I-249999J0D01*
G01*
X16041999Y25958000D01*
G75*
G02*
X15792000Y26207999I0J249999D01*
G01*
X15792000Y26908001D01*
G75*
G02*
X16041999Y27158000I249999J0D01*
G01*
G37*
%TD.AperFunction*%
%TD*%
%TO.P,R4,2*%
%TO.N,Net-(C6-Pad1)*%
%TA.AperFunction,SMDPad,CuDef*%
G36*
G01*
X22530001Y21751000D02*
X21629999Y21751000D01*
G75*
G02*
X21380000Y22000999I0J249999D01*
G01*
X21380000Y22701001D01*
G75*
G02*
X21629999Y22951000I249999J0D01*
G01*
X22530001Y22951000D01*
G75*
G02*
X22780000Y22701001I0J-249999D01*
G01*
X22780000Y22000999D01*
G75*
G02*
X22530001Y21751000I-249999J0D01*
G01*
G37*
%TD.AperFunction*%
%TO.P,R4,1*%
%TO.N,Net-(J2-Pad1)*%
%TA.AperFunction,SMDPad,CuDef*%
G36*
G01*
X22530001Y19751000D02*
X21629999Y19751000D01*
G75*
G02*
X21380000Y20000999I0J249999D01*
G01*
X21380000Y20701001D01*
G75*
G02*
X21629999Y20951000I249999J0D01*
G01*
X22530001Y20951000D01*
G75*
G02*
X22780000Y20701001I0J-249999D01*
G01*
X22780000Y20000999D01*
G75*
G02*
X22530001Y19751000I-249999J0D01*
G01*
G37*
%TD.AperFunction*%
%TD*%
%TO.P,R5,2*%
%TO.N,Net-(C11-Pad2)*%
%TA.AperFunction,SMDPad,CuDef*%
G36*
G01*
X7544001Y9178000D02*
X6643999Y9178000D01*
G75*
G02*
X6394000Y9427999I0J249999D01*
G01*
X6394000Y10128001D01*
G75*
G02*
X6643999Y10378000I249999J0D01*
G01*
X7544001Y10378000D01*
G75*
G02*
X7794000Y10128001I0J-249999D01*
G01*
X7794000Y9427999D01*
G75*
G02*
X7544001Y9178000I-249999J0D01*
G01*
G37*
%TD.AperFunction*%
%TO.P,R5,1*%
%TO.N,Net-(J3-Pad1)*%
%TA.AperFunction,SMDPad,CuDef*%
G36*
G01*
X7544001Y7178000D02*
X6643999Y7178000D01*
G75*
G02*
X6394000Y7427999I0J249999D01*
G01*
X6394000Y8128001D01*
G75*
G02*
X6643999Y8378000I249999J0D01*
G01*
X7544001Y8378000D01*
G75*
G02*
X7794000Y8128001I0J-249999D01*
G01*
X7794000Y7427999D01*
G75*
G02*
X7544001Y7178000I-249999J0D01*
G01*
G37*
%TD.AperFunction*%
%TD*%
%TO.P,R6,1*%
%TO.N,Net-(J3-Pad2)*%
%TA.AperFunction,SMDPad,CuDef*%
G36*
G01*
X10084001Y7178000D02*
X9183999Y7178000D01*
G75*
G02*
X8934000Y7427999I0J249999D01*
G01*
X8934000Y8128001D01*
G75*
G02*
X9183999Y8378000I249999J0D01*
G01*
X10084001Y8378000D01*
G75*
G02*
X10334000Y8128001I0J-249999D01*
G01*
X10334000Y7427999D01*
G75*
G02*
X10084001Y7178000I-249999J0D01*
G01*
G37*
%TD.AperFunction*%
%TO.P,R6,2*%
%TO.N,Net-(C8-Pad1)*%
%TA.AperFunction,SMDPad,CuDef*%
G36*
G01*
X10084001Y9178000D02*
X9183999Y9178000D01*
G75*
G02*
X8934000Y9427999I0J249999D01*
G01*
X8934000Y10128001D01*
G75*
G02*
X9183999Y10378000I249999J0D01*
G01*
X10084001Y10378000D01*
G75*
G02*
X10334000Y10128001I0J-249999D01*
G01*
X10334000Y9427999D01*
G75*
G02*
X10084001Y9178000I-249999J0D01*
G01*
G37*
%TD.AperFunction*%
%TD*%
%TO.P,R7,2*%
%TO.N,Net-(C7-Pad1)*%
%TA.AperFunction,SMDPad,CuDef*%
G36*
G01*
X5373999Y21443000D02*
X6274001Y21443000D01*
G75*
G02*
X6524000Y21193001I0J-249999D01*
G01*
X6524000Y20492999D01*
G75*
G02*
X6274001Y20243000I-249999J0D01*
G01*
X5373999Y20243000D01*
G75*
G02*
X5124000Y20492999I0J249999D01*
G01*
X5124000Y21193001D01*
G75*
G02*
X5373999Y21443000I249999J0D01*
G01*
G37*
%TD.AperFunction*%
%TO.P,R7,1*%
%TO.N,Net-(C7-Pad2)*%
%TA.AperFunction,SMDPad,CuDef*%
G36*
G01*
X5373999Y23443000D02*
X6274001Y23443000D01*
G75*
G02*
X6524000Y23193001I0J-249999D01*
G01*
X6524000Y22492999D01*
G75*
G02*
X6274001Y22243000I-249999J0D01*
G01*
X5373999Y22243000D01*
G75*
G02*
X5124000Y22492999I0J249999D01*
G01*
X5124000Y23193001D01*
G75*
G02*
X5373999Y23443000I249999J0D01*
G01*
G37*
%TD.AperFunction*%
%TD*%
%TO.P,R8,2*%
%TO.N,GND*%
%TA.AperFunction,SMDPad,CuDef*%
G36*
G01*
X13701000Y4263999D02*
X13701000Y5164001D01*
G75*
G02*
X13950999Y5414000I249999J0D01*
G01*
X14651001Y5414000D01*
G75*
G02*
X14901000Y5164001I0J-249999D01*
G01*
X14901000Y4263999D01*
G75*
G02*
X14651001Y4014000I-249999J0D01*
G01*
X13950999Y4014000D01*
G75*
G02*
X13701000Y4263999I0J249999D01*
G01*
G37*
%TD.AperFunction*%
%TO.P,R8,1*%
%TO.N,Net-(C8-Pad1)*%
%TA.AperFunction,SMDPad,CuDef*%
G36*
G01*
X11701000Y4263999D02*
X11701000Y5164001D01*
G75*
G02*
X11950999Y5414000I249999J0D01*
G01*
X12651001Y5414000D01*
G75*
G02*
X12901000Y5164001I0J-249999D01*
G01*
X12901000Y4263999D01*
G75*
G02*
X12651001Y4014000I-249999J0D01*
G01*
X11950999Y4014000D01*
G75*
G02*
X11701000Y4263999I0J249999D01*
G01*
G37*
%TD.AperFunction*%
%TD*%
%TO.P,R9,1*%
%TO.N,Net-(C11-Pad2)*%
%TA.AperFunction,SMDPad,CuDef*%
G36*
G01*
X10211001Y11242000D02*
X9310999Y11242000D01*
G75*
G02*
X9061000Y11491999I0J249999D01*
G01*
X9061000Y12192001D01*
G75*
G02*
X9310999Y12442000I249999J0D01*
G01*
X10211001Y12442000D01*
G75*
G02*
X10461000Y12192001I0J-249999D01*
G01*
X10461000Y11491999D01*
G75*
G02*
X10211001Y11242000I-249999J0D01*
G01*
G37*
%TD.AperFunction*%
%TO.P,R9,2*%
%TO.N,Net-(C11-Pad1)*%
%TA.AperFunction,SMDPad,CuDef*%
G36*
G01*
X10211001Y13242000D02*
X9310999Y13242000D01*
G75*
G02*
X9061000Y13491999I0J249999D01*
G01*
X9061000Y14192001D01*
G75*
G02*
X9310999Y14442000I249999J0D01*
G01*
X10211001Y14442000D01*
G75*
G02*
X10461000Y14192001I0J-249999D01*
G01*
X10461000Y13491999D01*
G75*
G02*
X10211001Y13242000I-249999J0D01*
G01*
G37*
%TD.AperFunction*%
%TD*%
%TO.P,R10,2*%
%TO.N,/REF+5*%
%TA.AperFunction,SMDPad,CuDef*%
G36*
G01*
X40452241Y7897840D02*
X39552239Y7897840D01*
G75*
G02*
X39302240Y8147839I0J249999D01*
G01*
X39302240Y8847841D01*
G75*
G02*
X39552239Y9097840I249999J0D01*
G01*
X40452241Y9097840D01*
G75*
G02*
X40702240Y8847841I0J-249999D01*
G01*
X40702240Y8147839D01*
G75*
G02*
X40452241Y7897840I-249999J0D01*
G01*
G37*
%TD.AperFunction*%
%TO.P,R10,1*%
%TO.N,DAC*%
%TA.AperFunction,SMDPad,CuDef*%
G36*
G01*
X40452241Y5897840D02*
X39552239Y5897840D01*
G75*
G02*
X39302240Y6147839I0J249999D01*
G01*
X39302240Y6847841D01*
G75*
G02*
X39552239Y7097840I249999J0D01*
G01*
X40452241Y7097840D01*
G75*
G02*
X40702240Y6847841I0J-249999D01*
G01*
X40702240Y6147839D01*
G75*
G02*
X40452241Y5897840I-249999J0D01*
G01*
G37*
%TD.AperFunction*%
%TD*%
%TO.P,R11,1*%
%TO.N,Net-(R11-Pad1)*%
%TA.AperFunction,SMDPad,CuDef*%
G36*
G01*
X20845000Y12010999D02*
X20845000Y12911001D01*
G75*
G02*
X21094999Y13161000I249999J0D01*
G01*
X21795001Y13161000D01*
G75*
G02*
X22045000Y12911001I0J-249999D01*
G01*
X22045000Y12010999D01*
G75*
G02*
X21795001Y11761000I-249999J0D01*
G01*
X21094999Y11761000D01*
G75*
G02*
X20845000Y12010999I0J249999D01*
G01*
G37*
%TD.AperFunction*%
%TO.P,R11,2*%
%TO.N,Net-(J5-Pad1)*%
%TA.AperFunction,SMDPad,CuDef*%
G36*
G01*
X22845000Y12010999D02*
X22845000Y12911001D01*
G75*
G02*
X23094999Y13161000I249999J0D01*
G01*
X23795001Y13161000D01*
G75*
G02*
X24045000Y12911001I0J-249999D01*
G01*
X24045000Y12010999D01*
G75*
G02*
X23795001Y11761000I-249999J0D01*
G01*
X23094999Y11761000D01*
G75*
G02*
X22845000Y12010999I0J249999D01*
G01*
G37*
%TD.AperFunction*%
%TD*%
%TO.P,R12,1*%
%TO.N,ADC*%
%TA.AperFunction,SMDPad,CuDef*%
G36*
G01*
X32824000Y11260001D02*
X32824000Y10359999D01*
G75*
G02*
X32574001Y10110000I-249999J0D01*
G01*
X31873999Y10110000D01*
G75*
G02*
X31624000Y10359999I0J249999D01*
G01*
X31624000Y11260001D01*
G75*
G02*
X31873999Y11510000I249999J0D01*
G01*
X32574001Y11510000D01*
G75*
G02*
X32824000Y11260001I0J-249999D01*
G01*
G37*
%TD.AperFunction*%
%TO.P,R12,2*%
%TO.N,/REF+5*%
%TA.AperFunction,SMDPad,CuDef*%
G36*
G01*
X30824000Y11260001D02*
X30824000Y10359999D01*
G75*
G02*
X30574001Y10110000I-249999J0D01*
G01*
X29873999Y10110000D01*
G75*
G02*
X29624000Y10359999I0J249999D01*
G01*
X29624000Y11260001D01*
G75*
G02*
X29873999Y11510000I249999J0D01*
G01*
X30574001Y11510000D01*
G75*
G02*
X30824000Y11260001I0J-249999D01*
G01*
G37*
%TD.AperFunction*%
%TD*%
%TO.P,U1,1*%
%TO.N,Net-(U1-Pad1)*%
%TA.AperFunction,SMDPad,CuDef*%
G36*
G01*
X19688000Y20231000D02*
X19688000Y19931000D01*
G75*
G02*
X19538000Y19781000I-150000J0D01*
G01*
X17888000Y19781000D01*
G75*
G02*
X17738000Y19931000I0J150000D01*
G01*
X17738000Y20231000D01*
G75*
G02*
X17888000Y20381000I150000J0D01*
G01*
X19538000Y20381000D01*
G75*
G02*
X19688000Y20231000I0J-150000D01*
G01*
G37*
%TD.AperFunction*%
%TO.P,U1,2*%
%TA.AperFunction,SMDPad,CuDef*%
G36*
G01*
X19688000Y21501000D02*
X19688000Y21201000D01*
G75*
G02*
X19538000Y21051000I-150000J0D01*
G01*
X17888000Y21051000D01*
G75*
G02*
X17738000Y21201000I0J150000D01*
G01*
X17738000Y21501000D01*
G75*
G02*
X17888000Y21651000I150000J0D01*
G01*
X19538000Y21651000D01*
G75*
G02*
X19688000Y21501000I0J-150000D01*
G01*
G37*
%TD.AperFunction*%
%TO.P,U1,3*%
%TO.N,Net-(C6-Pad1)*%
%TA.AperFunction,SMDPad,CuDef*%
G36*
G01*
X19688000Y22771000D02*
X19688000Y22471000D01*
G75*
G02*
X19538000Y22321000I-150000J0D01*
G01*
X17888000Y22321000D01*
G75*
G02*
X17738000Y22471000I0J150000D01*
G01*
X17738000Y22771000D01*
G75*
G02*
X17888000Y22921000I150000J0D01*
G01*
X19538000Y22921000D01*
G75*
G02*
X19688000Y22771000I0J-150000D01*
G01*
G37*
%TD.AperFunction*%
%TO.P,U1,4*%
%TO.N,GND*%
%TA.AperFunction,SMDPad,CuDef*%
G36*
G01*
X19688000Y24041000D02*
X19688000Y23741000D01*
G75*
G02*
X19538000Y23591000I-150000J0D01*
G01*
X17888000Y23591000D01*
G75*
G02*
X17738000Y23741000I0J150000D01*
G01*
X17738000Y24041000D01*
G75*
G02*
X17888000Y24191000I150000J0D01*
G01*
X19538000Y24191000D01*
G75*
G02*
X19688000Y24041000I0J-150000D01*
G01*
G37*
%TD.AperFunction*%
%TO.P,U1,5*%
%TO.N,Net-(C5-Pad1)*%
%TA.AperFunction,SMDPad,CuDef*%
G36*
G01*
X14738000Y24041000D02*
X14738000Y23741000D01*
G75*
G02*
X14588000Y23591000I-150000J0D01*
G01*
X12938000Y23591000D01*
G75*
G02*
X12788000Y23741000I0J150000D01*
G01*
X12788000Y24041000D01*
G75*
G02*
X12938000Y24191000I150000J0D01*
G01*
X14588000Y24191000D01*
G75*
G02*
X14738000Y24041000I0J-150000D01*
G01*
G37*
%TD.AperFunction*%
%TO.P,U1,6*%
%TO.N,Net-(C7-Pad2)*%
%TA.AperFunction,SMDPad,CuDef*%
G36*
G01*
X14738000Y22771000D02*
X14738000Y22471000D01*
G75*
G02*
X14588000Y22321000I-150000J0D01*
G01*
X12938000Y22321000D01*
G75*
G02*
X12788000Y22471000I0J150000D01*
G01*
X12788000Y22771000D01*
G75*
G02*
X12938000Y22921000I150000J0D01*
G01*
X14588000Y22921000D01*
G75*
G02*
X14738000Y22771000I0J-150000D01*
G01*
G37*
%TD.AperFunction*%
%TO.P,U1,7*%
%TO.N,Net-(C7-Pad1)*%
%TA.AperFunction,SMDPad,CuDef*%
G36*
G01*
X14738000Y21501000D02*
X14738000Y21201000D01*
G75*
G02*
X14588000Y21051000I-150000J0D01*
G01*
X12938000Y21051000D01*
G75*
G02*
X12788000Y21201000I0J150000D01*
G01*
X12788000Y21501000D01*
G75*
G02*
X12938000Y21651000I150000J0D01*
G01*
X14588000Y21651000D01*
G75*
G02*
X14738000Y21501000I0J-150000D01*
G01*
G37*
%TD.AperFunction*%
%TO.P,U1,8*%
%TO.N,/REF+5*%
%TA.AperFunction,SMDPad,CuDef*%
G36*
G01*
X14738000Y20231000D02*
X14738000Y19931000D01*
G75*
G02*
X14588000Y19781000I-150000J0D01*
G01*
X12938000Y19781000D01*
G75*
G02*
X12788000Y19931000I0J150000D01*
G01*
X12788000Y20231000D01*
G75*
G02*
X12938000Y20381000I150000J0D01*
G01*
X14588000Y20381000D01*
G75*
G02*
X14738000Y20231000I0J-150000D01*
G01*
G37*
%TD.AperFunction*%
%TD*%
%TO.P,U2,1*%
%TO.N,Net-(C11-Pad1)*%
%TA.AperFunction,SMDPad,CuDef*%
G36*
G01*
X12579000Y13542000D02*
X12579000Y13842000D01*
G75*
G02*
X12729000Y13992000I150000J0D01*
G01*
X14379000Y13992000D01*
G75*
G02*
X14529000Y13842000I0J-150000D01*
G01*
X14529000Y13542000D01*
G75*
G02*
X14379000Y13392000I-150000J0D01*
G01*
X12729000Y13392000D01*
G75*
G02*
X12579000Y13542000I0J150000D01*
G01*
G37*
%TD.AperFunction*%
%TO.P,U2,2*%
%TO.N,Net-(C11-Pad2)*%
%TA.AperFunction,SMDPad,CuDef*%
G36*
G01*
X12579000Y12272000D02*
X12579000Y12572000D01*
G75*
G02*
X12729000Y12722000I150000J0D01*
G01*
X14379000Y12722000D01*
G75*
G02*
X14529000Y12572000I0J-150000D01*
G01*
X14529000Y12272000D01*
G75*
G02*
X14379000Y12122000I-150000J0D01*
G01*
X12729000Y12122000D01*
G75*
G02*
X12579000Y12272000I0J150000D01*
G01*
G37*
%TD.AperFunction*%
%TO.P,U2,3*%
%TO.N,Net-(C8-Pad1)*%
%TA.AperFunction,SMDPad,CuDef*%
G36*
G01*
X12579000Y11002000D02*
X12579000Y11302000D01*
G75*
G02*
X12729000Y11452000I150000J0D01*
G01*
X14379000Y11452000D01*
G75*
G02*
X14529000Y11302000I0J-150000D01*
G01*
X14529000Y11002000D01*
G75*
G02*
X14379000Y10852000I-150000J0D01*
G01*
X12729000Y10852000D01*
G75*
G02*
X12579000Y11002000I0J150000D01*
G01*
G37*
%TD.AperFunction*%
%TO.P,U2,4*%
%TO.N,GND*%
%TA.AperFunction,SMDPad,CuDef*%
G36*
G01*
X12579000Y9732000D02*
X12579000Y10032000D01*
G75*
G02*
X12729000Y10182000I150000J0D01*
G01*
X14379000Y10182000D01*
G75*
G02*
X14529000Y10032000I0J-150000D01*
G01*
X14529000Y9732000D01*
G75*
G02*
X14379000Y9582000I-150000J0D01*
G01*
X12729000Y9582000D01*
G75*
G02*
X12579000Y9732000I0J150000D01*
G01*
G37*
%TD.AperFunction*%
%TO.P,U2,5*%
%TO.N,/DACgen*%
%TA.AperFunction,SMDPad,CuDef*%
G36*
G01*
X17529000Y9732000D02*
X17529000Y10032000D01*
G75*
G02*
X17679000Y10182000I150000J0D01*
G01*
X19329000Y10182000D01*
G75*
G02*
X19479000Y10032000I0J-150000D01*
G01*
X19479000Y9732000D01*
G75*
G02*
X19329000Y9582000I-150000J0D01*
G01*
X17679000Y9582000D01*
G75*
G02*
X17529000Y9732000I0J150000D01*
G01*
G37*
%TD.AperFunction*%
%TO.P,U2,6*%
%TO.N,Net-(R11-Pad1)*%
%TA.AperFunction,SMDPad,CuDef*%
G36*
G01*
X17529000Y11002000D02*
X17529000Y11302000D01*
G75*
G02*
X17679000Y11452000I150000J0D01*
G01*
X19329000Y11452000D01*
G75*
G02*
X19479000Y11302000I0J-150000D01*
G01*
X19479000Y11002000D01*
G75*
G02*
X19329000Y10852000I-150000J0D01*
G01*
X17679000Y10852000D01*
G75*
G02*
X17529000Y11002000I0J150000D01*
G01*
G37*
%TD.AperFunction*%
%TO.P,U2,7*%
%TA.AperFunction,SMDPad,CuDef*%
G36*
G01*
X17529000Y12272000D02*
X17529000Y12572000D01*
G75*
G02*
X17679000Y12722000I150000J0D01*
G01*
X19329000Y12722000D01*
G75*
G02*
X19479000Y12572000I0J-150000D01*
G01*
X19479000Y12272000D01*
G75*
G02*
X19329000Y12122000I-150000J0D01*
G01*
X17679000Y12122000D01*
G75*
G02*
X17529000Y12272000I0J150000D01*
G01*
G37*
%TD.AperFunction*%
%TO.P,U2,8*%
%TO.N,/REF+5*%
%TA.AperFunction,SMDPad,CuDef*%
G36*
G01*
X17529000Y13542000D02*
X17529000Y13842000D01*
G75*
G02*
X17679000Y13992000I150000J0D01*
G01*
X19329000Y13992000D01*
G75*
G02*
X19479000Y13842000I0J-150000D01*
G01*
X19479000Y13542000D01*
G75*
G02*
X19329000Y13392000I-150000J0D01*
G01*
X17679000Y13392000D01*
G75*
G02*
X17529000Y13542000I0J150000D01*
G01*
G37*
%TD.AperFunction*%
%TD*%
%TO.P,U3,1*%
%TO.N,Net-(U3-Pad1)*%
%TA.AperFunction,SMDPad,CuDef*%
G36*
G01*
X36778300Y24769700D02*
X36778300Y25069700D01*
G75*
G02*
X36928300Y25219700I150000J0D01*
G01*
X38578300Y25219700D01*
G75*
G02*
X38728300Y25069700I0J-150000D01*
G01*
X38728300Y24769700D01*
G75*
G02*
X38578300Y24619700I-150000J0D01*
G01*
X36928300Y24619700D01*
G75*
G02*
X36778300Y24769700I0J150000D01*
G01*
G37*
%TD.AperFunction*%
%TO.P,U3,2*%
%TO.N,VCC_12V*%
%TA.AperFunction,SMDPad,CuDef*%
G36*
G01*
X36778300Y23499700D02*
X36778300Y23799700D01*
G75*
G02*
X36928300Y23949700I150000J0D01*
G01*
X38578300Y23949700D01*
G75*
G02*
X38728300Y23799700I0J-150000D01*
G01*
X38728300Y23499700D01*
G75*
G02*
X38578300Y23349700I-150000J0D01*
G01*
X36928300Y23349700D01*
G75*
G02*
X36778300Y23499700I0J150000D01*
G01*
G37*
%TD.AperFunction*%
%TO.P,U3,3*%
%TO.N,Net-(U3-Pad3)*%
%TA.AperFunction,SMDPad,CuDef*%
G36*
G01*
X36778300Y22229700D02*
X36778300Y22529700D01*
G75*
G02*
X36928300Y22679700I150000J0D01*
G01*
X38578300Y22679700D01*
G75*
G02*
X38728300Y22529700I0J-150000D01*
G01*
X38728300Y22229700D01*
G75*
G02*
X38578300Y22079700I-150000J0D01*
G01*
X36928300Y22079700D01*
G75*
G02*
X36778300Y22229700I0J150000D01*
G01*
G37*
%TD.AperFunction*%
%TO.P,U3,4*%
%TO.N,GND*%
%TA.AperFunction,SMDPad,CuDef*%
G36*
G01*
X36778300Y20959700D02*
X36778300Y21259700D01*
G75*
G02*
X36928300Y21409700I150000J0D01*
G01*
X38578300Y21409700D01*
G75*
G02*
X38728300Y21259700I0J-150000D01*
G01*
X38728300Y20959700D01*
G75*
G02*
X38578300Y20809700I-150000J0D01*
G01*
X36928300Y20809700D01*
G75*
G02*
X36778300Y20959700I0J150000D01*
G01*
G37*
%TD.AperFunction*%
%TO.P,U3,5*%
%TO.N,Net-(U3-Pad5)*%
%TA.AperFunction,SMDPad,CuDef*%
G36*
G01*
X41728300Y20959700D02*
X41728300Y21259700D01*
G75*
G02*
X41878300Y21409700I150000J0D01*
G01*
X43528300Y21409700D01*
G75*
G02*
X43678300Y21259700I0J-150000D01*
G01*
X43678300Y20959700D01*
G75*
G02*
X43528300Y20809700I-150000J0D01*
G01*
X41878300Y20809700D01*
G75*
G02*
X41728300Y20959700I0J150000D01*
G01*
G37*
%TD.AperFunction*%
%TO.P,U3,6*%
%TO.N,/REF+4*%
%TA.AperFunction,SMDPad,CuDef*%
G36*
G01*
X41728300Y22229700D02*
X41728300Y22529700D01*
G75*
G02*
X41878300Y22679700I150000J0D01*
G01*
X43528300Y22679700D01*
G75*
G02*
X43678300Y22529700I0J-150000D01*
G01*
X43678300Y22229700D01*
G75*
G02*
X43528300Y22079700I-150000J0D01*
G01*
X41878300Y22079700D01*
G75*
G02*
X41728300Y22229700I0J150000D01*
G01*
G37*
%TD.AperFunction*%
%TO.P,U3,7*%
%TO.N,Net-(U3-Pad7)*%
%TA.AperFunction,SMDPad,CuDef*%
G36*
G01*
X41728300Y23499700D02*
X41728300Y23799700D01*
G75*
G02*
X41878300Y23949700I150000J0D01*
G01*
X43528300Y23949700D01*
G75*
G02*
X43678300Y23799700I0J-150000D01*
G01*
X43678300Y23499700D01*
G75*
G02*
X43528300Y23349700I-150000J0D01*
G01*
X41878300Y23349700D01*
G75*
G02*
X41728300Y23499700I0J150000D01*
G01*
G37*
%TD.AperFunction*%
%TO.P,U3,8*%
%TO.N,Net-(U3-Pad8)*%
%TA.AperFunction,SMDPad,CuDef*%
G36*
G01*
X41728300Y24769700D02*
X41728300Y25069700D01*
G75*
G02*
X41878300Y25219700I150000J0D01*
G01*
X43528300Y25219700D01*
G75*
G02*
X43678300Y25069700I0J-150000D01*
G01*
X43678300Y24769700D01*
G75*
G02*
X43528300Y24619700I-150000J0D01*
G01*
X41878300Y24619700D01*
G75*
G02*
X41728300Y24769700I0J150000D01*
G01*
G37*
%TD.AperFunction*%
%TD*%
%TO.P,U4,8*%
%TO.N,Net-(U4-Pad8)*%
%TA.AperFunction,SMDPad,CuDef*%
G36*
G01*
X56143800Y14986900D02*
X56443800Y14986900D01*
G75*
G02*
X56593800Y14836900I0J-150000D01*
G01*
X56593800Y13186900D01*
G75*
G02*
X56443800Y13036900I-150000J0D01*
G01*
X56143800Y13036900D01*
G75*
G02*
X55993800Y13186900I0J150000D01*
G01*
X55993800Y14836900D01*
G75*
G02*
X56143800Y14986900I150000J0D01*
G01*
G37*
%TD.AperFunction*%
%TO.P,U4,7*%
%TO.N,Net-(U4-Pad7)*%
%TA.AperFunction,SMDPad,CuDef*%
G36*
G01*
X54873800Y14986900D02*
X55173800Y14986900D01*
G75*
G02*
X55323800Y14836900I0J-150000D01*
G01*
X55323800Y13186900D01*
G75*
G02*
X55173800Y13036900I-150000J0D01*
G01*
X54873800Y13036900D01*
G75*
G02*
X54723800Y13186900I0J150000D01*
G01*
X54723800Y14836900D01*
G75*
G02*
X54873800Y14986900I150000J0D01*
G01*
G37*
%TD.AperFunction*%
%TO.P,U4,6*%
%TO.N,/REF+5*%
%TA.AperFunction,SMDPad,CuDef*%
G36*
G01*
X53603800Y14986900D02*
X53903800Y14986900D01*
G75*
G02*
X54053800Y14836900I0J-150000D01*
G01*
X54053800Y13186900D01*
G75*
G02*
X53903800Y13036900I-150000J0D01*
G01*
X53603800Y13036900D01*
G75*
G02*
X53453800Y13186900I0J150000D01*
G01*
X53453800Y14836900D01*
G75*
G02*
X53603800Y14986900I150000J0D01*
G01*
G37*
%TD.AperFunction*%
%TO.P,U4,5*%
%TO.N,Net-(U4-Pad5)*%
%TA.AperFunction,SMDPad,CuDef*%
G36*
G01*
X52333800Y14986900D02*
X52633800Y14986900D01*
G75*
G02*
X52783800Y14836900I0J-150000D01*
G01*
X52783800Y13186900D01*
G75*
G02*
X52633800Y13036900I-150000J0D01*
G01*
X52333800Y13036900D01*
G75*
G02*
X52183800Y13186900I0J150000D01*
G01*
X52183800Y14836900D01*
G75*
G02*
X52333800Y14986900I150000J0D01*
G01*
G37*
%TD.AperFunction*%
%TO.P,U4,4*%
%TO.N,GND*%
%TA.AperFunction,SMDPad,CuDef*%
G36*
G01*
X52333800Y19936900D02*
X52633800Y19936900D01*
G75*
G02*
X52783800Y19786900I0J-150000D01*
G01*
X52783800Y18136900D01*
G75*
G02*
X52633800Y17986900I-150000J0D01*
G01*
X52333800Y17986900D01*
G75*
G02*
X52183800Y18136900I0J150000D01*
G01*
X52183800Y19786900D01*
G75*
G02*
X52333800Y19936900I150000J0D01*
G01*
G37*
%TD.AperFunction*%
%TO.P,U4,3*%
%TO.N,Net-(U4-Pad3)*%
%TA.AperFunction,SMDPad,CuDef*%
G36*
G01*
X53603800Y19936900D02*
X53903800Y19936900D01*
G75*
G02*
X54053800Y19786900I0J-150000D01*
G01*
X54053800Y18136900D01*
G75*
G02*
X53903800Y17986900I-150000J0D01*
G01*
X53603800Y17986900D01*
G75*
G02*
X53453800Y18136900I0J150000D01*
G01*
X53453800Y19786900D01*
G75*
G02*
X53603800Y19936900I150000J0D01*
G01*
G37*
%TD.AperFunction*%
%TO.P,U4,2*%
%TO.N,VCC_12V*%
%TA.AperFunction,SMDPad,CuDef*%
G36*
G01*
X54873800Y19936900D02*
X55173800Y19936900D01*
G75*
G02*
X55323800Y19786900I0J-150000D01*
G01*
X55323800Y18136900D01*
G75*
G02*
X55173800Y17986900I-150000J0D01*
G01*
X54873800Y17986900D01*
G75*
G02*
X54723800Y18136900I0J150000D01*
G01*
X54723800Y19786900D01*
G75*
G02*
X54873800Y19936900I150000J0D01*
G01*
G37*
%TD.AperFunction*%
%TO.P,U4,1*%
%TO.N,Net-(U4-Pad1)*%
%TA.AperFunction,SMDPad,CuDef*%
G36*
G01*
X56143800Y19936900D02*
X56443800Y19936900D01*
G75*
G02*
X56593800Y19786900I0J-150000D01*
G01*
X56593800Y18136900D01*
G75*
G02*
X56443800Y17986900I-150000J0D01*
G01*
X56143800Y17986900D01*
G75*
G02*
X55993800Y18136900I0J150000D01*
G01*
X55993800Y19786900D01*
G75*
G02*
X56143800Y19936900I150000J0D01*
G01*
G37*
%TD.AperFunction*%
%TD*%
%TO.P,U5,1*%
%TO.N,Net-(U1-Pad1)*%
%TA.AperFunction,SMDPad,CuDef*%
G36*
G01*
X25846000Y18375000D02*
X25846000Y18575000D01*
G75*
G02*
X25946000Y18675000I100000J0D01*
G01*
X27221000Y18675000D01*
G75*
G02*
X27321000Y18575000I0J-100000D01*
G01*
X27321000Y18375000D01*
G75*
G02*
X27221000Y18275000I-100000J0D01*
G01*
X25946000Y18275000D01*
G75*
G02*
X25846000Y18375000I0J100000D01*
G01*
G37*
%TD.AperFunction*%
%TO.P,U5,2*%
%TO.N,Net-(C7-Pad1)*%
%TA.AperFunction,SMDPad,CuDef*%
G36*
G01*
X25846000Y17725000D02*
X25846000Y17925000D01*
G75*
G02*
X25946000Y18025000I100000J0D01*
G01*
X27221000Y18025000D01*
G75*
G02*
X27321000Y17925000I0J-100000D01*
G01*
X27321000Y17725000D01*
G75*
G02*
X27221000Y17625000I-100000J0D01*
G01*
X25946000Y17625000D01*
G75*
G02*
X25846000Y17725000I0J100000D01*
G01*
G37*
%TD.AperFunction*%
%TO.P,U5,3*%
%TO.N,Net-(C11-Pad1)*%
%TA.AperFunction,SMDPad,CuDef*%
G36*
G01*
X25846000Y17075000D02*
X25846000Y17275000D01*
G75*
G02*
X25946000Y17375000I100000J0D01*
G01*
X27221000Y17375000D01*
G75*
G02*
X27321000Y17275000I0J-100000D01*
G01*
X27321000Y17075000D01*
G75*
G02*
X27221000Y16975000I-100000J0D01*
G01*
X25946000Y16975000D01*
G75*
G02*
X25846000Y17075000I0J100000D01*
G01*
G37*
%TD.AperFunction*%
%TO.P,U5,4*%
%TO.N,Net-(R11-Pad1)*%
%TA.AperFunction,SMDPad,CuDef*%
G36*
G01*
X25846000Y16425000D02*
X25846000Y16625000D01*
G75*
G02*
X25946000Y16725000I100000J0D01*
G01*
X27221000Y16725000D01*
G75*
G02*
X27321000Y16625000I0J-100000D01*
G01*
X27321000Y16425000D01*
G75*
G02*
X27221000Y16325000I-100000J0D01*
G01*
X25946000Y16325000D01*
G75*
G02*
X25846000Y16425000I0J100000D01*
G01*
G37*
%TD.AperFunction*%
%TO.P,U5,5*%
%TO.N,Net-(U5-Pad5)*%
%TA.AperFunction,SMDPad,CuDef*%
G36*
G01*
X25846000Y15775000D02*
X25846000Y15975000D01*
G75*
G02*
X25946000Y16075000I100000J0D01*
G01*
X27221000Y16075000D01*
G75*
G02*
X27321000Y15975000I0J-100000D01*
G01*
X27321000Y15775000D01*
G75*
G02*
X27221000Y15675000I-100000J0D01*
G01*
X25946000Y15675000D01*
G75*
G02*
X25846000Y15775000I0J100000D01*
G01*
G37*
%TD.AperFunction*%
%TO.P,U5,6*%
%TO.N,Net-(U5-Pad6)*%
%TA.AperFunction,SMDPad,CuDef*%
G36*
G01*
X25846000Y15125000D02*
X25846000Y15325000D01*
G75*
G02*
X25946000Y15425000I100000J0D01*
G01*
X27221000Y15425000D01*
G75*
G02*
X27321000Y15325000I0J-100000D01*
G01*
X27321000Y15125000D01*
G75*
G02*
X27221000Y15025000I-100000J0D01*
G01*
X25946000Y15025000D01*
G75*
G02*
X25846000Y15125000I0J100000D01*
G01*
G37*
%TD.AperFunction*%
%TO.P,U5,7*%
%TO.N,GND*%
%TA.AperFunction,SMDPad,CuDef*%
G36*
G01*
X25846000Y14475000D02*
X25846000Y14675000D01*
G75*
G02*
X25946000Y14775000I100000J0D01*
G01*
X27221000Y14775000D01*
G75*
G02*
X27321000Y14675000I0J-100000D01*
G01*
X27321000Y14475000D01*
G75*
G02*
X27221000Y14375000I-100000J0D01*
G01*
X25946000Y14375000D01*
G75*
G02*
X25846000Y14475000I0J100000D01*
G01*
G37*
%TD.AperFunction*%
%TO.P,U5,8*%
%TO.N,ADC*%
%TA.AperFunction,SMDPad,CuDef*%
G36*
G01*
X31571000Y14475000D02*
X31571000Y14675000D01*
G75*
G02*
X31671000Y14775000I100000J0D01*
G01*
X32946000Y14775000D01*
G75*
G02*
X33046000Y14675000I0J-100000D01*
G01*
X33046000Y14475000D01*
G75*
G02*
X32946000Y14375000I-100000J0D01*
G01*
X31671000Y14375000D01*
G75*
G02*
X31571000Y14475000I0J100000D01*
G01*
G37*
%TD.AperFunction*%
%TO.P,U5,9*%
%TO.N,MOSI*%
%TA.AperFunction,SMDPad,CuDef*%
G36*
G01*
X31571000Y15125000D02*
X31571000Y15325000D01*
G75*
G02*
X31671000Y15425000I100000J0D01*
G01*
X32946000Y15425000D01*
G75*
G02*
X33046000Y15325000I0J-100000D01*
G01*
X33046000Y15125000D01*
G75*
G02*
X32946000Y15025000I-100000J0D01*
G01*
X31671000Y15025000D01*
G75*
G02*
X31571000Y15125000I0J100000D01*
G01*
G37*
%TD.AperFunction*%
%TO.P,U5,10*%
%TO.N,MISO*%
%TA.AperFunction,SMDPad,CuDef*%
G36*
G01*
X31571000Y15775000D02*
X31571000Y15975000D01*
G75*
G02*
X31671000Y16075000I100000J0D01*
G01*
X32946000Y16075000D01*
G75*
G02*
X33046000Y15975000I0J-100000D01*
G01*
X33046000Y15775000D01*
G75*
G02*
X32946000Y15675000I-100000J0D01*
G01*
X31671000Y15675000D01*
G75*
G02*
X31571000Y15775000I0J100000D01*
G01*
G37*
%TD.AperFunction*%
%TO.P,U5,11*%
%TO.N,SCK*%
%TA.AperFunction,SMDPad,CuDef*%
G36*
G01*
X31571000Y16425000D02*
X31571000Y16625000D01*
G75*
G02*
X31671000Y16725000I100000J0D01*
G01*
X32946000Y16725000D01*
G75*
G02*
X33046000Y16625000I0J-100000D01*
G01*
X33046000Y16425000D01*
G75*
G02*
X32946000Y16325000I-100000J0D01*
G01*
X31671000Y16325000D01*
G75*
G02*
X31571000Y16425000I0J100000D01*
G01*
G37*
%TD.AperFunction*%
%TO.P,U5,12*%
%TO.N,GND*%
%TA.AperFunction,SMDPad,CuDef*%
G36*
G01*
X31571000Y17075000D02*
X31571000Y17275000D01*
G75*
G02*
X31671000Y17375000I100000J0D01*
G01*
X32946000Y17375000D01*
G75*
G02*
X33046000Y17275000I0J-100000D01*
G01*
X33046000Y17075000D01*
G75*
G02*
X32946000Y16975000I-100000J0D01*
G01*
X31671000Y16975000D01*
G75*
G02*
X31571000Y17075000I0J100000D01*
G01*
G37*
%TD.AperFunction*%
%TO.P,U5,13*%
%TO.N,/REF+4*%
%TA.AperFunction,SMDPad,CuDef*%
G36*
G01*
X31571000Y17725000D02*
X31571000Y17925000D01*
G75*
G02*
X31671000Y18025000I100000J0D01*
G01*
X32946000Y18025000D01*
G75*
G02*
X33046000Y17925000I0J-100000D01*
G01*
X33046000Y17725000D01*
G75*
G02*
X32946000Y17625000I-100000J0D01*
G01*
X31671000Y17625000D01*
G75*
G02*
X31571000Y17725000I0J100000D01*
G01*
G37*
%TD.AperFunction*%
%TO.P,U5,14*%
%TO.N,/REF+5*%
%TA.AperFunction,SMDPad,CuDef*%
G36*
G01*
X31571000Y18375000D02*
X31571000Y18575000D01*
G75*
G02*
X31671000Y18675000I100000J0D01*
G01*
X32946000Y18675000D01*
G75*
G02*
X33046000Y18575000I0J-100000D01*
G01*
X33046000Y18375000D01*
G75*
G02*
X32946000Y18275000I-100000J0D01*
G01*
X31671000Y18275000D01*
G75*
G02*
X31571000Y18375000I0J100000D01*
G01*
G37*
%TD.AperFunction*%
%TD*%
D14*
%TO.N,/REF+5*%
X42273000Y9921000D03*
X28201400Y8905000D03*
X49499300Y9781300D03*
X10050000Y17668000D03*
X17685800Y5933200D03*
X27198100Y27650200D03*
%TD*%
D15*
%TO.N,GND*%
X14354500Y4767500D02*
X14301000Y4714000D01*
D16*
X14354500Y7127000D02*
X14354500Y4767500D01*
D15*
X18713000Y26471500D02*
X18778000Y26536500D01*
D16*
X18713000Y23891000D02*
X18713000Y26471500D01*
D15*
X16513500Y26536500D02*
X16492000Y26558000D01*
D16*
X18778000Y26536500D02*
X16513500Y26536500D01*
D15*
X18926500Y26685000D02*
X18778000Y26536500D01*
D16*
X22080000Y26685000D02*
X18926500Y26685000D01*
X13554000Y9882000D02*
X13554000Y9176000D01*
X14354500Y8375500D02*
X14354500Y7127000D01*
X13554000Y9176000D02*
X14354500Y8375500D01*
X25636000Y24494000D02*
X26938000Y24494000D01*
D15*
X29237000Y14575000D02*
X29319000Y14493000D01*
X26583500Y14575000D02*
X29237000Y14575000D01*
X29461000Y17175000D02*
X29319000Y17033000D01*
X32308500Y17175000D02*
X29461000Y17175000D01*
D16*
X29319000Y17033000D02*
X29319000Y14493000D01*
X41957000Y13223000D02*
X40622000Y13223000D01*
X38559000Y11160000D02*
X37320000Y11160000D01*
X40622000Y13223000D02*
X38559000Y11160000D01*
D15*
X25668000Y24526000D02*
X25636000Y24494000D01*
D16*
X14301000Y3476000D02*
X14301000Y4714000D01*
D15*
X14587000Y3190000D02*
X14301000Y3476000D01*
D16*
X34456400Y10003800D02*
X34456400Y7000000D01*
X37320000Y11160000D02*
X35612600Y11160000D01*
X35612600Y11160000D02*
X34456400Y10003800D01*
X34456400Y7000000D02*
X34456400Y5812800D01*
X34456400Y5812800D02*
X34068800Y5425200D01*
X34068800Y5425200D02*
X27845800Y5425200D01*
X27845800Y5425200D02*
X26271000Y7000000D01*
D15*
X52483800Y23637000D02*
X52394900Y23725900D01*
D16*
X52483800Y18961900D02*
X52483800Y23637000D01*
X45881600Y26403300D02*
X48167600Y26403300D01*
X48167600Y26403300D02*
X49882600Y26403300D01*
X27693400Y20856600D02*
X29319000Y19231000D01*
X29319000Y19231000D02*
X29319000Y17033000D01*
X27693400Y23856600D02*
X27693400Y20856600D01*
X27056000Y24494000D02*
X27693400Y23856600D01*
X52394900Y23725900D02*
X52394900Y25478500D01*
X51470100Y26403300D02*
X49882600Y26403300D01*
X52394900Y25478500D02*
X51470100Y26403300D01*
D15*
X54753200Y6517400D02*
X54753200Y7262800D01*
X55712000Y8221600D02*
X55712000Y9451100D01*
X54753200Y7262800D02*
X55712000Y8221600D01*
D16*
X52483800Y18961900D02*
X52483800Y17528300D01*
X52483800Y17528300D02*
X53626800Y16385300D01*
D15*
X57728900Y9451100D02*
X57817800Y9540000D01*
D16*
X55712000Y9451100D02*
X57728900Y9451100D01*
X57817800Y15813800D02*
X57817800Y9540000D01*
D17*
X46121100Y20224600D02*
X46121100Y19344400D01*
D15*
X31437500Y23649700D02*
X31424800Y23637000D01*
D16*
X31437500Y27497800D02*
X31437500Y23649700D01*
X22969000Y29987000D02*
X30360400Y29987000D01*
X31437500Y28909900D02*
X31437500Y27497800D01*
X30360400Y29987000D02*
X31437500Y28909900D01*
X41216600Y26403300D02*
X45881600Y26403300D01*
X40304500Y25491200D02*
X41216600Y26403300D01*
D15*
X40291800Y21109700D02*
X40304500Y21122400D01*
D16*
X37753300Y21109700D02*
X40291800Y21109700D01*
X40304500Y21122400D02*
X40304500Y25491200D01*
X40304500Y20195300D02*
X40304500Y21122400D01*
D17*
X41320500Y19179300D02*
X40304500Y20195300D01*
D16*
X48711900Y19227700D02*
X48663500Y19179300D01*
D17*
X48663500Y19179300D02*
X41320500Y19179300D01*
D16*
X31424800Y23637000D02*
X31424800Y21848700D01*
X32163800Y21109700D02*
X37753300Y21109700D01*
X31424800Y21848700D02*
X32163800Y21109700D01*
X49448500Y13223000D02*
X50667700Y14442200D01*
X46907000Y13223000D02*
X49448500Y13223000D01*
X50667700Y14442200D02*
X50667700Y15458200D01*
X50667700Y15458200D02*
X51594800Y16385300D01*
X51594800Y16385300D02*
X53626800Y16385300D01*
X3665000Y4790200D02*
X3665000Y28336000D01*
X57817800Y9540000D02*
X57817800Y6428500D01*
X57817800Y6428500D02*
X54312600Y2923300D01*
X54312600Y2923300D02*
X5531900Y2923300D01*
X5531900Y2923300D02*
X3665000Y4790200D01*
X3665000Y28336000D02*
X5316000Y29987000D01*
X24092700Y8778000D02*
X26194800Y8778000D01*
D15*
X26194800Y8778000D02*
X26271000Y8854200D01*
D16*
X26271000Y7000000D02*
X26271000Y8854200D01*
X26271000Y9667000D02*
X26271000Y8854200D01*
X29319000Y14493000D02*
X29319000Y13502400D01*
X26271000Y10454400D02*
X26271000Y9667000D01*
X29319000Y13502400D02*
X26271000Y10454400D01*
D15*
X26583500Y14575000D02*
X25503200Y14575000D01*
X31546512Y17175240D02*
X33443960Y17175240D01*
D16*
X25636000Y24621000D02*
X24481320Y25775680D01*
X24481320Y25777200D02*
X23573520Y26685000D01*
D15*
X24481320Y25775680D02*
X24481320Y25777200D01*
D16*
X22080000Y26685000D02*
X23573520Y26685000D01*
D15*
X22080000Y29931120D02*
X22024120Y29987000D01*
D16*
X22080000Y26685000D02*
X22080000Y29931120D01*
X5316000Y29987000D02*
X22024120Y29987000D01*
X22024120Y29987000D02*
X22969000Y29987000D01*
X53626800Y16385300D02*
X57806820Y16385300D01*
X57817800Y26732200D02*
X57817800Y15813800D01*
X30360400Y29987000D02*
X54563000Y29987000D01*
X54563000Y29987000D02*
X57817800Y26732200D01*
D15*
%TO.N,VCC_12V*%
X55023800Y23637000D02*
X54934900Y23725900D01*
D16*
X55023800Y18961900D02*
X55023800Y23637000D01*
X45881600Y28478300D02*
X48167600Y28478300D01*
X52849500Y28478300D02*
X48167600Y28478300D01*
X54934900Y23725900D02*
X54934900Y26392900D01*
X54934900Y26392900D02*
X52849500Y28478300D01*
X34312500Y27497800D02*
X34312500Y23649700D01*
D15*
X34312500Y23649700D02*
X34299800Y23637000D01*
D16*
X37753300Y23649700D02*
X34312500Y23649700D01*
X45881600Y28478300D02*
X37424200Y28478300D01*
X36443700Y27497800D02*
X34312500Y27497800D01*
X37424200Y28478300D02*
X36443700Y27497800D01*
D15*
%TO.N,Net-(C5-Pad1)*%
X16545500Y28611500D02*
X16492000Y28558000D01*
D16*
X18778000Y28611500D02*
X16545500Y28611500D01*
D15*
X13763000Y26877000D02*
X13825000Y26939000D01*
D16*
X13763000Y23891000D02*
X13763000Y26877000D01*
X14453400Y28558000D02*
X16492000Y28558000D01*
X13825000Y26939000D02*
X13825000Y27929600D01*
X13825000Y27929600D02*
X14453400Y28558000D01*
%TO.N,Net-(C6-Pad1)*%
X22080000Y24610000D02*
X22080000Y22351000D01*
D15*
X21810000Y22621000D02*
X22080000Y22351000D01*
D16*
X18713000Y22621000D02*
X20129280Y22621000D01*
X20399280Y22351000D02*
X22080000Y22351000D01*
X20129280Y22621000D02*
X20399280Y22351000D01*
D15*
%TO.N,Net-(C7-Pad1)*%
X8850500Y20843000D02*
X8872000Y20821500D01*
D16*
X5824000Y20843000D02*
X8850500Y20843000D01*
D15*
X16238000Y20462000D02*
X15349000Y21351000D01*
X15349000Y21351000D02*
X13763000Y21351000D01*
X16238000Y19014200D02*
X16238000Y20462000D01*
X26583500Y17825000D02*
X17427200Y17825000D01*
X17427200Y17825000D02*
X16238000Y19014200D01*
D16*
X10572620Y20821500D02*
X8872000Y20821500D01*
X13763000Y21351000D02*
X11102120Y21351000D01*
X11102120Y21351000D02*
X10572620Y20821500D01*
D15*
%TO.N,Net-(C7-Pad2)*%
X5697000Y22970000D02*
X5824000Y22843000D01*
D16*
X5697000Y25447000D02*
X5697000Y22970000D01*
D15*
X5877500Y22896500D02*
X5824000Y22843000D01*
D16*
X8872000Y22896500D02*
X5877500Y22896500D01*
X10806300Y22896500D02*
X8872000Y22896500D01*
X13763000Y22621000D02*
X11081800Y22621000D01*
X11081800Y22621000D02*
X10806300Y22896500D01*
D15*
%TO.N,Net-(C8-Pad1)*%
X12279500Y4735500D02*
X12301000Y4714000D01*
D16*
X12279500Y7127000D02*
X12279500Y4735500D01*
D15*
X12279500Y7127000D02*
X12279500Y7529500D01*
X10031000Y9778000D02*
X9634000Y9778000D01*
D16*
X12279500Y7127000D02*
X12279500Y8266100D01*
X12279500Y8266100D02*
X11462800Y9082800D01*
X12058800Y11152000D02*
X13554000Y11152000D01*
X11462800Y10556000D02*
X12058800Y11152000D01*
X9634000Y9778000D02*
X11428000Y9778000D01*
X11462800Y9082800D02*
X11462800Y9743200D01*
D15*
X11428000Y9778000D02*
X11462800Y9743200D01*
D16*
X11462800Y9743200D02*
X11462800Y10556000D01*
D15*
%TO.N,Net-(C11-Pad1)*%
X7153000Y13842000D02*
X7094000Y13901000D01*
D16*
X9761000Y13842000D02*
X7153000Y13842000D01*
D15*
X9911000Y13692000D02*
X9761000Y13842000D01*
D16*
X13554000Y13692000D02*
X11781200Y13692000D01*
X11631200Y13842000D02*
X9761000Y13842000D01*
X11781200Y13692000D02*
X11631200Y13842000D01*
D15*
X13554000Y14628400D02*
X13554000Y13692000D01*
X26583500Y17175000D02*
X23365000Y17175000D01*
X23365000Y17175000D02*
X21749800Y15559800D01*
X14485400Y15559800D02*
X13554000Y14628400D01*
X21749800Y15559800D02*
X14485400Y15559800D01*
%TO.N,Net-(C11-Pad2)*%
X7110000Y11842000D02*
X7094000Y11826000D01*
D16*
X9761000Y11842000D02*
X7110000Y11842000D01*
X7094000Y9778000D02*
X7094000Y11826000D01*
X13554000Y12422000D02*
X11525400Y12422000D01*
X10945400Y11842000D02*
X9761000Y11842000D01*
X11525400Y12422000D02*
X10945400Y11842000D01*
D15*
%TO.N,MOSI*%
X41957000Y14493000D02*
X40241000Y14493000D01*
X38908000Y13160000D02*
X37320000Y13160000D01*
X40241000Y14493000D02*
X38908000Y13160000D01*
X35853920Y13160000D02*
X37320000Y13160000D01*
X32308500Y15225000D02*
X33788920Y15225000D01*
X33788920Y15225000D02*
X35853920Y13160000D01*
%TO.N,SCK*%
X41957000Y15763000D02*
X40622000Y15763000D01*
X39225000Y17160000D02*
X37320000Y17160000D01*
X40622000Y15763000D02*
X39225000Y17160000D01*
X35110200Y17160000D02*
X37320000Y17160000D01*
X32308500Y16525000D02*
X34475200Y16525000D01*
X34475200Y16525000D02*
X35110200Y17160000D01*
D16*
%TO.N,DAC*%
X44482800Y14785100D02*
X45460700Y15763000D01*
X44482800Y8889760D02*
X44482800Y14785100D01*
X45460700Y15763000D02*
X46907000Y15763000D01*
X40241000Y6492000D02*
X42085040Y6492000D01*
X42085040Y6492000D02*
X44482800Y8889760D01*
X36456400Y7000000D02*
X38000720Y7000000D01*
X38502880Y6497840D02*
X40002240Y6497840D01*
X38000720Y7000000D02*
X38502880Y6497840D01*
%TO.N,Net-(J1-Pad1)*%
X8872000Y27447000D02*
X5697000Y27447000D01*
D15*
%TO.N,Net-(J1-Pad2)*%
X11825000Y26939000D02*
X11825000Y26463000D01*
D16*
X11825000Y26463000D02*
X11825000Y26102320D01*
X11169680Y25447000D02*
X8872000Y25447000D01*
X11825000Y26102320D02*
X11169680Y25447000D01*
D15*
%TO.N,Net-(J2-Pad1)*%
X25636000Y22494000D02*
X25636000Y21859000D01*
X24128000Y20351000D02*
X22080000Y20351000D01*
X25636000Y21859000D02*
X24128000Y20351000D01*
%TO.N,Net-(J3-Pad2)*%
X9634000Y5508000D02*
X9348000Y5222000D01*
D16*
X9634000Y7778000D02*
X9634000Y5508000D01*
D15*
%TO.N,Net-(J3-Pad1)*%
X7094000Y5476000D02*
X7348000Y5222000D01*
D16*
X7094000Y7778000D02*
X7094000Y5476000D01*
%TO.N,Net-(J5-Pad1)*%
X22092700Y8778000D02*
X22092700Y9705100D01*
X23445000Y11057400D02*
X23445000Y12461000D01*
X22092700Y9705100D02*
X23445000Y11057400D01*
D15*
%TO.N,ADC*%
X32308500Y10894500D02*
X32224000Y10810000D01*
X32308500Y14575000D02*
X32308500Y10894500D01*
D16*
X32456400Y7000000D02*
X32456400Y9145800D01*
X32224000Y9378200D02*
X32224000Y10810000D01*
X32456400Y9145800D02*
X32224000Y9378200D01*
D15*
X32308500Y14575000D02*
X33285760Y14575000D01*
%TO.N,MISO*%
X35377920Y15160000D02*
X37320000Y15160000D01*
X32308500Y15875000D02*
X34662920Y15875000D01*
X34662920Y15875000D02*
X35377920Y15160000D01*
D16*
%TO.N,Net-(R11-Pad1)*%
X18504000Y12422000D02*
X18504000Y11152000D01*
D15*
X18543000Y12461000D02*
X18504000Y12422000D01*
D16*
X21445000Y12461000D02*
X18543000Y12461000D01*
D15*
X26583500Y16525000D02*
X24493000Y16525000D01*
X21445000Y13477000D02*
X21445000Y12461000D01*
X24493000Y16525000D02*
X21445000Y13477000D01*
D16*
%TO.N,Net-(U1-Pad1)*%
X18713000Y20081000D02*
X18713000Y21351000D01*
D15*
X18713000Y19434800D02*
X18713000Y20081000D01*
X26583500Y18475000D02*
X19672800Y18475000D01*
X19672800Y18475000D02*
X18713000Y19434800D01*
%TO.N,/REF+4*%
X39434200Y19115800D02*
X41050000Y17500000D01*
X35211800Y19115800D02*
X39434200Y19115800D01*
X32308500Y17825000D02*
X33921000Y17825000D01*
X33921000Y17825000D02*
X35211800Y19115800D01*
D16*
X48711900Y22102700D02*
X47439500Y22102700D01*
X47242600Y22299600D02*
X46121100Y22299600D01*
D15*
X47439500Y22102700D02*
X47242600Y22299600D01*
X46041000Y22379700D02*
X46121100Y22299600D01*
D16*
X42703300Y22379700D02*
X46041000Y22379700D01*
X48711900Y22102700D02*
X49662000Y22102700D01*
X49662000Y22102700D02*
X50502600Y21262100D01*
X46907000Y14493000D02*
X48394400Y14493000D01*
X48394400Y14493000D02*
X48829100Y14927700D01*
X41050000Y17500000D02*
X48829100Y17500000D01*
X48829100Y14927700D02*
X48829100Y17500000D01*
X48829100Y17500000D02*
X50436200Y17500000D01*
D15*
X50502600Y17566400D02*
X50436200Y17500000D01*
D16*
X50502600Y21262100D02*
X50502600Y17566400D01*
%TO.N,/REF+5*%
X41957000Y11953000D02*
X41957000Y10237000D01*
D15*
X41957000Y10237000D02*
X42273000Y9921000D01*
X52678200Y9292300D02*
X52837000Y9451100D01*
D16*
X52678200Y6517400D02*
X52678200Y9292300D01*
X53753800Y14011900D02*
X53753800Y12130800D01*
X52837000Y11214000D02*
X52837000Y9451100D01*
X53753800Y12130800D02*
X52837000Y11214000D01*
X49499300Y9781300D02*
X51112200Y9781300D01*
X51442400Y9451100D02*
X52837000Y9451100D01*
X51112200Y9781300D02*
X51442400Y9451100D01*
D15*
X10050000Y18236400D02*
X10050000Y17668000D01*
D16*
X13763000Y20081000D02*
X11894600Y20081000D01*
X11894600Y20081000D02*
X10050000Y18236400D01*
D15*
X27198100Y27650200D02*
X28938000Y25910300D01*
X28938000Y25910300D02*
X28938000Y21465300D01*
X28938000Y21465300D02*
X30703300Y19700000D01*
X30703300Y19700000D02*
X31998700Y19700000D01*
X32308500Y19390200D02*
X32308500Y18475000D01*
X31998700Y19700000D02*
X32308500Y19390200D01*
D16*
X30224000Y10810000D02*
X28899900Y10810000D01*
X28201400Y10111500D02*
X28201400Y8905000D01*
X28899900Y10810000D02*
X28201400Y10111500D01*
D15*
X32308500Y18475000D02*
X33341640Y18475000D01*
X17673100Y5920500D02*
X17685800Y5933200D01*
D16*
X16217680Y7375920D02*
X17673100Y5920500D01*
X18504000Y13692000D02*
X16217680Y13692000D01*
X16217680Y13692000D02*
X16217680Y7375920D01*
X40002240Y8497840D02*
X41779480Y8497840D01*
X42273000Y8991360D02*
X42273000Y9921000D01*
X41779480Y8497840D02*
X42273000Y8991360D01*
%TO.N,/DACgen*%
X18504000Y8290000D02*
X18504000Y9882000D01*
X43835100Y4218700D02*
X22575300Y4218700D01*
X22575300Y4218700D02*
X18504000Y8290000D01*
X46907000Y11953000D02*
X46907000Y7290600D01*
X46907000Y7290600D02*
X43835100Y4218700D01*
%TD*%
M02*
