<?xml version="1.0" standalone="no"?>
 <!DOCTYPE svg PUBLIC "-//W3C//DTD SVG 1.1//EN" 
 "http://www.w3.org/Graphics/SVG/1.1/DTD/svg11.dtd"> 
<svg
  xmlns:svg="http://www.w3.org/2000/svg"
  xmlns="http://www.w3.org/2000/svg"
  xmlns:xlink="http://www.w3.org/1999/xlink"
  version="1.1"
  width="21.000720cm" height="29.700220cm" viewBox="0 0 82680 116930">
<title>SVG Picture created as ADCandDAC_-B_Cu.svg date 2020/12/08 08:28:42 </title>
  <desc>Picture generated by PCBNEW </desc>
<g style="fill:#000000; fill-opacity:1;stroke:#000000; stroke-opacity:1;
stroke-linecap:round; stroke-linejoin:round;"
 transform="translate(0 0) scale(1 1)">
</g>
<g style="fill:#000000; fill-opacity:0.0; 
stroke:#000000; stroke-width:-0.000393701; stroke-opacity:1; 
stroke-linecap:round; stroke-linejoin:round;">
</g>
<g style="fill:#000000; fill-opacity:1.0; 
stroke:#000000; stroke-width:39.3701; stroke-opacity:1; 
stroke-linecap:round; stroke-linejoin:round;">
<rect x="-1368.11" y="-16754.9" width="30884.9" height="18142.7" rx="0" />
</g>
<g style="fill:#FFFFFF; fill-opacity:1.0; 
stroke:#FFFFFF; stroke-width:39.3701; stroke-opacity:1; 
stroke-linecap:round; stroke-linejoin:round;">
</g>
<g style="fill:#FFFFFF; fill-opacity:0.0; 
stroke:#FFFFFF; stroke-width:39.3701; stroke-opacity:1; 
stroke-linecap:round; stroke-linejoin:round;">
</g>
<g style="fill:#FFFFFF; fill-opacity:0.0; 
stroke:#FFFFFF; stroke-width:98.4252; stroke-opacity:1; 
stroke-linecap:round; stroke-linejoin:round;">
<text x="12244.1" y="-1653.54"
transform="scale(-1 1) translate(-24488.188976 0)"
textLength="1124.86" font-size="524.934" lengthAdjust="spacingAndGlyphs"
text-anchor="middle" opacity="0">ADC</text>
<path d="M12731 -1784
L12544 -1784
" />
<path d="M12769 -1672
L12637 -2065
L12506 -1672
" />
<path d="M12375 -1672
L12375 -2065
L12281 -2065
L12225 -2047
L12187 -2009
L12169 -1972
L12150 -1897
L12150 -1841
L12169 -1766
L12187 -1728
L12225 -1691
L12281 -1672
L12375 -1672
" />
<path d="M11756 -1709
L11775 -1691
L11831 -1672
L11869 -1672
L11925 -1691
L11962 -1728
L11981 -1766
L12000 -1841
L12000 -1897
L11981 -1972
L11962 -2009
L11925 -2047
L11869 -2065
L11831 -2065
L11775 -2047
L11756 -2028
" />
<text x="15000" y="-1692.91"
transform="scale(-1 1) translate(-30000.000000 0)"
textLength="996.907" font-size="524.934" lengthAdjust="spacingAndGlyphs"
text-anchor="middle" opacity="0">DAC</text>
<path d="M15468 -1711
L15468 -2105
L15374 -2105
L15318 -2086
L15281 -2049
L15262 -2011
L15243 -1936
L15243 -1880
L15262 -1805
L15281 -1767
L15318 -1730
L15374 -1711
L15468 -1711
" />
<path d="M15093 -1824
L14906 -1824
" />
<path d="M15131 -1711
L15000 -2105
L14868 -1711
" />
<path d="M14512 -1749
L14531 -1730
L14587 -1711
L14625 -1711
L14681 -1730
L14718 -1767
L14737 -1805
L14756 -1880
L14756 -1936
L14737 -2011
L14718 -2049
L14681 -2086
L14625 -2105
L14587 -2105
L14531 -2086
L14512 -2067
" />
<text x="13622" y="-1692.91"
transform="scale(-1 1) translate(-27244.094488 0)"
textLength="1071.9" font-size="524.934" lengthAdjust="spacingAndGlyphs"
text-anchor="middle" opacity="0">GND</text>
<path d="M13922 -2086
L13959 -2105
L14015 -2105
L14071 -2086
L14109 -2049
L14128 -2011
L14146 -1936
L14146 -1880
L14128 -1805
L14109 -1767
L14071 -1730
L14015 -1711
L13978 -1711
L13922 -1730
L13903 -1749
L13903 -1880
L13978 -1880
" />
<path d="M13734 -1711
L13734 -2105
L13509 -1711
L13509 -2105
" />
<path d="M13322 -1711
L13322 -2105
L13228 -2105
L13172 -2086
L13134 -2049
L13115 -2011
L13097 -1936
L13097 -1880
L13115 -1805
L13134 -1767
L13172 -1730
L13228 -1711
L13322 -1711
" />
<g transform="rotate(-90 4606.3 -2086.61)">
<text x="4606.3" y="-1889.76"
transform="scale(-1 1) translate(-9212.598425 0)"
textLength="359.486" font-size="524.934" lengthAdjust="spacingAndGlyphs"
text-anchor="middle" opacity="0">+</text>
</g>
<path d="M4634 -2236
L4634 -1936
" />
<path d="M4784 -2086
L4484 -2086
" />
<g transform="rotate(-90 2519.69 -9921.26)">
<text x="2519.69" y="-9724.41"
transform="scale(-1 1) translate(-5039.370079 0)"
textLength="359.486" font-size="524.934" lengthAdjust="spacingAndGlyphs"
text-anchor="middle" opacity="0">+</text>
</g>
<path d="M2547 -10071
L2547 -9771
" />
<path d="M2697 -9921
L2397 -9921
" />
<g transform="rotate(-90 2007.87 -2125.98)">
<text x="2007.87" y="-1929.13"
transform="scale(-1 1) translate(-4015.748031 0)"
textLength="359.486" font-size="524.934" lengthAdjust="spacingAndGlyphs"
text-anchor="middle" opacity="0">-</text>
</g>
<path d="M2035 -2275
L2035 -1976
" />
<g transform="rotate(-90 2519.69 -11023.6)">
<text x="2519.69" y="-10826.8"
transform="scale(-1 1) translate(-5039.370079 0)"
textLength="359.486" font-size="524.934" lengthAdjust="spacingAndGlyphs"
text-anchor="middle" opacity="0">-</text>
</g>
<path d="M2547 -11173
L2547 -10873
" />
<g transform="rotate(-90 10393.7 -3385.83)">
<text x="10393.7" y="-3188.98"
transform="scale(-1 1) translate(-20787.401575 0)"
textLength="1071.9" font-size="524.934" lengthAdjust="spacingAndGlyphs"
text-anchor="middle" opacity="0">GND</text>
</g>
<path d="M10196 -3685
L10178 -3723
L10178 -3779
L10196 -3835
L10234 -3873
L10271 -3892
L10346 -3910
L10403 -3910
L10478 -3892
L10515 -3873
L10553 -3835
L10571 -3779
L10571 -3742
L10553 -3685
L10534 -3667
L10403 -3667
L10403 -3742
" />
<path d="M10571 -3498
L10178 -3498
L10571 -3273
L10178 -3273
" />
<path d="M10571 -3085
L10178 -3085
L10178 -2992
L10196 -2935
L10234 -2898
L10271 -2879
L10346 -2860
L10403 -2860
L10478 -2879
L10515 -2898
L10553 -2935
L10571 -2992
L10571 -3085
" />
<g transform="rotate(-90 9173.23 -9763.78)">
<text x="9173.23" y="-9566.93"
transform="scale(-1 1) translate(-18346.456693 0)"
textLength="1071.9" font-size="524.934" lengthAdjust="spacingAndGlyphs"
text-anchor="middle" opacity="0">GND</text>
</g>
<path d="M8976 -10063
L8957 -10101
L8957 -10157
L8976 -10213
L9013 -10251
L9051 -10269
L9126 -10288
L9182 -10288
L9257 -10269
L9295 -10251
L9332 -10213
L9351 -10157
L9351 -10119
L9332 -10063
L9313 -10044
L9182 -10044
L9182 -10119
" />
<path d="M9351 -9876
L8957 -9876
L9351 -9651
L8957 -9651
" />
<path d="M9351 -9463
L8957 -9463
L8957 -9370
L8976 -9313
L9013 -9276
L9051 -9257
L9126 -9238
L9182 -9238
L9257 -9257
L9295 -9276
L9332 -9313
L9351 -9370
L9351 -9463
" />
</g>
<g style="fill:#FFFFFF; fill-opacity:0.0; 
stroke:#FFFFFF; stroke-width:118.11; stroke-opacity:1; 
stroke-linecap:round; stroke-linejoin:round;">
<g transform="rotate(-90 11220.5 -9330.71)">
<text x="11220.5" y="-9035.43"
transform="scale(-1 1) translate(-22440.944882 0)"
textLength="2262.37" font-size="787.402" lengthAdjust="spacingAndGlyphs"
text-anchor="middle" opacity="0">CURR</text>
</g>
<path d="M11431 -10047
L11459 -10075
L11487 -10160
L11487 -10216
L11459 -10300
L11403 -10357
L11347 -10385
L11234 -10413
L11150 -10413
L11037 -10385
L10981 -10357
L10925 -10300
L10897 -10216
L10897 -10160
L10925 -10075
L10953 -10047
" />
<path d="M10897 -9794
L11375 -9794
L11431 -9766
L11459 -9738
L11487 -9682
L11487 -9569
L11459 -9513
L11431 -9485
L11375 -9457
L10897 -9457
" />
<path d="M11487 -8838
L11206 -9035
" />
<path d="M11487 -9176
L10897 -9176
L10897 -8951
L10925 -8894
L10953 -8866
L11009 -8838
L11093 -8838
L11150 -8866
L11178 -8894
L11206 -8951
L11206 -9176
" />
<path d="M11487 -8248
L11206 -8444
" />
<path d="M11487 -8585
L10897 -8585
L10897 -8360
L10925 -8304
L10953 -8276
L11009 -8248
L11093 -8248
L11150 -8276
L11178 -8304
L11206 -8360
L11206 -8585
" />
<text x="9133.86" y="-4389.76"
transform="scale(-1 1) translate(-18267.716535 0)"
textLength="1758.72" font-size="787.402" lengthAdjust="spacingAndGlyphs"
text-anchor="middle" opacity="0">FBin</text>
<path d="M9752 -4727
L9949 -4727
" />
<path d="M9949 -4417
L9949 -5008
L9668 -5008
" />
<path d="M9246 -4727
L9161 -4699
L9133 -4670
L9105 -4614
L9105 -4530
L9133 -4474
L9161 -4446
L9218 -4417
L9443 -4417
L9443 -5008
L9246 -5008
L9190 -4980
L9161 -4952
L9133 -4895
L9133 -4839
L9161 -4783
L9190 -4755
L9246 -4727
L9443 -4727
" />
<path d="M8852 -4417
L8852 -4811
" />
<path d="M8852 -5008
L8880 -4980
L8852 -4952
L8824 -4980
L8852 -5008
L8852 -4952
" />
<path d="M8571 -4811
L8571 -4417
" />
<path d="M8571 -4755
L8543 -4783
L8487 -4811
L8402 -4811
L8346 -4783
L8318 -4727
L8318 -4417
" />
<g transform="rotate(-90 4685.04 -10354.3)">
<text x="4685.04" y="-10059.1"
transform="scale(-1 1) translate(-9370.078740 0)"
textLength="1843.08" font-size="787.402" lengthAdjust="spacingAndGlyphs"
text-anchor="middle" opacity="0">BATT</text>
</g>
<path d="M4642 -11015
L4670 -10930
L4699 -10902
L4755 -10874
L4839 -10874
L4895 -10902
L4924 -10930
L4952 -10987
L4952 -11212
L4361 -11212
L4361 -11015
L4389 -10958
L4417 -10930
L4474 -10902
L4530 -10902
L4586 -10930
L4614 -10958
L4642 -11015
L4642 -11212
" />
<path d="M4783 -10649
L4783 -10368
" />
<path d="M4952 -10705
L4361 -10508
L4952 -10312
" />
<path d="M4361 -10199
L4361 -9862
" />
<path d="M4952 -10030
L4361 -10030
" />
<path d="M4361 -9749
L4361 -9412
" />
<path d="M4952 -9580
L4361 -9580
" />
<text x="3267.72" y="-2854.33"
transform="scale(-1 1) translate(-6535.433071 0)"
textLength="2039.93" font-size="787.402" lengthAdjust="spacingAndGlyphs"
text-anchor="middle" opacity="0">LOAD</text>
<path d="M3942 -2882
L4223 -2882
L4223 -3473
" />
<path d="M3633 -3473
L3520 -3473
L3464 -3444
L3408 -3388
L3380 -3276
L3380 -3079
L3408 -2966
L3464 -2910
L3520 -2882
L3633 -2882
L3689 -2910
L3745 -2966
L3773 -3079
L3773 -3276
L3745 -3388
L3689 -3444
L3633 -3473
" />
<path d="M3155 -3051
L2874 -3051
" />
<path d="M3211 -2882
L3014 -3473
L2817 -2882
" />
<path d="M2620 -2882
L2620 -3473
L2480 -3473
L2395 -3444
L2339 -3388
L2311 -3332
L2283 -3219
L2283 -3135
L2311 -3023
L2339 -2966
L2395 -2910
L2480 -2882
L2620 -2882
" />
<g transform="rotate(-90 19488.2 -8188.98)">
<text x="19488.2" y="-7893.7"
transform="scale(-1 1) translate(-38976.377953 0)"
textLength="1646.23" font-size="787.402" lengthAdjust="spacingAndGlyphs"
text-anchor="middle" opacity="0">GND</text>
</g>
<path d="M19192 -8638
L19164 -8695
L19164 -8779
L19192 -8863
L19249 -8920
L19305 -8948
L19417 -8976
L19502 -8976
L19614 -8948
L19670 -8920
L19727 -8863
L19755 -8779
L19755 -8723
L19727 -8638
L19699 -8610
L19502 -8610
L19502 -8723
" />
<path d="M19755 -8357
L19164 -8357
L19755 -8020
L19164 -8020
" />
<path d="M19755 -7739
L19164 -7739
L19164 -7598
L19192 -7514
L19249 -7457
L19305 -7429
L19417 -7401
L19502 -7401
L19614 -7429
L19670 -7457
L19727 -7514
L19755 -7598
L19755 -7739
" />
<g transform="rotate(-90 22755.9 -8307.09)">
<text x="22755.9" y="-8011.81"
transform="scale(-1 1) translate(-45511.811024 0)"
textLength="1702.47" font-size="787.402" lengthAdjust="spacingAndGlyphs"
text-anchor="middle" opacity="0">+12</text>
</g>
<path d="M22798 -9094
L22798 -8644
" />
<path d="M23023 -8869
L22573 -8869
" />
<path d="M23023 -8053
L23023 -8391
" />
<path d="M23023 -8222
L22432 -8222
L22516 -8278
L22573 -8335
L22601 -8391
" />
<path d="M22488 -7829
L22460 -7800
L22432 -7744
L22432 -7604
L22460 -7547
L22488 -7519
L22544 -7491
L22601 -7491
L22685 -7519
L23023 -7857
L23023 -7491
" />
<text x="13110.2" y="-3996.06"
transform="scale(-1 1) translate(-26220.472441 0)"
textLength="1646.23" font-size="787.402" lengthAdjust="spacingAndGlyphs"
text-anchor="middle" opacity="0">GND</text>
<path d="M13560 -4586
L13616 -4614
L13700 -4614
L13785 -4586
L13841 -4530
L13869 -4474
L13897 -4361
L13897 -4277
L13869 -4164
L13841 -4108
L13785 -4052
L13700 -4024
L13644 -4024
L13560 -4052
L13532 -4080
L13532 -4277
L13644 -4277
" />
<path d="M13278 -4024
L13278 -4614
L12941 -4024
L12941 -4614
" />
<path d="M12660 -4024
L12660 -4614
L12519 -4614
L12435 -4586
L12379 -4530
L12350 -4474
L12322 -4361
L12322 -4277
L12350 -4164
L12379 -4108
L12435 -4052
L12519 -4024
L12660 -4024
" />
<text x="12952.8" y="-4862.2"
transform="scale(-1 1) translate(-25905.511811 0)"
textLength="1983.69" font-size="787.402" lengthAdjust="spacingAndGlyphs"
text-anchor="middle" opacity="0">MOSI</text>
<path d="M13880 -4890
L13880 -5480
L13683 -5059
L13487 -5480
L13487 -4890
" />
<path d="M13093 -5480
L12980 -5480
L12924 -5452
L12868 -5396
L12840 -5284
L12840 -5087
L12868 -4974
L12924 -4918
L12980 -4890
L13093 -4890
L13149 -4918
L13205 -4974
L13233 -5087
L13233 -5284
L13205 -5396
L13149 -5452
L13093 -5480
" />
<path d="M12615 -4918
L12530 -4890
L12390 -4890
L12334 -4918
L12305 -4946
L12277 -5002
L12277 -5059
L12305 -5115
L12334 -5143
L12390 -5171
L12502 -5199
L12559 -5227
L12587 -5255
L12615 -5312
L12615 -5368
L12587 -5424
L12559 -5452
L12502 -5480
L12362 -5480
L12277 -5452
" />
<path d="M12024 -4890
L12024 -5480
" />
<text x="12952.8" y="-5688.98"
transform="scale(-1 1) translate(-25905.511811 0)"
textLength="1983.69" font-size="787.402" lengthAdjust="spacingAndGlyphs"
text-anchor="middle" opacity="0">MISO</text>
<path d="M13880 -5717
L13880 -6307
L13683 -5885
L13487 -6307
L13487 -5717
" />
<path d="M13205 -5717
L13205 -6307
" />
<path d="M12952 -5745
L12868 -5717
L12727 -5717
L12671 -5745
L12643 -5773
L12615 -5829
L12615 -5885
L12643 -5942
L12671 -5970
L12727 -5998
L12840 -6026
L12896 -6054
L12924 -6082
L12952 -6138
L12952 -6195
L12924 -6251
L12896 -6279
L12840 -6307
L12699 -6307
L12615 -6279
" />
<path d="M12249 -6307
L12137 -6307
L12080 -6279
L12024 -6223
L11996 -6110
L11996 -5913
L12024 -5801
L12080 -5745
L12137 -5717
L12249 -5717
L12305 -5745
L12362 -5801
L12390 -5913
L12390 -6110
L12362 -6223
L12305 -6279
L12249 -6307
" />
<text x="13110.2" y="-6476.38"
transform="scale(-1 1) translate(-26220.472441 0)"
textLength="1589.99" font-size="787.402" lengthAdjust="spacingAndGlyphs"
text-anchor="middle" opacity="0">SCK</text>
<path d="M13869 -6532
L13785 -6504
L13644 -6504
L13588 -6532
L13560 -6560
L13532 -6616
L13532 -6673
L13560 -6729
L13588 -6757
L13644 -6785
L13757 -6813
L13813 -6841
L13841 -6870
L13869 -6926
L13869 -6982
L13841 -7038
L13813 -7066
L13757 -7095
L13616 -7095
L13532 -7066
" />
<path d="M12941 -6560
L12969 -6532
L13053 -6504
L13110 -6504
L13194 -6532
L13250 -6588
L13278 -6645
L13307 -6757
L13307 -6841
L13278 -6954
L13250 -7010
L13194 -7066
L13110 -7095
L13053 -7095
L12969 -7066
L12941 -7038
" />
<path d="M12688 -6504
L12688 -7095
" />
<path d="M12350 -6504
L12604 -6841
" />
<path d="M12350 -7095
L12688 -6757
" />
<g >
</g>
<g >
</g>
<g >
</g>
<g >
</g>
<g >
</g>
<g >
</g>
<g >
</g>
<g >
</g>
<g >
</g>
<g >
</g>
<g >
</g>
<g >
</g>
<g >
</g>
<g >
</g>
<g >
</g>
<g style="fill:#FFFFFF; fill-opacity:0.0; 
stroke:#FFFFFF; stroke-width:118.11; stroke-opacity:1; 
stroke-linecap:round; stroke-linejoin:round;">
</g>
<g style="fill:#FFFFFF; fill-opacity:0.0; 
stroke:#FFFFFF; stroke-width:0; stroke-opacity:1; 
stroke-linecap:round; stroke-linejoin:round;">
</g>
<g style="fill:#FFFFFF; fill-opacity:1.0; 
stroke:#FFFFFF; stroke-width:0; stroke-opacity:1; 
stroke-linecap:round; stroke-linejoin:round;">
<path style="fill:#FFFFFF; fill-opacity:1.0; 
stroke:#FFFFFF; stroke-width:0; stroke-opacity:1; 
stroke-linecap:round; stroke-linejoin:round;fill-rule:evenodd;"
d="M 3807.87,-11120.9
3807.87,-10490.9
3177.95,-10490.9
3177.95,-11120.9
Z" /> 
<circle cx="3492.91" cy="-10018.5" r="314.961" /> 
</g>
<g >
</g>
<g style="fill:#FFFFFF; fill-opacity:1.0; 
stroke:#FFFFFF; stroke-width:0; stroke-opacity:1; 
stroke-linecap:round; stroke-linejoin:round;">
<circle cx="10092.9" cy="-9693.31" r="314.961" /> 
<path style="fill:#FFFFFF; fill-opacity:1.0; 
stroke:#FFFFFF; stroke-width:0; stroke-opacity:1; 
stroke-linecap:round; stroke-linejoin:round;fill-rule:evenodd;"
d="M 9777.95,-8590.94
9777.95,-9220.87
10407.9,-9220.87
10407.9,-8590.94
Z" /> 
</g>
<g >
</g>
<g style="fill:#FFFFFF; fill-opacity:1.0; 
stroke:#FFFFFF; stroke-width:0; stroke-opacity:1; 
stroke-linecap:round; stroke-linejoin:round;">
<circle cx="3680.31" cy="-2055.91" r="314.961" /> 
<path style="fill:#FFFFFF; fill-opacity:1.0; 
stroke:#FFFFFF; stroke-width:0; stroke-opacity:1; 
stroke-linecap:round; stroke-linejoin:round;fill-rule:evenodd;"
d="M 2577.95,-2370.87
3207.87,-2370.87
3207.87,-1740.94
2577.95,-1740.94
Z" /> 
</g>
<g >
</g>
<g style="fill:#FFFFFF; fill-opacity:1.0; 
stroke:#FFFFFF; stroke-width:0; stroke-opacity:1; 
stroke-linecap:round; stroke-linejoin:round;">
<path style="fill:#FFFFFF; fill-opacity:1.0; 
stroke:#FFFFFF; stroke-width:0; stroke-opacity:1; 
stroke-linecap:round; stroke-linejoin:round;fill-rule:evenodd;"
d="M 22021.6,-8947.2
21234.2,-8947.2
21234.2,-9734.61
22021.6,-9734.61
Z" /> 
<circle cx="20627.9" cy="-9340.91" r="393.701" /> 
</g>
<g >
</g>
<g style="fill:#FFFFFF; fill-opacity:1.0; 
stroke:#FFFFFF; stroke-width:0; stroke-opacity:1; 
stroke-linecap:round; stroke-linejoin:round;">
<path style="fill:#FFFFFF; fill-opacity:1.0; 
stroke:#FFFFFF; stroke-width:0; stroke-opacity:1; 
stroke-linecap:round; stroke-linejoin:round;fill-rule:evenodd;"
d="M 9756.22,-4270.55
9756.22,-3640.63
9126.3,-3640.63
9126.3,-4270.55
Z" /> 
<circle cx="9441.26" cy="-3168.19" r="314.961" /> 
</g>
<g >
</g>
<g style="fill:#FFFFFF; fill-opacity:1.0; 
stroke:#FFFFFF; stroke-width:0; stroke-opacity:1; 
stroke-linecap:round; stroke-linejoin:round;">
<path style="fill:#FFFFFF; fill-opacity:1.0; 
stroke:#FFFFFF; stroke-width:0; stroke-opacity:1; 
stroke-linecap:round; stroke-linejoin:round;fill-rule:evenodd;"
d="M 14667.9,-2440.94
14038,-2440.94
14038,-3070.87
14667.9,-3070.87
Z" /> 
<circle cx="13565.5" cy="-2755.91" r="314.961" /> 
<circle cx="12778.1" cy="-2755.91" r="314.961" /> 
</g>
<g >
</g>
<g style="fill:#FFFFFF; fill-opacity:1.0; 
stroke:#FFFFFF; stroke-width:0; stroke-opacity:1; 
stroke-linecap:round; stroke-linejoin:round;">
<path style="fill:#FFFFFF; fill-opacity:1.0; 
stroke:#FFFFFF; stroke-width:0; stroke-opacity:1; 
stroke-linecap:round; stroke-linejoin:round;fill-rule:evenodd;"
d="M 15007.9,-7070.87
15007.9,-6440.94
14378,-6440.94
14378,-7070.87
Z" /> 
<circle cx="14692.9" cy="-5968.5" r="314.961" /> 
<circle cx="14692.9" cy="-5181.1" r="314.961" /> 
<circle cx="14692.9" cy="-4393.7" r="314.961" /> 
</g>
<g >
</g>
<g >
</g>
<g >
</g>
<g >
</g>
<g >
</g>
<g >
</g>
<g >
</g>
<g >
</g>
<g >
</g>
<g >
</g>
<g >
</g>
<g >
</g>
<g >
</g>
<g >
</g>
<g >
</g>
<g >
</g>
<g >
</g>
<g >
</g>
<g style="fill:#FFFFFF; fill-opacity:1.0; 
stroke:#FFFFFF; stroke-width:0; stroke-opacity:1; 
stroke-linecap:round; stroke-linejoin:round;">
<circle cx="16642.9" cy="-3905.91" r="393.701" /> 
</g>
<g style="fill:#FFFFFF; fill-opacity:1.0; 
stroke:#FFFFFF; stroke-width:39.3701; stroke-opacity:1; 
stroke-linecap:round; stroke-linejoin:round;">
</g>
<g style="fill:#FFFFFF; fill-opacity:1.0; 
stroke:#FFFFFF; stroke-width:0; stroke-opacity:1; 
stroke-linecap:round; stroke-linejoin:round;">
<circle cx="11102.9" cy="-3505.91" r="393.701" /> 
</g>
<g style="fill:#FFFFFF; fill-opacity:1.0; 
stroke:#FFFFFF; stroke-width:39.3701; stroke-opacity:1; 
stroke-linecap:round; stroke-linejoin:round;">
</g>
<g style="fill:#FFFFFF; fill-opacity:1.0; 
stroke:#FFFFFF; stroke-width:0; stroke-opacity:1; 
stroke-linecap:round; stroke-linejoin:round;">
<circle cx="19487.9" cy="-3850.91" r="393.701" /> 
</g>
<g style="fill:#FFFFFF; fill-opacity:1.0; 
stroke:#FFFFFF; stroke-width:39.3701; stroke-opacity:1; 
stroke-linecap:round; stroke-linejoin:round;">
</g>
<g style="fill:#FFFFFF; fill-opacity:1.0; 
stroke:#FFFFFF; stroke-width:0; stroke-opacity:1; 
stroke-linecap:round; stroke-linejoin:round;">
<circle cx="3956.69" cy="-6955.91" r="393.701" /> 
</g>
<g style="fill:#FFFFFF; fill-opacity:1.0; 
stroke:#FFFFFF; stroke-width:39.3701; stroke-opacity:1; 
stroke-linecap:round; stroke-linejoin:round;">
</g>
<g style="fill:#FFFFFF; fill-opacity:1.0; 
stroke:#FFFFFF; stroke-width:0; stroke-opacity:1; 
stroke-linecap:round; stroke-linejoin:round;">
<circle cx="6962.91" cy="-2335.91" r="393.701" /> 
</g>
<g style="fill:#FFFFFF; fill-opacity:1.0; 
stroke:#FFFFFF; stroke-width:39.3701; stroke-opacity:1; 
stroke-linecap:round; stroke-linejoin:round;">
</g>
<g style="fill:#FFFFFF; fill-opacity:1.0; 
stroke:#FFFFFF; stroke-width:0; stroke-opacity:1; 
stroke-linecap:round; stroke-linejoin:round;">
<circle cx="10707.9" cy="-10885.9" r="393.701" /> 
</g>
<g style="fill:#FFFFFF; fill-opacity:1.0; 
stroke:#FFFFFF; stroke-width:39.3701; stroke-opacity:1; 
stroke-linecap:round; stroke-linejoin:round;">
</g>
<g >
</g>
<g style="fill:#FFFFFF; fill-opacity:1.0; 
stroke:#FFFFFF; stroke-width:39.3701; stroke-opacity:1; 
stroke-linecap:round; stroke-linejoin:round;">
</g>
<g style="fill:#FFFFFF; fill-opacity:1.0; 
stroke:#FFFFFF; stroke-width:157.48; stroke-opacity:1; 
stroke-linecap:round; stroke-linejoin:round;">
</g>
<g style="fill:#FFFFFF; fill-opacity:0.0; 
stroke:#FFFFFF; stroke-width:157.48; stroke-opacity:1; 
stroke-linecap:round; stroke-linejoin:round;">
<path d="M16692 -3855
L16642 -3905
" />
</g>
<g style="fill:#FFFFFF; fill-opacity:0.0; 
stroke:#FFFFFF; stroke-width:236.22; stroke-opacity:1; 
stroke-linecap:round; stroke-linejoin:round;">
<path d="M11252 -3355
L11102 -3505
" />
<path d="M16642 -3905
L16222 -3485
" />
</g>
<g style="fill:#FFFFFF; fill-opacity:0.0; 
stroke:#FFFFFF; stroke-width:157.48; stroke-opacity:1; 
stroke-linecap:round; stroke-linejoin:round;">
<path d="M11122 -3485
L11102 -3505
" />
</g>
<g style="fill:#FFFFFF; fill-opacity:0.0; 
stroke:#FFFFFF; stroke-width:236.22; stroke-opacity:1; 
stroke-linecap:round; stroke-linejoin:round;">
<path d="M16222 -3485
L11122 -3485
" />
<path d="M19482 -3855
L19487 -3850
" />
<path d="M16692 -3855
L19482 -3855
" />
<path d="M6962 -2335
L10882 -2335
" />
<path d="M11102 -2555
L11102 -3505
" />
<path d="M10882 -2335
L11102 -2555
" />
<path d="M6962 -2335
L6202 -2335
" />
<path d="M3956 -4582
L3956 -6955
" />
<path d="M6202 -2335
L3956 -4582
" />
<path d="M3956 -6955
L5172 -6955
" />
<path d="M5172 -6955
L9102 -10885
" />
<path d="M9102 -10885
L10707 -10885
" />
</g>
<g >
</g>
</g> 
</svg>
