M48
; DRILL file {KiCad 5.1.8+dfsg1-1~bpo10+1} date Tue Dec  8 20:33:07 2020
; FORMAT={-:-/ absolute / metric / decimal}
; #@! TF.CreationDate,2020-12-08T20:33:07+03:00
; #@! TF.GenerationSoftware,Kicad,Pcbnew,5.1.8+dfsg1-1~bpo10+1
; #@! TF.FileFunction,Plated,1,2,PTH
FMAT,2
METRIC
T1C0.800
T2C1.000
%
G90
G05
T1
X10.05Y17.668
X17.686Y5.933
X27.198Y27.65
X28.201Y8.905
X42.273Y9.921
X49.499Y9.781
X8.872Y27.447
X8.872Y25.447
X37.32Y17.16
X37.32Y15.16
X37.32Y13.16
X37.32Y11.16
X32.456Y7.0
X34.456Y7.0
X36.456Y7.0
X7.348Y5.222
X9.348Y5.222
X23.981Y10.047
X23.981Y8.047
X25.636Y24.621
X25.636Y22.621
T2
X52.395Y23.726
X54.935Y23.726
T0
M30
