<?xml version="1.0" standalone="no"?>
 <!DOCTYPE svg PUBLIC "-//W3C//DTD SVG 1.1//EN" 
 "http://www.w3.org/Graphics/SVG/1.1/DTD/svg11.dtd"> 
<svg
  xmlns:svg="http://www.w3.org/2000/svg"
  xmlns="http://www.w3.org/2000/svg"
  xmlns:xlink="http://www.w3.org/1999/xlink"
  version="1.1"
  width="29.700220cm" height="21.000720cm" viewBox="0 0 116930 82680">
<title>SVG Picture created as XL4016_shield-F_Cu.svg date 2021/01/07 10:35:31 </title>
  <desc>Picture generated by PCBNEW </desc>
<g style="fill:#000000; fill-opacity:1;stroke:#000000; stroke-opacity:1;
stroke-linecap:round; stroke-linejoin:round;"
 transform="translate(0 0) scale(1 1)">
</g>
<g style="fill:#000000; fill-opacity:0.0; 
stroke:#000000; stroke-width:-0.000393701; stroke-opacity:1; 
stroke-linecap:round; stroke-linejoin:round;">
</g>
<g style="fill:#000000; fill-opacity:1.0; 
stroke:#000000; stroke-width:39.3701; stroke-opacity:1; 
stroke-linecap:round; stroke-linejoin:round;">
<rect x="55076.6" y="23808.1" width="17368.2" height="14473.6" rx="0" />
</g>
<g style="fill:#FFFFFF; fill-opacity:1.0; 
stroke:#FFFFFF; stroke-width:39.3701; stroke-opacity:1; 
stroke-linecap:round; stroke-linejoin:round;">
<g >
</g>
<g style="fill:#FFFFFF; fill-opacity:1.0; 
stroke:#FFFFFF; stroke-width:0; stroke-opacity:1; 
stroke-linecap:round; stroke-linejoin:round;">
<path style="fill:#FFFFFF; fill-opacity:1.0; 
stroke:#FFFFFF; stroke-width:0; stroke-opacity:1; 
stroke-linecap:round; stroke-linejoin:round;fill-rule:evenodd;"
d="M 63617,31716.5
63617,32189
63971.3,32189
63971.3,31716.5
Z" /> 
<path style="fill:#FFFFFF; fill-opacity:1.0; 
stroke:#FFFFFF; stroke-width:0; stroke-opacity:1; 
stroke-linecap:round; stroke-linejoin:round;fill-rule:evenodd;"
d="M 62317.8,31716.5
62317.8,32189
62672.1,32189
62672.1,31716.5
Z" /> 
</g>
<g >
</g>
<g style="fill:#FFFFFF; fill-opacity:1.0; 
stroke:#FFFFFF; stroke-width:0; stroke-opacity:1; 
stroke-linecap:round; stroke-linejoin:round;">
<circle cx="61093" cy="33070.9" r="433.071" /> 
</g>
<g style="fill:#FFFFFF; fill-opacity:1.0; 
stroke:#FFFFFF; stroke-width:39.3701; stroke-opacity:1; 
stroke-linecap:round; stroke-linejoin:round;">
</g>
<g >
</g>
<g style="fill:#FFFFFF; fill-opacity:1.0; 
stroke:#FFFFFF; stroke-width:39.3701; stroke-opacity:1; 
stroke-linecap:round; stroke-linejoin:round;">
</g>
<g style="fill:#FFFFFF; fill-opacity:1.0; 
stroke:#FFFFFF; stroke-width:0; stroke-opacity:1; 
stroke-linecap:round; stroke-linejoin:round;">
<circle cx="61093" cy="31102.4" r="433.071" /> 
</g>
<g style="fill:#FFFFFF; fill-opacity:1.0; 
stroke:#FFFFFF; stroke-width:39.3701; stroke-opacity:1; 
stroke-linecap:round; stroke-linejoin:round;">
</g>
<g >
</g>
<g style="fill:#FFFFFF; fill-opacity:1.0; 
stroke:#FFFFFF; stroke-width:39.3701; stroke-opacity:1; 
stroke-linecap:round; stroke-linejoin:round;">
</g>
<g style="fill:#FFFFFF; fill-opacity:1.0; 
stroke:#FFFFFF; stroke-width:0; stroke-opacity:1; 
stroke-linecap:round; stroke-linejoin:round;">
<circle cx="61093" cy="27165.4" r="433.071" /> 
</g>
<g style="fill:#FFFFFF; fill-opacity:1.0; 
stroke:#FFFFFF; stroke-width:39.3701; stroke-opacity:1; 
stroke-linecap:round; stroke-linejoin:round;">
</g>
<g >
</g>
<g style="fill:#FFFFFF; fill-opacity:1.0; 
stroke:#FFFFFF; stroke-width:39.3701; stroke-opacity:1; 
stroke-linecap:round; stroke-linejoin:round;">
</g>
<g style="fill:#FFFFFF; fill-opacity:1.0; 
stroke:#FFFFFF; stroke-width:0; stroke-opacity:1; 
stroke-linecap:round; stroke-linejoin:round;">
<circle cx="61093" cy="29133.9" r="433.071" /> 
</g>
<g style="fill:#FFFFFF; fill-opacity:1.0; 
stroke:#FFFFFF; stroke-width:39.3701; stroke-opacity:1; 
stroke-linecap:round; stroke-linejoin:round;">
</g>
<g >
</g>
<g style="fill:#FFFFFF; fill-opacity:1.0; 
stroke:#FFFFFF; stroke-width:39.3701; stroke-opacity:1; 
stroke-linecap:round; stroke-linejoin:round;">
</g>
<g style="fill:#FFFFFF; fill-opacity:1.0; 
stroke:#FFFFFF; stroke-width:0; stroke-opacity:1; 
stroke-linecap:round; stroke-linejoin:round;">
<path style="fill:#FFFFFF; fill-opacity:1.0; 
stroke:#FFFFFF; stroke-width:0; stroke-opacity:1; 
stroke-linecap:round; stroke-linejoin:round;fill-rule:evenodd;"
d="M 61939.5,27543.8
61930.5,27545.1
61921.6,27547.3
61912.9,27550.4
61904.6,27554.3
61896.8,27559.1
61889.4,27564.5
61882.6,27570.7
61876.4,27577.5
61871,27584.9
61866.2,27592.7
61862.3,27601
61859.2,27609.7
61857,27618.6
61855.6,27627.6
61855.2,27636.8
61855.2,27873
61855.6,27882.2
61857,27891.3
61859.2,27900.2
61862.3,27908.8
61866.2,27917.1
61871,27925
61876.4,27932.3
61882.6,27939.1
61889.4,27945.3
61896.8,27950.8
61904.6,27955.5
61912.9,27959.4
61921.6,27962.5
61930.5,27964.7
61939.5,27966.1
61948.7,27966.5
62135.7,27966.5
62144.9,27966.1
62154,27964.7
62162.9,27962.5
62171.5,27959.4
62179.8,27955.5
62187.7,27950.8
62195,27945.3
62201.8,27939.1
62208,27932.3
62213.5,27925
62218.2,27917.1
62222.1,27908.8
62225.2,27900.2
62227.4,27891.3
62228.8,27882.2
62229.2,27873
62229.2,27636.8
62228.8,27627.6
62227.4,27618.6
62225.2,27609.7
62222.1,27601
62218.2,27592.7
62213.5,27584.9
62208,27577.5
62201.8,27570.7
62195,27564.5
62187.7,27559.1
62179.8,27554.3
62171.5,27550.4
62162.9,27547.3
62154,27545.1
62144.9,27543.8
62135.7,27543.3
61948.7,27543.3
Z" /> 
<path style="fill:#FFFFFF; fill-opacity:1.0; 
stroke:#FFFFFF; stroke-width:0; stroke-opacity:1; 
stroke-linecap:round; stroke-linejoin:round;fill-rule:evenodd;"
d="M 61939.5,28222.9
61930.5,28224.2
61921.6,28226.5
61912.9,28229.6
61904.6,28233.5
61896.8,28238.2
61889.4,28243.7
61882.6,28249.8
61876.4,28256.6
61871,28264
61866.2,28271.9
61862.3,28280.2
61859.2,28288.8
61857,28297.7
61855.6,28306.8
61855.2,28315.9
61855.2,28552.2
61855.6,28561.3
61857,28570.4
61859.2,28579.3
61862.3,28587.9
61866.2,28596.2
61871,28604.1
61876.4,28611.5
61882.6,28618.3
61889.4,28624.4
61896.8,28629.9
61904.6,28634.6
61912.9,28638.6
61921.6,28641.6
61930.5,28643.9
61939.5,28645.2
61948.7,28645.7
62135.7,28645.7
62144.9,28645.2
62154,28643.9
62162.9,28641.6
62171.5,28638.6
62179.8,28634.6
62187.7,28629.9
62195,28624.4
62201.8,28618.3
62208,28611.5
62213.5,28604.1
62218.2,28596.2
62222.1,28587.9
62225.2,28579.3
62227.4,28570.4
62228.8,28561.3
62229.2,28552.2
62229.2,28315.9
62228.8,28306.8
62227.4,28297.7
62225.2,28288.8
62222.1,28280.2
62218.2,28271.9
62213.5,28264
62208,28256.6
62201.8,28249.8
62195,28243.7
62187.7,28238.2
62179.8,28233.5
62171.5,28229.6
62162.9,28226.5
62154,28224.2
62144.9,28222.9
62135.7,28222.4
61948.7,28222.4
Z" /> 
</g>
<g >
</g>
<g style="fill:#FFFFFF; fill-opacity:1.0; 
stroke:#FFFFFF; stroke-width:0; stroke-opacity:1; 
stroke-linecap:round; stroke-linejoin:round;">
<path style="fill:#FFFFFF; fill-opacity:1.0; 
stroke:#FFFFFF; stroke-width:0; stroke-opacity:1; 
stroke-linecap:round; stroke-linejoin:round;fill-rule:evenodd;"
d="M 62337.5,30771.7
62337.5,31244.1
62691.8,31244.1
62691.8,30771.7
Z" /> 
<path style="fill:#FFFFFF; fill-opacity:1.0; 
stroke:#FFFFFF; stroke-width:0; stroke-opacity:1; 
stroke-linecap:round; stroke-linejoin:round;fill-rule:evenodd;"
d="M 63636.7,30771.7
63636.7,31244.1
63991,31244.1
63991,30771.7
Z" /> 
</g>
<g >
</g>
<g style="fill:#FFFFFF; fill-opacity:1.0; 
stroke:#FFFFFF; stroke-width:0; stroke-opacity:1; 
stroke-linecap:round; stroke-linejoin:round;">
<path style="fill:#FFFFFF; fill-opacity:1.0; 
stroke:#FFFFFF; stroke-width:0; stroke-opacity:1; 
stroke-linecap:round; stroke-linejoin:round;fill-rule:evenodd;"
d="M 69050.1,27385.8
69050.1,26598.4
68262.7,26598.4
68262.7,27385.8
Z" /> 
<circle cx="68656.4" cy="27992.1" r="393.701" /> 
<circle cx="68656.4" cy="28992.1" r="393.701" /> 
</g>
<g >
</g>
<g style="fill:#FFFFFF; fill-opacity:1.0; 
stroke:#FFFFFF; stroke-width:0; stroke-opacity:1; 
stroke-linecap:round; stroke-linejoin:round;">
<path style="fill:#FFFFFF; fill-opacity:1.0; 
stroke:#FFFFFF; stroke-width:0; stroke-opacity:1; 
stroke-linecap:round; stroke-linejoin:round;fill-rule:evenodd;"
d="M 63160,32868.6
63150.9,32869.9
63142,32872.1
63133.4,32875.2
63125.1,32879.2
63117.2,32883.9
63109.9,32889.3
63103.1,32895.5
63096.9,32902.3
63091.4,32909.7
63086.7,32917.5
63082.8,32925.8
63079.7,32934.5
63077.5,32943.4
63076.1,32952.4
63075.7,32961.6
63075.7,33148.6
63076.1,33157.8
63077.5,33166.9
63079.7,33175.8
63082.8,33184.4
63086.7,33192.7
63091.4,33200.6
63096.9,33207.9
63103.1,33214.7
63109.9,33220.9
63117.2,33226.4
63125.1,33231.1
63133.4,33235
63142,33238.1
63150.9,33240.3
63160,33241.7
63169.2,33242.1
63366,33242.1
63375.2,33241.7
63384.3,33240.3
63393.2,33238.1
63401.8,33235
63410.1,33231.1
63418,33226.4
63425.3,33220.9
63432.1,33214.7
63438.3,33207.9
63443.8,33200.6
63448.5,33192.7
63452.4,33184.4
63455.5,33175.8
63457.7,33166.9
63459.1,33157.8
63459.5,33148.6
63459.5,32961.6
63459.1,32952.4
63457.7,32943.4
63455.5,32934.5
63452.4,32925.8
63448.5,32917.5
63443.8,32909.7
63438.3,32902.3
63432.1,32895.5
63425.3,32889.3
63418,32883.9
63410.1,32879.2
63401.8,32875.2
63393.2,32872.1
63384.3,32869.9
63375.2,32868.6
63366,32868.1
63169.2,32868.1
Z" /> 
<path style="fill:#FFFFFF; fill-opacity:1.0; 
stroke:#FFFFFF; stroke-width:0; stroke-opacity:1; 
stroke-linecap:round; stroke-linejoin:round;fill-rule:evenodd;"
d="M 62441.5,32868.6
62432.4,32869.9
62423.5,32872.1
62414.9,32875.2
62406.6,32879.2
62398.7,32883.9
62391.4,32889.3
62384.6,32895.5
62378.4,32902.3
62372.9,32909.7
62368.2,32917.5
62364.3,32925.8
62361.2,32934.5
62359,32943.4
62357.6,32952.4
62357.2,32961.6
62357.2,33148.6
62357.6,33157.8
62359,33166.9
62361.2,33175.8
62364.3,33184.4
62368.2,33192.7
62372.9,33200.6
62378.4,33207.9
62384.6,33214.7
62391.4,33220.9
62398.7,33226.4
62406.6,33231.1
62414.9,33235
62423.5,33238.1
62432.4,33240.3
62441.5,33241.7
62450.7,33242.1
62647.5,33242.1
62656.7,33241.7
62665.8,33240.3
62674.7,33238.1
62683.3,33235
62691.6,33231.1
62699.5,33226.4
62706.8,33220.9
62713.6,33214.7
62719.8,33207.9
62725.3,33200.6
62730,33192.7
62733.9,33184.4
62737,33175.8
62739.2,33166.9
62740.6,33157.8
62741,33148.6
62741,32961.6
62740.6,32952.4
62739.2,32943.4
62737,32934.5
62733.9,32925.8
62730,32917.5
62725.3,32909.7
62719.8,32902.3
62713.6,32895.5
62706.8,32889.3
62699.5,32883.9
62691.6,32879.2
62683.3,32875.2
62674.7,32872.1
62665.8,32869.9
62656.7,32868.6
62647.5,32868.1
62450.7,32868.1
Z" /> 
</g>
<g >
</g>
<g style="fill:#FFFFFF; fill-opacity:1.0; 
stroke:#FFFFFF; stroke-width:0; stroke-opacity:1; 
stroke-linecap:round; stroke-linejoin:round;">
<path style="fill:#FFFFFF; fill-opacity:1.0; 
stroke:#FFFFFF; stroke-width:0; stroke-opacity:1; 
stroke-linecap:round; stroke-linejoin:round;fill-rule:evenodd;"
d="M 68794.9,31136.3
68785.8,31137.6
68776.9,31139.9
68768.2,31142.9
68759.9,31146.9
68752.1,31151.6
68744.7,31157.1
68737.9,31163.2
68731.7,31170
68726.3,31177.4
68721.6,31185.3
68717.6,31193.5
68714.5,31202.2
68712.3,31211.1
68711,31220.2
68710.5,31229.3
68710.5,31416.3
68711,31425.5
68712.3,31434.6
68714.5,31443.5
68717.6,31452.1
68721.6,31460.4
68726.3,31468.3
68731.7,31475.7
68737.9,31482.5
68744.7,31488.6
68752.1,31494.1
68759.9,31498.8
68768.2,31502.7
68776.9,31505.8
68785.8,31508
68794.9,31509.4
68804,31509.8
69000.9,31509.8
69010,31509.4
69019.1,31508
69028,31505.8
69036.6,31502.7
69044.9,31498.8
69052.8,31494.1
69060.2,31488.6
69067,31482.5
69073.1,31475.7
69078.6,31468.3
69083.3,31460.4
69087.3,31452.1
69090.3,31443.5
69092.6,31434.6
69093.9,31425.5
69094.4,31416.3
69094.4,31229.3
69093.9,31220.2
69092.6,31211.1
69090.3,31202.2
69087.3,31193.5
69083.3,31185.3
69078.6,31177.4
69073.1,31170
69067,31163.2
69060.2,31157.1
69052.8,31151.6
69044.9,31146.9
69036.6,31142.9
69028,31139.9
69019.1,31137.6
69010,31136.3
69000.9,31135.8
68804,31135.8
Z" /> 
<path style="fill:#FFFFFF; fill-opacity:1.0; 
stroke:#FFFFFF; stroke-width:0; stroke-opacity:1; 
stroke-linecap:round; stroke-linejoin:round;fill-rule:evenodd;"
d="M 68076.3,31136.3
68067.3,31137.6
68058.4,31139.9
68049.7,31142.9
68041.4,31146.9
68033.6,31151.6
68026.2,31157.1
68019.4,31163.2
68013.2,31170
68007.8,31177.4
68003,31185.3
67999.1,31193.5
67996,31202.2
67993.8,31211.1
67992.5,31220.2
67992,31229.3
67992,31416.3
67992.5,31425.5
67993.8,31434.6
67996,31443.5
67999.1,31452.1
68003,31460.4
68007.8,31468.3
68013.2,31475.7
68019.4,31482.5
68026.2,31488.6
68033.6,31494.1
68041.4,31498.8
68049.7,31502.7
68058.4,31505.8
68067.3,31508
68076.3,31509.4
68085.5,31509.8
68282.4,31509.8
68291.5,31509.4
68300.6,31508
68309.5,31505.8
68318.1,31502.7
68326.4,31498.8
68334.3,31494.1
68341.7,31488.6
68348.5,31482.5
68354.6,31475.7
68360.1,31468.3
68364.8,31460.4
68368.7,31452.1
68371.8,31443.5
68374.1,31434.6
68375.4,31425.5
68375.9,31416.3
68375.9,31229.3
68375.4,31220.2
68374.1,31211.1
68371.8,31202.2
68368.7,31193.5
68364.8,31185.3
68360.1,31177.4
68354.6,31170
68348.5,31163.2
68341.7,31157.1
68334.3,31151.6
68326.4,31146.9
68318.1,31142.9
68309.5,31139.9
68300.6,31137.6
68291.5,31136.3
68282.4,31135.8
68085.5,31135.8
Z" /> 
</g>
<g >
</g>
<g style="fill:#FFFFFF; fill-opacity:1.0; 
stroke:#FFFFFF; stroke-width:0; stroke-opacity:1; 
stroke-linecap:round; stroke-linejoin:round;">
<circle cx="68687.9" cy="32897.6" r="393.701" /> 
</g>
<g style="fill:#FFFFFF; fill-opacity:1.0; 
stroke:#FFFFFF; stroke-width:39.3701; stroke-opacity:1; 
stroke-linecap:round; stroke-linejoin:round;">
</g>
<g style="fill:#FFFFFF; fill-opacity:1.0; 
stroke:#FFFFFF; stroke-width:0; stroke-opacity:1; 
stroke-linecap:round; stroke-linejoin:round;">
<circle cx="67687.9" cy="32897.6" r="393.701" /> 
</g>
<g style="fill:#FFFFFF; fill-opacity:1.0; 
stroke:#FFFFFF; stroke-width:39.3701; stroke-opacity:1; 
stroke-linecap:round; stroke-linejoin:round;">
</g>
<g style="fill:#FFFFFF; fill-opacity:1.0; 
stroke:#FFFFFF; stroke-width:0; stroke-opacity:1; 
stroke-linecap:round; stroke-linejoin:round;">
<circle cx="66687.9" cy="32897.6" r="393.701" /> 
</g>
<g style="fill:#FFFFFF; fill-opacity:1.0; 
stroke:#FFFFFF; stroke-width:39.3701; stroke-opacity:1; 
stroke-linecap:round; stroke-linejoin:round;">
</g>
<g >
</g>
<g style="fill:#FFFFFF; fill-opacity:1.0; 
stroke:#FFFFFF; stroke-width:39.3701; stroke-opacity:1; 
stroke-linecap:round; stroke-linejoin:round;">
</g>
<g style="fill:#FFFFFF; fill-opacity:1.0; 
stroke:#FFFFFF; stroke-width:0; stroke-opacity:1; 
stroke-linecap:round; stroke-linejoin:round;">
<path style="fill:#FFFFFF; fill-opacity:1.0; 
stroke:#FFFFFF; stroke-width:0; stroke-opacity:1; 
stroke-linecap:round; stroke-linejoin:round;fill-rule:evenodd;"
d="M 65205.7,26675.5
65200,26676.3
65194.4,26677.7
65188.9,26679.7
65183.7,26682.2
65178.7,26685.1
65174,26688.6
65169.7,26692.5
65165.8,26696.8
65162.4,26701.4
65159.4,26706.4
65156.9,26711.7
65155,26717.1
65153.6,26722.7
65152.7,26728.5
65152.4,26734.3
65152.4,26852.4
65152.7,26858.2
65153.6,26863.9
65155,26869.5
65156.9,26875
65159.4,26880.2
65162.4,26885.2
65165.8,26889.8
65169.7,26894.1
65174,26898
65178.7,26901.5
65183.7,26904.4
65188.9,26906.9
65194.4,26908.9
65200,26910.3
65205.7,26911.1
65211.5,26911.4
65782.4,26911.4
65788.2,26911.1
65793.9,26910.3
65799.5,26908.9
65805,26906.9
65810.2,26904.4
65815.2,26901.5
65819.8,26898
65824.1,26894.1
65828,26889.8
65831.5,26885.2
65834.4,26880.2
65836.9,26875
65838.9,26869.5
65840.3,26863.9
65841.1,26858.2
65841.4,26852.4
65841.4,26734.3
65841.1,26728.5
65840.3,26722.7
65838.9,26717.1
65836.9,26711.7
65834.4,26706.4
65831.5,26701.4
65828,26696.8
65824.1,26692.5
65819.8,26688.6
65815.2,26685.1
65810.2,26682.2
65805,26679.7
65799.5,26677.7
65793.9,26676.3
65788.2,26675.5
65782.4,26675.2
65211.5,26675.2
Z" /> 
<path style="fill:#FFFFFF; fill-opacity:1.0; 
stroke:#FFFFFF; stroke-width:0; stroke-opacity:1; 
stroke-linecap:round; stroke-linejoin:round;fill-rule:evenodd;"
d="M 65205.7,27175.5
65200,27176.3
65194.4,27177.7
65188.9,27179.7
65183.7,27182.2
65178.7,27185.1
65174,27188.6
65169.7,27192.5
65165.8,27196.8
65162.4,27201.4
65159.4,27206.4
65156.9,27211.7
65155,27217.1
65153.6,27222.7
65152.7,27228.5
65152.4,27234.3
65152.4,27352.4
65152.7,27358.2
65153.6,27363.9
65155,27369.5
65156.9,27375
65159.4,27380.2
65162.4,27385.2
65165.8,27389.8
65169.7,27394.1
65174,27398
65178.7,27401.5
65183.7,27404.4
65188.9,27406.9
65194.4,27408.9
65200,27410.3
65205.7,27411.1
65211.5,27411.4
65782.4,27411.4
65788.2,27411.1
65793.9,27410.3
65799.5,27408.9
65805,27406.9
65810.2,27404.4
65815.2,27401.5
65819.8,27398
65824.1,27394.1
65828,27389.8
65831.5,27385.2
65834.4,27380.2
65836.9,27375
65838.9,27369.5
65840.3,27363.9
65841.1,27358.2
65841.4,27352.4
65841.4,27234.3
65841.1,27228.5
65840.3,27222.7
65838.9,27217.1
65836.9,27211.7
65834.4,27206.4
65831.5,27201.4
65828,27196.8
65824.1,27192.5
65819.8,27188.6
65815.2,27185.1
65810.2,27182.2
65805,27179.7
65799.5,27177.7
65793.9,27176.3
65788.2,27175.5
65782.4,27175.2
65211.5,27175.2
Z" /> 
<path style="fill:#FFFFFF; fill-opacity:1.0; 
stroke:#FFFFFF; stroke-width:0; stroke-opacity:1; 
stroke-linecap:round; stroke-linejoin:round;fill-rule:evenodd;"
d="M 65205.7,27675.5
65200,27676.3
65194.4,27677.7
65188.9,27679.7
65183.7,27682.2
65178.7,27685.1
65174,27688.6
65169.7,27692.5
65165.8,27696.8
65162.4,27701.4
65159.4,27706.4
65156.9,27711.7
65155,27717.1
65153.6,27722.7
65152.7,27728.5
65152.4,27734.3
65152.4,27852.4
65152.7,27858.2
65153.6,27863.9
65155,27869.5
65156.9,27875
65159.4,27880.2
65162.4,27885.2
65165.8,27889.8
65169.7,27894.1
65174,27898
65178.7,27901.5
65183.7,27904.4
65188.9,27906.9
65194.4,27908.9
65200,27910.3
65205.7,27911.1
65211.5,27911.4
65782.4,27911.4
65788.2,27911.1
65793.9,27910.3
65799.5,27908.9
65805,27906.9
65810.2,27904.4
65815.2,27901.5
65819.8,27898
65824.1,27894.1
65828,27889.8
65831.5,27885.2
65834.4,27880.2
65836.9,27875
65838.9,27869.5
65840.3,27863.9
65841.1,27858.2
65841.4,27852.4
65841.4,27734.3
65841.1,27728.5
65840.3,27722.7
65838.9,27717.1
65836.9,27711.7
65834.4,27706.4
65831.5,27701.4
65828,27696.8
65824.1,27692.5
65819.8,27688.6
65815.2,27685.1
65810.2,27682.2
65805,27679.7
65799.5,27677.7
65793.9,27676.3
65788.2,27675.5
65782.4,27675.2
65211.5,27675.2
Z" /> 
<path style="fill:#FFFFFF; fill-opacity:1.0; 
stroke:#FFFFFF; stroke-width:0; stroke-opacity:1; 
stroke-linecap:round; stroke-linejoin:round;fill-rule:evenodd;"
d="M 65205.7,28175.5
65200,28176.3
65194.4,28177.7
65188.9,28179.7
65183.7,28182.2
65178.7,28185.1
65174,28188.6
65169.7,28192.5
65165.8,28196.8
65162.4,28201.4
65159.4,28206.4
65156.9,28211.7
65155,28217.1
65153.6,28222.7
65152.7,28228.5
65152.4,28234.3
65152.4,28352.4
65152.7,28358.2
65153.6,28363.9
65155,28369.5
65156.9,28375
65159.4,28380.2
65162.4,28385.2
65165.8,28389.8
65169.7,28394.1
65174,28398
65178.7,28401.5
65183.7,28404.4
65188.9,28406.9
65194.4,28408.9
65200,28410.3
65205.7,28411.1
65211.5,28411.4
65782.4,28411.4
65788.2,28411.1
65793.9,28410.3
65799.5,28408.9
65805,28406.9
65810.2,28404.4
65815.2,28401.5
65819.8,28398
65824.1,28394.1
65828,28389.8
65831.5,28385.2
65834.4,28380.2
65836.9,28375
65838.9,28369.5
65840.3,28363.9
65841.1,28358.2
65841.4,28352.4
65841.4,28234.3
65841.1,28228.5
65840.3,28222.7
65838.9,28217.1
65836.9,28211.7
65834.4,28206.4
65831.5,28201.4
65828,28196.8
65824.1,28192.5
65819.8,28188.6
65815.2,28185.1
65810.2,28182.2
65805,28179.7
65799.5,28177.7
65793.9,28176.3
65788.2,28175.5
65782.4,28175.2
65211.5,28175.2
Z" /> 
<path style="fill:#FFFFFF; fill-opacity:1.0; 
stroke:#FFFFFF; stroke-width:0; stroke-opacity:1; 
stroke-linecap:round; stroke-linejoin:round;fill-rule:evenodd;"
d="M 63178.1,28175.5
63172.4,28176.3
63166.8,28177.7
63161.3,28179.7
63156.1,28182.2
63151.1,28185.1
63146.5,28188.6
63142.2,28192.5
63138.3,28196.8
63134.8,28201.4
63131.9,28206.4
63129.4,28211.7
63127.4,28217.1
63126,28222.7
63125.2,28228.5
63124.9,28234.3
63124.9,28352.4
63125.2,28358.2
63126,28363.9
63127.4,28369.5
63129.4,28375
63131.9,28380.2
63134.8,28385.2
63138.3,28389.8
63142.2,28394.1
63146.5,28398
63151.1,28401.5
63156.1,28404.4
63161.3,28406.9
63166.8,28408.9
63172.4,28410.3
63178.1,28411.1
63183.9,28411.4
63754.8,28411.4
63760.6,28411.1
63766.3,28410.3
63771.9,28408.9
63777.4,28406.9
63782.6,28404.4
63787.6,28401.5
63792.3,28398
63796.6,28394.1
63800.5,28389.8
63803.9,28385.2
63806.9,28380.2
63809.4,28375
63811.3,28369.5
63812.7,28363.9
63813.6,28358.2
63813.9,28352.4
63813.9,28234.3
63813.6,28228.5
63812.7,28222.7
63811.3,28217.1
63809.4,28211.7
63806.9,28206.4
63803.9,28201.4
63800.5,28196.8
63796.6,28192.5
63792.3,28188.6
63787.6,28185.1
63782.6,28182.2
63777.4,28179.7
63771.9,28177.7
63766.3,28176.3
63760.6,28175.5
63754.8,28175.2
63183.9,28175.2
Z" /> 
<path style="fill:#FFFFFF; fill-opacity:1.0; 
stroke:#FFFFFF; stroke-width:0; stroke-opacity:1; 
stroke-linecap:round; stroke-linejoin:round;fill-rule:evenodd;"
d="M 63178.1,27675.5
63172.4,27676.3
63166.8,27677.7
63161.3,27679.7
63156.1,27682.2
63151.1,27685.1
63146.5,27688.6
63142.2,27692.5
63138.3,27696.8
63134.8,27701.4
63131.9,27706.4
63129.4,27711.7
63127.4,27717.1
63126,27722.7
63125.2,27728.5
63124.9,27734.3
63124.9,27852.4
63125.2,27858.2
63126,27863.9
63127.4,27869.5
63129.4,27875
63131.9,27880.2
63134.8,27885.2
63138.3,27889.8
63142.2,27894.1
63146.5,27898
63151.1,27901.5
63156.1,27904.4
63161.3,27906.9
63166.8,27908.9
63172.4,27910.3
63178.1,27911.1
63183.9,27911.4
63754.8,27911.4
63760.6,27911.1
63766.3,27910.3
63771.9,27908.9
63777.4,27906.9
63782.6,27904.4
63787.6,27901.5
63792.3,27898
63796.6,27894.1
63800.5,27889.8
63803.9,27885.2
63806.9,27880.2
63809.4,27875
63811.3,27869.5
63812.7,27863.9
63813.6,27858.2
63813.9,27852.4
63813.9,27734.3
63813.6,27728.5
63812.7,27722.7
63811.3,27717.1
63809.4,27711.7
63806.9,27706.4
63803.9,27701.4
63800.5,27696.8
63796.6,27692.5
63792.3,27688.6
63787.6,27685.1
63782.6,27682.2
63777.4,27679.7
63771.9,27677.7
63766.3,27676.3
63760.6,27675.5
63754.8,27675.2
63183.9,27675.2
Z" /> 
<path style="fill:#FFFFFF; fill-opacity:1.0; 
stroke:#FFFFFF; stroke-width:0; stroke-opacity:1; 
stroke-linecap:round; stroke-linejoin:round;fill-rule:evenodd;"
d="M 63178.1,27175.5
63172.4,27176.3
63166.8,27177.7
63161.3,27179.7
63156.1,27182.2
63151.1,27185.1
63146.5,27188.6
63142.2,27192.5
63138.3,27196.8
63134.8,27201.4
63131.9,27206.4
63129.4,27211.7
63127.4,27217.1
63126,27222.7
63125.2,27228.5
63124.9,27234.3
63124.9,27352.4
63125.2,27358.2
63126,27363.9
63127.4,27369.5
63129.4,27375
63131.9,27380.2
63134.8,27385.2
63138.3,27389.8
63142.2,27394.1
63146.5,27398
63151.1,27401.5
63156.1,27404.4
63161.3,27406.9
63166.8,27408.9
63172.4,27410.3
63178.1,27411.1
63183.9,27411.4
63754.8,27411.4
63760.6,27411.1
63766.3,27410.3
63771.9,27408.9
63777.4,27406.9
63782.6,27404.4
63787.6,27401.5
63792.3,27398
63796.6,27394.1
63800.5,27389.8
63803.9,27385.2
63806.9,27380.2
63809.4,27375
63811.3,27369.5
63812.7,27363.9
63813.6,27358.2
63813.9,27352.4
63813.9,27234.3
63813.6,27228.5
63812.7,27222.7
63811.3,27217.1
63809.4,27211.7
63806.9,27206.4
63803.9,27201.4
63800.5,27196.8
63796.6,27192.5
63792.3,27188.6
63787.6,27185.1
63782.6,27182.2
63777.4,27179.7
63771.9,27177.7
63766.3,27176.3
63760.6,27175.5
63754.8,27175.2
63183.9,27175.2
Z" /> 
<path style="fill:#FFFFFF; fill-opacity:1.0; 
stroke:#FFFFFF; stroke-width:0; stroke-opacity:1; 
stroke-linecap:round; stroke-linejoin:round;fill-rule:evenodd;"
d="M 63178.1,26675.5
63172.4,26676.3
63166.8,26677.7
63161.3,26679.7
63156.1,26682.2
63151.1,26685.1
63146.5,26688.6
63142.2,26692.5
63138.3,26696.8
63134.8,26701.4
63131.9,26706.4
63129.4,26711.7
63127.4,26717.1
63126,26722.7
63125.2,26728.5
63124.9,26734.3
63124.9,26852.4
63125.2,26858.2
63126,26863.9
63127.4,26869.5
63129.4,26875
63131.9,26880.2
63134.8,26885.2
63138.3,26889.8
63142.2,26894.1
63146.5,26898
63151.1,26901.5
63156.1,26904.4
63161.3,26906.9
63166.8,26908.9
63172.4,26910.3
63178.1,26911.1
63183.9,26911.4
63754.8,26911.4
63760.6,26911.1
63766.3,26910.3
63771.9,26908.9
63777.4,26906.9
63782.6,26904.4
63787.6,26901.5
63792.3,26898
63796.6,26894.1
63800.5,26889.8
63803.9,26885.2
63806.9,26880.2
63809.4,26875
63811.3,26869.5
63812.7,26863.9
63813.6,26858.2
63813.9,26852.4
63813.9,26734.3
63813.6,26728.5
63812.7,26722.7
63811.3,26717.1
63809.4,26711.7
63806.9,26706.4
63803.9,26701.4
63800.5,26696.8
63796.6,26692.5
63792.3,26688.6
63787.6,26685.1
63782.6,26682.2
63777.4,26679.7
63771.9,26677.7
63766.3,26676.3
63760.6,26675.5
63754.8,26675.2
63183.9,26675.2
Z" /> 
</g>
<g >
</g>
<g style="fill:#FFFFFF; fill-opacity:1.0; 
stroke:#FFFFFF; stroke-width:0; stroke-opacity:1; 
stroke-linecap:round; stroke-linejoin:round;">
<circle cx="64772.4" cy="30928.6" r="393.701" /> 
</g>
<g style="fill:#FFFFFF; fill-opacity:1.0; 
stroke:#FFFFFF; stroke-width:39.3701; stroke-opacity:1; 
stroke-linecap:round; stroke-linejoin:round;">
</g>
<g style="fill:#FFFFFF; fill-opacity:1.0; 
stroke:#FFFFFF; stroke-width:0; stroke-opacity:1; 
stroke-linecap:round; stroke-linejoin:round;">
<circle cx="66530.4" cy="29039.4" r="393.701" /> 
</g>
<g style="fill:#FFFFFF; fill-opacity:1.0; 
stroke:#FFFFFF; stroke-width:39.3701; stroke-opacity:1; 
stroke-linecap:round; stroke-linejoin:round;">
</g>
<g style="fill:#FFFFFF; fill-opacity:1.0; 
stroke:#FFFFFF; stroke-width:0; stroke-opacity:1; 
stroke-linecap:round; stroke-linejoin:round;">
<circle cx="67239.1" cy="26755.9" r="393.701" /> 
</g>
<g style="fill:#FFFFFF; fill-opacity:1.0; 
stroke:#FFFFFF; stroke-width:39.3701; stroke-opacity:1; 
stroke-linecap:round; stroke-linejoin:round;">
</g>
<g style="fill:#FFFFFF; fill-opacity:1.0; 
stroke:#FFFFFF; stroke-width:0; stroke-opacity:1; 
stroke-linecap:round; stroke-linejoin:round;">
<circle cx="65113.1" cy="31952.8" r="393.701" /> 
</g>
<g style="fill:#FFFFFF; fill-opacity:1.0; 
stroke:#FFFFFF; stroke-width:39.3701; stroke-opacity:1; 
stroke-linecap:round; stroke-linejoin:round;">
</g>
<g style="fill:#FFFFFF; fill-opacity:1.0; 
stroke:#FFFFFF; stroke-width:0; stroke-opacity:1; 
stroke-linecap:round; stroke-linejoin:round;">
<circle cx="64404.4" cy="33498" r="393.701" /> 
</g>
<g style="fill:#FFFFFF; fill-opacity:1.0; 
stroke:#FFFFFF; stroke-width:39.3701; stroke-opacity:1; 
stroke-linecap:round; stroke-linejoin:round;">
</g>
<g style="fill:#FFFFFF; fill-opacity:1.0; 
stroke:#FFFFFF; stroke-width:0; stroke-opacity:1; 
stroke-linecap:round; stroke-linejoin:round;">
<circle cx="63469.4" cy="29187" r="393.701" /> 
</g>
<g style="fill:#FFFFFF; fill-opacity:1.0; 
stroke:#FFFFFF; stroke-width:39.3701; stroke-opacity:1; 
stroke-linecap:round; stroke-linejoin:round;">
</g>
<g >
</g>
<g style="fill:#FFFFFF; fill-opacity:1.0; 
stroke:#FFFFFF; stroke-width:39.3701; stroke-opacity:1; 
stroke-linecap:round; stroke-linejoin:round;">
</g>
<g style="fill:#FFFFFF; fill-opacity:1.0; 
stroke:#FFFFFF; stroke-width:157.48; stroke-opacity:1; 
stroke-linecap:round; stroke-linejoin:round;">
</g>
<g style="fill:#FFFFFF; fill-opacity:0.0; 
stroke:#FFFFFF; stroke-width:157.48; stroke-opacity:1; 
stroke-linecap:round; stroke-linejoin:round;">
<path d="M62420 31102
L62514 31007
" />
</g>
<g style="fill:#FFFFFF; fill-opacity:0.0; 
stroke:#FFFFFF; stroke-width:236.22; stroke-opacity:1; 
stroke-linecap:round; stroke-linejoin:round;">
<path d="M61092 31102
L62420 31102
" />
</g>
<g style="fill:#FFFFFF; fill-opacity:0.0; 
stroke:#FFFFFF; stroke-width:157.48; stroke-opacity:1; 
stroke-linecap:round; stroke-linejoin:round;">
<path d="M61092 31397
L61092 31102
" />
</g>
<g style="fill:#FFFFFF; fill-opacity:0.0; 
stroke:#FFFFFF; stroke-width:236.22; stroke-opacity:1; 
stroke-linecap:round; stroke-linejoin:round;">
<path d="M61648 31952
L61092 31397
" />
<path d="M62435 31952
L61648 31952
" />
<path d="M68105 26992
L68656 26992
" />
<path d="M65496 27793
L67304 27793
" />
<path d="M67304 27793
L68105 26992
" />
</g>
<g style="fill:#FFFFFF; fill-opacity:0.0; 
stroke:#FFFFFF; stroke-width:157.48; stroke-opacity:1; 
stroke-linecap:round; stroke-linejoin:round;">
<path d="M61108 33055
L61092 33070
" />
</g>
<g style="fill:#FFFFFF; fill-opacity:0.0; 
stroke:#FFFFFF; stroke-width:236.22; stroke-opacity:1; 
stroke-linecap:round; stroke-linejoin:round;">
<path d="M62549 33055
L61108 33055
" />
<path d="M64103 27793
L63469 27793
" />
</g>
<g style="fill:#FFFFFF; fill-opacity:0.0; 
stroke:#FFFFFF; stroke-width:157.48; stroke-opacity:1; 
stroke-linecap:round; stroke-linejoin:round;">
<path d="M64168 27858
L64103 27793
" />
</g>
<g style="fill:#FFFFFF; fill-opacity:0.0; 
stroke:#FFFFFF; stroke-width:236.22; stroke-opacity:1; 
stroke-linecap:round; stroke-linejoin:round;">
<path d="M64168 28881
L64168 27858
" />
<path d="M68498 29748
L65034 29748
" />
<path d="M68656 28992
L68656 29590
" />
<path d="M65034 29748
L64168 28881
" />
<path d="M68656 29590
L68498 29748
" />
<path d="M62490 28434
L62042 28434
" />
<path d="M62593 28330
L62490 28434
" />
<path d="M62593 28173
L62593 28330
" />
<path d="M63469 27793
L62973 27793
" />
<path d="M62973 27793
L62593 28173
" />
<path d="M61092 27165
L61790 27165
" />
<path d="M62162 26793
L63469 26793
" />
<path d="M61790 27165
L62162 26793
" />
<path d="M67896 27992
L67595 28293
" />
<path d="M68656 27992
L67896 27992
" />
<path d="M67595 28293
L65496 28293
" />
<path d="M67002 31322
L68183 31322
" />
<path d="M66845 31322
L67002 31322
" />
<path d="M65742 30220
L66845 31322
" />
<path d="M61092 29133
L62179 30220
" />
<path d="M62179 30220
L65742 30220
" />
<path d="M69105 27992
L68656 27992
" />
<path d="M69365 29669
L69365 28251
" />
<path d="M69365 28251
L69105 27992
" />
<path d="M68183 31322
L68183 30850
" />
<path d="M68183 30850
L69365 29669
" />
<path d="M64010 32740
L63695 33055
" />
<path d="M63695 33055
L63267 33055
" />
<path d="M65821 32740
L64010 32740
" />
<path d="M66687 32897
L65979 32897
" />
<path d="M65979 32897
L65821 32740
" />
<path d="M68687 32897
L68687 32157
" />
<path d="M68902 31942
L68902 31322
" />
<path d="M68687 32157
L68902 31942
" />
<path d="M64693 31007
L64772 30928
" />
<path d="M63813 31007
L64693 31007
" />
<path d="M64719 28645
L65113 29039
" />
<path d="M65113 29039
L66530 29039
" />
<path d="M63469 27293
L64390 27293
" />
<path d="M64719 27622
L64719 28645
" />
<path d="M64390 27293
L64719 27622
" />
<path d="M62224 27754
L62042 27754
" />
<path d="M63469 27293
L62685 27293
" />
<path d="M62685 27293
L62224 27754
" />
<path d="M65496 26793
L67201 26793
" />
</g>
<g style="fill:#FFFFFF; fill-opacity:0.0; 
stroke:#FFFFFF; stroke-width:157.48; stroke-opacity:1; 
stroke-linecap:round; stroke-linejoin:round;">
<path d="M67201 26793
L67239 26755
" />
</g>
<g style="fill:#FFFFFF; fill-opacity:0.0; 
stroke:#FFFFFF; stroke-width:236.22; stroke-opacity:1; 
stroke-linecap:round; stroke-linejoin:round;">
<path d="M65496 27293
L67095 27293
" />
<path d="M67239 27149
L67239 26755
" />
<path d="M67095 27293
L67239 27149
" />
<path d="M63794 31952
L65113 31952
" />
<path d="M63469 28293
L63469 29187
" />
</g>
<g style="fill:#FFFFFF; fill-opacity:0.0; 
stroke:#FFFFFF; stroke-width:157.48; stroke-opacity:1; 
stroke-linecap:round; stroke-linejoin:round;">
<path d="M63459 29196
L63469 29187
" />
<path d="M63469 29187
L63469 29187
" />
</g>
<g style="fill:#FFFFFF; fill-opacity:0.0; 
stroke:#FFFFFF; stroke-width:236.22; stroke-opacity:1; 
stroke-linecap:round; stroke-linejoin:round;">
<path d="M67347 33498
L64404 33498
" />
<path d="M67687 32897
L67687 33157
" />
<path d="M67687 33157
L67347 33498
" />
</g>
<g >
</g>
</g> 
</svg>
