<?xml version="1.0" standalone="no"?>
 <!DOCTYPE svg PUBLIC "-//W3C//DTD SVG 1.1//EN" 
 "http://www.w3.org/Graphics/SVG/1.1/DTD/svg11.dtd"> 
<svg
  xmlns:svg="http://www.w3.org/2000/svg"
  xmlns="http://www.w3.org/2000/svg"
  xmlns:xlink="http://www.w3.org/1999/xlink"
  version="1.1"
  width="29.700220cm" height="21.000720cm" viewBox="0 0 116930 82680">
<title>SVG Picture created as XL4016_shield-F_Cu.svg date 2021/01/07 10:36:27 </title>
  <desc>Picture generated by PCBNEW </desc>
<g style="fill:#000000; fill-opacity:1;stroke:#000000; stroke-opacity:1;
stroke-linecap:round; stroke-linejoin:round;"
 transform="translate(0 0) scale(1 1)">
</g>
<g style="fill:#000000; fill-opacity:0.0; 
stroke:#000000; stroke-width:-0.000393701; stroke-opacity:1; 
stroke-linecap:round; stroke-linejoin:round;">
</g>
<g style="fill:#000000; fill-opacity:1.0; 
stroke:#000000; stroke-width:39.3701; stroke-opacity:1; 
stroke-linecap:round; stroke-linejoin:round;">
<rect x="44485.2" y="23808.1" width="17368.2" height="14473.6" rx="0" />
</g>
<g style="fill:#FFFFFF; fill-opacity:1.0; 
stroke:#FFFFFF; stroke-width:39.3701; stroke-opacity:1; 
stroke-linecap:round; stroke-linejoin:round;">
<g >
</g>
<g style="fill:#FFFFFF; fill-opacity:1.0; 
stroke:#FFFFFF; stroke-width:0; stroke-opacity:1; 
stroke-linecap:round; stroke-linejoin:round;">
<path style="fill:#FFFFFF; fill-opacity:1.0; 
stroke:#FFFFFF; stroke-width:0; stroke-opacity:1; 
stroke-linecap:round; stroke-linejoin:round;fill-rule:evenodd;"
d="M 53313,31716.5
53313,32189
52958.7,32189
52958.7,31716.5
Z" /> 
<path style="fill:#FFFFFF; fill-opacity:1.0; 
stroke:#FFFFFF; stroke-width:0; stroke-opacity:1; 
stroke-linecap:round; stroke-linejoin:round;fill-rule:evenodd;"
d="M 54612.2,31716.5
54612.2,32189
54257.9,32189
54257.9,31716.5
Z" /> 
</g>
<g >
</g>
<g style="fill:#FFFFFF; fill-opacity:1.0; 
stroke:#FFFFFF; stroke-width:0; stroke-opacity:1; 
stroke-linecap:round; stroke-linejoin:round;">
<circle cx="55837" cy="33070.9" r="433.071" /> 
</g>
<g style="fill:#FFFFFF; fill-opacity:1.0; 
stroke:#FFFFFF; stroke-width:39.3701; stroke-opacity:1; 
stroke-linecap:round; stroke-linejoin:round;">
</g>
<g >
</g>
<g style="fill:#FFFFFF; fill-opacity:1.0; 
stroke:#FFFFFF; stroke-width:39.3701; stroke-opacity:1; 
stroke-linecap:round; stroke-linejoin:round;">
</g>
<g style="fill:#FFFFFF; fill-opacity:1.0; 
stroke:#FFFFFF; stroke-width:0; stroke-opacity:1; 
stroke-linecap:round; stroke-linejoin:round;">
<circle cx="55837" cy="31102.4" r="433.071" /> 
</g>
<g style="fill:#FFFFFF; fill-opacity:1.0; 
stroke:#FFFFFF; stroke-width:39.3701; stroke-opacity:1; 
stroke-linecap:round; stroke-linejoin:round;">
</g>
<g >
</g>
<g style="fill:#FFFFFF; fill-opacity:1.0; 
stroke:#FFFFFF; stroke-width:39.3701; stroke-opacity:1; 
stroke-linecap:round; stroke-linejoin:round;">
</g>
<g style="fill:#FFFFFF; fill-opacity:1.0; 
stroke:#FFFFFF; stroke-width:0; stroke-opacity:1; 
stroke-linecap:round; stroke-linejoin:round;">
<circle cx="55837" cy="27165.4" r="433.071" /> 
</g>
<g style="fill:#FFFFFF; fill-opacity:1.0; 
stroke:#FFFFFF; stroke-width:39.3701; stroke-opacity:1; 
stroke-linecap:round; stroke-linejoin:round;">
</g>
<g >
</g>
<g style="fill:#FFFFFF; fill-opacity:1.0; 
stroke:#FFFFFF; stroke-width:39.3701; stroke-opacity:1; 
stroke-linecap:round; stroke-linejoin:round;">
</g>
<g style="fill:#FFFFFF; fill-opacity:1.0; 
stroke:#FFFFFF; stroke-width:0; stroke-opacity:1; 
stroke-linecap:round; stroke-linejoin:round;">
<circle cx="55837" cy="29133.9" r="433.071" /> 
</g>
<g style="fill:#FFFFFF; fill-opacity:1.0; 
stroke:#FFFFFF; stroke-width:39.3701; stroke-opacity:1; 
stroke-linecap:round; stroke-linejoin:round;">
</g>
<g >
</g>
<g style="fill:#FFFFFF; fill-opacity:1.0; 
stroke:#FFFFFF; stroke-width:39.3701; stroke-opacity:1; 
stroke-linecap:round; stroke-linejoin:round;">
</g>
<g style="fill:#FFFFFF; fill-opacity:1.0; 
stroke:#FFFFFF; stroke-width:0; stroke-opacity:1; 
stroke-linecap:round; stroke-linejoin:round;">
<path style="fill:#FFFFFF; fill-opacity:1.0; 
stroke:#FFFFFF; stroke-width:0; stroke-opacity:1; 
stroke-linecap:round; stroke-linejoin:round;fill-rule:evenodd;"
d="M 54990.5,27543.8
54999.5,27545.1
55008.4,27547.3
55017.1,27550.4
55025.4,27554.3
55033.2,27559.1
55040.6,27564.5
55047.4,27570.7
55053.6,27577.5
55059,27584.9
55063.8,27592.7
55067.7,27601
55070.8,27609.7
55073,27618.6
55074.4,27627.6
55074.8,27636.8
55074.8,27873
55074.4,27882.2
55073,27891.3
55070.8,27900.2
55067.7,27908.8
55063.8,27917.1
55059,27925
55053.6,27932.3
55047.4,27939.1
55040.6,27945.3
55033.2,27950.8
55025.4,27955.5
55017.1,27959.4
55008.4,27962.5
54999.5,27964.7
54990.5,27966.1
54981.3,27966.5
54794.3,27966.5
54785.1,27966.1
54776,27964.7
54767.1,27962.5
54758.5,27959.4
54750.2,27955.5
54742.3,27950.8
54735,27945.3
54728.2,27939.1
54722,27932.3
54716.5,27925
54711.8,27917.1
54707.9,27908.8
54704.8,27900.2
54702.6,27891.3
54701.2,27882.2
54700.8,27873
54700.8,27636.8
54701.2,27627.6
54702.6,27618.6
54704.8,27609.7
54707.9,27601
54711.8,27592.7
54716.5,27584.9
54722,27577.5
54728.2,27570.7
54735,27564.5
54742.3,27559.1
54750.2,27554.3
54758.5,27550.4
54767.1,27547.3
54776,27545.1
54785.1,27543.8
54794.3,27543.3
54981.3,27543.3
Z" /> 
<path style="fill:#FFFFFF; fill-opacity:1.0; 
stroke:#FFFFFF; stroke-width:0; stroke-opacity:1; 
stroke-linecap:round; stroke-linejoin:round;fill-rule:evenodd;"
d="M 54990.5,28222.9
54999.5,28224.2
55008.4,28226.5
55017.1,28229.6
55025.4,28233.5
55033.2,28238.2
55040.6,28243.7
55047.4,28249.8
55053.6,28256.6
55059,28264
55063.8,28271.9
55067.7,28280.2
55070.8,28288.8
55073,28297.7
55074.4,28306.8
55074.8,28315.9
55074.8,28552.2
55074.4,28561.3
55073,28570.4
55070.8,28579.3
55067.7,28587.9
55063.8,28596.2
55059,28604.1
55053.6,28611.5
55047.4,28618.3
55040.6,28624.4
55033.2,28629.9
55025.4,28634.6
55017.1,28638.6
55008.4,28641.6
54999.5,28643.9
54990.5,28645.2
54981.3,28645.7
54794.3,28645.7
54785.1,28645.2
54776,28643.9
54767.1,28641.6
54758.5,28638.6
54750.2,28634.6
54742.3,28629.9
54735,28624.4
54728.2,28618.3
54722,28611.5
54716.5,28604.1
54711.8,28596.2
54707.9,28587.9
54704.8,28579.3
54702.6,28570.4
54701.2,28561.3
54700.8,28552.2
54700.8,28315.9
54701.2,28306.8
54702.6,28297.7
54704.8,28288.8
54707.9,28280.2
54711.8,28271.9
54716.5,28264
54722,28256.6
54728.2,28249.8
54735,28243.7
54742.3,28238.2
54750.2,28233.5
54758.5,28229.6
54767.1,28226.5
54776,28224.2
54785.1,28222.9
54794.3,28222.4
54981.3,28222.4
Z" /> 
</g>
<g >
</g>
<g style="fill:#FFFFFF; fill-opacity:1.0; 
stroke:#FFFFFF; stroke-width:0; stroke-opacity:1; 
stroke-linecap:round; stroke-linejoin:round;">
<path style="fill:#FFFFFF; fill-opacity:1.0; 
stroke:#FFFFFF; stroke-width:0; stroke-opacity:1; 
stroke-linecap:round; stroke-linejoin:round;fill-rule:evenodd;"
d="M 54592.5,30771.7
54592.5,31244.1
54238.2,31244.1
54238.2,30771.7
Z" /> 
<path style="fill:#FFFFFF; fill-opacity:1.0; 
stroke:#FFFFFF; stroke-width:0; stroke-opacity:1; 
stroke-linecap:round; stroke-linejoin:round;fill-rule:evenodd;"
d="M 53293.3,30771.7
53293.3,31244.1
52939,31244.1
52939,30771.7
Z" /> 
</g>
<g >
</g>
<g style="fill:#FFFFFF; fill-opacity:1.0; 
stroke:#FFFFFF; stroke-width:0; stroke-opacity:1; 
stroke-linecap:round; stroke-linejoin:round;">
<path style="fill:#FFFFFF; fill-opacity:1.0; 
stroke:#FFFFFF; stroke-width:0; stroke-opacity:1; 
stroke-linecap:round; stroke-linejoin:round;fill-rule:evenodd;"
d="M 47879.9,27385.8
47879.9,26598.4
48667.3,26598.4
48667.3,27385.8
Z" /> 
<circle cx="48273.6" cy="27992.1" r="393.701" /> 
<circle cx="48273.6" cy="28992.1" r="393.701" /> 
</g>
<g >
</g>
<g style="fill:#FFFFFF; fill-opacity:1.0; 
stroke:#FFFFFF; stroke-width:0; stroke-opacity:1; 
stroke-linecap:round; stroke-linejoin:round;">
<path style="fill:#FFFFFF; fill-opacity:1.0; 
stroke:#FFFFFF; stroke-width:0; stroke-opacity:1; 
stroke-linecap:round; stroke-linejoin:round;fill-rule:evenodd;"
d="M 53770,32868.6
53779.1,32869.9
53788,32872.1
53796.6,32875.2
53804.9,32879.2
53812.8,32883.9
53820.1,32889.3
53826.9,32895.5
53833.1,32902.3
53838.6,32909.7
53843.3,32917.5
53847.2,32925.8
53850.3,32934.5
53852.5,32943.4
53853.9,32952.4
53854.3,32961.6
53854.3,33148.6
53853.9,33157.8
53852.5,33166.9
53850.3,33175.8
53847.2,33184.4
53843.3,33192.7
53838.6,33200.6
53833.1,33207.9
53826.9,33214.7
53820.1,33220.9
53812.8,33226.4
53804.9,33231.1
53796.6,33235
53788,33238.1
53779.1,33240.3
53770,33241.7
53760.8,33242.1
53564,33242.1
53554.8,33241.7
53545.7,33240.3
53536.8,33238.1
53528.2,33235
53519.9,33231.1
53512,33226.4
53504.7,33220.9
53497.9,33214.7
53491.7,33207.9
53486.2,33200.6
53481.5,33192.7
53477.6,33184.4
53474.5,33175.8
53472.3,33166.9
53470.9,33157.8
53470.5,33148.6
53470.5,32961.6
53470.9,32952.4
53472.3,32943.4
53474.5,32934.5
53477.6,32925.8
53481.5,32917.5
53486.2,32909.7
53491.7,32902.3
53497.9,32895.5
53504.7,32889.3
53512,32883.9
53519.9,32879.2
53528.2,32875.2
53536.8,32872.1
53545.7,32869.9
53554.8,32868.6
53564,32868.1
53760.8,32868.1
Z" /> 
<path style="fill:#FFFFFF; fill-opacity:1.0; 
stroke:#FFFFFF; stroke-width:0; stroke-opacity:1; 
stroke-linecap:round; stroke-linejoin:round;fill-rule:evenodd;"
d="M 54488.5,32868.6
54497.6,32869.9
54506.5,32872.1
54515.1,32875.2
54523.4,32879.2
54531.3,32883.9
54538.6,32889.3
54545.4,32895.5
54551.6,32902.3
54557.1,32909.7
54561.8,32917.5
54565.7,32925.8
54568.8,32934.5
54571,32943.4
54572.4,32952.4
54572.8,32961.6
54572.8,33148.6
54572.4,33157.8
54571,33166.9
54568.8,33175.8
54565.7,33184.4
54561.8,33192.7
54557.1,33200.6
54551.6,33207.9
54545.4,33214.7
54538.6,33220.9
54531.3,33226.4
54523.4,33231.1
54515.1,33235
54506.5,33238.1
54497.6,33240.3
54488.5,33241.7
54479.3,33242.1
54282.5,33242.1
54273.3,33241.7
54264.2,33240.3
54255.3,33238.1
54246.7,33235
54238.4,33231.1
54230.5,33226.4
54223.2,33220.9
54216.4,33214.7
54210.2,33207.9
54204.7,33200.6
54200,33192.7
54196.1,33184.4
54193,33175.8
54190.8,33166.9
54189.4,33157.8
54189,33148.6
54189,32961.6
54189.4,32952.4
54190.8,32943.4
54193,32934.5
54196.1,32925.8
54200,32917.5
54204.7,32909.7
54210.2,32902.3
54216.4,32895.5
54223.2,32889.3
54230.5,32883.9
54238.4,32879.2
54246.7,32875.2
54255.3,32872.1
54264.2,32869.9
54273.3,32868.6
54282.5,32868.1
54479.3,32868.1
Z" /> 
</g>
<g >
</g>
<g style="fill:#FFFFFF; fill-opacity:1.0; 
stroke:#FFFFFF; stroke-width:0; stroke-opacity:1; 
stroke-linecap:round; stroke-linejoin:round;">
<path style="fill:#FFFFFF; fill-opacity:1.0; 
stroke:#FFFFFF; stroke-width:0; stroke-opacity:1; 
stroke-linecap:round; stroke-linejoin:round;fill-rule:evenodd;"
d="M 48135.1,31136.3
48144.2,31137.6
48153.1,31139.9
48161.8,31142.9
48170.1,31146.9
48177.9,31151.6
48185.3,31157.1
48192.1,31163.2
48198.3,31170
48203.7,31177.4
48208.4,31185.3
48212.4,31193.5
48215.5,31202.2
48217.7,31211.1
48219,31220.2
48219.5,31229.3
48219.5,31416.3
48219,31425.5
48217.7,31434.6
48215.5,31443.5
48212.4,31452.1
48208.4,31460.4
48203.7,31468.3
48198.3,31475.7
48192.1,31482.5
48185.3,31488.6
48177.9,31494.1
48170.1,31498.8
48161.8,31502.7
48153.1,31505.8
48144.2,31508
48135.1,31509.4
48126,31509.8
47929.1,31509.8
47920,31509.4
47910.9,31508
47902,31505.8
47893.4,31502.7
47885.1,31498.8
47877.2,31494.1
47869.8,31488.6
47863,31482.5
47856.9,31475.7
47851.4,31468.3
47846.7,31460.4
47842.7,31452.1
47839.7,31443.5
47837.4,31434.6
47836.1,31425.5
47835.6,31416.3
47835.6,31229.3
47836.1,31220.2
47837.4,31211.1
47839.7,31202.2
47842.7,31193.5
47846.7,31185.3
47851.4,31177.4
47856.9,31170
47863,31163.2
47869.8,31157.1
47877.2,31151.6
47885.1,31146.9
47893.4,31142.9
47902,31139.9
47910.9,31137.6
47920,31136.3
47929.1,31135.8
48126,31135.8
Z" /> 
<path style="fill:#FFFFFF; fill-opacity:1.0; 
stroke:#FFFFFF; stroke-width:0; stroke-opacity:1; 
stroke-linecap:round; stroke-linejoin:round;fill-rule:evenodd;"
d="M 48853.7,31136.3
48862.7,31137.6
48871.6,31139.9
48880.3,31142.9
48888.6,31146.9
48896.4,31151.6
48903.8,31157.1
48910.6,31163.2
48916.8,31170
48922.2,31177.4
48927,31185.3
48930.9,31193.5
48934,31202.2
48936.2,31211.1
48937.5,31220.2
48938,31229.3
48938,31416.3
48937.5,31425.5
48936.2,31434.6
48934,31443.5
48930.9,31452.1
48927,31460.4
48922.2,31468.3
48916.8,31475.7
48910.6,31482.5
48903.8,31488.6
48896.4,31494.1
48888.6,31498.8
48880.3,31502.7
48871.6,31505.8
48862.7,31508
48853.7,31509.4
48844.5,31509.8
48647.6,31509.8
48638.5,31509.4
48629.4,31508
48620.5,31505.8
48611.9,31502.7
48603.6,31498.8
48595.7,31494.1
48588.3,31488.6
48581.5,31482.5
48575.4,31475.7
48569.9,31468.3
48565.2,31460.4
48561.3,31452.1
48558.2,31443.5
48555.9,31434.6
48554.6,31425.5
48554.1,31416.3
48554.1,31229.3
48554.6,31220.2
48555.9,31211.1
48558.2,31202.2
48561.3,31193.5
48565.2,31185.3
48569.9,31177.4
48575.4,31170
48581.5,31163.2
48588.3,31157.1
48595.7,31151.6
48603.6,31146.9
48611.9,31142.9
48620.5,31139.9
48629.4,31137.6
48638.5,31136.3
48647.6,31135.8
48844.5,31135.8
Z" /> 
</g>
<g >
</g>
<g style="fill:#FFFFFF; fill-opacity:1.0; 
stroke:#FFFFFF; stroke-width:0; stroke-opacity:1; 
stroke-linecap:round; stroke-linejoin:round;">
<circle cx="48242.1" cy="32897.6" r="393.701" /> 
</g>
<g style="fill:#FFFFFF; fill-opacity:1.0; 
stroke:#FFFFFF; stroke-width:39.3701; stroke-opacity:1; 
stroke-linecap:round; stroke-linejoin:round;">
</g>
<g style="fill:#FFFFFF; fill-opacity:1.0; 
stroke:#FFFFFF; stroke-width:0; stroke-opacity:1; 
stroke-linecap:round; stroke-linejoin:round;">
<circle cx="49242.1" cy="32897.6" r="393.701" /> 
</g>
<g style="fill:#FFFFFF; fill-opacity:1.0; 
stroke:#FFFFFF; stroke-width:39.3701; stroke-opacity:1; 
stroke-linecap:round; stroke-linejoin:round;">
</g>
<g style="fill:#FFFFFF; fill-opacity:1.0; 
stroke:#FFFFFF; stroke-width:0; stroke-opacity:1; 
stroke-linecap:round; stroke-linejoin:round;">
<circle cx="50242.1" cy="32897.6" r="393.701" /> 
</g>
<g style="fill:#FFFFFF; fill-opacity:1.0; 
stroke:#FFFFFF; stroke-width:39.3701; stroke-opacity:1; 
stroke-linecap:round; stroke-linejoin:round;">
</g>
<g >
</g>
<g style="fill:#FFFFFF; fill-opacity:1.0; 
stroke:#FFFFFF; stroke-width:39.3701; stroke-opacity:1; 
stroke-linecap:round; stroke-linejoin:round;">
</g>
<g style="fill:#FFFFFF; fill-opacity:1.0; 
stroke:#FFFFFF; stroke-width:0; stroke-opacity:1; 
stroke-linecap:round; stroke-linejoin:round;">
<path style="fill:#FFFFFF; fill-opacity:1.0; 
stroke:#FFFFFF; stroke-width:0; stroke-opacity:1; 
stroke-linecap:round; stroke-linejoin:round;fill-rule:evenodd;"
d="M 51724.3,26675.5
51730,26676.3
51735.6,26677.7
51741.1,26679.7
51746.3,26682.2
51751.3,26685.1
51756,26688.6
51760.3,26692.5
51764.2,26696.8
51767.6,26701.4
51770.6,26706.4
51773.1,26711.7
51775,26717.1
51776.4,26722.7
51777.3,26728.5
51777.6,26734.3
51777.6,26852.4
51777.3,26858.2
51776.4,26863.9
51775,26869.5
51773.1,26875
51770.6,26880.2
51767.6,26885.2
51764.2,26889.8
51760.3,26894.1
51756,26898
51751.3,26901.5
51746.3,26904.4
51741.1,26906.9
51735.6,26908.9
51730,26910.3
51724.3,26911.1
51718.5,26911.4
51147.6,26911.4
51141.8,26911.1
51136.1,26910.3
51130.5,26908.9
51125,26906.9
51119.8,26904.4
51114.8,26901.5
51110.2,26898
51105.9,26894.1
51102,26889.8
51098.5,26885.2
51095.6,26880.2
51093.1,26875
51091.1,26869.5
51089.7,26863.9
51088.9,26858.2
51088.6,26852.4
51088.6,26734.3
51088.9,26728.5
51089.7,26722.7
51091.1,26717.1
51093.1,26711.7
51095.6,26706.4
51098.5,26701.4
51102,26696.8
51105.9,26692.5
51110.2,26688.6
51114.8,26685.1
51119.8,26682.2
51125,26679.7
51130.5,26677.7
51136.1,26676.3
51141.8,26675.5
51147.6,26675.2
51718.5,26675.2
Z" /> 
<path style="fill:#FFFFFF; fill-opacity:1.0; 
stroke:#FFFFFF; stroke-width:0; stroke-opacity:1; 
stroke-linecap:round; stroke-linejoin:round;fill-rule:evenodd;"
d="M 51724.3,27175.5
51730,27176.3
51735.6,27177.7
51741.1,27179.7
51746.3,27182.2
51751.3,27185.1
51756,27188.6
51760.3,27192.5
51764.2,27196.8
51767.6,27201.4
51770.6,27206.4
51773.1,27211.7
51775,27217.1
51776.4,27222.7
51777.3,27228.5
51777.6,27234.3
51777.6,27352.4
51777.3,27358.2
51776.4,27363.9
51775,27369.5
51773.1,27375
51770.6,27380.2
51767.6,27385.2
51764.2,27389.8
51760.3,27394.1
51756,27398
51751.3,27401.5
51746.3,27404.4
51741.1,27406.9
51735.6,27408.9
51730,27410.3
51724.3,27411.1
51718.5,27411.4
51147.6,27411.4
51141.8,27411.1
51136.1,27410.3
51130.5,27408.9
51125,27406.9
51119.8,27404.4
51114.8,27401.5
51110.2,27398
51105.9,27394.1
51102,27389.8
51098.5,27385.2
51095.6,27380.2
51093.1,27375
51091.1,27369.5
51089.7,27363.9
51088.9,27358.2
51088.6,27352.4
51088.6,27234.3
51088.9,27228.5
51089.7,27222.7
51091.1,27217.1
51093.1,27211.7
51095.6,27206.4
51098.5,27201.4
51102,27196.8
51105.9,27192.5
51110.2,27188.6
51114.8,27185.1
51119.8,27182.2
51125,27179.7
51130.5,27177.7
51136.1,27176.3
51141.8,27175.5
51147.6,27175.2
51718.5,27175.2
Z" /> 
<path style="fill:#FFFFFF; fill-opacity:1.0; 
stroke:#FFFFFF; stroke-width:0; stroke-opacity:1; 
stroke-linecap:round; stroke-linejoin:round;fill-rule:evenodd;"
d="M 51724.3,27675.5
51730,27676.3
51735.6,27677.7
51741.1,27679.7
51746.3,27682.2
51751.3,27685.1
51756,27688.6
51760.3,27692.5
51764.2,27696.8
51767.6,27701.4
51770.6,27706.4
51773.1,27711.7
51775,27717.1
51776.4,27722.7
51777.3,27728.5
51777.6,27734.3
51777.6,27852.4
51777.3,27858.2
51776.4,27863.9
51775,27869.5
51773.1,27875
51770.6,27880.2
51767.6,27885.2
51764.2,27889.8
51760.3,27894.1
51756,27898
51751.3,27901.5
51746.3,27904.4
51741.1,27906.9
51735.6,27908.9
51730,27910.3
51724.3,27911.1
51718.5,27911.4
51147.6,27911.4
51141.8,27911.1
51136.1,27910.3
51130.5,27908.9
51125,27906.9
51119.8,27904.4
51114.8,27901.5
51110.2,27898
51105.9,27894.1
51102,27889.8
51098.5,27885.2
51095.6,27880.2
51093.1,27875
51091.1,27869.5
51089.7,27863.9
51088.9,27858.2
51088.6,27852.4
51088.6,27734.3
51088.9,27728.5
51089.7,27722.7
51091.1,27717.1
51093.1,27711.7
51095.6,27706.4
51098.5,27701.4
51102,27696.8
51105.9,27692.5
51110.2,27688.6
51114.8,27685.1
51119.8,27682.2
51125,27679.7
51130.5,27677.7
51136.1,27676.3
51141.8,27675.5
51147.6,27675.2
51718.5,27675.2
Z" /> 
<path style="fill:#FFFFFF; fill-opacity:1.0; 
stroke:#FFFFFF; stroke-width:0; stroke-opacity:1; 
stroke-linecap:round; stroke-linejoin:round;fill-rule:evenodd;"
d="M 51724.3,28175.5
51730,28176.3
51735.6,28177.7
51741.1,28179.7
51746.3,28182.2
51751.3,28185.1
51756,28188.6
51760.3,28192.5
51764.2,28196.8
51767.6,28201.4
51770.6,28206.4
51773.1,28211.7
51775,28217.1
51776.4,28222.7
51777.3,28228.5
51777.6,28234.3
51777.6,28352.4
51777.3,28358.2
51776.4,28363.9
51775,28369.5
51773.1,28375
51770.6,28380.2
51767.6,28385.2
51764.2,28389.8
51760.3,28394.1
51756,28398
51751.3,28401.5
51746.3,28404.4
51741.1,28406.9
51735.6,28408.9
51730,28410.3
51724.3,28411.1
51718.5,28411.4
51147.6,28411.4
51141.8,28411.1
51136.1,28410.3
51130.5,28408.9
51125,28406.9
51119.8,28404.4
51114.8,28401.5
51110.2,28398
51105.9,28394.1
51102,28389.8
51098.5,28385.2
51095.6,28380.2
51093.1,28375
51091.1,28369.5
51089.7,28363.9
51088.9,28358.2
51088.6,28352.4
51088.6,28234.3
51088.9,28228.5
51089.7,28222.7
51091.1,28217.1
51093.1,28211.7
51095.6,28206.4
51098.5,28201.4
51102,28196.8
51105.9,28192.5
51110.2,28188.6
51114.8,28185.1
51119.8,28182.2
51125,28179.7
51130.5,28177.7
51136.1,28176.3
51141.8,28175.5
51147.6,28175.2
51718.5,28175.2
Z" /> 
<path style="fill:#FFFFFF; fill-opacity:1.0; 
stroke:#FFFFFF; stroke-width:0; stroke-opacity:1; 
stroke-linecap:round; stroke-linejoin:round;fill-rule:evenodd;"
d="M 53751.9,28175.5
53757.6,28176.3
53763.2,28177.7
53768.7,28179.7
53773.9,28182.2
53778.9,28185.1
53783.5,28188.6
53787.8,28192.5
53791.7,28196.8
53795.2,28201.4
53798.1,28206.4
53800.6,28211.7
53802.6,28217.1
53804,28222.7
53804.8,28228.5
53805.1,28234.3
53805.1,28352.4
53804.8,28358.2
53804,28363.9
53802.6,28369.5
53800.6,28375
53798.1,28380.2
53795.2,28385.2
53791.7,28389.8
53787.8,28394.1
53783.5,28398
53778.9,28401.5
53773.9,28404.4
53768.7,28406.9
53763.2,28408.9
53757.6,28410.3
53751.9,28411.1
53746.1,28411.4
53175.2,28411.4
53169.4,28411.1
53163.7,28410.3
53158.1,28408.9
53152.6,28406.9
53147.4,28404.4
53142.4,28401.5
53137.7,28398
53133.4,28394.1
53129.5,28389.8
53126.1,28385.2
53123.1,28380.2
53120.6,28375
53118.7,28369.5
53117.3,28363.9
53116.4,28358.2
53116.1,28352.4
53116.1,28234.3
53116.4,28228.5
53117.3,28222.7
53118.7,28217.1
53120.6,28211.7
53123.1,28206.4
53126.1,28201.4
53129.5,28196.8
53133.4,28192.5
53137.7,28188.6
53142.4,28185.1
53147.4,28182.2
53152.6,28179.7
53158.1,28177.7
53163.7,28176.3
53169.4,28175.5
53175.2,28175.2
53746.1,28175.2
Z" /> 
<path style="fill:#FFFFFF; fill-opacity:1.0; 
stroke:#FFFFFF; stroke-width:0; stroke-opacity:1; 
stroke-linecap:round; stroke-linejoin:round;fill-rule:evenodd;"
d="M 53751.9,27675.5
53757.6,27676.3
53763.2,27677.7
53768.7,27679.7
53773.9,27682.2
53778.9,27685.1
53783.5,27688.6
53787.8,27692.5
53791.7,27696.8
53795.2,27701.4
53798.1,27706.4
53800.6,27711.7
53802.6,27717.1
53804,27722.7
53804.8,27728.5
53805.1,27734.3
53805.1,27852.4
53804.8,27858.2
53804,27863.9
53802.6,27869.5
53800.6,27875
53798.1,27880.2
53795.2,27885.2
53791.7,27889.8
53787.8,27894.1
53783.5,27898
53778.9,27901.5
53773.9,27904.4
53768.7,27906.9
53763.2,27908.9
53757.6,27910.3
53751.9,27911.1
53746.1,27911.4
53175.2,27911.4
53169.4,27911.1
53163.7,27910.3
53158.1,27908.9
53152.6,27906.9
53147.4,27904.4
53142.4,27901.5
53137.7,27898
53133.4,27894.1
53129.5,27889.8
53126.1,27885.2
53123.1,27880.2
53120.6,27875
53118.7,27869.5
53117.3,27863.9
53116.4,27858.2
53116.1,27852.4
53116.1,27734.3
53116.4,27728.5
53117.3,27722.7
53118.7,27717.1
53120.6,27711.7
53123.1,27706.4
53126.1,27701.4
53129.5,27696.8
53133.4,27692.5
53137.7,27688.6
53142.4,27685.1
53147.4,27682.2
53152.6,27679.7
53158.1,27677.7
53163.7,27676.3
53169.4,27675.5
53175.2,27675.2
53746.1,27675.2
Z" /> 
<path style="fill:#FFFFFF; fill-opacity:1.0; 
stroke:#FFFFFF; stroke-width:0; stroke-opacity:1; 
stroke-linecap:round; stroke-linejoin:round;fill-rule:evenodd;"
d="M 53751.9,27175.5
53757.6,27176.3
53763.2,27177.7
53768.7,27179.7
53773.9,27182.2
53778.9,27185.1
53783.5,27188.6
53787.8,27192.5
53791.7,27196.8
53795.2,27201.4
53798.1,27206.4
53800.6,27211.7
53802.6,27217.1
53804,27222.7
53804.8,27228.5
53805.1,27234.3
53805.1,27352.4
53804.8,27358.2
53804,27363.9
53802.6,27369.5
53800.6,27375
53798.1,27380.2
53795.2,27385.2
53791.7,27389.8
53787.8,27394.1
53783.5,27398
53778.9,27401.5
53773.9,27404.4
53768.7,27406.9
53763.2,27408.9
53757.6,27410.3
53751.9,27411.1
53746.1,27411.4
53175.2,27411.4
53169.4,27411.1
53163.7,27410.3
53158.1,27408.9
53152.6,27406.9
53147.4,27404.4
53142.4,27401.5
53137.7,27398
53133.4,27394.1
53129.5,27389.8
53126.1,27385.2
53123.1,27380.2
53120.6,27375
53118.7,27369.5
53117.3,27363.9
53116.4,27358.2
53116.1,27352.4
53116.1,27234.3
53116.4,27228.5
53117.3,27222.7
53118.7,27217.1
53120.6,27211.7
53123.1,27206.4
53126.1,27201.4
53129.5,27196.8
53133.4,27192.5
53137.7,27188.6
53142.4,27185.1
53147.4,27182.2
53152.6,27179.7
53158.1,27177.7
53163.7,27176.3
53169.4,27175.5
53175.2,27175.2
53746.1,27175.2
Z" /> 
<path style="fill:#FFFFFF; fill-opacity:1.0; 
stroke:#FFFFFF; stroke-width:0; stroke-opacity:1; 
stroke-linecap:round; stroke-linejoin:round;fill-rule:evenodd;"
d="M 53751.9,26675.5
53757.6,26676.3
53763.2,26677.7
53768.7,26679.7
53773.9,26682.2
53778.9,26685.1
53783.5,26688.6
53787.8,26692.5
53791.7,26696.8
53795.2,26701.4
53798.1,26706.4
53800.6,26711.7
53802.6,26717.1
53804,26722.7
53804.8,26728.5
53805.1,26734.3
53805.1,26852.4
53804.8,26858.2
53804,26863.9
53802.6,26869.5
53800.6,26875
53798.1,26880.2
53795.2,26885.2
53791.7,26889.8
53787.8,26894.1
53783.5,26898
53778.9,26901.5
53773.9,26904.4
53768.7,26906.9
53763.2,26908.9
53757.6,26910.3
53751.9,26911.1
53746.1,26911.4
53175.2,26911.4
53169.4,26911.1
53163.7,26910.3
53158.1,26908.9
53152.6,26906.9
53147.4,26904.4
53142.4,26901.5
53137.7,26898
53133.4,26894.1
53129.5,26889.8
53126.1,26885.2
53123.1,26880.2
53120.6,26875
53118.7,26869.5
53117.3,26863.9
53116.4,26858.2
53116.1,26852.4
53116.1,26734.3
53116.4,26728.5
53117.3,26722.7
53118.7,26717.1
53120.6,26711.7
53123.1,26706.4
53126.1,26701.4
53129.5,26696.8
53133.4,26692.5
53137.7,26688.6
53142.4,26685.1
53147.4,26682.2
53152.6,26679.7
53158.1,26677.7
53163.7,26676.3
53169.4,26675.5
53175.2,26675.2
53746.1,26675.2
Z" /> 
</g>
<g >
</g>
<g style="fill:#FFFFFF; fill-opacity:1.0; 
stroke:#FFFFFF; stroke-width:0; stroke-opacity:1; 
stroke-linecap:round; stroke-linejoin:round;">
<circle cx="52157.6" cy="30928.6" r="393.701" /> 
</g>
<g style="fill:#FFFFFF; fill-opacity:1.0; 
stroke:#FFFFFF; stroke-width:39.3701; stroke-opacity:1; 
stroke-linecap:round; stroke-linejoin:round;">
</g>
<g style="fill:#FFFFFF; fill-opacity:1.0; 
stroke:#FFFFFF; stroke-width:0; stroke-opacity:1; 
stroke-linecap:round; stroke-linejoin:round;">
<circle cx="50399.6" cy="29039.4" r="393.701" /> 
</g>
<g style="fill:#FFFFFF; fill-opacity:1.0; 
stroke:#FFFFFF; stroke-width:39.3701; stroke-opacity:1; 
stroke-linecap:round; stroke-linejoin:round;">
</g>
<g style="fill:#FFFFFF; fill-opacity:1.0; 
stroke:#FFFFFF; stroke-width:0; stroke-opacity:1; 
stroke-linecap:round; stroke-linejoin:round;">
<circle cx="49690.9" cy="26755.9" r="393.701" /> 
</g>
<g style="fill:#FFFFFF; fill-opacity:1.0; 
stroke:#FFFFFF; stroke-width:39.3701; stroke-opacity:1; 
stroke-linecap:round; stroke-linejoin:round;">
</g>
<g style="fill:#FFFFFF; fill-opacity:1.0; 
stroke:#FFFFFF; stroke-width:0; stroke-opacity:1; 
stroke-linecap:round; stroke-linejoin:round;">
<circle cx="51816.9" cy="31952.8" r="393.701" /> 
</g>
<g style="fill:#FFFFFF; fill-opacity:1.0; 
stroke:#FFFFFF; stroke-width:39.3701; stroke-opacity:1; 
stroke-linecap:round; stroke-linejoin:round;">
</g>
<g style="fill:#FFFFFF; fill-opacity:1.0; 
stroke:#FFFFFF; stroke-width:0; stroke-opacity:1; 
stroke-linecap:round; stroke-linejoin:round;">
<circle cx="52525.6" cy="33498" r="393.701" /> 
</g>
<g style="fill:#FFFFFF; fill-opacity:1.0; 
stroke:#FFFFFF; stroke-width:39.3701; stroke-opacity:1; 
stroke-linecap:round; stroke-linejoin:round;">
</g>
<g style="fill:#FFFFFF; fill-opacity:1.0; 
stroke:#FFFFFF; stroke-width:0; stroke-opacity:1; 
stroke-linecap:round; stroke-linejoin:round;">
<circle cx="53460.6" cy="29187" r="393.701" /> 
</g>
<g style="fill:#FFFFFF; fill-opacity:1.0; 
stroke:#FFFFFF; stroke-width:39.3701; stroke-opacity:1; 
stroke-linecap:round; stroke-linejoin:round;">
</g>
<g >
</g>
<g style="fill:#FFFFFF; fill-opacity:1.0; 
stroke:#FFFFFF; stroke-width:39.3701; stroke-opacity:1; 
stroke-linecap:round; stroke-linejoin:round;">
</g>
<g style="fill:#FFFFFF; fill-opacity:1.0; 
stroke:#FFFFFF; stroke-width:157.48; stroke-opacity:1; 
stroke-linecap:round; stroke-linejoin:round;">
</g>
<g style="fill:#FFFFFF; fill-opacity:0.0; 
stroke:#FFFFFF; stroke-width:157.48; stroke-opacity:1; 
stroke-linecap:round; stroke-linejoin:round;">
<path d="M54509 31102
L54415 31007
" />
</g>
<g style="fill:#FFFFFF; fill-opacity:0.0; 
stroke:#FFFFFF; stroke-width:236.22; stroke-opacity:1; 
stroke-linecap:round; stroke-linejoin:round;">
<path d="M55837 31102
L54509 31102
" />
</g>
<g style="fill:#FFFFFF; fill-opacity:0.0; 
stroke:#FFFFFF; stroke-width:157.48; stroke-opacity:1; 
stroke-linecap:round; stroke-linejoin:round;">
<path d="M55837 31397
L55837 31102
" />
</g>
<g style="fill:#FFFFFF; fill-opacity:0.0; 
stroke:#FFFFFF; stroke-width:236.22; stroke-opacity:1; 
stroke-linecap:round; stroke-linejoin:round;">
<path d="M55281 31952
L55837 31397
" />
<path d="M54494 31952
L55281 31952
" />
<path d="M48824 26992
L48273 26992
" />
<path d="M51433 27793
L49625 27793
" />
<path d="M49625 27793
L48824 26992
" />
</g>
<g style="fill:#FFFFFF; fill-opacity:0.0; 
stroke:#FFFFFF; stroke-width:157.48; stroke-opacity:1; 
stroke-linecap:round; stroke-linejoin:round;">
<path d="M55821 33055
L55837 33070
" />
</g>
<g style="fill:#FFFFFF; fill-opacity:0.0; 
stroke:#FFFFFF; stroke-width:236.22; stroke-opacity:1; 
stroke-linecap:round; stroke-linejoin:round;">
<path d="M54380 33055
L55821 33055
" />
<path d="M52826 27793
L53460 27793
" />
</g>
<g style="fill:#FFFFFF; fill-opacity:0.0; 
stroke:#FFFFFF; stroke-width:157.48; stroke-opacity:1; 
stroke-linecap:round; stroke-linejoin:round;">
<path d="M52761 27858
L52826 27793
" />
</g>
<g style="fill:#FFFFFF; fill-opacity:0.0; 
stroke:#FFFFFF; stroke-width:236.22; stroke-opacity:1; 
stroke-linecap:round; stroke-linejoin:round;">
<path d="M52761 28881
L52761 27858
" />
<path d="M48431 29748
L51895 29748
" />
<path d="M48273 28992
L48273 29590
" />
<path d="M51895 29748
L52761 28881
" />
<path d="M48273 29590
L48431 29748
" />
<path d="M54439 28434
L54887 28434
" />
<path d="M54336 28330
L54439 28434
" />
<path d="M54336 28173
L54336 28330
" />
<path d="M53460 27793
L53956 27793
" />
<path d="M53956 27793
L54336 28173
" />
<path d="M55837 27165
L55139 27165
" />
<path d="M54767 26793
L53460 26793
" />
<path d="M55139 27165
L54767 26793
" />
<path d="M49033 27992
L49334 28293
" />
<path d="M48273 27992
L49033 27992
" />
<path d="M49334 28293
L51433 28293
" />
<path d="M49927 31322
L48746 31322
" />
<path d="M50084 31322
L49927 31322
" />
<path d="M51187 30220
L50084 31322
" />
<path d="M55837 29133
L54750 30220
" />
<path d="M54750 30220
L51187 30220
" />
<path d="M47824 27992
L48273 27992
" />
<path d="M47564 29669
L47564 28251
" />
<path d="M47564 28251
L47824 27992
" />
<path d="M48746 31322
L48746 30850
" />
<path d="M48746 30850
L47564 29669
" />
<path d="M52919 32740
L53234 33055
" />
<path d="M53234 33055
L53662 33055
" />
<path d="M51108 32740
L52919 32740
" />
<path d="M50242 32897
L50950 32897
" />
<path d="M50950 32897
L51108 32740
" />
<path d="M48242 32897
L48242 32157
" />
<path d="M48027 31942
L48027 31322
" />
<path d="M48242 32157
L48027 31942
" />
<path d="M52236 31007
L52157 30928
" />
<path d="M53116 31007
L52236 31007
" />
<path d="M52210 28645
L51816 29039
" />
<path d="M51816 29039
L50399 29039
" />
<path d="M53460 27293
L52539 27293
" />
<path d="M52210 27622
L52210 28645
" />
<path d="M52539 27293
L52210 27622
" />
<path d="M54705 27754
L54887 27754
" />
<path d="M53460 27293
L54244 27293
" />
<path d="M54244 27293
L54705 27754
" />
<path d="M51433 26793
L49728 26793
" />
</g>
<g style="fill:#FFFFFF; fill-opacity:0.0; 
stroke:#FFFFFF; stroke-width:157.48; stroke-opacity:1; 
stroke-linecap:round; stroke-linejoin:round;">
<path d="M49728 26793
L49690 26755
" />
</g>
<g style="fill:#FFFFFF; fill-opacity:0.0; 
stroke:#FFFFFF; stroke-width:236.22; stroke-opacity:1; 
stroke-linecap:round; stroke-linejoin:round;">
<path d="M51433 27293
L49834 27293
" />
<path d="M49690 27149
L49690 26755
" />
<path d="M49834 27293
L49690 27149
" />
<path d="M53135 31952
L51816 31952
" />
<path d="M53460 28293
L53460 29187
" />
</g>
<g style="fill:#FFFFFF; fill-opacity:0.0; 
stroke:#FFFFFF; stroke-width:157.48; stroke-opacity:1; 
stroke-linecap:round; stroke-linejoin:round;">
<path d="M53470 29196
L53460 29187
" />
<path d="M53460 29187
L53460 29187
" />
</g>
<g style="fill:#FFFFFF; fill-opacity:0.0; 
stroke:#FFFFFF; stroke-width:236.22; stroke-opacity:1; 
stroke-linecap:round; stroke-linejoin:round;">
<path d="M49582 33498
L52525 33498
" />
<path d="M49242 32897
L49242 33157
" />
<path d="M49242 33157
L49582 33498
" />
</g>
<g >
</g>
</g> 
</svg>
