M48
; DRILL file {KiCad 5.1.8+dfsg1-1~bpo10+1} date Tue Dec  1 12:27:25 2020
; FORMAT={-:-/ absolute / metric / decimal}
; #@! TF.CreationDate,2020-12-01T12:27:25+03:00
; #@! TF.GenerationSoftware,Kicad,Pcbnew,5.1.8+dfsg1-1~bpo10+1
; #@! TF.FileFunction,Plated,1,2,PTH
FMAT,2
METRIC
T1C0.800
T2C1.000
%
G90
G05
T1
X7.023Y24.46
X11.923Y24.46
T2
X6.159Y13.208
X6.159Y10.668
X6.159Y8.128
X6.159Y5.588
X13.64Y13.203
X13.64Y10.663
X13.64Y8.123
X13.64Y5.583
X35.192Y19.317
X37.732Y19.317
X40.272Y19.317
X42.812Y19.317
X36.538Y3.213
X39.078Y3.213
X41.618Y3.213
X32.537Y35.865
X35.077Y35.865
X37.617Y35.865
X27.013Y15.316
X29.553Y15.316
X42.494Y31.834
X42.494Y29.294
X42.494Y26.754
X42.494Y24.214
X5.537Y37.3
X8.077Y37.3
X10.617Y37.3
X29.324Y10.414
X29.324Y7.874
X16.878Y37.269
X19.418Y37.269
X21.958Y37.269
X24.498Y37.269
T0
M30
