%TF.GenerationSoftware,KiCad,Pcbnew,5.1.8+dfsg1-1~bpo10+1*%
%TF.CreationDate,2020-12-01T12:27:45+03:00*%
%TF.ProjectId,Controller,436f6e74-726f-46c6-9c65-722e6b696361,rev?*%
%TF.SameCoordinates,Original*%
%TF.FileFunction,Copper,L1,Top*%
%TF.FilePolarity,Positive*%
%FSLAX46Y46*%
G04 Gerber Fmt 4.6, Leading zero omitted, Abs format (unit mm)*
G04 Created by KiCad (PCBNEW 5.1.8+dfsg1-1~bpo10+1) date 2020-12-01 12:27:45*
%MOMM*%
%LPD*%
G01*
G04 APERTURE LIST*
%TA.AperFunction,NonConductor*%
%ADD10C,0.250000*%
%TD*%
%TA.AperFunction,NonConductor*%
%ADD11C,0.150000*%
%TD*%
%TA.AperFunction,ComponentPad*%
%ADD12R,2.000000X2.000000*%
%TD*%
%TA.AperFunction,ComponentPad*%
%ADD13O,2.000000X2.000000*%
%TD*%
%TA.AperFunction,SMDPad,CuDef*%
%ADD14R,1.500000X0.550000*%
%TD*%
%TA.AperFunction,SMDPad,CuDef*%
%ADD15R,0.550000X1.500000*%
%TD*%
%TA.AperFunction,SMDPad,CuDef*%
%ADD16R,2.000000X3.800000*%
%TD*%
%TA.AperFunction,SMDPad,CuDef*%
%ADD17R,2.000000X1.500000*%
%TD*%
%TA.AperFunction,ComponentPad*%
%ADD18O,2.500000X2.100000*%
%TD*%
%TA.AperFunction,ComponentPad*%
%ADD19R,2.500000X2.100000*%
%TD*%
%TA.AperFunction,ComponentPad*%
%ADD20C,2.200000*%
%TD*%
%TA.AperFunction,Conductor*%
%ADD21C,0.400000*%
%TD*%
%TA.AperFunction,Conductor*%
%ADD22C,0.500000*%
%TD*%
%TA.AperFunction,Conductor*%
%ADD23C,0.800000*%
%TD*%
%TA.AperFunction,Conductor*%
%ADD24C,0.600000*%
%TD*%
%TA.AperFunction,Conductor*%
%ADD25C,1.000000*%
%TD*%
%TA.AperFunction,Conductor*%
%ADD26C,0.254000*%
%TD*%
%TA.AperFunction,Conductor*%
%ADD27C,0.100000*%
%TD*%
G04 APERTURE END LIST*
D10*
X30691319Y1236719D02*
X30357985Y1712909D01*
X30119890Y1236719D02*
X30119890Y2236719D01*
X30500842Y2236719D01*
X30596080Y2189100D01*
X30643700Y2141480D01*
X30691319Y2046242D01*
X30691319Y1903385D01*
X30643700Y1808147D01*
X30596080Y1760528D01*
X30500842Y1712909D01*
X30119890Y1712909D01*
X31119890Y1760528D02*
X31453223Y1760528D01*
X31596080Y1236719D02*
X31119890Y1236719D01*
X31119890Y2236719D01*
X31596080Y2236719D01*
X31977033Y1284338D02*
X32119890Y1236719D01*
X32357985Y1236719D01*
X32453223Y1284338D01*
X32500842Y1331957D01*
X32548461Y1427195D01*
X32548461Y1522433D01*
X32500842Y1617671D01*
X32453223Y1665290D01*
X32357985Y1712909D01*
X32167509Y1760528D01*
X32072271Y1808147D01*
X32024652Y1855766D01*
X31977033Y1951004D01*
X31977033Y2046242D01*
X32024652Y2141480D01*
X32072271Y2189100D01*
X32167509Y2236719D01*
X32405604Y2236719D01*
X32548461Y2189100D01*
X32977033Y1760528D02*
X33310366Y1760528D01*
X33453223Y1236719D02*
X32977033Y1236719D01*
X32977033Y2236719D01*
X33453223Y2236719D01*
X33738938Y2236719D02*
X34310366Y2236719D01*
X34024652Y1236719D02*
X34024652Y2236719D01*
D11*
X24153880Y39558600D02*
X24153880Y39749076D01*
X24201500Y39844314D01*
X24296738Y39939552D01*
X24487214Y39987171D01*
X24820547Y39987171D01*
X25011023Y39939552D01*
X25106261Y39844314D01*
X25153880Y39749076D01*
X25153880Y39558600D01*
X25106261Y39463361D01*
X25011023Y39368123D01*
X24820547Y39320504D01*
X24487214Y39320504D01*
X24296738Y39368123D01*
X24201500Y39463361D01*
X24153880Y39558600D01*
X25153880Y40415742D02*
X24153880Y40415742D01*
X25153880Y40987171D01*
X24153880Y40987171D01*
X25249119Y41225266D02*
X25249119Y41987171D01*
X22404342Y39510980D02*
X22451961Y39463361D01*
X22499580Y39320504D01*
X22499580Y39225266D01*
X22451961Y39082409D01*
X22356723Y38987171D01*
X22261485Y38939552D01*
X22071009Y38891933D01*
X21928152Y38891933D01*
X21737676Y38939552D01*
X21642438Y38987171D01*
X21547200Y39082409D01*
X21499580Y39225266D01*
X21499580Y39320504D01*
X21547200Y39463361D01*
X21594819Y39510980D01*
X22451961Y39891933D02*
X22499580Y40034790D01*
X22499580Y40272885D01*
X22451961Y40368123D01*
X22404342Y40415742D01*
X22309104Y40463361D01*
X22213866Y40463361D01*
X22118628Y40415742D01*
X22071009Y40368123D01*
X22023390Y40272885D01*
X21975771Y40082409D01*
X21928152Y39987171D01*
X21880533Y39939552D01*
X21785295Y39891933D01*
X21690057Y39891933D01*
X21594819Y39939552D01*
X21547200Y39987171D01*
X21499580Y40082409D01*
X21499580Y40320504D01*
X21547200Y40463361D01*
X22594819Y40653838D02*
X22594819Y41415742D01*
X22499580Y41653838D02*
X21499580Y41653838D01*
X21499580Y41891933D01*
X21547200Y42034790D01*
X21642438Y42130028D01*
X21737676Y42177647D01*
X21928152Y42225266D01*
X22071009Y42225266D01*
X22261485Y42177647D01*
X22356723Y42130028D01*
X22451961Y42034790D01*
X22499580Y41891933D01*
X22499580Y41653838D01*
X17197342Y39391909D02*
X17244961Y39344290D01*
X17292580Y39201433D01*
X17292580Y39106195D01*
X17244961Y38963338D01*
X17149723Y38868100D01*
X17054485Y38820480D01*
X16864009Y38772861D01*
X16721152Y38772861D01*
X16530676Y38820480D01*
X16435438Y38868100D01*
X16340200Y38963338D01*
X16292580Y39106195D01*
X16292580Y39201433D01*
X16340200Y39344290D01*
X16387819Y39391909D01*
X17244961Y39772861D02*
X17292580Y39915719D01*
X17292580Y40153814D01*
X17244961Y40249052D01*
X17197342Y40296671D01*
X17102104Y40344290D01*
X17006866Y40344290D01*
X16911628Y40296671D01*
X16864009Y40249052D01*
X16816390Y40153814D01*
X16768771Y39963338D01*
X16721152Y39868100D01*
X16673533Y39820480D01*
X16578295Y39772861D01*
X16483057Y39772861D01*
X16387819Y39820480D01*
X16340200Y39868100D01*
X16292580Y39963338D01*
X16292580Y40201433D01*
X16340200Y40344290D01*
X17387819Y40534766D02*
X17387819Y41296671D01*
X17006866Y41487147D02*
X17006866Y41963338D01*
X17292580Y41391909D02*
X16292580Y41725242D01*
X17292580Y42058576D01*
X19486571Y39418876D02*
X19486571Y39085542D01*
X20010380Y39085542D02*
X19010380Y39085542D01*
X19010380Y39561733D01*
X19724666Y39895066D02*
X19724666Y40371257D01*
X20010380Y39799828D02*
X19010380Y40133161D01*
X20010380Y40466495D01*
X20010380Y40799828D02*
X19010380Y40799828D01*
X20010380Y41371257D01*
X19010380Y41371257D01*
X10404180Y39238866D02*
X9404180Y39238866D01*
X10118466Y39572200D01*
X9404180Y39905533D01*
X10404180Y39905533D01*
X9404180Y40572200D02*
X9404180Y40762676D01*
X9451800Y40857914D01*
X9547038Y40953152D01*
X9737514Y41000771D01*
X10070847Y41000771D01*
X10261323Y40953152D01*
X10356561Y40857914D01*
X10404180Y40762676D01*
X10404180Y40572200D01*
X10356561Y40476961D01*
X10261323Y40381723D01*
X10070847Y40334104D01*
X9737514Y40334104D01*
X9547038Y40381723D01*
X9451800Y40476961D01*
X9404180Y40572200D01*
X10356561Y41381723D02*
X10404180Y41524580D01*
X10404180Y41762676D01*
X10356561Y41857914D01*
X10308942Y41905533D01*
X10213704Y41953152D01*
X10118466Y41953152D01*
X10023228Y41905533D01*
X9975609Y41857914D01*
X9927990Y41762676D01*
X9880371Y41572200D01*
X9832752Y41476961D01*
X9785133Y41429342D01*
X9689895Y41381723D01*
X9594657Y41381723D01*
X9499419Y41429342D01*
X9451800Y41476961D01*
X9404180Y41572200D01*
X9404180Y41810295D01*
X9451800Y41953152D01*
X7904180Y39274580D02*
X6904180Y39274580D01*
X7618466Y39607914D01*
X6904180Y39941247D01*
X7904180Y39941247D01*
X7904180Y40417438D02*
X6904180Y40417438D01*
X7856561Y40846009D02*
X7904180Y40988866D01*
X7904180Y41226961D01*
X7856561Y41322200D01*
X7808942Y41369819D01*
X7713704Y41417438D01*
X7618466Y41417438D01*
X7523228Y41369819D01*
X7475609Y41322200D01*
X7427990Y41226961D01*
X7380371Y41036485D01*
X7332752Y40941247D01*
X7285133Y40893628D01*
X7189895Y40846009D01*
X7094657Y40846009D01*
X6999419Y40893628D01*
X6951800Y40941247D01*
X6904180Y41036485D01*
X6904180Y41274580D01*
X6951800Y41417438D01*
X5356561Y39286485D02*
X5404180Y39429342D01*
X5404180Y39667438D01*
X5356561Y39762676D01*
X5308942Y39810295D01*
X5213704Y39857914D01*
X5118466Y39857914D01*
X5023228Y39810295D01*
X4975609Y39762676D01*
X4927990Y39667438D01*
X4880371Y39476961D01*
X4832752Y39381723D01*
X4785133Y39334104D01*
X4689895Y39286485D01*
X4594657Y39286485D01*
X4499419Y39334104D01*
X4451800Y39381723D01*
X4404180Y39476961D01*
X4404180Y39715057D01*
X4451800Y39857914D01*
X5308942Y40857914D02*
X5356561Y40810295D01*
X5404180Y40667438D01*
X5404180Y40572200D01*
X5356561Y40429342D01*
X5261323Y40334104D01*
X5166085Y40286485D01*
X4975609Y40238866D01*
X4832752Y40238866D01*
X4642276Y40286485D01*
X4547038Y40334104D01*
X4451800Y40429342D01*
X4404180Y40572200D01*
X4404180Y40667438D01*
X4451800Y40810295D01*
X4499419Y40857914D01*
X5404180Y41286485D02*
X4404180Y41286485D01*
X5404180Y41857914D02*
X4832752Y41429342D01*
X4404180Y41857914D02*
X4975609Y41286485D01*
%TO.P,C7,2*%
%TO.N,GND*%
%TA.AperFunction,SMDPad,CuDef*%
G36*
G01*
X5646000Y29431000D02*
X5646000Y28481000D01*
G75*
G02*
X5396000Y28231000I-250000J0D01*
G01*
X4721000Y28231000D01*
G75*
G02*
X4471000Y28481000I0J250000D01*
G01*
X4471000Y29431000D01*
G75*
G02*
X4721000Y29681000I250000J0D01*
G01*
X5396000Y29681000D01*
G75*
G02*
X5646000Y29431000I0J-250000D01*
G01*
G37*
%TD.AperFunction*%
%TO.P,C7,1*%
%TO.N,+5V*%
%TA.AperFunction,SMDPad,CuDef*%
G36*
G01*
X7721000Y29431000D02*
X7721000Y28481000D01*
G75*
G02*
X7471000Y28231000I-250000J0D01*
G01*
X6796000Y28231000D01*
G75*
G02*
X6546000Y28481000I0J250000D01*
G01*
X6546000Y29431000D01*
G75*
G02*
X6796000Y29681000I250000J0D01*
G01*
X7471000Y29681000D01*
G75*
G02*
X7721000Y29431000I0J-250000D01*
G01*
G37*
%TD.AperFunction*%
%TD*%
D12*
%TO.P,J2,1*%
%TO.N,Net-(J2-Pad1)*%
X32537400Y35864800D03*
D13*
%TO.P,J2,2*%
%TO.N,Net-(J2-Pad2)*%
X35077400Y35864800D03*
%TO.P,J2,3*%
%TO.N,GND*%
X37617400Y35864800D03*
%TD*%
D12*
%TO.P,J6,1*%
%TO.N,Net-(J6-Pad1)*%
X27012900Y15316200D03*
D13*
%TO.P,J6,2*%
%TO.N,Net-(J6-Pad2)*%
X29552900Y15316200D03*
%TD*%
D14*
%TO.P,U1,1*%
%TO.N,Net-(J5-Pad1)*%
X18501800Y30322200D03*
%TO.P,U1,2*%
%TO.N,Net-(J5-Pad2)*%
X18501800Y29522200D03*
%TO.P,U1,3*%
%TO.N,Net-(J5-Pad3)*%
X18501800Y28722200D03*
%TO.P,U1,4*%
%TO.N,RESET*%
X18501800Y27922200D03*
%TO.P,U1,5*%
%TO.N,+5V*%
X18501800Y27122200D03*
%TO.P,U1,6*%
%TO.N,GND*%
X18501800Y26322200D03*
%TO.P,U1,7*%
%TO.N,Net-(C2-Pad1)*%
X18501800Y25522200D03*
%TO.P,U1,8*%
%TO.N,Net-(C1-Pad1)*%
X18501800Y24722200D03*
%TO.P,U1,9*%
%TO.N,Net-(J8-Pad1)*%
X18501800Y23922200D03*
%TO.P,U1,10*%
%TO.N,Net-(J8-Pad2)*%
X18501800Y23122200D03*
%TO.P,U1,11*%
%TO.N,Net-(J8-Pad3)*%
X18501800Y22322200D03*
D15*
%TO.P,U1,12*%
%TO.N,Net-(J8-Pad4)*%
X20201800Y20622200D03*
%TO.P,U1,13*%
%TO.N,Net-(J9-Pad1)*%
X21001800Y20622200D03*
%TO.P,U1,14*%
%TO.N,Net-(J9-Pad2)*%
X21801800Y20622200D03*
%TO.P,U1,15*%
%TO.N,Net-(J9-Pad3)*%
X22601800Y20622200D03*
%TO.P,U1,16*%
%TO.N,Net-(J9-Pad4)*%
X23401800Y20622200D03*
%TO.P,U1,17*%
%TO.N,+5V*%
X24201800Y20622200D03*
%TO.P,U1,18*%
%TO.N,GND*%
X25001800Y20622200D03*
%TO.P,U1,19*%
%TO.N,Net-(J6-Pad1)*%
X25801800Y20622200D03*
%TO.P,U1,20*%
%TO.N,Net-(J6-Pad2)*%
X26601800Y20622200D03*
%TO.P,U1,21*%
%TO.N,Net-(U1-Pad21)*%
X27401800Y20622200D03*
%TO.P,U1,22*%
%TO.N,Net-(U1-Pad22)*%
X28201800Y20622200D03*
D14*
%TO.P,U1,23*%
%TO.N,Net-(J7-Pad1)*%
X29901800Y22322200D03*
%TO.P,U1,24*%
%TO.N,Net-(J7-Pad2)*%
X29901800Y23122200D03*
%TO.P,U1,25*%
%TO.N,Net-(J7-Pad3)*%
X29901800Y23922200D03*
%TO.P,U1,26*%
%TO.N,Net-(J7-Pad4)*%
X29901800Y24722200D03*
%TO.P,U1,27*%
%TO.N,+5V*%
X29901800Y25522200D03*
%TO.P,U1,28*%
%TO.N,GND*%
X29901800Y26322200D03*
%TO.P,U1,29*%
%TO.N,Net-(C4-Pad1)*%
X29901800Y27122200D03*
%TO.P,U1,30*%
%TO.N,Net-(U1-Pad30)*%
X29901800Y27922200D03*
%TO.P,U1,31*%
%TO.N,Net-(U1-Pad31)*%
X29901800Y28722200D03*
%TO.P,U1,32*%
%TO.N,Net-(J2-Pad2)*%
X29901800Y29522200D03*
%TO.P,U1,33*%
%TO.N,Net-(J2-Pad1)*%
X29901800Y30322200D03*
D15*
%TO.P,U1,34*%
%TO.N,Net-(U1-Pad34)*%
X28201800Y32022200D03*
%TO.P,U1,35*%
%TO.N,Net-(U1-Pad35)*%
X27401800Y32022200D03*
%TO.P,U1,36*%
%TO.N,Net-(U1-Pad36)*%
X26601800Y32022200D03*
%TO.P,U1,37*%
%TO.N,Net-(U1-Pad37)*%
X25801800Y32022200D03*
%TO.P,U1,38*%
%TO.N,+5V*%
X25001800Y32022200D03*
%TO.P,U1,39*%
%TO.N,GND*%
X24201800Y32022200D03*
%TO.P,U1,40*%
%TO.N,Net-(U1-Pad40)*%
X23401800Y32022200D03*
%TO.P,U1,41*%
%TO.N,Net-(J4-Pad1)*%
X22601800Y32022200D03*
%TO.P,U1,42*%
%TO.N,Net-(J4-Pad2)*%
X21801800Y32022200D03*
%TO.P,U1,43*%
%TO.N,Net-(J4-Pad3)*%
X21001800Y32022200D03*
%TO.P,U1,44*%
%TO.N,Net-(J4-Pad4)*%
X20201800Y32022200D03*
%TD*%
D16*
%TO.P,U2,2*%
%TO.N,+5V*%
X44069400Y12204700D03*
D17*
X37769400Y12204700D03*
%TO.P,U2,3*%
%TO.N,+12V*%
X37769400Y9904700D03*
%TO.P,U2,1*%
%TO.N,GND*%
X37769400Y14504700D03*
%TD*%
%TO.P,C1,1*%
%TO.N,Net-(C1-Pad1)*%
%TA.AperFunction,SMDPad,CuDef*%
G36*
G01*
X8025800Y18775700D02*
X8025800Y17825700D01*
G75*
G02*
X7775800Y17575700I-250000J0D01*
G01*
X7100800Y17575700D01*
G75*
G02*
X6850800Y17825700I0J250000D01*
G01*
X6850800Y18775700D01*
G75*
G02*
X7100800Y19025700I250000J0D01*
G01*
X7775800Y19025700D01*
G75*
G02*
X8025800Y18775700I0J-250000D01*
G01*
G37*
%TD.AperFunction*%
%TO.P,C1,2*%
%TO.N,GND*%
%TA.AperFunction,SMDPad,CuDef*%
G36*
G01*
X5950800Y18775700D02*
X5950800Y17825700D01*
G75*
G02*
X5700800Y17575700I-250000J0D01*
G01*
X5025800Y17575700D01*
G75*
G02*
X4775800Y17825700I0J250000D01*
G01*
X4775800Y18775700D01*
G75*
G02*
X5025800Y19025700I250000J0D01*
G01*
X5700800Y19025700D01*
G75*
G02*
X5950800Y18775700I0J-250000D01*
G01*
G37*
%TD.AperFunction*%
%TD*%
%TO.P,C2,1*%
%TO.N,Net-(C2-Pad1)*%
%TA.AperFunction,SMDPad,CuDef*%
G36*
G01*
X8038500Y20896600D02*
X8038500Y19946600D01*
G75*
G02*
X7788500Y19696600I-250000J0D01*
G01*
X7113500Y19696600D01*
G75*
G02*
X6863500Y19946600I0J250000D01*
G01*
X6863500Y20896600D01*
G75*
G02*
X7113500Y21146600I250000J0D01*
G01*
X7788500Y21146600D01*
G75*
G02*
X8038500Y20896600I0J-250000D01*
G01*
G37*
%TD.AperFunction*%
%TO.P,C2,2*%
%TO.N,GND*%
%TA.AperFunction,SMDPad,CuDef*%
G36*
G01*
X5963500Y20896600D02*
X5963500Y19946600D01*
G75*
G02*
X5713500Y19696600I-250000J0D01*
G01*
X5038500Y19696600D01*
G75*
G02*
X4788500Y19946600I0J250000D01*
G01*
X4788500Y20896600D01*
G75*
G02*
X5038500Y21146600I250000J0D01*
G01*
X5713500Y21146600D01*
G75*
G02*
X5963500Y20896600I0J-250000D01*
G01*
G37*
%TD.AperFunction*%
%TD*%
%TO.P,C3,1*%
%TO.N,+5V*%
%TA.AperFunction,SMDPad,CuDef*%
G36*
G01*
X21645900Y7607900D02*
X20695900Y7607900D01*
G75*
G02*
X20445900Y7857900I0J250000D01*
G01*
X20445900Y8532900D01*
G75*
G02*
X20695900Y8782900I250000J0D01*
G01*
X21645900Y8782900D01*
G75*
G02*
X21895900Y8532900I0J-250000D01*
G01*
X21895900Y7857900D01*
G75*
G02*
X21645900Y7607900I-250000J0D01*
G01*
G37*
%TD.AperFunction*%
%TO.P,C3,2*%
%TO.N,GND*%
%TA.AperFunction,SMDPad,CuDef*%
G36*
G01*
X21645900Y9682900D02*
X20695900Y9682900D01*
G75*
G02*
X20445900Y9932900I0J250000D01*
G01*
X20445900Y10607900D01*
G75*
G02*
X20695900Y10857900I250000J0D01*
G01*
X21645900Y10857900D01*
G75*
G02*
X21895900Y10607900I0J-250000D01*
G01*
X21895900Y9932900D01*
G75*
G02*
X21645900Y9682900I-250000J0D01*
G01*
G37*
%TD.AperFunction*%
%TD*%
%TO.P,C4,2*%
%TO.N,GND*%
%TA.AperFunction,SMDPad,CuDef*%
G36*
G01*
X33916600Y29670500D02*
X34866600Y29670500D01*
G75*
G02*
X35116600Y29420500I0J-250000D01*
G01*
X35116600Y28745500D01*
G75*
G02*
X34866600Y28495500I-250000J0D01*
G01*
X33916600Y28495500D01*
G75*
G02*
X33666600Y28745500I0J250000D01*
G01*
X33666600Y29420500D01*
G75*
G02*
X33916600Y29670500I250000J0D01*
G01*
G37*
%TD.AperFunction*%
%TO.P,C4,1*%
%TO.N,Net-(C4-Pad1)*%
%TA.AperFunction,SMDPad,CuDef*%
G36*
G01*
X33916600Y31745500D02*
X34866600Y31745500D01*
G75*
G02*
X35116600Y31495500I0J-250000D01*
G01*
X35116600Y30820500D01*
G75*
G02*
X34866600Y30570500I-250000J0D01*
G01*
X33916600Y30570500D01*
G75*
G02*
X33666600Y30820500I0J250000D01*
G01*
X33666600Y31495500D01*
G75*
G02*
X33916600Y31745500I250000J0D01*
G01*
G37*
%TD.AperFunction*%
%TD*%
%TO.P,C5,1*%
%TO.N,+12V*%
%TA.AperFunction,SMDPad,CuDef*%
G36*
G01*
X35536001Y6671600D02*
X32535999Y6671600D01*
G75*
G02*
X32286000Y6921599I0J249999D01*
G01*
X32286000Y9146601D01*
G75*
G02*
X32535999Y9396600I249999J0D01*
G01*
X35536001Y9396600D01*
G75*
G02*
X35786000Y9146601I0J-249999D01*
G01*
X35786000Y6921599D01*
G75*
G02*
X35536001Y6671600I-249999J0D01*
G01*
G37*
%TD.AperFunction*%
%TO.P,C5,2*%
%TO.N,GND*%
%TA.AperFunction,SMDPad,CuDef*%
G36*
G01*
X35536001Y12396600D02*
X32535999Y12396600D01*
G75*
G02*
X32286000Y12646599I0J249999D01*
G01*
X32286000Y14871601D01*
G75*
G02*
X32535999Y15121600I249999J0D01*
G01*
X35536001Y15121600D01*
G75*
G02*
X35786000Y14871601I0J-249999D01*
G01*
X35786000Y12646599D01*
G75*
G02*
X35536001Y12396600I-249999J0D01*
G01*
G37*
%TD.AperFunction*%
%TD*%
%TO.P,C6,2*%
%TO.N,GND*%
%TA.AperFunction,SMDPad,CuDef*%
G36*
G01*
X26557101Y8756700D02*
X23557099Y8756700D01*
G75*
G02*
X23307100Y9006699I0J249999D01*
G01*
X23307100Y11231701D01*
G75*
G02*
X23557099Y11481700I249999J0D01*
G01*
X26557101Y11481700D01*
G75*
G02*
X26807100Y11231701I0J-249999D01*
G01*
X26807100Y9006699D01*
G75*
G02*
X26557101Y8756700I-249999J0D01*
G01*
G37*
%TD.AperFunction*%
%TO.P,C6,1*%
%TO.N,+5V*%
%TA.AperFunction,SMDPad,CuDef*%
G36*
G01*
X26557101Y3031700D02*
X23557099Y3031700D01*
G75*
G02*
X23307100Y3281699I0J249999D01*
G01*
X23307100Y5506701D01*
G75*
G02*
X23557099Y5756700I249999J0D01*
G01*
X26557101Y5756700D01*
G75*
G02*
X26807100Y5506701I0J-249999D01*
G01*
X26807100Y3281699D01*
G75*
G02*
X26557101Y3031700I-249999J0D01*
G01*
G37*
%TD.AperFunction*%
%TD*%
D18*
%TO.P,J3,2*%
%TO.N,GND*%
X29324300Y10414000D03*
D19*
%TO.P,J3,1*%
%TO.N,+12V*%
X29324300Y7874000D03*
%TD*%
%TO.P,R1,1*%
%TO.N,+5V*%
%TA.AperFunction,SMDPad,CuDef*%
G36*
G01*
X5288701Y30899300D02*
X4388699Y30899300D01*
G75*
G02*
X4138700Y31149299I0J249999D01*
G01*
X4138700Y31849301D01*
G75*
G02*
X4388699Y32099300I249999J0D01*
G01*
X5288701Y32099300D01*
G75*
G02*
X5538700Y31849301I0J-249999D01*
G01*
X5538700Y31149299D01*
G75*
G02*
X5288701Y30899300I-249999J0D01*
G01*
G37*
%TD.AperFunction*%
%TO.P,R1,2*%
%TO.N,RESET*%
%TA.AperFunction,SMDPad,CuDef*%
G36*
G01*
X5288701Y32899300D02*
X4388699Y32899300D01*
G75*
G02*
X4138700Y33149299I0J249999D01*
G01*
X4138700Y33849301D01*
G75*
G02*
X4388699Y34099300I249999J0D01*
G01*
X5288701Y34099300D01*
G75*
G02*
X5538700Y33849301I0J-249999D01*
G01*
X5538700Y33149299D01*
G75*
G02*
X5288701Y32899300I-249999J0D01*
G01*
G37*
%TD.AperFunction*%
%TD*%
D20*
%TO.P,Y1,1*%
%TO.N,Net-(C2-Pad1)*%
X7023100Y24460200D03*
%TO.P,Y1,2*%
%TO.N,Net-(C1-Pad1)*%
X11923100Y24460200D03*
%TD*%
D13*
%TO.P,J4,4*%
%TO.N,Net-(J4-Pad4)*%
X16878300Y37269300D03*
%TO.P,J4,3*%
%TO.N,Net-(J4-Pad3)*%
X19418300Y37269300D03*
%TO.P,J4,2*%
%TO.N,Net-(J4-Pad2)*%
X21958300Y37269300D03*
D12*
%TO.P,J4,1*%
%TO.N,Net-(J4-Pad1)*%
X24498300Y37269300D03*
%TD*%
%TO.P,J5,1*%
%TO.N,Net-(J5-Pad1)*%
X10617200Y37299900D03*
D13*
%TO.P,J5,2*%
%TO.N,Net-(J5-Pad2)*%
X8077200Y37299900D03*
%TO.P,J5,3*%
%TO.N,Net-(J5-Pad3)*%
X5537200Y37299900D03*
%TD*%
D12*
%TO.P,J7,1*%
%TO.N,Net-(J7-Pad1)*%
X42494200Y24213700D03*
D13*
%TO.P,J7,2*%
%TO.N,Net-(J7-Pad2)*%
X42494200Y26753700D03*
%TO.P,J7,3*%
%TO.N,Net-(J7-Pad3)*%
X42494200Y29293700D03*
%TO.P,J7,4*%
%TO.N,Net-(J7-Pad4)*%
X42494200Y31833700D03*
%TD*%
%TO.P,J8,4*%
%TO.N,Net-(J8-Pad4)*%
X6159500Y5588000D03*
%TO.P,J8,3*%
%TO.N,Net-(J8-Pad3)*%
X6159500Y8128000D03*
%TO.P,J8,2*%
%TO.N,Net-(J8-Pad2)*%
X6159500Y10668000D03*
D12*
%TO.P,J8,1*%
%TO.N,Net-(J8-Pad1)*%
X6159500Y13208000D03*
%TD*%
%TO.P,J9,1*%
%TO.N,Net-(J9-Pad1)*%
X13639800Y13202800D03*
D13*
%TO.P,J9,2*%
%TO.N,Net-(J9-Pad2)*%
X13639800Y10662800D03*
%TO.P,J9,3*%
%TO.N,Net-(J9-Pad3)*%
X13639800Y8122800D03*
%TO.P,J9,4*%
%TO.N,Net-(J9-Pad4)*%
X13639800Y5582800D03*
%TD*%
D12*
%TO.P,J10,1*%
%TO.N,+5V*%
X42811700Y19316700D03*
D13*
%TO.P,J10,2*%
X40271700Y19316700D03*
%TO.P,J10,3*%
%TO.N,GND*%
X37731700Y19316700D03*
%TO.P,J10,4*%
X35191700Y19316700D03*
%TD*%
D12*
%TO.P,J1,1*%
%TO.N,RESET*%
X36537900Y3213100D03*
D13*
%TO.P,J1,2*%
%TO.N,GND*%
X39077900Y3213100D03*
%TO.P,J1,3*%
%TO.N,+5V*%
X41617900Y3213100D03*
%TD*%
D21*
%TO.N,Net-(C1-Pad1)*%
X12185100Y24722200D02*
X11923100Y24460200D01*
X18501800Y24722200D02*
X14676500Y24722200D01*
D22*
X14414500Y24460200D02*
X11923100Y24460200D01*
D21*
X14676500Y24722200D02*
X14414500Y24460200D01*
X11923100Y22083100D02*
X11923100Y24460200D01*
X7438300Y18300700D02*
X8140700Y18300700D01*
X8140700Y18300700D02*
X11923100Y22083100D01*
%TO.N,GND*%
X25001800Y26234000D02*
X25090000Y26322200D01*
X25001800Y20622200D02*
X25001800Y26234000D01*
X25090000Y26322200D02*
X29901800Y26322200D01*
X24201800Y30872200D02*
X24199200Y30869600D01*
X24201800Y32022200D02*
X24201800Y30872200D01*
X18501800Y26322200D02*
X24199200Y26322200D01*
X24199200Y30869600D02*
X24199200Y26322200D01*
X24199200Y26322200D02*
X25090000Y26322200D01*
X35701700Y14510200D02*
X35013900Y13822400D01*
D23*
X37731700Y19316700D02*
X35191700Y19316700D01*
D21*
X29901800Y26322200D02*
X29901800Y26333100D01*
X29901800Y26333100D02*
X29965899Y26397199D01*
X37617400Y31381700D02*
X37617400Y35864800D01*
X34391600Y29083000D02*
X35318700Y29083000D01*
X35318700Y29083000D02*
X37617400Y31381700D01*
X21170900Y11125200D02*
X21170900Y10270400D01*
X25001800Y20622200D02*
X25001800Y14956100D01*
X25001800Y14956100D02*
X21170900Y11125200D01*
X24905900Y10270400D02*
X25057100Y10119200D01*
X21170900Y10270400D02*
X24905900Y10270400D01*
X25351900Y10414000D02*
X25057100Y10119200D01*
X29324300Y10414000D02*
X25351900Y10414000D01*
D23*
X35701700Y14510200D02*
X37763900Y14510200D01*
X37763900Y14510200D02*
X37769400Y14504700D01*
D21*
X39895900Y1328300D02*
X39077900Y2146300D01*
X44533700Y1328300D02*
X39895900Y1328300D01*
X46024800Y2819400D02*
X44533700Y1328300D01*
X39077900Y2146300D02*
X39077900Y3213100D01*
X46024800Y36283900D02*
X46024800Y2819400D01*
X24201800Y32022200D02*
X24201800Y33904600D01*
X24201800Y33904600D02*
X25400000Y35102800D01*
X25400000Y35102800D02*
X26314400Y35102800D01*
X26314400Y35102800D02*
X30657800Y39446200D01*
X30657800Y39446200D02*
X42862500Y39446200D01*
X42862500Y39446200D02*
X46024800Y36283900D01*
X5363300Y18300700D02*
X5363300Y20408900D01*
X5376000Y20421600D02*
X5448300Y20493900D01*
X5376000Y22386200D02*
X5376000Y20421600D01*
X5041900Y27051000D02*
X5041900Y22720300D01*
X5041900Y22720300D02*
X5376000Y22386200D01*
D24*
X31623000Y13716000D02*
X34907500Y13716000D01*
X34907500Y13716000D02*
X35013900Y13822400D01*
X29324300Y10414000D02*
X29324300Y11417300D01*
X29324300Y11417300D02*
X31623000Y13716000D01*
D23*
X35191700Y17538700D02*
X35191700Y19316700D01*
X34036000Y13759100D02*
X34036000Y16383000D01*
X34036000Y16383000D02*
X35191700Y17538700D01*
X37769400Y19279000D02*
X37731700Y19316700D01*
X37769400Y14504700D02*
X37769400Y19279000D01*
D21*
X5041900Y28939400D02*
X5058500Y28956000D01*
X5041900Y27051000D02*
X5041900Y28939400D01*
X5054600Y27533600D02*
X5041900Y27520900D01*
X13462000Y27533600D02*
X5054600Y27533600D01*
X18501800Y26322200D02*
X14673400Y26322200D01*
X14673400Y26322200D02*
X13462000Y27533600D01*
X30461199Y26397199D02*
X32874199Y26397199D01*
X29901800Y26322200D02*
X30386200Y26322200D01*
X30386200Y26322200D02*
X30461199Y26397199D01*
X34391600Y27914600D02*
X34391600Y29083000D01*
X32874199Y26397199D02*
X34391600Y27914600D01*
%TO.N,Net-(C2-Pad1)*%
X7666900Y20535900D02*
X7666900Y21924100D01*
X7023100Y22567900D02*
X7023100Y24460200D01*
X7666900Y21924100D02*
X7023100Y22567900D01*
X7772400Y26390600D02*
X7023100Y25641300D01*
X7023100Y25641300D02*
X7023100Y24460200D01*
X13169900Y26390600D02*
X7772400Y26390600D01*
X18501800Y25522200D02*
X14038300Y25522200D01*
X14038300Y25522200D02*
X13169900Y26390600D01*
D23*
%TO.N,+5V*%
X40278600Y19323600D02*
X40271700Y19316700D01*
X42811700Y19316700D02*
X42804800Y19323600D01*
X42804800Y19323600D02*
X40278600Y19323600D01*
D21*
X24201800Y20622200D02*
X24201800Y15984900D01*
X24201800Y15984900D02*
X19375000Y11158100D01*
X19378600Y8195400D02*
X19375000Y8199000D01*
X21170900Y8195400D02*
X19378600Y8195400D01*
X19375000Y11158100D02*
X19375000Y8199000D01*
X19375000Y8199000D02*
X19375000Y2585600D01*
X44069400Y12204700D02*
X44691300Y12826600D01*
X44691300Y12826600D02*
X44691300Y33323500D01*
X44691300Y35534600D02*
X42049700Y38176200D01*
X42049700Y38176200D02*
X31153100Y38176200D01*
X25839300Y34030800D02*
X25001800Y33193300D01*
X44691300Y33323500D02*
X44691300Y35534600D01*
X31153100Y38176200D02*
X27007700Y34030800D01*
X25001800Y33193300D02*
X25001800Y32022200D01*
X27007700Y34030800D02*
X25839300Y34030800D01*
X40709200Y33749600D02*
X44660200Y33749600D01*
X29901800Y25522200D02*
X33612100Y25522200D01*
X40233600Y32156400D02*
X40233600Y33274000D01*
X38920300Y30830400D02*
X38920300Y30843100D01*
X44660200Y33749600D02*
X44691300Y33718500D01*
X40233600Y33274000D02*
X40709200Y33749600D01*
X33612100Y25522200D02*
X38920300Y30830400D01*
X38920300Y30843100D02*
X40233600Y32156400D01*
D23*
X41617900Y5360500D02*
X41617900Y3213100D01*
X41763400Y5506000D02*
X41617900Y5360500D01*
X44056300Y12191600D02*
X44069400Y12204700D01*
X41763400Y5506000D02*
X41845900Y5506000D01*
X44056300Y7716400D02*
X44056300Y12191600D01*
X41845900Y5506000D02*
X44056300Y7716400D01*
X25057100Y4394200D02*
X28575000Y4394200D01*
X29686800Y5506000D02*
X41845900Y5506000D01*
X28575000Y4394200D02*
X29686800Y5506000D01*
D21*
X15321200Y27122200D02*
X18501800Y27122200D01*
X12001500Y30441900D02*
X15321200Y27122200D01*
X6985000Y30441900D02*
X12001500Y30441900D01*
X4838700Y31499300D02*
X5927600Y31499300D01*
X5927600Y31499300D02*
X6985000Y30441900D01*
D25*
X42811700Y16649700D02*
X42811700Y19316700D01*
X41529000Y15367000D02*
X42811700Y16649700D01*
X40271700Y19316700D02*
X40271700Y16624300D01*
X40271700Y16624300D02*
X41529000Y15367000D01*
D21*
X41529000Y12711000D02*
X41500000Y12682000D01*
D25*
X41529000Y12192000D02*
X41471000Y12134000D01*
X41529000Y15367000D02*
X41529000Y12192000D01*
X43998700Y12134000D02*
X44069400Y12204700D01*
X37769400Y12204700D02*
X37840100Y12134000D01*
X37840100Y12134000D02*
X43998700Y12134000D01*
D21*
X4067300Y31499300D02*
X4838700Y31499300D01*
X22517100Y4394200D02*
X20708500Y2585600D01*
X20708500Y2585600D02*
X5999600Y2585600D01*
X3708400Y4876800D02*
X3708400Y31140400D01*
X5999600Y2585600D02*
X3708400Y4876800D01*
X25057100Y4394200D02*
X22517100Y4394200D01*
X3708400Y31140400D02*
X4067300Y31499300D01*
X7133500Y30293400D02*
X6985000Y30441900D01*
X7133500Y28956000D02*
X7133500Y30293400D01*
%TO.N,Net-(C4-Pad1)*%
X31051800Y27122200D02*
X32689800Y28760200D01*
X29901800Y27122200D02*
X31051800Y27122200D01*
X32689800Y28760200D02*
X32689800Y30594300D01*
X33253500Y31158000D02*
X34391600Y31158000D01*
X32689800Y30594300D02*
X33253500Y31158000D01*
%TO.N,+12V*%
X30708600Y8097400D02*
X30657800Y8046600D01*
X34963100Y8046600D02*
X35013900Y8097400D01*
D25*
X29496900Y8046600D02*
X34963100Y8046600D01*
X29324300Y7874000D02*
X29496900Y8046600D01*
D23*
X37769400Y8686400D02*
X37769400Y9904700D01*
X35013900Y8097400D02*
X37180400Y8097400D01*
X37180400Y8097400D02*
X37769400Y8686400D01*
D21*
%TO.N,Net-(J2-Pad1)*%
X31140400Y35864800D02*
X32537400Y35864800D01*
X29901800Y30322200D02*
X29901800Y34626200D01*
X29901800Y34626200D02*
X31140400Y35864800D01*
%TO.N,Net-(J4-Pad2)*%
X21801800Y37172200D02*
X21951800Y37322200D01*
X21801800Y32022200D02*
X21801800Y37172200D01*
%TO.N,Net-(J4-Pad3)*%
X19418300Y35407600D02*
X19418300Y37269300D01*
X21001800Y32022200D02*
X21001800Y33824100D01*
X21001800Y33824100D02*
X19418300Y35407600D01*
%TO.N,Net-(J4-Pad4)*%
X17307500Y34947800D02*
X16878300Y35377000D01*
X18348900Y34947800D02*
X17307500Y34947800D01*
X20201800Y32022200D02*
X20201800Y33094900D01*
X16878300Y35377000D02*
X16878300Y37269300D01*
X20201800Y33094900D02*
X18348900Y34947800D01*
%TO.N,Net-(J5-Pad3)*%
X5537200Y37299900D02*
X5514900Y37322200D01*
X8102600Y32867600D02*
X5537200Y35433000D01*
X12548400Y32867600D02*
X8102600Y32867600D01*
X5537200Y35433000D02*
X5537200Y37299900D01*
X18501800Y28722200D02*
X16693800Y28722200D01*
X16693800Y28722200D02*
X12548400Y32867600D01*
%TO.N,Net-(J5-Pad2)*%
X8077200Y35483800D02*
X8077200Y37299900D01*
X12992900Y33921700D02*
X9639300Y33921700D01*
X18501800Y29522200D02*
X17392400Y29522200D01*
X9639300Y33921700D02*
X8077200Y35483800D01*
X17392400Y29522200D02*
X12992900Y33921700D01*
%TO.N,Net-(J6-Pad1)*%
X27012900Y17322800D02*
X27012900Y15316200D01*
X25801800Y20622200D02*
X25801800Y18533900D01*
X25801800Y18533900D02*
X27012900Y17322800D01*
%TO.N,Net-(J6-Pad2)*%
X27609800Y18181200D02*
X26601800Y19189200D01*
X28694500Y18181200D02*
X27609800Y18181200D01*
X29552900Y15316200D02*
X29552900Y17322800D01*
X26601800Y19189200D02*
X26601800Y20622200D01*
X29552900Y17322800D02*
X28694500Y18181200D01*
%TO.N,Net-(J7-Pad1)*%
X39974400Y24213700D02*
X42494200Y24213700D01*
X29901800Y22322200D02*
X38082900Y22322200D01*
X38082900Y22322200D02*
X39974400Y24213700D01*
%TO.N,Net-(J7-Pad3)*%
X41130100Y29293700D02*
X42494200Y29293700D01*
X29901800Y23922200D02*
X35758600Y23922200D01*
X35758600Y23922200D02*
X41130100Y29293700D01*
%TO.N,Net-(J7-Pad4)*%
X41841300Y31833700D02*
X42494200Y31833700D01*
X29901800Y24722200D02*
X34729800Y24722200D01*
X34729800Y24722200D02*
X41841300Y31833700D01*
%TO.N,RESET*%
X7594600Y31724600D02*
X5819900Y33499300D01*
X12243600Y31724600D02*
X7594600Y31724600D01*
X5819900Y33499300D02*
X4838700Y33499300D01*
X18501800Y27922200D02*
X16046000Y27922200D01*
X16046000Y27922200D02*
X12243600Y31724600D01*
X29629100Y3124200D02*
X36449000Y3124200D01*
X3527300Y33499300D02*
X2374900Y32346900D01*
X4838700Y33499300D02*
X3527300Y33499300D01*
X2374900Y32346900D02*
X2374900Y4191000D01*
X2374900Y4191000D02*
X5250300Y1315600D01*
X5250300Y1315600D02*
X27820500Y1315600D01*
X27820500Y1315600D02*
X29629100Y3124200D01*
%TO.N,Net-(J2-Pad2)*%
X31058900Y29522200D02*
X31762700Y30226000D01*
X29901800Y29522200D02*
X31058900Y29522200D01*
X31762700Y30226000D02*
X31762700Y31788100D01*
X31762700Y31788100D02*
X33223200Y33248600D01*
X35077400Y33896300D02*
X35077400Y35864800D01*
X33223200Y33248600D02*
X34429700Y33248600D01*
X34429700Y33248600D02*
X35077400Y33896300D01*
%TO.N,Net-(J4-Pad1)*%
X24491800Y35757000D02*
X24491800Y37322200D01*
X22601800Y32022200D02*
X22601800Y33867000D01*
X22601800Y33867000D02*
X24491800Y35757000D01*
%TO.N,Net-(J5-Pad1)*%
X10617200Y35572700D02*
X10617200Y37299900D01*
X14770900Y35013900D02*
X11176000Y35013900D01*
X11176000Y35013900D02*
X10617200Y35572700D01*
X18501800Y30322200D02*
X18501800Y31283000D01*
X18501800Y31283000D02*
X14770900Y35013900D01*
%TO.N,Net-(J7-Pad2)*%
X40444300Y26753700D02*
X42494200Y26753700D01*
X29901800Y23122200D02*
X36812800Y23122200D01*
X36812800Y23122200D02*
X40444300Y26753700D01*
%TO.N,Net-(J8-Pad4)*%
X7569200Y5588000D02*
X6159500Y5588000D01*
X11480800Y9499600D02*
X7569200Y5588000D01*
X20201800Y20622200D02*
X17548800Y20622200D01*
X11480800Y14554200D02*
X11480800Y9499600D01*
X17548800Y20622200D02*
X11480800Y14554200D01*
%TO.N,Net-(J8-Pad3)*%
X7569200Y8128000D02*
X6159500Y8128000D01*
X10261600Y10820400D02*
X7569200Y8128000D01*
X10261600Y15074900D02*
X10261600Y10820400D01*
X18501800Y22322200D02*
X17508900Y22322200D01*
X17508900Y22322200D02*
X10261600Y15074900D01*
%TO.N,Net-(J8-Pad2)*%
X9067800Y15646400D02*
X9067800Y12166600D01*
X7569200Y10668000D02*
X6159500Y10668000D01*
X9067800Y12166600D02*
X7569200Y10668000D01*
X18501800Y23122200D02*
X16543600Y23122200D01*
X16543600Y23122200D02*
X9067800Y15646400D01*
%TO.N,Net-(J8-Pad1)*%
X15692600Y23922200D02*
X18501800Y23922200D01*
X7924800Y16154400D02*
X15692600Y23922200D01*
X7924800Y13525500D02*
X7924800Y16154400D01*
X6159500Y13208000D02*
X7607300Y13208000D01*
X7607300Y13208000D02*
X7924800Y13525500D01*
%TO.N,Net-(J9-Pad1)*%
X15361800Y16288900D02*
X13639800Y14566900D01*
X17818500Y16288900D02*
X15361800Y16288900D01*
X13639800Y14566900D02*
X13639800Y13202800D01*
X21001800Y20622200D02*
X21001800Y19472200D01*
X21001800Y19472200D02*
X17818500Y16288900D01*
%TO.N,Net-(J9-Pad2)*%
X21801800Y20622200D02*
X21790600Y20622200D01*
X21790600Y20622200D02*
X21726801Y20558401D01*
X15798800Y11430000D02*
X15031600Y10662800D01*
X15031600Y10662800D02*
X13639800Y10662800D01*
X15798800Y12585700D02*
X15798800Y11430000D01*
X21801800Y20622200D02*
X21801800Y18588700D01*
X21801800Y18588700D02*
X15798800Y12585700D01*
%TO.N,Net-(J9-Pad3)*%
X15018900Y8122800D02*
X13639800Y8122800D01*
X16903700Y12115800D02*
X16903700Y10007600D01*
X22601800Y20622200D02*
X22601800Y17813900D01*
X16903700Y10007600D02*
X15018900Y8122800D01*
X22601800Y17813900D02*
X16903700Y12115800D01*
%TO.N,Net-(J9-Pad4)*%
X14930000Y5582800D02*
X13639800Y5582800D01*
X18110200Y8763000D02*
X14930000Y5582800D01*
X18110200Y11582400D02*
X18110200Y8763000D01*
X23401800Y20622200D02*
X23401800Y16874000D01*
X23401800Y16874000D02*
X18110200Y11582400D01*
%TO.N,Net-(U1-Pad37)*%
X25801800Y32022200D02*
X25862400Y32022200D01*
X25862400Y32022200D02*
X25801800Y32082800D01*
%TD*%
D26*
%TO.N,GND*%
X26871989Y29677824D02*
X27035650Y29628178D01*
X27186472Y29547562D01*
X27318670Y29439070D01*
X27427162Y29306872D01*
X27507778Y29156050D01*
X27557424Y28992389D01*
X27574800Y28815966D01*
X27574800Y23828434D01*
X27557424Y23652011D01*
X27507778Y23488350D01*
X27427162Y23337528D01*
X27318670Y23205330D01*
X27186472Y23096838D01*
X27035650Y23016222D01*
X26871989Y22966576D01*
X26695566Y22949200D01*
X21708034Y22949200D01*
X21531611Y22966576D01*
X21367950Y23016222D01*
X21217128Y23096838D01*
X21084930Y23205330D01*
X20976438Y23337528D01*
X20895822Y23488350D01*
X20846176Y23652011D01*
X20828800Y23828434D01*
X20828800Y28815966D01*
X20846176Y28992389D01*
X20895822Y29156050D01*
X20976438Y29306872D01*
X21084930Y29439070D01*
X21217128Y29547562D01*
X21367950Y29628178D01*
X21531611Y29677824D01*
X21708034Y29695200D01*
X26695566Y29695200D01*
X26871989Y29677824D01*
%TA.AperFunction,Conductor*%
D27*
G36*
X26871989Y29677824D02*
G01*
X27035650Y29628178D01*
X27186472Y29547562D01*
X27318670Y29439070D01*
X27427162Y29306872D01*
X27507778Y29156050D01*
X27557424Y28992389D01*
X27574800Y28815966D01*
X27574800Y23828434D01*
X27557424Y23652011D01*
X27507778Y23488350D01*
X27427162Y23337528D01*
X27318670Y23205330D01*
X27186472Y23096838D01*
X27035650Y23016222D01*
X26871989Y22966576D01*
X26695566Y22949200D01*
X21708034Y22949200D01*
X21531611Y22966576D01*
X21367950Y23016222D01*
X21217128Y23096838D01*
X21084930Y23205330D01*
X20976438Y23337528D01*
X20895822Y23488350D01*
X20846176Y23652011D01*
X20828800Y23828434D01*
X20828800Y28815966D01*
X20846176Y28992389D01*
X20895822Y29156050D01*
X20976438Y29306872D01*
X21084930Y29439070D01*
X21217128Y29547562D01*
X21367950Y29628178D01*
X21531611Y29677824D01*
X21708034Y29695200D01*
X26695566Y29695200D01*
X26871989Y29677824D01*
G37*
%TD.AperFunction*%
%TD*%
D26*
%TO.N,+5V*%
X42208900Y9735200D02*
X39712900Y9735200D01*
X39712900Y14481200D01*
X42208900Y14481200D01*
X42208900Y9735200D01*
%TA.AperFunction,Conductor*%
D27*
G36*
X42208900Y9735200D02*
G01*
X39712900Y9735200D01*
X39712900Y14481200D01*
X42208900Y14481200D01*
X42208900Y9735200D01*
G37*
%TD.AperFunction*%
%TD*%
M02*
